%TF.GenerationSoftware,KiCad,Pcbnew,7.0.1-3b83917a11~171~ubuntu22.04.1*%
%TF.CreationDate,2023-04-15T23:20:16+01:00*%
%TF.ProjectId,spe_dongle,7370655f-646f-46e6-976c-652e6b696361,1.0*%
%TF.SameCoordinates,Original*%
%TF.FileFunction,Drillmap*%
%TF.FilePolarity,Positive*%
%FSLAX45Y45*%
G04 Gerber Fmt 4.5, Leading zero omitted, Abs format (unit mm)*
G04 Created by KiCad (PCBNEW 7.0.1-3b83917a11~171~ubuntu22.04.1) date 2023-04-15 23:20:16*
%MOMM*%
%LPD*%
G01*
G04 APERTURE LIST*
%ADD10C,0.100000*%
%ADD11C,0.200000*%
G04 APERTURE END LIST*
D10*
X13750000Y-5000000D02*
X16250000Y-5000000D01*
X16250000Y-12500000D01*
X13750000Y-12500000D01*
X13750000Y-5000000D01*
D11*
X13992619Y-12817524D02*
X13992619Y-12617524D01*
X13992619Y-12617524D02*
X14040238Y-12617524D01*
X14040238Y-12617524D02*
X14068809Y-12627048D01*
X14068809Y-12627048D02*
X14087857Y-12646095D01*
X14087857Y-12646095D02*
X14097381Y-12665143D01*
X14097381Y-12665143D02*
X14106905Y-12703238D01*
X14106905Y-12703238D02*
X14106905Y-12731809D01*
X14106905Y-12731809D02*
X14097381Y-12769905D01*
X14097381Y-12769905D02*
X14087857Y-12788952D01*
X14087857Y-12788952D02*
X14068809Y-12808000D01*
X14068809Y-12808000D02*
X14040238Y-12817524D01*
X14040238Y-12817524D02*
X13992619Y-12817524D01*
X14192619Y-12817524D02*
X14192619Y-12684190D01*
X14192619Y-12722286D02*
X14202143Y-12703238D01*
X14202143Y-12703238D02*
X14211667Y-12693714D01*
X14211667Y-12693714D02*
X14230714Y-12684190D01*
X14230714Y-12684190D02*
X14249762Y-12684190D01*
X14316428Y-12817524D02*
X14316428Y-12684190D01*
X14316428Y-12617524D02*
X14306905Y-12627048D01*
X14306905Y-12627048D02*
X14316428Y-12636571D01*
X14316428Y-12636571D02*
X14325952Y-12627048D01*
X14325952Y-12627048D02*
X14316428Y-12617524D01*
X14316428Y-12617524D02*
X14316428Y-12636571D01*
X14440238Y-12817524D02*
X14421190Y-12808000D01*
X14421190Y-12808000D02*
X14411667Y-12788952D01*
X14411667Y-12788952D02*
X14411667Y-12617524D01*
X14545000Y-12817524D02*
X14525952Y-12808000D01*
X14525952Y-12808000D02*
X14516428Y-12788952D01*
X14516428Y-12788952D02*
X14516428Y-12617524D01*
X14773571Y-12817524D02*
X14773571Y-12617524D01*
X14773571Y-12617524D02*
X14840238Y-12760381D01*
X14840238Y-12760381D02*
X14906905Y-12617524D01*
X14906905Y-12617524D02*
X14906905Y-12817524D01*
X15087857Y-12817524D02*
X15087857Y-12712762D01*
X15087857Y-12712762D02*
X15078333Y-12693714D01*
X15078333Y-12693714D02*
X15059286Y-12684190D01*
X15059286Y-12684190D02*
X15021190Y-12684190D01*
X15021190Y-12684190D02*
X15002143Y-12693714D01*
X15087857Y-12808000D02*
X15068809Y-12817524D01*
X15068809Y-12817524D02*
X15021190Y-12817524D01*
X15021190Y-12817524D02*
X15002143Y-12808000D01*
X15002143Y-12808000D02*
X14992619Y-12788952D01*
X14992619Y-12788952D02*
X14992619Y-12769905D01*
X14992619Y-12769905D02*
X15002143Y-12750857D01*
X15002143Y-12750857D02*
X15021190Y-12741333D01*
X15021190Y-12741333D02*
X15068809Y-12741333D01*
X15068809Y-12741333D02*
X15087857Y-12731809D01*
X15183095Y-12684190D02*
X15183095Y-12884190D01*
X15183095Y-12693714D02*
X15202143Y-12684190D01*
X15202143Y-12684190D02*
X15240238Y-12684190D01*
X15240238Y-12684190D02*
X15259286Y-12693714D01*
X15259286Y-12693714D02*
X15268809Y-12703238D01*
X15268809Y-12703238D02*
X15278333Y-12722286D01*
X15278333Y-12722286D02*
X15278333Y-12779428D01*
X15278333Y-12779428D02*
X15268809Y-12798476D01*
X15268809Y-12798476D02*
X15259286Y-12808000D01*
X15259286Y-12808000D02*
X15240238Y-12817524D01*
X15240238Y-12817524D02*
X15202143Y-12817524D01*
X15202143Y-12817524D02*
X15183095Y-12808000D01*
X15364048Y-12798476D02*
X15373571Y-12808000D01*
X15373571Y-12808000D02*
X15364048Y-12817524D01*
X15364048Y-12817524D02*
X15354524Y-12808000D01*
X15354524Y-12808000D02*
X15364048Y-12798476D01*
X15364048Y-12798476D02*
X15364048Y-12817524D01*
X15364048Y-12693714D02*
X15373571Y-12703238D01*
X15373571Y-12703238D02*
X15364048Y-12712762D01*
X15364048Y-12712762D02*
X15354524Y-12703238D01*
X15354524Y-12703238D02*
X15364048Y-12693714D01*
X15364048Y-12693714D02*
X15364048Y-12712762D01*
M02*
