M48
; DRILL file {KiCad 7.0.1-3b83917a11~171~ubuntu22.04.1} date Sat 15 Apr 2023 23:20:17 BST
; FORMAT={-:-/ absolute / metric / decimal}
; #@! TF.CreationDate,2023-04-15T23:20:17+01:00
; #@! TF.GenerationSoftware,Kicad,Pcbnew,7.0.1-3b83917a11~171~ubuntu22.04.1
; #@! TF.FileFunction,Plated,1,4,PTH
FMAT,2
METRIC
; #@! TA.AperFunction,Plated,PTH,ComponentDrill
T1C0.200
; #@! TA.AperFunction,Plated,PTH,ViaDrill
T2C0.300
; #@! TA.AperFunction,Plated,PTH,ComponentDrill
T3C0.400
; #@! TA.AperFunction,Plated,PTH,ComponentDrill
T4C0.600
; #@! TA.AperFunction,Plated,PTH,ComponentDrill
T5C1.000
; #@! TA.AperFunction,Plated,PTH,ComponentDrill
T6C1.200
%
G90
G05
T1
X149.392Y-101.0
X149.392Y-102.0
X149.392Y-103.0
X150.392Y-101.0
X150.392Y-102.0
X150.392Y-103.0
X151.392Y-101.0
X151.392Y-102.0
X151.392Y-103.0
T2
X139.25Y-66.5
X139.25Y-71.25
X140.5Y-75.0
X140.75Y-90.25
X141.0Y-67.5
X141.0Y-108.0
X141.0Y-124.0
X141.093Y-96.6
X141.5Y-77.0
X142.0Y-113.5
X142.0Y-115.5
X142.159Y-82.266
X142.175Y-83.0
X142.675Y-71.25
X142.675Y-72.0
X142.713Y-89.212
X142.75Y-60.75
X142.925Y-74.75
X142.925Y-84.25
X142.993Y-80.75
X143.0Y-72.75
X143.192Y-103.45
X143.25Y-90.5
X143.371Y-79.729
X143.425Y-81.25
X143.588Y-88.587
X143.596Y-89.346
X143.642Y-50.75
X143.675Y-77.0
X143.75Y-54.25
X143.75Y-60.75
X144.0Y-86.0
X144.0Y-97.0
X144.0Y-100.75
X144.0Y-101.6
X144.0Y-102.5
X144.0Y-107.0
X144.0Y-108.5
X144.0Y-110.0
X144.0Y-111.5
X144.0Y-123.5
X144.213Y-88.462
X144.243Y-103.45
X144.5Y-57.75
X144.5Y-67.5
X144.5Y-76.0
X145.75Y-88.75
X145.942Y-83.5
X145.993Y-82.5
X146.0Y-107.0
X146.0Y-108.5
X146.0Y-110.0
X146.0Y-111.5
X146.175Y-74.25
X146.175Y-86.5
X146.25Y-105.0
X146.5Y-68.25
X146.5Y-97.0
X146.743Y-88.0
X147.0Y-89.5
X147.175Y-74.25
X147.25Y-62.25
X147.25Y-105.25
X147.446Y-93.946
X147.58Y-104.0
X147.593Y-88.0
X147.75Y-100.0
X148.0Y-108.5
X148.0Y-110.0
X148.0Y-111.5
X148.175Y-88.4
X148.25Y-93.25
X148.25Y-94.0
X148.425Y-76.75
X148.5Y-91.0
X148.58Y-114.5
X148.675Y-88.8
X148.892Y-77.25
X149.0Y-107.5
X149.175Y-89.25
X149.392Y-77.75
X149.5Y-66.0
X149.5Y-91.5
X149.534Y-64.216
X149.892Y-78.3
X150.0Y-57.75
X150.0Y-62.25
X150.0Y-106.5
X150.0Y-115.5
X150.0Y-118.0
X150.142Y-95.0
X150.33Y-105.5
X150.392Y-78.8
X150.48Y-65.162
X150.642Y-95.5
X150.892Y-79.3
X151.0Y-67.5
X151.142Y-96.0
X151.175Y-90.0
X151.25Y-91.5
X151.33Y-114.5
X151.392Y-79.8
X151.5Y-94.5
X151.675Y-89.45
X151.892Y-80.3
X152.0Y-65.0
X152.0Y-108.5
X152.0Y-110.0
X152.0Y-111.5
X152.042Y-95.95
X152.175Y-73.0
X152.175Y-88.85
X152.5Y-59.5
X152.5Y-61.0
X152.5Y-62.5
X152.5Y-64.0
X152.5Y-69.0
X152.5Y-105.5
X152.5Y-107.5
X152.675Y-88.3
X152.925Y-83.75
X153.0Y-93.0
X153.0Y-98.0
X153.25Y-100.5
X153.25Y-103.5
X153.425Y-83.25
X153.5Y-66.5
X153.925Y-82.75
X153.925Y-88.0
X154.0Y-70.5
X154.0Y-110.0
X154.0Y-111.5
X154.425Y-80.5
X154.425Y-82.25
X154.675Y-88.0
X154.925Y-81.75
X155.0Y-63.25
X155.5Y-57.75
X155.5Y-61.0
X155.5Y-64.5
X155.5Y-66.0
X155.5Y-68.5
X155.5Y-72.0
X155.5Y-123.5
X155.675Y-75.25
X155.75Y-100.0
X156.0Y-63.25
X156.425Y-76.75
X156.5Y-54.5
X156.5Y-86.0
X156.5Y-88.0
X156.5Y-104.5
X156.5Y-106.0
X156.5Y-108.5
X156.642Y-50.75
X156.75Y-56.0
X156.75Y-58.0
X157.0Y-70.0
X157.0Y-73.5
X157.175Y-77.75
X157.175Y-80.25
X157.425Y-81.25
X157.5Y-59.25
X157.675Y-77.0
X158.0Y-74.5
X158.0Y-104.5
X158.0Y-106.0
X158.0Y-108.5
X158.0Y-111.0
X158.5Y-59.0
X158.5Y-71.5
X158.5Y-124.0
X159.325Y-59.25
X159.5Y-79.5
X159.5Y-84.0
X159.5Y-85.5
X159.5Y-88.0
X160.0Y-77.5
X160.5Y-52.5
X161.0Y-56.5
X161.0Y-58.0
X161.0Y-61.0
T3
X147.025Y-54.675
X147.025Y-56.025
X147.875Y-54.675
X147.875Y-56.025
X148.725Y-54.675
X148.725Y-56.025
X149.575Y-54.675
X149.575Y-56.025
X150.425Y-54.675
X150.425Y-56.025
X151.275Y-54.675
X151.275Y-56.025
X152.125Y-54.675
X152.125Y-56.025
X152.975Y-54.675
X152.975Y-56.025
T5
X138.925Y-74.0
X138.925Y-76.54
X138.925Y-79.08
X138.925Y-81.62
X138.925Y-84.16
X138.925Y-86.7
X138.925Y-89.24
X138.925Y-91.78
X138.925Y-94.32
X138.925Y-96.86
X138.925Y-99.4
X138.925Y-101.94
X138.925Y-104.48
X138.925Y-107.02
X138.925Y-109.56
X138.925Y-112.1
X138.925Y-114.64
X138.925Y-117.18
X138.925Y-119.72
X138.925Y-122.26
X140.0Y-52.45
X140.0Y-54.99
X140.0Y-57.53
X140.0Y-60.07
X143.58Y-118.21
X143.58Y-120.75
X156.33Y-118.21
X156.33Y-120.75
X161.175Y-74.0
X161.175Y-76.54
X161.175Y-79.08
X161.175Y-81.62
X161.175Y-84.16
X161.175Y-86.7
X161.175Y-89.24
X161.175Y-91.78
X161.175Y-94.32
X161.175Y-96.86
X161.175Y-99.4
X161.175Y-101.94
X161.175Y-104.48
X161.175Y-107.02
X161.175Y-109.56
X161.175Y-112.1
X161.175Y-114.64
X161.175Y-117.18
X161.175Y-119.72
X161.175Y-122.26
T6
X148.25Y-120.25
X151.75Y-120.25
T4
X145.675Y-52.065G85X145.675Y-51.265
G05
X145.675Y-55.795G85X145.675Y-54.295
G05
X154.325Y-52.065G85X154.325Y-51.265
G05
X154.325Y-55.795G85X154.325Y-54.295
G05
T0
M30
