%TF.GenerationSoftware,KiCad,Pcbnew,7.0.1-3b83917a11~171~ubuntu22.04.1*%
%TF.CreationDate,2023-04-15T23:20:16+01:00*%
%TF.ProjectId,spe_dongle,7370655f-646f-46e6-976c-652e6b696361,1.0*%
%TF.SameCoordinates,Original*%
%TF.FileFunction,Drillmap*%
%TF.FilePolarity,Positive*%
%FSLAX45Y45*%
G04 Gerber Fmt 4.5, Leading zero omitted, Abs format (unit mm)*
G04 Created by KiCad (PCBNEW 7.0.1-3b83917a11~171~ubuntu22.04.1) date 2023-04-15 23:20:16*
%MOMM*%
%LPD*%
G01*
G04 APERTURE LIST*
%ADD10C,0.100000*%
%ADD11C,0.200000*%
%ADD12C,0.020000*%
%ADD13C,0.030000*%
%ADD14C,0.040000*%
%ADD15C,0.060000*%
%ADD16C,0.120000*%
G04 APERTURE END LIST*
D10*
X13750000Y-5000000D02*
X16250000Y-5000000D01*
X16250000Y-12500000D01*
X13750000Y-12500000D01*
X13750000Y-5000000D01*
D11*
D12*
X14929250Y-10090000D02*
X14949250Y-10110000D01*
X14949250Y-10090000D02*
X14929250Y-10110000D01*
X14929250Y-10190000D02*
X14949250Y-10210000D01*
X14949250Y-10190000D02*
X14929250Y-10210000D01*
X14929250Y-10290000D02*
X14949250Y-10310000D01*
X14949250Y-10290000D02*
X14929250Y-10310000D01*
X15029250Y-10090000D02*
X15049250Y-10110000D01*
X15049250Y-10090000D02*
X15029250Y-10110000D01*
X15029250Y-10190000D02*
X15049250Y-10210000D01*
X15049250Y-10190000D02*
X15029250Y-10210000D01*
X15029250Y-10290000D02*
X15049250Y-10310000D01*
X15049250Y-10290000D02*
X15029250Y-10310000D01*
X15129250Y-10090000D02*
X15149250Y-10110000D01*
X15149250Y-10090000D02*
X15129250Y-10110000D01*
X15129250Y-10190000D02*
X15149250Y-10210000D01*
X15149250Y-10190000D02*
X15129250Y-10210000D01*
X15129250Y-10290000D02*
X15149250Y-10310000D01*
X15149250Y-10290000D02*
X15129250Y-10310000D01*
D13*
X13940000Y-6650000D02*
G75*
G03*
X13940000Y-6650000I-15000J0D01*
G01*
X13940000Y-7125000D02*
G75*
G03*
X13940000Y-7125000I-15000J0D01*
G01*
X14065000Y-7500000D02*
G75*
G03*
X14065000Y-7500000I-15000J0D01*
G01*
X14090000Y-9025000D02*
G75*
G03*
X14090000Y-9025000I-15000J0D01*
G01*
X14115000Y-6750000D02*
G75*
G03*
X14115000Y-6750000I-15000J0D01*
G01*
X14115000Y-10800000D02*
G75*
G03*
X14115000Y-10800000I-15000J0D01*
G01*
X14115000Y-12400000D02*
G75*
G03*
X14115000Y-12400000I-15000J0D01*
G01*
X14124250Y-9660000D02*
G75*
G03*
X14124250Y-9660000I-15000J0D01*
G01*
X14165000Y-7700000D02*
G75*
G03*
X14165000Y-7700000I-15000J0D01*
G01*
X14215000Y-11350000D02*
G75*
G03*
X14215000Y-11350000I-15000J0D01*
G01*
X14215000Y-11550000D02*
G75*
G03*
X14215000Y-11550000I-15000J0D01*
G01*
X14230875Y-8226625D02*
G75*
G03*
X14230875Y-8226625I-15000J0D01*
G01*
X14232500Y-8300000D02*
G75*
G03*
X14232500Y-8300000I-15000J0D01*
G01*
X14282500Y-7125000D02*
G75*
G03*
X14282500Y-7125000I-15000J0D01*
G01*
X14282500Y-7200000D02*
G75*
G03*
X14282500Y-7200000I-15000J0D01*
G01*
X14286250Y-8921250D02*
G75*
G03*
X14286250Y-8921250I-15000J0D01*
G01*
X14290000Y-6075000D02*
G75*
G03*
X14290000Y-6075000I-15000J0D01*
G01*
X14307500Y-7475000D02*
G75*
G03*
X14307500Y-7475000I-15000J0D01*
G01*
X14307500Y-8425000D02*
G75*
G03*
X14307500Y-8425000I-15000J0D01*
G01*
X14314250Y-8075000D02*
G75*
G03*
X14314250Y-8075000I-15000J0D01*
G01*
X14315000Y-7275000D02*
G75*
G03*
X14315000Y-7275000I-15000J0D01*
G01*
X14334250Y-10345000D02*
G75*
G03*
X14334250Y-10345000I-15000J0D01*
G01*
X14340000Y-9050000D02*
G75*
G03*
X14340000Y-9050000I-15000J0D01*
G01*
X14352125Y-7972875D02*
G75*
G03*
X14352125Y-7972875I-15000J0D01*
G01*
X14357500Y-8125000D02*
G75*
G03*
X14357500Y-8125000I-15000J0D01*
G01*
X14373750Y-8858750D02*
G75*
G03*
X14373750Y-8858750I-15000J0D01*
G01*
X14374625Y-8934625D02*
G75*
G03*
X14374625Y-8934625I-15000J0D01*
G01*
X14379250Y-5075000D02*
G75*
G03*
X14379250Y-5075000I-15000J0D01*
G01*
X14382500Y-7700000D02*
G75*
G03*
X14382500Y-7700000I-15000J0D01*
G01*
X14390000Y-5425000D02*
G75*
G03*
X14390000Y-5425000I-15000J0D01*
G01*
X14390000Y-6075000D02*
G75*
G03*
X14390000Y-6075000I-15000J0D01*
G01*
X14415000Y-8600000D02*
G75*
G03*
X14415000Y-8600000I-15000J0D01*
G01*
X14415000Y-9700000D02*
G75*
G03*
X14415000Y-9700000I-15000J0D01*
G01*
X14415000Y-10075000D02*
G75*
G03*
X14415000Y-10075000I-15000J0D01*
G01*
X14415000Y-10160050D02*
G75*
G03*
X14415000Y-10160050I-15000J0D01*
G01*
X14415000Y-10250000D02*
G75*
G03*
X14415000Y-10250000I-15000J0D01*
G01*
X14415000Y-10700000D02*
G75*
G03*
X14415000Y-10700000I-15000J0D01*
G01*
X14415000Y-10850000D02*
G75*
G03*
X14415000Y-10850000I-15000J0D01*
G01*
X14415000Y-11000000D02*
G75*
G03*
X14415000Y-11000000I-15000J0D01*
G01*
X14415000Y-11150000D02*
G75*
G03*
X14415000Y-11150000I-15000J0D01*
G01*
X14415000Y-12350000D02*
G75*
G03*
X14415000Y-12350000I-15000J0D01*
G01*
X14436250Y-8846250D02*
G75*
G03*
X14436250Y-8846250I-15000J0D01*
G01*
X14439250Y-10345000D02*
G75*
G03*
X14439250Y-10345000I-15000J0D01*
G01*
X14465000Y-5775000D02*
G75*
G03*
X14465000Y-5775000I-15000J0D01*
G01*
X14465000Y-6750000D02*
G75*
G03*
X14465000Y-6750000I-15000J0D01*
G01*
X14465000Y-7600000D02*
G75*
G03*
X14465000Y-7600000I-15000J0D01*
G01*
X14590000Y-8875000D02*
G75*
G03*
X14590000Y-8875000I-15000J0D01*
G01*
X14609250Y-8350000D02*
G75*
G03*
X14609250Y-8350000I-15000J0D01*
G01*
X14614250Y-8250000D02*
G75*
G03*
X14614250Y-8250000I-15000J0D01*
G01*
X14615000Y-10700000D02*
G75*
G03*
X14615000Y-10700000I-15000J0D01*
G01*
X14615000Y-10850000D02*
G75*
G03*
X14615000Y-10850000I-15000J0D01*
G01*
X14615000Y-11000000D02*
G75*
G03*
X14615000Y-11000000I-15000J0D01*
G01*
X14615000Y-11150000D02*
G75*
G03*
X14615000Y-11150000I-15000J0D01*
G01*
X14632500Y-7425000D02*
G75*
G03*
X14632500Y-7425000I-15000J0D01*
G01*
X14632500Y-8650000D02*
G75*
G03*
X14632500Y-8650000I-15000J0D01*
G01*
X14640000Y-10500000D02*
G75*
G03*
X14640000Y-10500000I-15000J0D01*
G01*
X14665000Y-6825000D02*
G75*
G03*
X14665000Y-6825000I-15000J0D01*
G01*
X14665000Y-9700000D02*
G75*
G03*
X14665000Y-9700000I-15000J0D01*
G01*
X14689250Y-8800000D02*
G75*
G03*
X14689250Y-8800000I-15000J0D01*
G01*
X14715000Y-8950000D02*
G75*
G03*
X14715000Y-8950000I-15000J0D01*
G01*
X14732500Y-7425000D02*
G75*
G03*
X14732500Y-7425000I-15000J0D01*
G01*
X14740000Y-6225000D02*
G75*
G03*
X14740000Y-6225000I-15000J0D01*
G01*
X14740000Y-10525000D02*
G75*
G03*
X14740000Y-10525000I-15000J0D01*
G01*
X14759625Y-9394625D02*
G75*
G03*
X14759625Y-9394625I-15000J0D01*
G01*
X14773000Y-10400000D02*
G75*
G03*
X14773000Y-10400000I-15000J0D01*
G01*
X14774250Y-8800000D02*
G75*
G03*
X14774250Y-8800000I-15000J0D01*
G01*
X14790000Y-10000000D02*
G75*
G03*
X14790000Y-10000000I-15000J0D01*
G01*
X14815000Y-10850000D02*
G75*
G03*
X14815000Y-10850000I-15000J0D01*
G01*
X14815000Y-11000000D02*
G75*
G03*
X14815000Y-11000000I-15000J0D01*
G01*
X14815000Y-11150000D02*
G75*
G03*
X14815000Y-11150000I-15000J0D01*
G01*
X14832500Y-8840000D02*
G75*
G03*
X14832500Y-8840000I-15000J0D01*
G01*
X14840000Y-9325000D02*
G75*
G03*
X14840000Y-9325000I-15000J0D01*
G01*
X14840000Y-9400000D02*
G75*
G03*
X14840000Y-9400000I-15000J0D01*
G01*
X14857500Y-7675000D02*
G75*
G03*
X14857500Y-7675000I-15000J0D01*
G01*
X14865000Y-9100000D02*
G75*
G03*
X14865000Y-9100000I-15000J0D01*
G01*
X14873000Y-11450000D02*
G75*
G03*
X14873000Y-11450000I-15000J0D01*
G01*
X14882500Y-8880000D02*
G75*
G03*
X14882500Y-8880000I-15000J0D01*
G01*
X14904250Y-7725000D02*
G75*
G03*
X14904250Y-7725000I-15000J0D01*
G01*
X14915000Y-10750000D02*
G75*
G03*
X14915000Y-10750000I-15000J0D01*
G01*
X14932500Y-8925000D02*
G75*
G03*
X14932500Y-8925000I-15000J0D01*
G01*
X14954250Y-7775000D02*
G75*
G03*
X14954250Y-7775000I-15000J0D01*
G01*
X14965000Y-6600000D02*
G75*
G03*
X14965000Y-6600000I-15000J0D01*
G01*
X14965000Y-9150000D02*
G75*
G03*
X14965000Y-9150000I-15000J0D01*
G01*
X14968410Y-6421590D02*
G75*
G03*
X14968410Y-6421590I-15000J0D01*
G01*
X15004250Y-7830000D02*
G75*
G03*
X15004250Y-7830000I-15000J0D01*
G01*
X15015000Y-5775000D02*
G75*
G03*
X15015000Y-5775000I-15000J0D01*
G01*
X15015000Y-6225000D02*
G75*
G03*
X15015000Y-6225000I-15000J0D01*
G01*
X15015000Y-10650000D02*
G75*
G03*
X15015000Y-10650000I-15000J0D01*
G01*
X15015000Y-11550000D02*
G75*
G03*
X15015000Y-11550000I-15000J0D01*
G01*
X15015000Y-11800000D02*
G75*
G03*
X15015000Y-11800000I-15000J0D01*
G01*
X15029250Y-9500000D02*
G75*
G03*
X15029250Y-9500000I-15000J0D01*
G01*
X15048000Y-10550000D02*
G75*
G03*
X15048000Y-10550000I-15000J0D01*
G01*
X15054250Y-7880000D02*
G75*
G03*
X15054250Y-7880000I-15000J0D01*
G01*
X15063035Y-6516215D02*
G75*
G03*
X15063035Y-6516215I-15000J0D01*
G01*
X15079250Y-9550000D02*
G75*
G03*
X15079250Y-9550000I-15000J0D01*
G01*
X15104250Y-7930000D02*
G75*
G03*
X15104250Y-7930000I-15000J0D01*
G01*
X15115000Y-6750000D02*
G75*
G03*
X15115000Y-6750000I-15000J0D01*
G01*
X15129250Y-9600000D02*
G75*
G03*
X15129250Y-9600000I-15000J0D01*
G01*
X15132500Y-9000000D02*
G75*
G03*
X15132500Y-9000000I-15000J0D01*
G01*
X15140000Y-9150000D02*
G75*
G03*
X15140000Y-9150000I-15000J0D01*
G01*
X15148000Y-11450000D02*
G75*
G03*
X15148000Y-11450000I-15000J0D01*
G01*
X15154250Y-7980000D02*
G75*
G03*
X15154250Y-7980000I-15000J0D01*
G01*
X15165000Y-9450000D02*
G75*
G03*
X15165000Y-9450000I-15000J0D01*
G01*
X15182500Y-8945000D02*
G75*
G03*
X15182500Y-8945000I-15000J0D01*
G01*
X15204250Y-8030000D02*
G75*
G03*
X15204250Y-8030000I-15000J0D01*
G01*
X15215000Y-6500000D02*
G75*
G03*
X15215000Y-6500000I-15000J0D01*
G01*
X15215000Y-10850000D02*
G75*
G03*
X15215000Y-10850000I-15000J0D01*
G01*
X15215000Y-11000000D02*
G75*
G03*
X15215000Y-11000000I-15000J0D01*
G01*
X15215000Y-11150000D02*
G75*
G03*
X15215000Y-11150000I-15000J0D01*
G01*
X15219250Y-9595000D02*
G75*
G03*
X15219250Y-9595000I-15000J0D01*
G01*
X15232500Y-7300000D02*
G75*
G03*
X15232500Y-7300000I-15000J0D01*
G01*
X15232500Y-8885000D02*
G75*
G03*
X15232500Y-8885000I-15000J0D01*
G01*
X15265000Y-5950000D02*
G75*
G03*
X15265000Y-5950000I-15000J0D01*
G01*
X15265000Y-6100000D02*
G75*
G03*
X15265000Y-6100000I-15000J0D01*
G01*
X15265000Y-6250000D02*
G75*
G03*
X15265000Y-6250000I-15000J0D01*
G01*
X15265000Y-6400000D02*
G75*
G03*
X15265000Y-6400000I-15000J0D01*
G01*
X15265000Y-6900000D02*
G75*
G03*
X15265000Y-6900000I-15000J0D01*
G01*
X15265000Y-10550000D02*
G75*
G03*
X15265000Y-10550000I-15000J0D01*
G01*
X15265000Y-10750000D02*
G75*
G03*
X15265000Y-10750000I-15000J0D01*
G01*
X15282500Y-8830000D02*
G75*
G03*
X15282500Y-8830000I-15000J0D01*
G01*
X15307500Y-8375000D02*
G75*
G03*
X15307500Y-8375000I-15000J0D01*
G01*
X15315000Y-9300000D02*
G75*
G03*
X15315000Y-9300000I-15000J0D01*
G01*
X15315000Y-9800000D02*
G75*
G03*
X15315000Y-9800000I-15000J0D01*
G01*
X15340000Y-10050000D02*
G75*
G03*
X15340000Y-10050000I-15000J0D01*
G01*
X15340000Y-10350000D02*
G75*
G03*
X15340000Y-10350000I-15000J0D01*
G01*
X15357500Y-8325000D02*
G75*
G03*
X15357500Y-8325000I-15000J0D01*
G01*
X15365000Y-6650000D02*
G75*
G03*
X15365000Y-6650000I-15000J0D01*
G01*
X15407500Y-8275000D02*
G75*
G03*
X15407500Y-8275000I-15000J0D01*
G01*
X15407500Y-8800000D02*
G75*
G03*
X15407500Y-8800000I-15000J0D01*
G01*
X15415000Y-7050000D02*
G75*
G03*
X15415000Y-7050000I-15000J0D01*
G01*
X15415000Y-11000000D02*
G75*
G03*
X15415000Y-11000000I-15000J0D01*
G01*
X15415000Y-11150000D02*
G75*
G03*
X15415000Y-11150000I-15000J0D01*
G01*
X15457500Y-8050000D02*
G75*
G03*
X15457500Y-8050000I-15000J0D01*
G01*
X15457500Y-8225000D02*
G75*
G03*
X15457500Y-8225000I-15000J0D01*
G01*
X15482500Y-8800000D02*
G75*
G03*
X15482500Y-8800000I-15000J0D01*
G01*
X15507500Y-8175000D02*
G75*
G03*
X15507500Y-8175000I-15000J0D01*
G01*
X15515000Y-6325000D02*
G75*
G03*
X15515000Y-6325000I-15000J0D01*
G01*
X15565000Y-5775000D02*
G75*
G03*
X15565000Y-5775000I-15000J0D01*
G01*
X15565000Y-6100000D02*
G75*
G03*
X15565000Y-6100000I-15000J0D01*
G01*
X15565000Y-6450000D02*
G75*
G03*
X15565000Y-6450000I-15000J0D01*
G01*
X15565000Y-6600000D02*
G75*
G03*
X15565000Y-6600000I-15000J0D01*
G01*
X15565000Y-6850000D02*
G75*
G03*
X15565000Y-6850000I-15000J0D01*
G01*
X15565000Y-7200000D02*
G75*
G03*
X15565000Y-7200000I-15000J0D01*
G01*
X15565000Y-12350000D02*
G75*
G03*
X15565000Y-12350000I-15000J0D01*
G01*
X15582500Y-7525000D02*
G75*
G03*
X15582500Y-7525000I-15000J0D01*
G01*
X15590000Y-10000000D02*
G75*
G03*
X15590000Y-10000000I-15000J0D01*
G01*
X15615000Y-6325000D02*
G75*
G03*
X15615000Y-6325000I-15000J0D01*
G01*
X15657500Y-7675000D02*
G75*
G03*
X15657500Y-7675000I-15000J0D01*
G01*
X15665000Y-5450000D02*
G75*
G03*
X15665000Y-5450000I-15000J0D01*
G01*
X15665000Y-8600000D02*
G75*
G03*
X15665000Y-8600000I-15000J0D01*
G01*
X15665000Y-8800000D02*
G75*
G03*
X15665000Y-8800000I-15000J0D01*
G01*
X15665000Y-10450000D02*
G75*
G03*
X15665000Y-10450000I-15000J0D01*
G01*
X15665000Y-10600000D02*
G75*
G03*
X15665000Y-10600000I-15000J0D01*
G01*
X15665000Y-10850000D02*
G75*
G03*
X15665000Y-10850000I-15000J0D01*
G01*
X15679250Y-5075000D02*
G75*
G03*
X15679250Y-5075000I-15000J0D01*
G01*
X15690000Y-5600000D02*
G75*
G03*
X15690000Y-5600000I-15000J0D01*
G01*
X15690000Y-5800000D02*
G75*
G03*
X15690000Y-5800000I-15000J0D01*
G01*
X15715000Y-7000000D02*
G75*
G03*
X15715000Y-7000000I-15000J0D01*
G01*
X15715000Y-7350000D02*
G75*
G03*
X15715000Y-7350000I-15000J0D01*
G01*
X15732500Y-7775000D02*
G75*
G03*
X15732500Y-7775000I-15000J0D01*
G01*
X15732500Y-8025000D02*
G75*
G03*
X15732500Y-8025000I-15000J0D01*
G01*
X15757500Y-8125000D02*
G75*
G03*
X15757500Y-8125000I-15000J0D01*
G01*
X15765000Y-5925000D02*
G75*
G03*
X15765000Y-5925000I-15000J0D01*
G01*
X15782500Y-7700000D02*
G75*
G03*
X15782500Y-7700000I-15000J0D01*
G01*
X15815000Y-7450000D02*
G75*
G03*
X15815000Y-7450000I-15000J0D01*
G01*
X15815000Y-10450000D02*
G75*
G03*
X15815000Y-10450000I-15000J0D01*
G01*
X15815000Y-10600000D02*
G75*
G03*
X15815000Y-10600000I-15000J0D01*
G01*
X15815000Y-10850000D02*
G75*
G03*
X15815000Y-10850000I-15000J0D01*
G01*
X15815000Y-11100000D02*
G75*
G03*
X15815000Y-11100000I-15000J0D01*
G01*
X15865000Y-5900000D02*
G75*
G03*
X15865000Y-5900000I-15000J0D01*
G01*
X15865000Y-7150000D02*
G75*
G03*
X15865000Y-7150000I-15000J0D01*
G01*
X15865000Y-12400000D02*
G75*
G03*
X15865000Y-12400000I-15000J0D01*
G01*
X15947500Y-5925000D02*
G75*
G03*
X15947500Y-5925000I-15000J0D01*
G01*
X15965000Y-7950000D02*
G75*
G03*
X15965000Y-7950000I-15000J0D01*
G01*
X15965000Y-8400000D02*
G75*
G03*
X15965000Y-8400000I-15000J0D01*
G01*
X15965000Y-8550000D02*
G75*
G03*
X15965000Y-8550000I-15000J0D01*
G01*
X15965000Y-8800000D02*
G75*
G03*
X15965000Y-8800000I-15000J0D01*
G01*
X16015000Y-7750000D02*
G75*
G03*
X16015000Y-7750000I-15000J0D01*
G01*
X16065000Y-5250000D02*
G75*
G03*
X16065000Y-5250000I-15000J0D01*
G01*
X16115000Y-5650000D02*
G75*
G03*
X16115000Y-5650000I-15000J0D01*
G01*
X16115000Y-5800000D02*
G75*
G03*
X16115000Y-5800000I-15000J0D01*
G01*
X16115000Y-6100000D02*
G75*
G03*
X16115000Y-6100000I-15000J0D01*
G01*
D14*
X14702500Y-5447500D02*
X14702500Y-5487500D01*
X14682500Y-5467500D02*
X14722500Y-5467500D01*
X14702500Y-5582500D02*
X14702500Y-5622500D01*
X14682500Y-5602500D02*
X14722500Y-5602500D01*
X14787500Y-5447500D02*
X14787500Y-5487500D01*
X14767500Y-5467500D02*
X14807500Y-5467500D01*
X14787500Y-5582500D02*
X14787500Y-5622500D01*
X14767500Y-5602500D02*
X14807500Y-5602500D01*
X14872500Y-5447500D02*
X14872500Y-5487500D01*
X14852500Y-5467500D02*
X14892500Y-5467500D01*
X14872500Y-5582500D02*
X14872500Y-5622500D01*
X14852500Y-5602500D02*
X14892500Y-5602500D01*
X14957500Y-5447500D02*
X14957500Y-5487500D01*
X14937500Y-5467500D02*
X14977500Y-5467500D01*
X14957500Y-5582500D02*
X14957500Y-5622500D01*
X14937500Y-5602500D02*
X14977500Y-5602500D01*
X15042500Y-5447500D02*
X15042500Y-5487500D01*
X15022500Y-5467500D02*
X15062500Y-5467500D01*
X15042500Y-5582500D02*
X15042500Y-5622500D01*
X15022500Y-5602500D02*
X15062500Y-5602500D01*
X15127500Y-5447500D02*
X15127500Y-5487500D01*
X15107500Y-5467500D02*
X15147500Y-5467500D01*
X15127500Y-5582500D02*
X15127500Y-5622500D01*
X15107500Y-5602500D02*
X15147500Y-5602500D01*
X15212500Y-5447500D02*
X15212500Y-5487500D01*
X15192500Y-5467500D02*
X15232500Y-5467500D01*
X15212500Y-5582500D02*
X15212500Y-5622500D01*
X15192500Y-5602500D02*
X15232500Y-5602500D01*
X15297500Y-5447500D02*
X15297500Y-5487500D01*
X15277500Y-5467500D02*
X15317500Y-5467500D01*
X15297500Y-5582500D02*
X15297500Y-5622500D01*
X15277500Y-5602500D02*
X15317500Y-5602500D01*
D15*
X14588713Y-5187713D02*
X14588713Y-5145287D01*
X14546287Y-5145287D01*
X14546287Y-5187713D01*
X14588713Y-5187713D01*
D11*
X14597500Y-5206500D02*
X14597500Y-5126500D01*
X14597500Y-5126500D02*
G75*
G03*
X14537500Y-5126500I-30000J0D01*
G01*
X14537500Y-5126500D02*
X14537500Y-5206500D01*
X14537500Y-5206500D02*
G75*
G03*
X14597500Y-5206500I30000J0D01*
G01*
D15*
X14588713Y-5525713D02*
X14588713Y-5483287D01*
X14546287Y-5483287D01*
X14546287Y-5525713D01*
X14588713Y-5525713D01*
D11*
X14597500Y-5579500D02*
X14597500Y-5429500D01*
X14597500Y-5429500D02*
G75*
G03*
X14537500Y-5429500I-30000J0D01*
G01*
X14537500Y-5429500D02*
X14537500Y-5579500D01*
X14537500Y-5579500D02*
G75*
G03*
X14597500Y-5579500I30000J0D01*
G01*
D15*
X15453713Y-5187713D02*
X15453713Y-5145287D01*
X15411287Y-5145287D01*
X15411287Y-5187713D01*
X15453713Y-5187713D01*
D11*
X15462500Y-5206500D02*
X15462500Y-5126500D01*
X15462500Y-5126500D02*
G75*
G03*
X15402500Y-5126500I-30000J0D01*
G01*
X15402500Y-5126500D02*
X15402500Y-5206500D01*
X15402500Y-5206500D02*
G75*
G03*
X15462500Y-5206500I30000J0D01*
G01*
D15*
X15453713Y-5525713D02*
X15453713Y-5483287D01*
X15411287Y-5483287D01*
X15411287Y-5525713D01*
X15453713Y-5525713D01*
D11*
X15462500Y-5579500D02*
X15462500Y-5429500D01*
X15462500Y-5429500D02*
G75*
G03*
X15402500Y-5429500I-30000J0D01*
G01*
X15402500Y-5429500D02*
X15402500Y-5579500D01*
X15402500Y-5579500D02*
G75*
G03*
X15462500Y-5579500I30000J0D01*
G01*
D10*
X13892500Y-7450000D02*
X13942500Y-7400000D01*
X13892500Y-7350000D01*
X13842500Y-7400000D01*
X13892500Y-7450000D01*
X13892500Y-7704000D02*
X13942500Y-7654000D01*
X13892500Y-7604000D01*
X13842500Y-7654000D01*
X13892500Y-7704000D01*
X13892500Y-7958000D02*
X13942500Y-7908000D01*
X13892500Y-7858000D01*
X13842500Y-7908000D01*
X13892500Y-7958000D01*
X13892500Y-8212000D02*
X13942500Y-8162000D01*
X13892500Y-8112000D01*
X13842500Y-8162000D01*
X13892500Y-8212000D01*
X13892500Y-8466000D02*
X13942500Y-8416000D01*
X13892500Y-8366000D01*
X13842500Y-8416000D01*
X13892500Y-8466000D01*
X13892500Y-8720000D02*
X13942500Y-8670000D01*
X13892500Y-8620000D01*
X13842500Y-8670000D01*
X13892500Y-8720000D01*
X13892500Y-8974000D02*
X13942500Y-8924000D01*
X13892500Y-8874000D01*
X13842500Y-8924000D01*
X13892500Y-8974000D01*
X13892500Y-9228000D02*
X13942500Y-9178000D01*
X13892500Y-9128000D01*
X13842500Y-9178000D01*
X13892500Y-9228000D01*
X13892500Y-9482000D02*
X13942500Y-9432000D01*
X13892500Y-9382000D01*
X13842500Y-9432000D01*
X13892500Y-9482000D01*
X13892500Y-9736000D02*
X13942500Y-9686000D01*
X13892500Y-9636000D01*
X13842500Y-9686000D01*
X13892500Y-9736000D01*
X13892500Y-9990000D02*
X13942500Y-9940000D01*
X13892500Y-9890000D01*
X13842500Y-9940000D01*
X13892500Y-9990000D01*
X13892500Y-10244000D02*
X13942500Y-10194000D01*
X13892500Y-10144000D01*
X13842500Y-10194000D01*
X13892500Y-10244000D01*
X13892500Y-10498000D02*
X13942500Y-10448000D01*
X13892500Y-10398000D01*
X13842500Y-10448000D01*
X13892500Y-10498000D01*
X13892500Y-10752000D02*
X13942500Y-10702000D01*
X13892500Y-10652000D01*
X13842500Y-10702000D01*
X13892500Y-10752000D01*
X13892500Y-11006000D02*
X13942500Y-10956000D01*
X13892500Y-10906000D01*
X13842500Y-10956000D01*
X13892500Y-11006000D01*
X13892500Y-11260000D02*
X13942500Y-11210000D01*
X13892500Y-11160000D01*
X13842500Y-11210000D01*
X13892500Y-11260000D01*
X13892500Y-11514000D02*
X13942500Y-11464000D01*
X13892500Y-11414000D01*
X13842500Y-11464000D01*
X13892500Y-11514000D01*
X13892500Y-11768000D02*
X13942500Y-11718000D01*
X13892500Y-11668000D01*
X13842500Y-11718000D01*
X13892500Y-11768000D01*
X13892500Y-12022000D02*
X13942500Y-11972000D01*
X13892500Y-11922000D01*
X13842500Y-11972000D01*
X13892500Y-12022000D01*
X13892500Y-12276000D02*
X13942500Y-12226000D01*
X13892500Y-12176000D01*
X13842500Y-12226000D01*
X13892500Y-12276000D01*
X14000000Y-5295000D02*
X14050000Y-5245000D01*
X14000000Y-5195000D01*
X13950000Y-5245000D01*
X14000000Y-5295000D01*
X14000000Y-5549000D02*
X14050000Y-5499000D01*
X14000000Y-5449000D01*
X13950000Y-5499000D01*
X14000000Y-5549000D01*
X14000000Y-5803000D02*
X14050000Y-5753000D01*
X14000000Y-5703000D01*
X13950000Y-5753000D01*
X14000000Y-5803000D01*
X14000000Y-6057000D02*
X14050000Y-6007000D01*
X14000000Y-5957000D01*
X13950000Y-6007000D01*
X14000000Y-6057000D01*
X14358000Y-11871000D02*
X14408000Y-11821000D01*
X14358000Y-11771000D01*
X14308000Y-11821000D01*
X14358000Y-11871000D01*
X14358000Y-12125000D02*
X14408000Y-12075000D01*
X14358000Y-12025000D01*
X14308000Y-12075000D01*
X14358000Y-12125000D01*
X15633000Y-11871000D02*
X15683000Y-11821000D01*
X15633000Y-11771000D01*
X15583000Y-11821000D01*
X15633000Y-11871000D01*
X15633000Y-12125000D02*
X15683000Y-12075000D01*
X15633000Y-12025000D01*
X15583000Y-12075000D01*
X15633000Y-12125000D01*
X16117500Y-7450000D02*
X16167500Y-7400000D01*
X16117500Y-7350000D01*
X16067500Y-7400000D01*
X16117500Y-7450000D01*
X16117500Y-7704000D02*
X16167500Y-7654000D01*
X16117500Y-7604000D01*
X16067500Y-7654000D01*
X16117500Y-7704000D01*
X16117500Y-7958000D02*
X16167500Y-7908000D01*
X16117500Y-7858000D01*
X16067500Y-7908000D01*
X16117500Y-7958000D01*
X16117500Y-8212000D02*
X16167500Y-8162000D01*
X16117500Y-8112000D01*
X16067500Y-8162000D01*
X16117500Y-8212000D01*
X16117500Y-8466000D02*
X16167500Y-8416000D01*
X16117500Y-8366000D01*
X16067500Y-8416000D01*
X16117500Y-8466000D01*
X16117500Y-8720000D02*
X16167500Y-8670000D01*
X16117500Y-8620000D01*
X16067500Y-8670000D01*
X16117500Y-8720000D01*
X16117500Y-8974000D02*
X16167500Y-8924000D01*
X16117500Y-8874000D01*
X16067500Y-8924000D01*
X16117500Y-8974000D01*
X16117500Y-9228000D02*
X16167500Y-9178000D01*
X16117500Y-9128000D01*
X16067500Y-9178000D01*
X16117500Y-9228000D01*
X16117500Y-9482000D02*
X16167500Y-9432000D01*
X16117500Y-9382000D01*
X16067500Y-9432000D01*
X16117500Y-9482000D01*
X16117500Y-9736000D02*
X16167500Y-9686000D01*
X16117500Y-9636000D01*
X16067500Y-9686000D01*
X16117500Y-9736000D01*
X16117500Y-9990000D02*
X16167500Y-9940000D01*
X16117500Y-9890000D01*
X16067500Y-9940000D01*
X16117500Y-9990000D01*
X16117500Y-10244000D02*
X16167500Y-10194000D01*
X16117500Y-10144000D01*
X16067500Y-10194000D01*
X16117500Y-10244000D01*
X16117500Y-10498000D02*
X16167500Y-10448000D01*
X16117500Y-10398000D01*
X16067500Y-10448000D01*
X16117500Y-10498000D01*
X16117500Y-10752000D02*
X16167500Y-10702000D01*
X16117500Y-10652000D01*
X16067500Y-10702000D01*
X16117500Y-10752000D01*
X16117500Y-11006000D02*
X16167500Y-10956000D01*
X16117500Y-10906000D01*
X16067500Y-10956000D01*
X16117500Y-11006000D01*
X16117500Y-11260000D02*
X16167500Y-11210000D01*
X16117500Y-11160000D01*
X16067500Y-11210000D01*
X16117500Y-11260000D01*
X16117500Y-11514000D02*
X16167500Y-11464000D01*
X16117500Y-11414000D01*
X16067500Y-11464000D01*
X16117500Y-11514000D01*
X16117500Y-11768000D02*
X16167500Y-11718000D01*
X16117500Y-11668000D01*
X16067500Y-11718000D01*
X16117500Y-11768000D01*
X16117500Y-12022000D02*
X16167500Y-11972000D01*
X16117500Y-11922000D01*
X16067500Y-11972000D01*
X16117500Y-12022000D01*
X16117500Y-12276000D02*
X16167500Y-12226000D01*
X16117500Y-12176000D01*
X16067500Y-12226000D01*
X16117500Y-12276000D01*
D16*
X14765000Y-11965000D02*
X14885000Y-12085000D01*
X14885000Y-11965000D02*
X14765000Y-12085000D01*
X14885000Y-12025000D02*
G75*
G03*
X14885000Y-12025000I-60000J0D01*
G01*
X15115000Y-11965000D02*
X15235000Y-12085000D01*
X15235000Y-11965000D02*
X15115000Y-12085000D01*
X15235000Y-12025000D02*
G75*
G03*
X15235000Y-12025000I-60000J0D01*
G01*
D11*
X13992619Y-12817524D02*
X13992619Y-12617524D01*
X13992619Y-12617524D02*
X14040238Y-12617524D01*
X14040238Y-12617524D02*
X14068809Y-12627048D01*
X14068809Y-12627048D02*
X14087857Y-12646095D01*
X14087857Y-12646095D02*
X14097381Y-12665143D01*
X14097381Y-12665143D02*
X14106905Y-12703238D01*
X14106905Y-12703238D02*
X14106905Y-12731809D01*
X14106905Y-12731809D02*
X14097381Y-12769905D01*
X14097381Y-12769905D02*
X14087857Y-12788952D01*
X14087857Y-12788952D02*
X14068809Y-12808000D01*
X14068809Y-12808000D02*
X14040238Y-12817524D01*
X14040238Y-12817524D02*
X13992619Y-12817524D01*
X14192619Y-12817524D02*
X14192619Y-12684190D01*
X14192619Y-12722286D02*
X14202143Y-12703238D01*
X14202143Y-12703238D02*
X14211667Y-12693714D01*
X14211667Y-12693714D02*
X14230714Y-12684190D01*
X14230714Y-12684190D02*
X14249762Y-12684190D01*
X14316428Y-12817524D02*
X14316428Y-12684190D01*
X14316428Y-12617524D02*
X14306905Y-12627048D01*
X14306905Y-12627048D02*
X14316428Y-12636571D01*
X14316428Y-12636571D02*
X14325952Y-12627048D01*
X14325952Y-12627048D02*
X14316428Y-12617524D01*
X14316428Y-12617524D02*
X14316428Y-12636571D01*
X14440238Y-12817524D02*
X14421190Y-12808000D01*
X14421190Y-12808000D02*
X14411667Y-12788952D01*
X14411667Y-12788952D02*
X14411667Y-12617524D01*
X14545000Y-12817524D02*
X14525952Y-12808000D01*
X14525952Y-12808000D02*
X14516428Y-12788952D01*
X14516428Y-12788952D02*
X14516428Y-12617524D01*
X14773571Y-12817524D02*
X14773571Y-12617524D01*
X14773571Y-12617524D02*
X14840238Y-12760381D01*
X14840238Y-12760381D02*
X14906905Y-12617524D01*
X14906905Y-12617524D02*
X14906905Y-12817524D01*
X15087857Y-12817524D02*
X15087857Y-12712762D01*
X15087857Y-12712762D02*
X15078333Y-12693714D01*
X15078333Y-12693714D02*
X15059286Y-12684190D01*
X15059286Y-12684190D02*
X15021190Y-12684190D01*
X15021190Y-12684190D02*
X15002143Y-12693714D01*
X15087857Y-12808000D02*
X15068809Y-12817524D01*
X15068809Y-12817524D02*
X15021190Y-12817524D01*
X15021190Y-12817524D02*
X15002143Y-12808000D01*
X15002143Y-12808000D02*
X14992619Y-12788952D01*
X14992619Y-12788952D02*
X14992619Y-12769905D01*
X14992619Y-12769905D02*
X15002143Y-12750857D01*
X15002143Y-12750857D02*
X15021190Y-12741333D01*
X15021190Y-12741333D02*
X15068809Y-12741333D01*
X15068809Y-12741333D02*
X15087857Y-12731809D01*
X15183095Y-12684190D02*
X15183095Y-12884190D01*
X15183095Y-12693714D02*
X15202143Y-12684190D01*
X15202143Y-12684190D02*
X15240238Y-12684190D01*
X15240238Y-12684190D02*
X15259286Y-12693714D01*
X15259286Y-12693714D02*
X15268809Y-12703238D01*
X15268809Y-12703238D02*
X15278333Y-12722286D01*
X15278333Y-12722286D02*
X15278333Y-12779428D01*
X15278333Y-12779428D02*
X15268809Y-12798476D01*
X15268809Y-12798476D02*
X15259286Y-12808000D01*
X15259286Y-12808000D02*
X15240238Y-12817524D01*
X15240238Y-12817524D02*
X15202143Y-12817524D01*
X15202143Y-12817524D02*
X15183095Y-12808000D01*
X15364048Y-12798476D02*
X15373571Y-12808000D01*
X15373571Y-12808000D02*
X15364048Y-12817524D01*
X15364048Y-12817524D02*
X15354524Y-12808000D01*
X15354524Y-12808000D02*
X15364048Y-12798476D01*
X15364048Y-12798476D02*
X15364048Y-12817524D01*
X15364048Y-12693714D02*
X15373571Y-12703238D01*
X15373571Y-12703238D02*
X15364048Y-12712762D01*
X15364048Y-12712762D02*
X15354524Y-12703238D01*
X15354524Y-12703238D02*
X15364048Y-12693714D01*
X15364048Y-12693714D02*
X15364048Y-12712762D01*
D12*
X13725000Y-13135000D02*
X13745000Y-13155000D01*
X13745000Y-13135000D02*
X13725000Y-13155000D01*
D11*
X14030714Y-13037524D02*
X14049762Y-13037524D01*
X14049762Y-13037524D02*
X14068809Y-13047048D01*
X14068809Y-13047048D02*
X14078333Y-13056571D01*
X14078333Y-13056571D02*
X14087857Y-13075619D01*
X14087857Y-13075619D02*
X14097381Y-13113714D01*
X14097381Y-13113714D02*
X14097381Y-13161333D01*
X14097381Y-13161333D02*
X14087857Y-13199428D01*
X14087857Y-13199428D02*
X14078333Y-13218476D01*
X14078333Y-13218476D02*
X14068809Y-13228000D01*
X14068809Y-13228000D02*
X14049762Y-13237524D01*
X14049762Y-13237524D02*
X14030714Y-13237524D01*
X14030714Y-13237524D02*
X14011667Y-13228000D01*
X14011667Y-13228000D02*
X14002143Y-13218476D01*
X14002143Y-13218476D02*
X13992619Y-13199428D01*
X13992619Y-13199428D02*
X13983095Y-13161333D01*
X13983095Y-13161333D02*
X13983095Y-13113714D01*
X13983095Y-13113714D02*
X13992619Y-13075619D01*
X13992619Y-13075619D02*
X14002143Y-13056571D01*
X14002143Y-13056571D02*
X14011667Y-13047048D01*
X14011667Y-13047048D02*
X14030714Y-13037524D01*
X14183095Y-13218476D02*
X14192619Y-13228000D01*
X14192619Y-13228000D02*
X14183095Y-13237524D01*
X14183095Y-13237524D02*
X14173571Y-13228000D01*
X14173571Y-13228000D02*
X14183095Y-13218476D01*
X14183095Y-13218476D02*
X14183095Y-13237524D01*
X14268809Y-13056571D02*
X14278333Y-13047048D01*
X14278333Y-13047048D02*
X14297381Y-13037524D01*
X14297381Y-13037524D02*
X14345000Y-13037524D01*
X14345000Y-13037524D02*
X14364048Y-13047048D01*
X14364048Y-13047048D02*
X14373571Y-13056571D01*
X14373571Y-13056571D02*
X14383095Y-13075619D01*
X14383095Y-13075619D02*
X14383095Y-13094667D01*
X14383095Y-13094667D02*
X14373571Y-13123238D01*
X14373571Y-13123238D02*
X14259286Y-13237524D01*
X14259286Y-13237524D02*
X14383095Y-13237524D01*
X14506905Y-13037524D02*
X14525952Y-13037524D01*
X14525952Y-13037524D02*
X14545000Y-13047048D01*
X14545000Y-13047048D02*
X14554524Y-13056571D01*
X14554524Y-13056571D02*
X14564048Y-13075619D01*
X14564048Y-13075619D02*
X14573571Y-13113714D01*
X14573571Y-13113714D02*
X14573571Y-13161333D01*
X14573571Y-13161333D02*
X14564048Y-13199428D01*
X14564048Y-13199428D02*
X14554524Y-13218476D01*
X14554524Y-13218476D02*
X14545000Y-13228000D01*
X14545000Y-13228000D02*
X14525952Y-13237524D01*
X14525952Y-13237524D02*
X14506905Y-13237524D01*
X14506905Y-13237524D02*
X14487857Y-13228000D01*
X14487857Y-13228000D02*
X14478333Y-13218476D01*
X14478333Y-13218476D02*
X14468809Y-13199428D01*
X14468809Y-13199428D02*
X14459286Y-13161333D01*
X14459286Y-13161333D02*
X14459286Y-13113714D01*
X14459286Y-13113714D02*
X14468809Y-13075619D01*
X14468809Y-13075619D02*
X14478333Y-13056571D01*
X14478333Y-13056571D02*
X14487857Y-13047048D01*
X14487857Y-13047048D02*
X14506905Y-13037524D01*
X14697381Y-13037524D02*
X14716429Y-13037524D01*
X14716429Y-13037524D02*
X14735476Y-13047048D01*
X14735476Y-13047048D02*
X14745000Y-13056571D01*
X14745000Y-13056571D02*
X14754524Y-13075619D01*
X14754524Y-13075619D02*
X14764048Y-13113714D01*
X14764048Y-13113714D02*
X14764048Y-13161333D01*
X14764048Y-13161333D02*
X14754524Y-13199428D01*
X14754524Y-13199428D02*
X14745000Y-13218476D01*
X14745000Y-13218476D02*
X14735476Y-13228000D01*
X14735476Y-13228000D02*
X14716429Y-13237524D01*
X14716429Y-13237524D02*
X14697381Y-13237524D01*
X14697381Y-13237524D02*
X14678333Y-13228000D01*
X14678333Y-13228000D02*
X14668809Y-13218476D01*
X14668809Y-13218476D02*
X14659286Y-13199428D01*
X14659286Y-13199428D02*
X14649762Y-13161333D01*
X14649762Y-13161333D02*
X14649762Y-13113714D01*
X14649762Y-13113714D02*
X14659286Y-13075619D01*
X14659286Y-13075619D02*
X14668809Y-13056571D01*
X14668809Y-13056571D02*
X14678333Y-13047048D01*
X14678333Y-13047048D02*
X14697381Y-13037524D01*
X14849762Y-13237524D02*
X14849762Y-13104190D01*
X14849762Y-13123238D02*
X14859286Y-13113714D01*
X14859286Y-13113714D02*
X14878333Y-13104190D01*
X14878333Y-13104190D02*
X14906905Y-13104190D01*
X14906905Y-13104190D02*
X14925952Y-13113714D01*
X14925952Y-13113714D02*
X14935476Y-13132762D01*
X14935476Y-13132762D02*
X14935476Y-13237524D01*
X14935476Y-13132762D02*
X14945000Y-13113714D01*
X14945000Y-13113714D02*
X14964048Y-13104190D01*
X14964048Y-13104190D02*
X14992619Y-13104190D01*
X14992619Y-13104190D02*
X15011667Y-13113714D01*
X15011667Y-13113714D02*
X15021190Y-13132762D01*
X15021190Y-13132762D02*
X15021190Y-13237524D01*
X15116429Y-13237524D02*
X15116429Y-13104190D01*
X15116429Y-13123238D02*
X15125952Y-13113714D01*
X15125952Y-13113714D02*
X15145000Y-13104190D01*
X15145000Y-13104190D02*
X15173571Y-13104190D01*
X15173571Y-13104190D02*
X15192619Y-13113714D01*
X15192619Y-13113714D02*
X15202143Y-13132762D01*
X15202143Y-13132762D02*
X15202143Y-13237524D01*
X15202143Y-13132762D02*
X15211667Y-13113714D01*
X15211667Y-13113714D02*
X15230714Y-13104190D01*
X15230714Y-13104190D02*
X15259286Y-13104190D01*
X15259286Y-13104190D02*
X15278333Y-13113714D01*
X15278333Y-13113714D02*
X15287857Y-13132762D01*
X15287857Y-13132762D02*
X15287857Y-13237524D01*
X15678333Y-13028000D02*
X15506905Y-13285143D01*
X15935476Y-13037524D02*
X15954524Y-13037524D01*
X15954524Y-13037524D02*
X15973572Y-13047048D01*
X15973572Y-13047048D02*
X15983095Y-13056571D01*
X15983095Y-13056571D02*
X15992619Y-13075619D01*
X15992619Y-13075619D02*
X16002143Y-13113714D01*
X16002143Y-13113714D02*
X16002143Y-13161333D01*
X16002143Y-13161333D02*
X15992619Y-13199428D01*
X15992619Y-13199428D02*
X15983095Y-13218476D01*
X15983095Y-13218476D02*
X15973572Y-13228000D01*
X15973572Y-13228000D02*
X15954524Y-13237524D01*
X15954524Y-13237524D02*
X15935476Y-13237524D01*
X15935476Y-13237524D02*
X15916429Y-13228000D01*
X15916429Y-13228000D02*
X15906905Y-13218476D01*
X15906905Y-13218476D02*
X15897381Y-13199428D01*
X15897381Y-13199428D02*
X15887857Y-13161333D01*
X15887857Y-13161333D02*
X15887857Y-13113714D01*
X15887857Y-13113714D02*
X15897381Y-13075619D01*
X15897381Y-13075619D02*
X15906905Y-13056571D01*
X15906905Y-13056571D02*
X15916429Y-13047048D01*
X15916429Y-13047048D02*
X15935476Y-13037524D01*
X16087857Y-13218476D02*
X16097381Y-13228000D01*
X16097381Y-13228000D02*
X16087857Y-13237524D01*
X16087857Y-13237524D02*
X16078333Y-13228000D01*
X16078333Y-13228000D02*
X16087857Y-13218476D01*
X16087857Y-13218476D02*
X16087857Y-13237524D01*
X16221191Y-13037524D02*
X16240238Y-13037524D01*
X16240238Y-13037524D02*
X16259286Y-13047048D01*
X16259286Y-13047048D02*
X16268810Y-13056571D01*
X16268810Y-13056571D02*
X16278333Y-13075619D01*
X16278333Y-13075619D02*
X16287857Y-13113714D01*
X16287857Y-13113714D02*
X16287857Y-13161333D01*
X16287857Y-13161333D02*
X16278333Y-13199428D01*
X16278333Y-13199428D02*
X16268810Y-13218476D01*
X16268810Y-13218476D02*
X16259286Y-13228000D01*
X16259286Y-13228000D02*
X16240238Y-13237524D01*
X16240238Y-13237524D02*
X16221191Y-13237524D01*
X16221191Y-13237524D02*
X16202143Y-13228000D01*
X16202143Y-13228000D02*
X16192619Y-13218476D01*
X16192619Y-13218476D02*
X16183095Y-13199428D01*
X16183095Y-13199428D02*
X16173572Y-13161333D01*
X16173572Y-13161333D02*
X16173572Y-13113714D01*
X16173572Y-13113714D02*
X16183095Y-13075619D01*
X16183095Y-13075619D02*
X16192619Y-13056571D01*
X16192619Y-13056571D02*
X16202143Y-13047048D01*
X16202143Y-13047048D02*
X16221191Y-13037524D01*
X16411667Y-13037524D02*
X16430714Y-13037524D01*
X16430714Y-13037524D02*
X16449762Y-13047048D01*
X16449762Y-13047048D02*
X16459286Y-13056571D01*
X16459286Y-13056571D02*
X16468810Y-13075619D01*
X16468810Y-13075619D02*
X16478333Y-13113714D01*
X16478333Y-13113714D02*
X16478333Y-13161333D01*
X16478333Y-13161333D02*
X16468810Y-13199428D01*
X16468810Y-13199428D02*
X16459286Y-13218476D01*
X16459286Y-13218476D02*
X16449762Y-13228000D01*
X16449762Y-13228000D02*
X16430714Y-13237524D01*
X16430714Y-13237524D02*
X16411667Y-13237524D01*
X16411667Y-13237524D02*
X16392619Y-13228000D01*
X16392619Y-13228000D02*
X16383095Y-13218476D01*
X16383095Y-13218476D02*
X16373572Y-13199428D01*
X16373572Y-13199428D02*
X16364048Y-13161333D01*
X16364048Y-13161333D02*
X16364048Y-13113714D01*
X16364048Y-13113714D02*
X16373572Y-13075619D01*
X16373572Y-13075619D02*
X16383095Y-13056571D01*
X16383095Y-13056571D02*
X16392619Y-13047048D01*
X16392619Y-13047048D02*
X16411667Y-13037524D01*
X16545000Y-13037524D02*
X16678333Y-13037524D01*
X16678333Y-13037524D02*
X16592619Y-13237524D01*
X16764048Y-13237524D02*
X16802143Y-13237524D01*
X16802143Y-13237524D02*
X16821191Y-13228000D01*
X16821191Y-13228000D02*
X16830715Y-13218476D01*
X16830715Y-13218476D02*
X16849762Y-13189905D01*
X16849762Y-13189905D02*
X16859286Y-13151809D01*
X16859286Y-13151809D02*
X16859286Y-13075619D01*
X16859286Y-13075619D02*
X16849762Y-13056571D01*
X16849762Y-13056571D02*
X16840238Y-13047048D01*
X16840238Y-13047048D02*
X16821191Y-13037524D01*
X16821191Y-13037524D02*
X16783095Y-13037524D01*
X16783095Y-13037524D02*
X16764048Y-13047048D01*
X16764048Y-13047048D02*
X16754524Y-13056571D01*
X16754524Y-13056571D02*
X16745000Y-13075619D01*
X16745000Y-13075619D02*
X16745000Y-13123238D01*
X16745000Y-13123238D02*
X16754524Y-13142286D01*
X16754524Y-13142286D02*
X16764048Y-13151809D01*
X16764048Y-13151809D02*
X16783095Y-13161333D01*
X16783095Y-13161333D02*
X16821191Y-13161333D01*
X16821191Y-13161333D02*
X16840238Y-13151809D01*
X16840238Y-13151809D02*
X16849762Y-13142286D01*
X16849762Y-13142286D02*
X16859286Y-13123238D01*
X16935476Y-13037524D02*
X16935476Y-13075619D01*
X17011667Y-13037524D02*
X17011667Y-13075619D01*
X17306905Y-13313714D02*
X17297381Y-13304190D01*
X17297381Y-13304190D02*
X17278334Y-13275619D01*
X17278334Y-13275619D02*
X17268810Y-13256571D01*
X17268810Y-13256571D02*
X17259286Y-13228000D01*
X17259286Y-13228000D02*
X17249762Y-13180381D01*
X17249762Y-13180381D02*
X17249762Y-13142286D01*
X17249762Y-13142286D02*
X17259286Y-13094667D01*
X17259286Y-13094667D02*
X17268810Y-13066095D01*
X17268810Y-13066095D02*
X17278334Y-13047048D01*
X17278334Y-13047048D02*
X17297381Y-13018476D01*
X17297381Y-13018476D02*
X17306905Y-13008952D01*
X17392619Y-13237524D02*
X17430715Y-13237524D01*
X17430715Y-13237524D02*
X17449762Y-13228000D01*
X17449762Y-13228000D02*
X17459286Y-13218476D01*
X17459286Y-13218476D02*
X17478334Y-13189905D01*
X17478334Y-13189905D02*
X17487857Y-13151809D01*
X17487857Y-13151809D02*
X17487857Y-13075619D01*
X17487857Y-13075619D02*
X17478334Y-13056571D01*
X17478334Y-13056571D02*
X17468810Y-13047048D01*
X17468810Y-13047048D02*
X17449762Y-13037524D01*
X17449762Y-13037524D02*
X17411667Y-13037524D01*
X17411667Y-13037524D02*
X17392619Y-13047048D01*
X17392619Y-13047048D02*
X17383096Y-13056571D01*
X17383096Y-13056571D02*
X17373572Y-13075619D01*
X17373572Y-13075619D02*
X17373572Y-13123238D01*
X17373572Y-13123238D02*
X17383096Y-13142286D01*
X17383096Y-13142286D02*
X17392619Y-13151809D01*
X17392619Y-13151809D02*
X17411667Y-13161333D01*
X17411667Y-13161333D02*
X17449762Y-13161333D01*
X17449762Y-13161333D02*
X17468810Y-13151809D01*
X17468810Y-13151809D02*
X17478334Y-13142286D01*
X17478334Y-13142286D02*
X17487857Y-13123238D01*
X17725953Y-13237524D02*
X17725953Y-13037524D01*
X17811667Y-13237524D02*
X17811667Y-13132762D01*
X17811667Y-13132762D02*
X17802143Y-13113714D01*
X17802143Y-13113714D02*
X17783096Y-13104190D01*
X17783096Y-13104190D02*
X17754524Y-13104190D01*
X17754524Y-13104190D02*
X17735477Y-13113714D01*
X17735477Y-13113714D02*
X17725953Y-13123238D01*
X17935477Y-13237524D02*
X17916429Y-13228000D01*
X17916429Y-13228000D02*
X17906905Y-13218476D01*
X17906905Y-13218476D02*
X17897381Y-13199428D01*
X17897381Y-13199428D02*
X17897381Y-13142286D01*
X17897381Y-13142286D02*
X17906905Y-13123238D01*
X17906905Y-13123238D02*
X17916429Y-13113714D01*
X17916429Y-13113714D02*
X17935477Y-13104190D01*
X17935477Y-13104190D02*
X17964048Y-13104190D01*
X17964048Y-13104190D02*
X17983096Y-13113714D01*
X17983096Y-13113714D02*
X17992619Y-13123238D01*
X17992619Y-13123238D02*
X18002143Y-13142286D01*
X18002143Y-13142286D02*
X18002143Y-13199428D01*
X18002143Y-13199428D02*
X17992619Y-13218476D01*
X17992619Y-13218476D02*
X17983096Y-13228000D01*
X17983096Y-13228000D02*
X17964048Y-13237524D01*
X17964048Y-13237524D02*
X17935477Y-13237524D01*
X18116429Y-13237524D02*
X18097381Y-13228000D01*
X18097381Y-13228000D02*
X18087858Y-13208952D01*
X18087858Y-13208952D02*
X18087858Y-13037524D01*
X18268810Y-13228000D02*
X18249762Y-13237524D01*
X18249762Y-13237524D02*
X18211667Y-13237524D01*
X18211667Y-13237524D02*
X18192619Y-13228000D01*
X18192619Y-13228000D02*
X18183096Y-13208952D01*
X18183096Y-13208952D02*
X18183096Y-13132762D01*
X18183096Y-13132762D02*
X18192619Y-13113714D01*
X18192619Y-13113714D02*
X18211667Y-13104190D01*
X18211667Y-13104190D02*
X18249762Y-13104190D01*
X18249762Y-13104190D02*
X18268810Y-13113714D01*
X18268810Y-13113714D02*
X18278334Y-13132762D01*
X18278334Y-13132762D02*
X18278334Y-13151809D01*
X18278334Y-13151809D02*
X18183096Y-13170857D01*
X18354524Y-13228000D02*
X18373572Y-13237524D01*
X18373572Y-13237524D02*
X18411667Y-13237524D01*
X18411667Y-13237524D02*
X18430715Y-13228000D01*
X18430715Y-13228000D02*
X18440239Y-13208952D01*
X18440239Y-13208952D02*
X18440239Y-13199428D01*
X18440239Y-13199428D02*
X18430715Y-13180381D01*
X18430715Y-13180381D02*
X18411667Y-13170857D01*
X18411667Y-13170857D02*
X18383096Y-13170857D01*
X18383096Y-13170857D02*
X18364048Y-13161333D01*
X18364048Y-13161333D02*
X18354524Y-13142286D01*
X18354524Y-13142286D02*
X18354524Y-13132762D01*
X18354524Y-13132762D02*
X18364048Y-13113714D01*
X18364048Y-13113714D02*
X18383096Y-13104190D01*
X18383096Y-13104190D02*
X18411667Y-13104190D01*
X18411667Y-13104190D02*
X18430715Y-13113714D01*
X18506905Y-13313714D02*
X18516429Y-13304190D01*
X18516429Y-13304190D02*
X18535477Y-13275619D01*
X18535477Y-13275619D02*
X18545000Y-13256571D01*
X18545000Y-13256571D02*
X18554524Y-13228000D01*
X18554524Y-13228000D02*
X18564048Y-13180381D01*
X18564048Y-13180381D02*
X18564048Y-13142286D01*
X18564048Y-13142286D02*
X18554524Y-13094667D01*
X18554524Y-13094667D02*
X18545000Y-13066095D01*
X18545000Y-13066095D02*
X18535477Y-13047048D01*
X18535477Y-13047048D02*
X18516429Y-13018476D01*
X18516429Y-13018476D02*
X18506905Y-13008952D01*
D13*
X13745000Y-13409000D02*
G75*
G03*
X13745000Y-13409000I-15000J0D01*
G01*
D11*
X14030714Y-13301524D02*
X14049762Y-13301524D01*
X14049762Y-13301524D02*
X14068809Y-13311048D01*
X14068809Y-13311048D02*
X14078333Y-13320571D01*
X14078333Y-13320571D02*
X14087857Y-13339619D01*
X14087857Y-13339619D02*
X14097381Y-13377714D01*
X14097381Y-13377714D02*
X14097381Y-13425333D01*
X14097381Y-13425333D02*
X14087857Y-13463428D01*
X14087857Y-13463428D02*
X14078333Y-13482476D01*
X14078333Y-13482476D02*
X14068809Y-13492000D01*
X14068809Y-13492000D02*
X14049762Y-13501524D01*
X14049762Y-13501524D02*
X14030714Y-13501524D01*
X14030714Y-13501524D02*
X14011667Y-13492000D01*
X14011667Y-13492000D02*
X14002143Y-13482476D01*
X14002143Y-13482476D02*
X13992619Y-13463428D01*
X13992619Y-13463428D02*
X13983095Y-13425333D01*
X13983095Y-13425333D02*
X13983095Y-13377714D01*
X13983095Y-13377714D02*
X13992619Y-13339619D01*
X13992619Y-13339619D02*
X14002143Y-13320571D01*
X14002143Y-13320571D02*
X14011667Y-13311048D01*
X14011667Y-13311048D02*
X14030714Y-13301524D01*
X14183095Y-13482476D02*
X14192619Y-13492000D01*
X14192619Y-13492000D02*
X14183095Y-13501524D01*
X14183095Y-13501524D02*
X14173571Y-13492000D01*
X14173571Y-13492000D02*
X14183095Y-13482476D01*
X14183095Y-13482476D02*
X14183095Y-13501524D01*
X14259286Y-13301524D02*
X14383095Y-13301524D01*
X14383095Y-13301524D02*
X14316428Y-13377714D01*
X14316428Y-13377714D02*
X14345000Y-13377714D01*
X14345000Y-13377714D02*
X14364048Y-13387238D01*
X14364048Y-13387238D02*
X14373571Y-13396762D01*
X14373571Y-13396762D02*
X14383095Y-13415809D01*
X14383095Y-13415809D02*
X14383095Y-13463428D01*
X14383095Y-13463428D02*
X14373571Y-13482476D01*
X14373571Y-13482476D02*
X14364048Y-13492000D01*
X14364048Y-13492000D02*
X14345000Y-13501524D01*
X14345000Y-13501524D02*
X14287857Y-13501524D01*
X14287857Y-13501524D02*
X14268809Y-13492000D01*
X14268809Y-13492000D02*
X14259286Y-13482476D01*
X14506905Y-13301524D02*
X14525952Y-13301524D01*
X14525952Y-13301524D02*
X14545000Y-13311048D01*
X14545000Y-13311048D02*
X14554524Y-13320571D01*
X14554524Y-13320571D02*
X14564048Y-13339619D01*
X14564048Y-13339619D02*
X14573571Y-13377714D01*
X14573571Y-13377714D02*
X14573571Y-13425333D01*
X14573571Y-13425333D02*
X14564048Y-13463428D01*
X14564048Y-13463428D02*
X14554524Y-13482476D01*
X14554524Y-13482476D02*
X14545000Y-13492000D01*
X14545000Y-13492000D02*
X14525952Y-13501524D01*
X14525952Y-13501524D02*
X14506905Y-13501524D01*
X14506905Y-13501524D02*
X14487857Y-13492000D01*
X14487857Y-13492000D02*
X14478333Y-13482476D01*
X14478333Y-13482476D02*
X14468809Y-13463428D01*
X14468809Y-13463428D02*
X14459286Y-13425333D01*
X14459286Y-13425333D02*
X14459286Y-13377714D01*
X14459286Y-13377714D02*
X14468809Y-13339619D01*
X14468809Y-13339619D02*
X14478333Y-13320571D01*
X14478333Y-13320571D02*
X14487857Y-13311048D01*
X14487857Y-13311048D02*
X14506905Y-13301524D01*
X14697381Y-13301524D02*
X14716429Y-13301524D01*
X14716429Y-13301524D02*
X14735476Y-13311048D01*
X14735476Y-13311048D02*
X14745000Y-13320571D01*
X14745000Y-13320571D02*
X14754524Y-13339619D01*
X14754524Y-13339619D02*
X14764048Y-13377714D01*
X14764048Y-13377714D02*
X14764048Y-13425333D01*
X14764048Y-13425333D02*
X14754524Y-13463428D01*
X14754524Y-13463428D02*
X14745000Y-13482476D01*
X14745000Y-13482476D02*
X14735476Y-13492000D01*
X14735476Y-13492000D02*
X14716429Y-13501524D01*
X14716429Y-13501524D02*
X14697381Y-13501524D01*
X14697381Y-13501524D02*
X14678333Y-13492000D01*
X14678333Y-13492000D02*
X14668809Y-13482476D01*
X14668809Y-13482476D02*
X14659286Y-13463428D01*
X14659286Y-13463428D02*
X14649762Y-13425333D01*
X14649762Y-13425333D02*
X14649762Y-13377714D01*
X14649762Y-13377714D02*
X14659286Y-13339619D01*
X14659286Y-13339619D02*
X14668809Y-13320571D01*
X14668809Y-13320571D02*
X14678333Y-13311048D01*
X14678333Y-13311048D02*
X14697381Y-13301524D01*
X14849762Y-13501524D02*
X14849762Y-13368190D01*
X14849762Y-13387238D02*
X14859286Y-13377714D01*
X14859286Y-13377714D02*
X14878333Y-13368190D01*
X14878333Y-13368190D02*
X14906905Y-13368190D01*
X14906905Y-13368190D02*
X14925952Y-13377714D01*
X14925952Y-13377714D02*
X14935476Y-13396762D01*
X14935476Y-13396762D02*
X14935476Y-13501524D01*
X14935476Y-13396762D02*
X14945000Y-13377714D01*
X14945000Y-13377714D02*
X14964048Y-13368190D01*
X14964048Y-13368190D02*
X14992619Y-13368190D01*
X14992619Y-13368190D02*
X15011667Y-13377714D01*
X15011667Y-13377714D02*
X15021190Y-13396762D01*
X15021190Y-13396762D02*
X15021190Y-13501524D01*
X15116429Y-13501524D02*
X15116429Y-13368190D01*
X15116429Y-13387238D02*
X15125952Y-13377714D01*
X15125952Y-13377714D02*
X15145000Y-13368190D01*
X15145000Y-13368190D02*
X15173571Y-13368190D01*
X15173571Y-13368190D02*
X15192619Y-13377714D01*
X15192619Y-13377714D02*
X15202143Y-13396762D01*
X15202143Y-13396762D02*
X15202143Y-13501524D01*
X15202143Y-13396762D02*
X15211667Y-13377714D01*
X15211667Y-13377714D02*
X15230714Y-13368190D01*
X15230714Y-13368190D02*
X15259286Y-13368190D01*
X15259286Y-13368190D02*
X15278333Y-13377714D01*
X15278333Y-13377714D02*
X15287857Y-13396762D01*
X15287857Y-13396762D02*
X15287857Y-13501524D01*
X15678333Y-13292000D02*
X15506905Y-13549143D01*
X15935476Y-13301524D02*
X15954524Y-13301524D01*
X15954524Y-13301524D02*
X15973572Y-13311048D01*
X15973572Y-13311048D02*
X15983095Y-13320571D01*
X15983095Y-13320571D02*
X15992619Y-13339619D01*
X15992619Y-13339619D02*
X16002143Y-13377714D01*
X16002143Y-13377714D02*
X16002143Y-13425333D01*
X16002143Y-13425333D02*
X15992619Y-13463428D01*
X15992619Y-13463428D02*
X15983095Y-13482476D01*
X15983095Y-13482476D02*
X15973572Y-13492000D01*
X15973572Y-13492000D02*
X15954524Y-13501524D01*
X15954524Y-13501524D02*
X15935476Y-13501524D01*
X15935476Y-13501524D02*
X15916429Y-13492000D01*
X15916429Y-13492000D02*
X15906905Y-13482476D01*
X15906905Y-13482476D02*
X15897381Y-13463428D01*
X15897381Y-13463428D02*
X15887857Y-13425333D01*
X15887857Y-13425333D02*
X15887857Y-13377714D01*
X15887857Y-13377714D02*
X15897381Y-13339619D01*
X15897381Y-13339619D02*
X15906905Y-13320571D01*
X15906905Y-13320571D02*
X15916429Y-13311048D01*
X15916429Y-13311048D02*
X15935476Y-13301524D01*
X16087857Y-13482476D02*
X16097381Y-13492000D01*
X16097381Y-13492000D02*
X16087857Y-13501524D01*
X16087857Y-13501524D02*
X16078333Y-13492000D01*
X16078333Y-13492000D02*
X16087857Y-13482476D01*
X16087857Y-13482476D02*
X16087857Y-13501524D01*
X16221191Y-13301524D02*
X16240238Y-13301524D01*
X16240238Y-13301524D02*
X16259286Y-13311048D01*
X16259286Y-13311048D02*
X16268810Y-13320571D01*
X16268810Y-13320571D02*
X16278333Y-13339619D01*
X16278333Y-13339619D02*
X16287857Y-13377714D01*
X16287857Y-13377714D02*
X16287857Y-13425333D01*
X16287857Y-13425333D02*
X16278333Y-13463428D01*
X16278333Y-13463428D02*
X16268810Y-13482476D01*
X16268810Y-13482476D02*
X16259286Y-13492000D01*
X16259286Y-13492000D02*
X16240238Y-13501524D01*
X16240238Y-13501524D02*
X16221191Y-13501524D01*
X16221191Y-13501524D02*
X16202143Y-13492000D01*
X16202143Y-13492000D02*
X16192619Y-13482476D01*
X16192619Y-13482476D02*
X16183095Y-13463428D01*
X16183095Y-13463428D02*
X16173572Y-13425333D01*
X16173572Y-13425333D02*
X16173572Y-13377714D01*
X16173572Y-13377714D02*
X16183095Y-13339619D01*
X16183095Y-13339619D02*
X16192619Y-13320571D01*
X16192619Y-13320571D02*
X16202143Y-13311048D01*
X16202143Y-13311048D02*
X16221191Y-13301524D01*
X16478333Y-13501524D02*
X16364048Y-13501524D01*
X16421191Y-13501524D02*
X16421191Y-13301524D01*
X16421191Y-13301524D02*
X16402143Y-13330095D01*
X16402143Y-13330095D02*
X16383095Y-13349143D01*
X16383095Y-13349143D02*
X16364048Y-13358667D01*
X16668810Y-13501524D02*
X16554524Y-13501524D01*
X16611667Y-13501524D02*
X16611667Y-13301524D01*
X16611667Y-13301524D02*
X16592619Y-13330095D01*
X16592619Y-13330095D02*
X16573572Y-13349143D01*
X16573572Y-13349143D02*
X16554524Y-13358667D01*
X16783095Y-13387238D02*
X16764048Y-13377714D01*
X16764048Y-13377714D02*
X16754524Y-13368190D01*
X16754524Y-13368190D02*
X16745000Y-13349143D01*
X16745000Y-13349143D02*
X16745000Y-13339619D01*
X16745000Y-13339619D02*
X16754524Y-13320571D01*
X16754524Y-13320571D02*
X16764048Y-13311048D01*
X16764048Y-13311048D02*
X16783095Y-13301524D01*
X16783095Y-13301524D02*
X16821191Y-13301524D01*
X16821191Y-13301524D02*
X16840238Y-13311048D01*
X16840238Y-13311048D02*
X16849762Y-13320571D01*
X16849762Y-13320571D02*
X16859286Y-13339619D01*
X16859286Y-13339619D02*
X16859286Y-13349143D01*
X16859286Y-13349143D02*
X16849762Y-13368190D01*
X16849762Y-13368190D02*
X16840238Y-13377714D01*
X16840238Y-13377714D02*
X16821191Y-13387238D01*
X16821191Y-13387238D02*
X16783095Y-13387238D01*
X16783095Y-13387238D02*
X16764048Y-13396762D01*
X16764048Y-13396762D02*
X16754524Y-13406286D01*
X16754524Y-13406286D02*
X16745000Y-13425333D01*
X16745000Y-13425333D02*
X16745000Y-13463428D01*
X16745000Y-13463428D02*
X16754524Y-13482476D01*
X16754524Y-13482476D02*
X16764048Y-13492000D01*
X16764048Y-13492000D02*
X16783095Y-13501524D01*
X16783095Y-13501524D02*
X16821191Y-13501524D01*
X16821191Y-13501524D02*
X16840238Y-13492000D01*
X16840238Y-13492000D02*
X16849762Y-13482476D01*
X16849762Y-13482476D02*
X16859286Y-13463428D01*
X16859286Y-13463428D02*
X16859286Y-13425333D01*
X16859286Y-13425333D02*
X16849762Y-13406286D01*
X16849762Y-13406286D02*
X16840238Y-13396762D01*
X16840238Y-13396762D02*
X16821191Y-13387238D01*
X16935476Y-13301524D02*
X16935476Y-13339619D01*
X17011667Y-13301524D02*
X17011667Y-13339619D01*
X17306905Y-13577714D02*
X17297381Y-13568190D01*
X17297381Y-13568190D02*
X17278334Y-13539619D01*
X17278334Y-13539619D02*
X17268810Y-13520571D01*
X17268810Y-13520571D02*
X17259286Y-13492000D01*
X17259286Y-13492000D02*
X17249762Y-13444381D01*
X17249762Y-13444381D02*
X17249762Y-13406286D01*
X17249762Y-13406286D02*
X17259286Y-13358667D01*
X17259286Y-13358667D02*
X17268810Y-13330095D01*
X17268810Y-13330095D02*
X17278334Y-13311048D01*
X17278334Y-13311048D02*
X17297381Y-13282476D01*
X17297381Y-13282476D02*
X17306905Y-13272952D01*
X17487857Y-13501524D02*
X17373572Y-13501524D01*
X17430715Y-13501524D02*
X17430715Y-13301524D01*
X17430715Y-13301524D02*
X17411667Y-13330095D01*
X17411667Y-13330095D02*
X17392619Y-13349143D01*
X17392619Y-13349143D02*
X17373572Y-13358667D01*
X17602143Y-13387238D02*
X17583096Y-13377714D01*
X17583096Y-13377714D02*
X17573572Y-13368190D01*
X17573572Y-13368190D02*
X17564048Y-13349143D01*
X17564048Y-13349143D02*
X17564048Y-13339619D01*
X17564048Y-13339619D02*
X17573572Y-13320571D01*
X17573572Y-13320571D02*
X17583096Y-13311048D01*
X17583096Y-13311048D02*
X17602143Y-13301524D01*
X17602143Y-13301524D02*
X17640238Y-13301524D01*
X17640238Y-13301524D02*
X17659286Y-13311048D01*
X17659286Y-13311048D02*
X17668810Y-13320571D01*
X17668810Y-13320571D02*
X17678334Y-13339619D01*
X17678334Y-13339619D02*
X17678334Y-13349143D01*
X17678334Y-13349143D02*
X17668810Y-13368190D01*
X17668810Y-13368190D02*
X17659286Y-13377714D01*
X17659286Y-13377714D02*
X17640238Y-13387238D01*
X17640238Y-13387238D02*
X17602143Y-13387238D01*
X17602143Y-13387238D02*
X17583096Y-13396762D01*
X17583096Y-13396762D02*
X17573572Y-13406286D01*
X17573572Y-13406286D02*
X17564048Y-13425333D01*
X17564048Y-13425333D02*
X17564048Y-13463428D01*
X17564048Y-13463428D02*
X17573572Y-13482476D01*
X17573572Y-13482476D02*
X17583096Y-13492000D01*
X17583096Y-13492000D02*
X17602143Y-13501524D01*
X17602143Y-13501524D02*
X17640238Y-13501524D01*
X17640238Y-13501524D02*
X17659286Y-13492000D01*
X17659286Y-13492000D02*
X17668810Y-13482476D01*
X17668810Y-13482476D02*
X17678334Y-13463428D01*
X17678334Y-13463428D02*
X17678334Y-13425333D01*
X17678334Y-13425333D02*
X17668810Y-13406286D01*
X17668810Y-13406286D02*
X17659286Y-13396762D01*
X17659286Y-13396762D02*
X17640238Y-13387238D01*
X17754524Y-13320571D02*
X17764048Y-13311048D01*
X17764048Y-13311048D02*
X17783096Y-13301524D01*
X17783096Y-13301524D02*
X17830715Y-13301524D01*
X17830715Y-13301524D02*
X17849762Y-13311048D01*
X17849762Y-13311048D02*
X17859286Y-13320571D01*
X17859286Y-13320571D02*
X17868810Y-13339619D01*
X17868810Y-13339619D02*
X17868810Y-13358667D01*
X17868810Y-13358667D02*
X17859286Y-13387238D01*
X17859286Y-13387238D02*
X17745000Y-13501524D01*
X17745000Y-13501524D02*
X17868810Y-13501524D01*
X18106905Y-13501524D02*
X18106905Y-13301524D01*
X18192619Y-13501524D02*
X18192619Y-13396762D01*
X18192619Y-13396762D02*
X18183096Y-13377714D01*
X18183096Y-13377714D02*
X18164048Y-13368190D01*
X18164048Y-13368190D02*
X18135477Y-13368190D01*
X18135477Y-13368190D02*
X18116429Y-13377714D01*
X18116429Y-13377714D02*
X18106905Y-13387238D01*
X18316429Y-13501524D02*
X18297381Y-13492000D01*
X18297381Y-13492000D02*
X18287858Y-13482476D01*
X18287858Y-13482476D02*
X18278334Y-13463428D01*
X18278334Y-13463428D02*
X18278334Y-13406286D01*
X18278334Y-13406286D02*
X18287858Y-13387238D01*
X18287858Y-13387238D02*
X18297381Y-13377714D01*
X18297381Y-13377714D02*
X18316429Y-13368190D01*
X18316429Y-13368190D02*
X18345000Y-13368190D01*
X18345000Y-13368190D02*
X18364048Y-13377714D01*
X18364048Y-13377714D02*
X18373572Y-13387238D01*
X18373572Y-13387238D02*
X18383096Y-13406286D01*
X18383096Y-13406286D02*
X18383096Y-13463428D01*
X18383096Y-13463428D02*
X18373572Y-13482476D01*
X18373572Y-13482476D02*
X18364048Y-13492000D01*
X18364048Y-13492000D02*
X18345000Y-13501524D01*
X18345000Y-13501524D02*
X18316429Y-13501524D01*
X18497381Y-13501524D02*
X18478334Y-13492000D01*
X18478334Y-13492000D02*
X18468810Y-13472952D01*
X18468810Y-13472952D02*
X18468810Y-13301524D01*
X18649762Y-13492000D02*
X18630715Y-13501524D01*
X18630715Y-13501524D02*
X18592619Y-13501524D01*
X18592619Y-13501524D02*
X18573572Y-13492000D01*
X18573572Y-13492000D02*
X18564048Y-13472952D01*
X18564048Y-13472952D02*
X18564048Y-13396762D01*
X18564048Y-13396762D02*
X18573572Y-13377714D01*
X18573572Y-13377714D02*
X18592619Y-13368190D01*
X18592619Y-13368190D02*
X18630715Y-13368190D01*
X18630715Y-13368190D02*
X18649762Y-13377714D01*
X18649762Y-13377714D02*
X18659286Y-13396762D01*
X18659286Y-13396762D02*
X18659286Y-13415809D01*
X18659286Y-13415809D02*
X18564048Y-13434857D01*
X18735477Y-13492000D02*
X18754524Y-13501524D01*
X18754524Y-13501524D02*
X18792619Y-13501524D01*
X18792619Y-13501524D02*
X18811667Y-13492000D01*
X18811667Y-13492000D02*
X18821191Y-13472952D01*
X18821191Y-13472952D02*
X18821191Y-13463428D01*
X18821191Y-13463428D02*
X18811667Y-13444381D01*
X18811667Y-13444381D02*
X18792619Y-13434857D01*
X18792619Y-13434857D02*
X18764048Y-13434857D01*
X18764048Y-13434857D02*
X18745000Y-13425333D01*
X18745000Y-13425333D02*
X18735477Y-13406286D01*
X18735477Y-13406286D02*
X18735477Y-13396762D01*
X18735477Y-13396762D02*
X18745000Y-13377714D01*
X18745000Y-13377714D02*
X18764048Y-13368190D01*
X18764048Y-13368190D02*
X18792619Y-13368190D01*
X18792619Y-13368190D02*
X18811667Y-13377714D01*
X18887858Y-13577714D02*
X18897381Y-13568190D01*
X18897381Y-13568190D02*
X18916429Y-13539619D01*
X18916429Y-13539619D02*
X18925953Y-13520571D01*
X18925953Y-13520571D02*
X18935477Y-13492000D01*
X18935477Y-13492000D02*
X18945000Y-13444381D01*
X18945000Y-13444381D02*
X18945000Y-13406286D01*
X18945000Y-13406286D02*
X18935477Y-13358667D01*
X18935477Y-13358667D02*
X18925953Y-13330095D01*
X18925953Y-13330095D02*
X18916429Y-13311048D01*
X18916429Y-13311048D02*
X18897381Y-13282476D01*
X18897381Y-13282476D02*
X18887858Y-13272952D01*
D14*
X13725000Y-13653000D02*
X13725000Y-13693000D01*
X13705000Y-13673000D02*
X13745000Y-13673000D01*
D11*
X14030714Y-13565524D02*
X14049762Y-13565524D01*
X14049762Y-13565524D02*
X14068809Y-13575048D01*
X14068809Y-13575048D02*
X14078333Y-13584571D01*
X14078333Y-13584571D02*
X14087857Y-13603619D01*
X14087857Y-13603619D02*
X14097381Y-13641714D01*
X14097381Y-13641714D02*
X14097381Y-13689333D01*
X14097381Y-13689333D02*
X14087857Y-13727428D01*
X14087857Y-13727428D02*
X14078333Y-13746476D01*
X14078333Y-13746476D02*
X14068809Y-13756000D01*
X14068809Y-13756000D02*
X14049762Y-13765524D01*
X14049762Y-13765524D02*
X14030714Y-13765524D01*
X14030714Y-13765524D02*
X14011667Y-13756000D01*
X14011667Y-13756000D02*
X14002143Y-13746476D01*
X14002143Y-13746476D02*
X13992619Y-13727428D01*
X13992619Y-13727428D02*
X13983095Y-13689333D01*
X13983095Y-13689333D02*
X13983095Y-13641714D01*
X13983095Y-13641714D02*
X13992619Y-13603619D01*
X13992619Y-13603619D02*
X14002143Y-13584571D01*
X14002143Y-13584571D02*
X14011667Y-13575048D01*
X14011667Y-13575048D02*
X14030714Y-13565524D01*
X14183095Y-13746476D02*
X14192619Y-13756000D01*
X14192619Y-13756000D02*
X14183095Y-13765524D01*
X14183095Y-13765524D02*
X14173571Y-13756000D01*
X14173571Y-13756000D02*
X14183095Y-13746476D01*
X14183095Y-13746476D02*
X14183095Y-13765524D01*
X14364048Y-13632190D02*
X14364048Y-13765524D01*
X14316428Y-13556000D02*
X14268809Y-13698857D01*
X14268809Y-13698857D02*
X14392619Y-13698857D01*
X14506905Y-13565524D02*
X14525952Y-13565524D01*
X14525952Y-13565524D02*
X14545000Y-13575048D01*
X14545000Y-13575048D02*
X14554524Y-13584571D01*
X14554524Y-13584571D02*
X14564048Y-13603619D01*
X14564048Y-13603619D02*
X14573571Y-13641714D01*
X14573571Y-13641714D02*
X14573571Y-13689333D01*
X14573571Y-13689333D02*
X14564048Y-13727428D01*
X14564048Y-13727428D02*
X14554524Y-13746476D01*
X14554524Y-13746476D02*
X14545000Y-13756000D01*
X14545000Y-13756000D02*
X14525952Y-13765524D01*
X14525952Y-13765524D02*
X14506905Y-13765524D01*
X14506905Y-13765524D02*
X14487857Y-13756000D01*
X14487857Y-13756000D02*
X14478333Y-13746476D01*
X14478333Y-13746476D02*
X14468809Y-13727428D01*
X14468809Y-13727428D02*
X14459286Y-13689333D01*
X14459286Y-13689333D02*
X14459286Y-13641714D01*
X14459286Y-13641714D02*
X14468809Y-13603619D01*
X14468809Y-13603619D02*
X14478333Y-13584571D01*
X14478333Y-13584571D02*
X14487857Y-13575048D01*
X14487857Y-13575048D02*
X14506905Y-13565524D01*
X14697381Y-13565524D02*
X14716429Y-13565524D01*
X14716429Y-13565524D02*
X14735476Y-13575048D01*
X14735476Y-13575048D02*
X14745000Y-13584571D01*
X14745000Y-13584571D02*
X14754524Y-13603619D01*
X14754524Y-13603619D02*
X14764048Y-13641714D01*
X14764048Y-13641714D02*
X14764048Y-13689333D01*
X14764048Y-13689333D02*
X14754524Y-13727428D01*
X14754524Y-13727428D02*
X14745000Y-13746476D01*
X14745000Y-13746476D02*
X14735476Y-13756000D01*
X14735476Y-13756000D02*
X14716429Y-13765524D01*
X14716429Y-13765524D02*
X14697381Y-13765524D01*
X14697381Y-13765524D02*
X14678333Y-13756000D01*
X14678333Y-13756000D02*
X14668809Y-13746476D01*
X14668809Y-13746476D02*
X14659286Y-13727428D01*
X14659286Y-13727428D02*
X14649762Y-13689333D01*
X14649762Y-13689333D02*
X14649762Y-13641714D01*
X14649762Y-13641714D02*
X14659286Y-13603619D01*
X14659286Y-13603619D02*
X14668809Y-13584571D01*
X14668809Y-13584571D02*
X14678333Y-13575048D01*
X14678333Y-13575048D02*
X14697381Y-13565524D01*
X14849762Y-13765524D02*
X14849762Y-13632190D01*
X14849762Y-13651238D02*
X14859286Y-13641714D01*
X14859286Y-13641714D02*
X14878333Y-13632190D01*
X14878333Y-13632190D02*
X14906905Y-13632190D01*
X14906905Y-13632190D02*
X14925952Y-13641714D01*
X14925952Y-13641714D02*
X14935476Y-13660762D01*
X14935476Y-13660762D02*
X14935476Y-13765524D01*
X14935476Y-13660762D02*
X14945000Y-13641714D01*
X14945000Y-13641714D02*
X14964048Y-13632190D01*
X14964048Y-13632190D02*
X14992619Y-13632190D01*
X14992619Y-13632190D02*
X15011667Y-13641714D01*
X15011667Y-13641714D02*
X15021190Y-13660762D01*
X15021190Y-13660762D02*
X15021190Y-13765524D01*
X15116429Y-13765524D02*
X15116429Y-13632190D01*
X15116429Y-13651238D02*
X15125952Y-13641714D01*
X15125952Y-13641714D02*
X15145000Y-13632190D01*
X15145000Y-13632190D02*
X15173571Y-13632190D01*
X15173571Y-13632190D02*
X15192619Y-13641714D01*
X15192619Y-13641714D02*
X15202143Y-13660762D01*
X15202143Y-13660762D02*
X15202143Y-13765524D01*
X15202143Y-13660762D02*
X15211667Y-13641714D01*
X15211667Y-13641714D02*
X15230714Y-13632190D01*
X15230714Y-13632190D02*
X15259286Y-13632190D01*
X15259286Y-13632190D02*
X15278333Y-13641714D01*
X15278333Y-13641714D02*
X15287857Y-13660762D01*
X15287857Y-13660762D02*
X15287857Y-13765524D01*
X15678333Y-13556000D02*
X15506905Y-13813143D01*
X15935476Y-13565524D02*
X15954524Y-13565524D01*
X15954524Y-13565524D02*
X15973572Y-13575048D01*
X15973572Y-13575048D02*
X15983095Y-13584571D01*
X15983095Y-13584571D02*
X15992619Y-13603619D01*
X15992619Y-13603619D02*
X16002143Y-13641714D01*
X16002143Y-13641714D02*
X16002143Y-13689333D01*
X16002143Y-13689333D02*
X15992619Y-13727428D01*
X15992619Y-13727428D02*
X15983095Y-13746476D01*
X15983095Y-13746476D02*
X15973572Y-13756000D01*
X15973572Y-13756000D02*
X15954524Y-13765524D01*
X15954524Y-13765524D02*
X15935476Y-13765524D01*
X15935476Y-13765524D02*
X15916429Y-13756000D01*
X15916429Y-13756000D02*
X15906905Y-13746476D01*
X15906905Y-13746476D02*
X15897381Y-13727428D01*
X15897381Y-13727428D02*
X15887857Y-13689333D01*
X15887857Y-13689333D02*
X15887857Y-13641714D01*
X15887857Y-13641714D02*
X15897381Y-13603619D01*
X15897381Y-13603619D02*
X15906905Y-13584571D01*
X15906905Y-13584571D02*
X15916429Y-13575048D01*
X15916429Y-13575048D02*
X15935476Y-13565524D01*
X16087857Y-13746476D02*
X16097381Y-13756000D01*
X16097381Y-13756000D02*
X16087857Y-13765524D01*
X16087857Y-13765524D02*
X16078333Y-13756000D01*
X16078333Y-13756000D02*
X16087857Y-13746476D01*
X16087857Y-13746476D02*
X16087857Y-13765524D01*
X16221191Y-13565524D02*
X16240238Y-13565524D01*
X16240238Y-13565524D02*
X16259286Y-13575048D01*
X16259286Y-13575048D02*
X16268810Y-13584571D01*
X16268810Y-13584571D02*
X16278333Y-13603619D01*
X16278333Y-13603619D02*
X16287857Y-13641714D01*
X16287857Y-13641714D02*
X16287857Y-13689333D01*
X16287857Y-13689333D02*
X16278333Y-13727428D01*
X16278333Y-13727428D02*
X16268810Y-13746476D01*
X16268810Y-13746476D02*
X16259286Y-13756000D01*
X16259286Y-13756000D02*
X16240238Y-13765524D01*
X16240238Y-13765524D02*
X16221191Y-13765524D01*
X16221191Y-13765524D02*
X16202143Y-13756000D01*
X16202143Y-13756000D02*
X16192619Y-13746476D01*
X16192619Y-13746476D02*
X16183095Y-13727428D01*
X16183095Y-13727428D02*
X16173572Y-13689333D01*
X16173572Y-13689333D02*
X16173572Y-13641714D01*
X16173572Y-13641714D02*
X16183095Y-13603619D01*
X16183095Y-13603619D02*
X16192619Y-13584571D01*
X16192619Y-13584571D02*
X16202143Y-13575048D01*
X16202143Y-13575048D02*
X16221191Y-13565524D01*
X16478333Y-13765524D02*
X16364048Y-13765524D01*
X16421191Y-13765524D02*
X16421191Y-13565524D01*
X16421191Y-13565524D02*
X16402143Y-13594095D01*
X16402143Y-13594095D02*
X16383095Y-13613143D01*
X16383095Y-13613143D02*
X16364048Y-13622667D01*
X16659286Y-13565524D02*
X16564048Y-13565524D01*
X16564048Y-13565524D02*
X16554524Y-13660762D01*
X16554524Y-13660762D02*
X16564048Y-13651238D01*
X16564048Y-13651238D02*
X16583095Y-13641714D01*
X16583095Y-13641714D02*
X16630714Y-13641714D01*
X16630714Y-13641714D02*
X16649762Y-13651238D01*
X16649762Y-13651238D02*
X16659286Y-13660762D01*
X16659286Y-13660762D02*
X16668810Y-13679809D01*
X16668810Y-13679809D02*
X16668810Y-13727428D01*
X16668810Y-13727428D02*
X16659286Y-13746476D01*
X16659286Y-13746476D02*
X16649762Y-13756000D01*
X16649762Y-13756000D02*
X16630714Y-13765524D01*
X16630714Y-13765524D02*
X16583095Y-13765524D01*
X16583095Y-13765524D02*
X16564048Y-13756000D01*
X16564048Y-13756000D02*
X16554524Y-13746476D01*
X16735476Y-13565524D02*
X16868810Y-13565524D01*
X16868810Y-13565524D02*
X16783095Y-13765524D01*
X16935476Y-13565524D02*
X16935476Y-13603619D01*
X17011667Y-13565524D02*
X17011667Y-13603619D01*
X17306905Y-13841714D02*
X17297381Y-13832190D01*
X17297381Y-13832190D02*
X17278334Y-13803619D01*
X17278334Y-13803619D02*
X17268810Y-13784571D01*
X17268810Y-13784571D02*
X17259286Y-13756000D01*
X17259286Y-13756000D02*
X17249762Y-13708381D01*
X17249762Y-13708381D02*
X17249762Y-13670286D01*
X17249762Y-13670286D02*
X17259286Y-13622667D01*
X17259286Y-13622667D02*
X17268810Y-13594095D01*
X17268810Y-13594095D02*
X17278334Y-13575048D01*
X17278334Y-13575048D02*
X17297381Y-13546476D01*
X17297381Y-13546476D02*
X17306905Y-13536952D01*
X17487857Y-13765524D02*
X17373572Y-13765524D01*
X17430715Y-13765524D02*
X17430715Y-13565524D01*
X17430715Y-13565524D02*
X17411667Y-13594095D01*
X17411667Y-13594095D02*
X17392619Y-13613143D01*
X17392619Y-13613143D02*
X17373572Y-13622667D01*
X17659286Y-13565524D02*
X17621191Y-13565524D01*
X17621191Y-13565524D02*
X17602143Y-13575048D01*
X17602143Y-13575048D02*
X17592619Y-13584571D01*
X17592619Y-13584571D02*
X17573572Y-13613143D01*
X17573572Y-13613143D02*
X17564048Y-13651238D01*
X17564048Y-13651238D02*
X17564048Y-13727428D01*
X17564048Y-13727428D02*
X17573572Y-13746476D01*
X17573572Y-13746476D02*
X17583096Y-13756000D01*
X17583096Y-13756000D02*
X17602143Y-13765524D01*
X17602143Y-13765524D02*
X17640238Y-13765524D01*
X17640238Y-13765524D02*
X17659286Y-13756000D01*
X17659286Y-13756000D02*
X17668810Y-13746476D01*
X17668810Y-13746476D02*
X17678334Y-13727428D01*
X17678334Y-13727428D02*
X17678334Y-13679809D01*
X17678334Y-13679809D02*
X17668810Y-13660762D01*
X17668810Y-13660762D02*
X17659286Y-13651238D01*
X17659286Y-13651238D02*
X17640238Y-13641714D01*
X17640238Y-13641714D02*
X17602143Y-13641714D01*
X17602143Y-13641714D02*
X17583096Y-13651238D01*
X17583096Y-13651238D02*
X17573572Y-13660762D01*
X17573572Y-13660762D02*
X17564048Y-13679809D01*
X17916429Y-13765524D02*
X17916429Y-13565524D01*
X18002143Y-13765524D02*
X18002143Y-13660762D01*
X18002143Y-13660762D02*
X17992619Y-13641714D01*
X17992619Y-13641714D02*
X17973572Y-13632190D01*
X17973572Y-13632190D02*
X17945000Y-13632190D01*
X17945000Y-13632190D02*
X17925953Y-13641714D01*
X17925953Y-13641714D02*
X17916429Y-13651238D01*
X18125953Y-13765524D02*
X18106905Y-13756000D01*
X18106905Y-13756000D02*
X18097381Y-13746476D01*
X18097381Y-13746476D02*
X18087858Y-13727428D01*
X18087858Y-13727428D02*
X18087858Y-13670286D01*
X18087858Y-13670286D02*
X18097381Y-13651238D01*
X18097381Y-13651238D02*
X18106905Y-13641714D01*
X18106905Y-13641714D02*
X18125953Y-13632190D01*
X18125953Y-13632190D02*
X18154524Y-13632190D01*
X18154524Y-13632190D02*
X18173572Y-13641714D01*
X18173572Y-13641714D02*
X18183096Y-13651238D01*
X18183096Y-13651238D02*
X18192619Y-13670286D01*
X18192619Y-13670286D02*
X18192619Y-13727428D01*
X18192619Y-13727428D02*
X18183096Y-13746476D01*
X18183096Y-13746476D02*
X18173572Y-13756000D01*
X18173572Y-13756000D02*
X18154524Y-13765524D01*
X18154524Y-13765524D02*
X18125953Y-13765524D01*
X18306905Y-13765524D02*
X18287858Y-13756000D01*
X18287858Y-13756000D02*
X18278334Y-13736952D01*
X18278334Y-13736952D02*
X18278334Y-13565524D01*
X18459286Y-13756000D02*
X18440239Y-13765524D01*
X18440239Y-13765524D02*
X18402143Y-13765524D01*
X18402143Y-13765524D02*
X18383096Y-13756000D01*
X18383096Y-13756000D02*
X18373572Y-13736952D01*
X18373572Y-13736952D02*
X18373572Y-13660762D01*
X18373572Y-13660762D02*
X18383096Y-13641714D01*
X18383096Y-13641714D02*
X18402143Y-13632190D01*
X18402143Y-13632190D02*
X18440239Y-13632190D01*
X18440239Y-13632190D02*
X18459286Y-13641714D01*
X18459286Y-13641714D02*
X18468810Y-13660762D01*
X18468810Y-13660762D02*
X18468810Y-13679809D01*
X18468810Y-13679809D02*
X18373572Y-13698857D01*
X18545000Y-13756000D02*
X18564048Y-13765524D01*
X18564048Y-13765524D02*
X18602143Y-13765524D01*
X18602143Y-13765524D02*
X18621191Y-13756000D01*
X18621191Y-13756000D02*
X18630715Y-13736952D01*
X18630715Y-13736952D02*
X18630715Y-13727428D01*
X18630715Y-13727428D02*
X18621191Y-13708381D01*
X18621191Y-13708381D02*
X18602143Y-13698857D01*
X18602143Y-13698857D02*
X18573572Y-13698857D01*
X18573572Y-13698857D02*
X18554524Y-13689333D01*
X18554524Y-13689333D02*
X18545000Y-13670286D01*
X18545000Y-13670286D02*
X18545000Y-13660762D01*
X18545000Y-13660762D02*
X18554524Y-13641714D01*
X18554524Y-13641714D02*
X18573572Y-13632190D01*
X18573572Y-13632190D02*
X18602143Y-13632190D01*
X18602143Y-13632190D02*
X18621191Y-13641714D01*
X18697381Y-13841714D02*
X18706905Y-13832190D01*
X18706905Y-13832190D02*
X18725953Y-13803619D01*
X18725953Y-13803619D02*
X18735477Y-13784571D01*
X18735477Y-13784571D02*
X18745000Y-13756000D01*
X18745000Y-13756000D02*
X18754524Y-13708381D01*
X18754524Y-13708381D02*
X18754524Y-13670286D01*
X18754524Y-13670286D02*
X18745000Y-13622667D01*
X18745000Y-13622667D02*
X18735477Y-13594095D01*
X18735477Y-13594095D02*
X18725953Y-13575048D01*
X18725953Y-13575048D02*
X18706905Y-13546476D01*
X18706905Y-13546476D02*
X18697381Y-13536952D01*
D15*
X13736213Y-13958213D02*
X13736213Y-13915787D01*
X13693787Y-13915787D01*
X13693787Y-13958213D01*
X13736213Y-13958213D01*
D11*
X14030714Y-13829524D02*
X14049762Y-13829524D01*
X14049762Y-13829524D02*
X14068809Y-13839048D01*
X14068809Y-13839048D02*
X14078333Y-13848571D01*
X14078333Y-13848571D02*
X14087857Y-13867619D01*
X14087857Y-13867619D02*
X14097381Y-13905714D01*
X14097381Y-13905714D02*
X14097381Y-13953333D01*
X14097381Y-13953333D02*
X14087857Y-13991428D01*
X14087857Y-13991428D02*
X14078333Y-14010476D01*
X14078333Y-14010476D02*
X14068809Y-14020000D01*
X14068809Y-14020000D02*
X14049762Y-14029524D01*
X14049762Y-14029524D02*
X14030714Y-14029524D01*
X14030714Y-14029524D02*
X14011667Y-14020000D01*
X14011667Y-14020000D02*
X14002143Y-14010476D01*
X14002143Y-14010476D02*
X13992619Y-13991428D01*
X13992619Y-13991428D02*
X13983095Y-13953333D01*
X13983095Y-13953333D02*
X13983095Y-13905714D01*
X13983095Y-13905714D02*
X13992619Y-13867619D01*
X13992619Y-13867619D02*
X14002143Y-13848571D01*
X14002143Y-13848571D02*
X14011667Y-13839048D01*
X14011667Y-13839048D02*
X14030714Y-13829524D01*
X14183095Y-14010476D02*
X14192619Y-14020000D01*
X14192619Y-14020000D02*
X14183095Y-14029524D01*
X14183095Y-14029524D02*
X14173571Y-14020000D01*
X14173571Y-14020000D02*
X14183095Y-14010476D01*
X14183095Y-14010476D02*
X14183095Y-14029524D01*
X14364048Y-13829524D02*
X14325952Y-13829524D01*
X14325952Y-13829524D02*
X14306905Y-13839048D01*
X14306905Y-13839048D02*
X14297381Y-13848571D01*
X14297381Y-13848571D02*
X14278333Y-13877143D01*
X14278333Y-13877143D02*
X14268809Y-13915238D01*
X14268809Y-13915238D02*
X14268809Y-13991428D01*
X14268809Y-13991428D02*
X14278333Y-14010476D01*
X14278333Y-14010476D02*
X14287857Y-14020000D01*
X14287857Y-14020000D02*
X14306905Y-14029524D01*
X14306905Y-14029524D02*
X14345000Y-14029524D01*
X14345000Y-14029524D02*
X14364048Y-14020000D01*
X14364048Y-14020000D02*
X14373571Y-14010476D01*
X14373571Y-14010476D02*
X14383095Y-13991428D01*
X14383095Y-13991428D02*
X14383095Y-13943809D01*
X14383095Y-13943809D02*
X14373571Y-13924762D01*
X14373571Y-13924762D02*
X14364048Y-13915238D01*
X14364048Y-13915238D02*
X14345000Y-13905714D01*
X14345000Y-13905714D02*
X14306905Y-13905714D01*
X14306905Y-13905714D02*
X14287857Y-13915238D01*
X14287857Y-13915238D02*
X14278333Y-13924762D01*
X14278333Y-13924762D02*
X14268809Y-13943809D01*
X14506905Y-13829524D02*
X14525952Y-13829524D01*
X14525952Y-13829524D02*
X14545000Y-13839048D01*
X14545000Y-13839048D02*
X14554524Y-13848571D01*
X14554524Y-13848571D02*
X14564048Y-13867619D01*
X14564048Y-13867619D02*
X14573571Y-13905714D01*
X14573571Y-13905714D02*
X14573571Y-13953333D01*
X14573571Y-13953333D02*
X14564048Y-13991428D01*
X14564048Y-13991428D02*
X14554524Y-14010476D01*
X14554524Y-14010476D02*
X14545000Y-14020000D01*
X14545000Y-14020000D02*
X14525952Y-14029524D01*
X14525952Y-14029524D02*
X14506905Y-14029524D01*
X14506905Y-14029524D02*
X14487857Y-14020000D01*
X14487857Y-14020000D02*
X14478333Y-14010476D01*
X14478333Y-14010476D02*
X14468809Y-13991428D01*
X14468809Y-13991428D02*
X14459286Y-13953333D01*
X14459286Y-13953333D02*
X14459286Y-13905714D01*
X14459286Y-13905714D02*
X14468809Y-13867619D01*
X14468809Y-13867619D02*
X14478333Y-13848571D01*
X14478333Y-13848571D02*
X14487857Y-13839048D01*
X14487857Y-13839048D02*
X14506905Y-13829524D01*
X14697381Y-13829524D02*
X14716429Y-13829524D01*
X14716429Y-13829524D02*
X14735476Y-13839048D01*
X14735476Y-13839048D02*
X14745000Y-13848571D01*
X14745000Y-13848571D02*
X14754524Y-13867619D01*
X14754524Y-13867619D02*
X14764048Y-13905714D01*
X14764048Y-13905714D02*
X14764048Y-13953333D01*
X14764048Y-13953333D02*
X14754524Y-13991428D01*
X14754524Y-13991428D02*
X14745000Y-14010476D01*
X14745000Y-14010476D02*
X14735476Y-14020000D01*
X14735476Y-14020000D02*
X14716429Y-14029524D01*
X14716429Y-14029524D02*
X14697381Y-14029524D01*
X14697381Y-14029524D02*
X14678333Y-14020000D01*
X14678333Y-14020000D02*
X14668809Y-14010476D01*
X14668809Y-14010476D02*
X14659286Y-13991428D01*
X14659286Y-13991428D02*
X14649762Y-13953333D01*
X14649762Y-13953333D02*
X14649762Y-13905714D01*
X14649762Y-13905714D02*
X14659286Y-13867619D01*
X14659286Y-13867619D02*
X14668809Y-13848571D01*
X14668809Y-13848571D02*
X14678333Y-13839048D01*
X14678333Y-13839048D02*
X14697381Y-13829524D01*
X14849762Y-14029524D02*
X14849762Y-13896190D01*
X14849762Y-13915238D02*
X14859286Y-13905714D01*
X14859286Y-13905714D02*
X14878333Y-13896190D01*
X14878333Y-13896190D02*
X14906905Y-13896190D01*
X14906905Y-13896190D02*
X14925952Y-13905714D01*
X14925952Y-13905714D02*
X14935476Y-13924762D01*
X14935476Y-13924762D02*
X14935476Y-14029524D01*
X14935476Y-13924762D02*
X14945000Y-13905714D01*
X14945000Y-13905714D02*
X14964048Y-13896190D01*
X14964048Y-13896190D02*
X14992619Y-13896190D01*
X14992619Y-13896190D02*
X15011667Y-13905714D01*
X15011667Y-13905714D02*
X15021190Y-13924762D01*
X15021190Y-13924762D02*
X15021190Y-14029524D01*
X15116429Y-14029524D02*
X15116429Y-13896190D01*
X15116429Y-13915238D02*
X15125952Y-13905714D01*
X15125952Y-13905714D02*
X15145000Y-13896190D01*
X15145000Y-13896190D02*
X15173571Y-13896190D01*
X15173571Y-13896190D02*
X15192619Y-13905714D01*
X15192619Y-13905714D02*
X15202143Y-13924762D01*
X15202143Y-13924762D02*
X15202143Y-14029524D01*
X15202143Y-13924762D02*
X15211667Y-13905714D01*
X15211667Y-13905714D02*
X15230714Y-13896190D01*
X15230714Y-13896190D02*
X15259286Y-13896190D01*
X15259286Y-13896190D02*
X15278333Y-13905714D01*
X15278333Y-13905714D02*
X15287857Y-13924762D01*
X15287857Y-13924762D02*
X15287857Y-14029524D01*
X15678333Y-13820000D02*
X15506905Y-14077143D01*
X15935476Y-13829524D02*
X15954524Y-13829524D01*
X15954524Y-13829524D02*
X15973572Y-13839048D01*
X15973572Y-13839048D02*
X15983095Y-13848571D01*
X15983095Y-13848571D02*
X15992619Y-13867619D01*
X15992619Y-13867619D02*
X16002143Y-13905714D01*
X16002143Y-13905714D02*
X16002143Y-13953333D01*
X16002143Y-13953333D02*
X15992619Y-13991428D01*
X15992619Y-13991428D02*
X15983095Y-14010476D01*
X15983095Y-14010476D02*
X15973572Y-14020000D01*
X15973572Y-14020000D02*
X15954524Y-14029524D01*
X15954524Y-14029524D02*
X15935476Y-14029524D01*
X15935476Y-14029524D02*
X15916429Y-14020000D01*
X15916429Y-14020000D02*
X15906905Y-14010476D01*
X15906905Y-14010476D02*
X15897381Y-13991428D01*
X15897381Y-13991428D02*
X15887857Y-13953333D01*
X15887857Y-13953333D02*
X15887857Y-13905714D01*
X15887857Y-13905714D02*
X15897381Y-13867619D01*
X15897381Y-13867619D02*
X15906905Y-13848571D01*
X15906905Y-13848571D02*
X15916429Y-13839048D01*
X15916429Y-13839048D02*
X15935476Y-13829524D01*
X16087857Y-14010476D02*
X16097381Y-14020000D01*
X16097381Y-14020000D02*
X16087857Y-14029524D01*
X16087857Y-14029524D02*
X16078333Y-14020000D01*
X16078333Y-14020000D02*
X16087857Y-14010476D01*
X16087857Y-14010476D02*
X16087857Y-14029524D01*
X16221191Y-13829524D02*
X16240238Y-13829524D01*
X16240238Y-13829524D02*
X16259286Y-13839048D01*
X16259286Y-13839048D02*
X16268810Y-13848571D01*
X16268810Y-13848571D02*
X16278333Y-13867619D01*
X16278333Y-13867619D02*
X16287857Y-13905714D01*
X16287857Y-13905714D02*
X16287857Y-13953333D01*
X16287857Y-13953333D02*
X16278333Y-13991428D01*
X16278333Y-13991428D02*
X16268810Y-14010476D01*
X16268810Y-14010476D02*
X16259286Y-14020000D01*
X16259286Y-14020000D02*
X16240238Y-14029524D01*
X16240238Y-14029524D02*
X16221191Y-14029524D01*
X16221191Y-14029524D02*
X16202143Y-14020000D01*
X16202143Y-14020000D02*
X16192619Y-14010476D01*
X16192619Y-14010476D02*
X16183095Y-13991428D01*
X16183095Y-13991428D02*
X16173572Y-13953333D01*
X16173572Y-13953333D02*
X16173572Y-13905714D01*
X16173572Y-13905714D02*
X16183095Y-13867619D01*
X16183095Y-13867619D02*
X16192619Y-13848571D01*
X16192619Y-13848571D02*
X16202143Y-13839048D01*
X16202143Y-13839048D02*
X16221191Y-13829524D01*
X16364048Y-13848571D02*
X16373572Y-13839048D01*
X16373572Y-13839048D02*
X16392619Y-13829524D01*
X16392619Y-13829524D02*
X16440238Y-13829524D01*
X16440238Y-13829524D02*
X16459286Y-13839048D01*
X16459286Y-13839048D02*
X16468810Y-13848571D01*
X16468810Y-13848571D02*
X16478333Y-13867619D01*
X16478333Y-13867619D02*
X16478333Y-13886667D01*
X16478333Y-13886667D02*
X16468810Y-13915238D01*
X16468810Y-13915238D02*
X16354524Y-14029524D01*
X16354524Y-14029524D02*
X16478333Y-14029524D01*
X16545000Y-13829524D02*
X16668810Y-13829524D01*
X16668810Y-13829524D02*
X16602143Y-13905714D01*
X16602143Y-13905714D02*
X16630714Y-13905714D01*
X16630714Y-13905714D02*
X16649762Y-13915238D01*
X16649762Y-13915238D02*
X16659286Y-13924762D01*
X16659286Y-13924762D02*
X16668810Y-13943809D01*
X16668810Y-13943809D02*
X16668810Y-13991428D01*
X16668810Y-13991428D02*
X16659286Y-14010476D01*
X16659286Y-14010476D02*
X16649762Y-14020000D01*
X16649762Y-14020000D02*
X16630714Y-14029524D01*
X16630714Y-14029524D02*
X16573572Y-14029524D01*
X16573572Y-14029524D02*
X16554524Y-14020000D01*
X16554524Y-14020000D02*
X16545000Y-14010476D01*
X16840238Y-13829524D02*
X16802143Y-13829524D01*
X16802143Y-13829524D02*
X16783095Y-13839048D01*
X16783095Y-13839048D02*
X16773572Y-13848571D01*
X16773572Y-13848571D02*
X16754524Y-13877143D01*
X16754524Y-13877143D02*
X16745000Y-13915238D01*
X16745000Y-13915238D02*
X16745000Y-13991428D01*
X16745000Y-13991428D02*
X16754524Y-14010476D01*
X16754524Y-14010476D02*
X16764048Y-14020000D01*
X16764048Y-14020000D02*
X16783095Y-14029524D01*
X16783095Y-14029524D02*
X16821191Y-14029524D01*
X16821191Y-14029524D02*
X16840238Y-14020000D01*
X16840238Y-14020000D02*
X16849762Y-14010476D01*
X16849762Y-14010476D02*
X16859286Y-13991428D01*
X16859286Y-13991428D02*
X16859286Y-13943809D01*
X16859286Y-13943809D02*
X16849762Y-13924762D01*
X16849762Y-13924762D02*
X16840238Y-13915238D01*
X16840238Y-13915238D02*
X16821191Y-13905714D01*
X16821191Y-13905714D02*
X16783095Y-13905714D01*
X16783095Y-13905714D02*
X16764048Y-13915238D01*
X16764048Y-13915238D02*
X16754524Y-13924762D01*
X16754524Y-13924762D02*
X16745000Y-13943809D01*
X16935476Y-13829524D02*
X16935476Y-13867619D01*
X17011667Y-13829524D02*
X17011667Y-13867619D01*
X17306905Y-14105714D02*
X17297381Y-14096190D01*
X17297381Y-14096190D02*
X17278334Y-14067619D01*
X17278334Y-14067619D02*
X17268810Y-14048571D01*
X17268810Y-14048571D02*
X17259286Y-14020000D01*
X17259286Y-14020000D02*
X17249762Y-13972381D01*
X17249762Y-13972381D02*
X17249762Y-13934286D01*
X17249762Y-13934286D02*
X17259286Y-13886667D01*
X17259286Y-13886667D02*
X17268810Y-13858095D01*
X17268810Y-13858095D02*
X17278334Y-13839048D01*
X17278334Y-13839048D02*
X17297381Y-13810476D01*
X17297381Y-13810476D02*
X17306905Y-13800952D01*
X17421191Y-13829524D02*
X17440238Y-13829524D01*
X17440238Y-13829524D02*
X17459286Y-13839048D01*
X17459286Y-13839048D02*
X17468810Y-13848571D01*
X17468810Y-13848571D02*
X17478334Y-13867619D01*
X17478334Y-13867619D02*
X17487857Y-13905714D01*
X17487857Y-13905714D02*
X17487857Y-13953333D01*
X17487857Y-13953333D02*
X17478334Y-13991428D01*
X17478334Y-13991428D02*
X17468810Y-14010476D01*
X17468810Y-14010476D02*
X17459286Y-14020000D01*
X17459286Y-14020000D02*
X17440238Y-14029524D01*
X17440238Y-14029524D02*
X17421191Y-14029524D01*
X17421191Y-14029524D02*
X17402143Y-14020000D01*
X17402143Y-14020000D02*
X17392619Y-14010476D01*
X17392619Y-14010476D02*
X17383096Y-13991428D01*
X17383096Y-13991428D02*
X17373572Y-13953333D01*
X17373572Y-13953333D02*
X17373572Y-13905714D01*
X17373572Y-13905714D02*
X17383096Y-13867619D01*
X17383096Y-13867619D02*
X17392619Y-13848571D01*
X17392619Y-13848571D02*
X17402143Y-13839048D01*
X17402143Y-13839048D02*
X17421191Y-13829524D01*
X17725953Y-14029524D02*
X17725953Y-13829524D01*
X17811667Y-14029524D02*
X17811667Y-13924762D01*
X17811667Y-13924762D02*
X17802143Y-13905714D01*
X17802143Y-13905714D02*
X17783096Y-13896190D01*
X17783096Y-13896190D02*
X17754524Y-13896190D01*
X17754524Y-13896190D02*
X17735477Y-13905714D01*
X17735477Y-13905714D02*
X17725953Y-13915238D01*
X17935477Y-14029524D02*
X17916429Y-14020000D01*
X17916429Y-14020000D02*
X17906905Y-14010476D01*
X17906905Y-14010476D02*
X17897381Y-13991428D01*
X17897381Y-13991428D02*
X17897381Y-13934286D01*
X17897381Y-13934286D02*
X17906905Y-13915238D01*
X17906905Y-13915238D02*
X17916429Y-13905714D01*
X17916429Y-13905714D02*
X17935477Y-13896190D01*
X17935477Y-13896190D02*
X17964048Y-13896190D01*
X17964048Y-13896190D02*
X17983096Y-13905714D01*
X17983096Y-13905714D02*
X17992619Y-13915238D01*
X17992619Y-13915238D02*
X18002143Y-13934286D01*
X18002143Y-13934286D02*
X18002143Y-13991428D01*
X18002143Y-13991428D02*
X17992619Y-14010476D01*
X17992619Y-14010476D02*
X17983096Y-14020000D01*
X17983096Y-14020000D02*
X17964048Y-14029524D01*
X17964048Y-14029524D02*
X17935477Y-14029524D01*
X18116429Y-14029524D02*
X18097381Y-14020000D01*
X18097381Y-14020000D02*
X18087858Y-14000952D01*
X18087858Y-14000952D02*
X18087858Y-13829524D01*
X18268810Y-14020000D02*
X18249762Y-14029524D01*
X18249762Y-14029524D02*
X18211667Y-14029524D01*
X18211667Y-14029524D02*
X18192619Y-14020000D01*
X18192619Y-14020000D02*
X18183096Y-14000952D01*
X18183096Y-14000952D02*
X18183096Y-13924762D01*
X18183096Y-13924762D02*
X18192619Y-13905714D01*
X18192619Y-13905714D02*
X18211667Y-13896190D01*
X18211667Y-13896190D02*
X18249762Y-13896190D01*
X18249762Y-13896190D02*
X18268810Y-13905714D01*
X18268810Y-13905714D02*
X18278334Y-13924762D01*
X18278334Y-13924762D02*
X18278334Y-13943809D01*
X18278334Y-13943809D02*
X18183096Y-13962857D01*
X18354524Y-14020000D02*
X18373572Y-14029524D01*
X18373572Y-14029524D02*
X18411667Y-14029524D01*
X18411667Y-14029524D02*
X18430715Y-14020000D01*
X18430715Y-14020000D02*
X18440239Y-14000952D01*
X18440239Y-14000952D02*
X18440239Y-13991428D01*
X18440239Y-13991428D02*
X18430715Y-13972381D01*
X18430715Y-13972381D02*
X18411667Y-13962857D01*
X18411667Y-13962857D02*
X18383096Y-13962857D01*
X18383096Y-13962857D02*
X18364048Y-13953333D01*
X18364048Y-13953333D02*
X18354524Y-13934286D01*
X18354524Y-13934286D02*
X18354524Y-13924762D01*
X18354524Y-13924762D02*
X18364048Y-13905714D01*
X18364048Y-13905714D02*
X18383096Y-13896190D01*
X18383096Y-13896190D02*
X18411667Y-13896190D01*
X18411667Y-13896190D02*
X18430715Y-13905714D01*
X18678334Y-13953333D02*
X18830715Y-13953333D01*
X18754524Y-14029524D02*
X18754524Y-13877143D01*
X19164048Y-13896190D02*
X19164048Y-14029524D01*
X19116429Y-13820000D02*
X19068810Y-13962857D01*
X19068810Y-13962857D02*
X19192620Y-13962857D01*
X19411667Y-14020000D02*
X19430715Y-14029524D01*
X19430715Y-14029524D02*
X19468810Y-14029524D01*
X19468810Y-14029524D02*
X19487858Y-14020000D01*
X19487858Y-14020000D02*
X19497382Y-14000952D01*
X19497382Y-14000952D02*
X19497382Y-13991428D01*
X19497382Y-13991428D02*
X19487858Y-13972381D01*
X19487858Y-13972381D02*
X19468810Y-13962857D01*
X19468810Y-13962857D02*
X19440239Y-13962857D01*
X19440239Y-13962857D02*
X19421191Y-13953333D01*
X19421191Y-13953333D02*
X19411667Y-13934286D01*
X19411667Y-13934286D02*
X19411667Y-13924762D01*
X19411667Y-13924762D02*
X19421191Y-13905714D01*
X19421191Y-13905714D02*
X19440239Y-13896190D01*
X19440239Y-13896190D02*
X19468810Y-13896190D01*
X19468810Y-13896190D02*
X19487858Y-13905714D01*
X19611667Y-14029524D02*
X19592620Y-14020000D01*
X19592620Y-14020000D02*
X19583096Y-14000952D01*
X19583096Y-14000952D02*
X19583096Y-13829524D01*
X19716429Y-14029524D02*
X19697382Y-14020000D01*
X19697382Y-14020000D02*
X19687858Y-14010476D01*
X19687858Y-14010476D02*
X19678334Y-13991428D01*
X19678334Y-13991428D02*
X19678334Y-13934286D01*
X19678334Y-13934286D02*
X19687858Y-13915238D01*
X19687858Y-13915238D02*
X19697382Y-13905714D01*
X19697382Y-13905714D02*
X19716429Y-13896190D01*
X19716429Y-13896190D02*
X19745001Y-13896190D01*
X19745001Y-13896190D02*
X19764048Y-13905714D01*
X19764048Y-13905714D02*
X19773572Y-13915238D01*
X19773572Y-13915238D02*
X19783096Y-13934286D01*
X19783096Y-13934286D02*
X19783096Y-13991428D01*
X19783096Y-13991428D02*
X19773572Y-14010476D01*
X19773572Y-14010476D02*
X19764048Y-14020000D01*
X19764048Y-14020000D02*
X19745001Y-14029524D01*
X19745001Y-14029524D02*
X19716429Y-14029524D01*
X19840239Y-13896190D02*
X19916429Y-13896190D01*
X19868810Y-13829524D02*
X19868810Y-14000952D01*
X19868810Y-14000952D02*
X19878334Y-14020000D01*
X19878334Y-14020000D02*
X19897382Y-14029524D01*
X19897382Y-14029524D02*
X19916429Y-14029524D01*
X19973572Y-14020000D02*
X19992620Y-14029524D01*
X19992620Y-14029524D02*
X20030715Y-14029524D01*
X20030715Y-14029524D02*
X20049763Y-14020000D01*
X20049763Y-14020000D02*
X20059286Y-14000952D01*
X20059286Y-14000952D02*
X20059286Y-13991428D01*
X20059286Y-13991428D02*
X20049763Y-13972381D01*
X20049763Y-13972381D02*
X20030715Y-13962857D01*
X20030715Y-13962857D02*
X20002143Y-13962857D01*
X20002143Y-13962857D02*
X19983096Y-13953333D01*
X19983096Y-13953333D02*
X19973572Y-13934286D01*
X19973572Y-13934286D02*
X19973572Y-13924762D01*
X19973572Y-13924762D02*
X19983096Y-13905714D01*
X19983096Y-13905714D02*
X20002143Y-13896190D01*
X20002143Y-13896190D02*
X20030715Y-13896190D01*
X20030715Y-13896190D02*
X20049763Y-13905714D01*
X20125953Y-14105714D02*
X20135477Y-14096190D01*
X20135477Y-14096190D02*
X20154524Y-14067619D01*
X20154524Y-14067619D02*
X20164048Y-14048571D01*
X20164048Y-14048571D02*
X20173572Y-14020000D01*
X20173572Y-14020000D02*
X20183096Y-13972381D01*
X20183096Y-13972381D02*
X20183096Y-13934286D01*
X20183096Y-13934286D02*
X20173572Y-13886667D01*
X20173572Y-13886667D02*
X20164048Y-13858095D01*
X20164048Y-13858095D02*
X20154524Y-13839048D01*
X20154524Y-13839048D02*
X20135477Y-13810476D01*
X20135477Y-13810476D02*
X20125953Y-13800952D01*
D10*
X13695000Y-14251000D02*
X13745000Y-14201000D01*
X13695000Y-14151000D01*
X13645000Y-14201000D01*
X13695000Y-14251000D01*
D11*
X14097381Y-14293524D02*
X13983095Y-14293524D01*
X14040238Y-14293524D02*
X14040238Y-14093524D01*
X14040238Y-14093524D02*
X14021190Y-14122095D01*
X14021190Y-14122095D02*
X14002143Y-14141143D01*
X14002143Y-14141143D02*
X13983095Y-14150667D01*
X14183095Y-14274476D02*
X14192619Y-14284000D01*
X14192619Y-14284000D02*
X14183095Y-14293524D01*
X14183095Y-14293524D02*
X14173571Y-14284000D01*
X14173571Y-14284000D02*
X14183095Y-14274476D01*
X14183095Y-14274476D02*
X14183095Y-14293524D01*
X14316428Y-14093524D02*
X14335476Y-14093524D01*
X14335476Y-14093524D02*
X14354524Y-14103048D01*
X14354524Y-14103048D02*
X14364048Y-14112571D01*
X14364048Y-14112571D02*
X14373571Y-14131619D01*
X14373571Y-14131619D02*
X14383095Y-14169714D01*
X14383095Y-14169714D02*
X14383095Y-14217333D01*
X14383095Y-14217333D02*
X14373571Y-14255428D01*
X14373571Y-14255428D02*
X14364048Y-14274476D01*
X14364048Y-14274476D02*
X14354524Y-14284000D01*
X14354524Y-14284000D02*
X14335476Y-14293524D01*
X14335476Y-14293524D02*
X14316428Y-14293524D01*
X14316428Y-14293524D02*
X14297381Y-14284000D01*
X14297381Y-14284000D02*
X14287857Y-14274476D01*
X14287857Y-14274476D02*
X14278333Y-14255428D01*
X14278333Y-14255428D02*
X14268809Y-14217333D01*
X14268809Y-14217333D02*
X14268809Y-14169714D01*
X14268809Y-14169714D02*
X14278333Y-14131619D01*
X14278333Y-14131619D02*
X14287857Y-14112571D01*
X14287857Y-14112571D02*
X14297381Y-14103048D01*
X14297381Y-14103048D02*
X14316428Y-14093524D01*
X14506905Y-14093524D02*
X14525952Y-14093524D01*
X14525952Y-14093524D02*
X14545000Y-14103048D01*
X14545000Y-14103048D02*
X14554524Y-14112571D01*
X14554524Y-14112571D02*
X14564048Y-14131619D01*
X14564048Y-14131619D02*
X14573571Y-14169714D01*
X14573571Y-14169714D02*
X14573571Y-14217333D01*
X14573571Y-14217333D02*
X14564048Y-14255428D01*
X14564048Y-14255428D02*
X14554524Y-14274476D01*
X14554524Y-14274476D02*
X14545000Y-14284000D01*
X14545000Y-14284000D02*
X14525952Y-14293524D01*
X14525952Y-14293524D02*
X14506905Y-14293524D01*
X14506905Y-14293524D02*
X14487857Y-14284000D01*
X14487857Y-14284000D02*
X14478333Y-14274476D01*
X14478333Y-14274476D02*
X14468809Y-14255428D01*
X14468809Y-14255428D02*
X14459286Y-14217333D01*
X14459286Y-14217333D02*
X14459286Y-14169714D01*
X14459286Y-14169714D02*
X14468809Y-14131619D01*
X14468809Y-14131619D02*
X14478333Y-14112571D01*
X14478333Y-14112571D02*
X14487857Y-14103048D01*
X14487857Y-14103048D02*
X14506905Y-14093524D01*
X14697381Y-14093524D02*
X14716429Y-14093524D01*
X14716429Y-14093524D02*
X14735476Y-14103048D01*
X14735476Y-14103048D02*
X14745000Y-14112571D01*
X14745000Y-14112571D02*
X14754524Y-14131619D01*
X14754524Y-14131619D02*
X14764048Y-14169714D01*
X14764048Y-14169714D02*
X14764048Y-14217333D01*
X14764048Y-14217333D02*
X14754524Y-14255428D01*
X14754524Y-14255428D02*
X14745000Y-14274476D01*
X14745000Y-14274476D02*
X14735476Y-14284000D01*
X14735476Y-14284000D02*
X14716429Y-14293524D01*
X14716429Y-14293524D02*
X14697381Y-14293524D01*
X14697381Y-14293524D02*
X14678333Y-14284000D01*
X14678333Y-14284000D02*
X14668809Y-14274476D01*
X14668809Y-14274476D02*
X14659286Y-14255428D01*
X14659286Y-14255428D02*
X14649762Y-14217333D01*
X14649762Y-14217333D02*
X14649762Y-14169714D01*
X14649762Y-14169714D02*
X14659286Y-14131619D01*
X14659286Y-14131619D02*
X14668809Y-14112571D01*
X14668809Y-14112571D02*
X14678333Y-14103048D01*
X14678333Y-14103048D02*
X14697381Y-14093524D01*
X14849762Y-14293524D02*
X14849762Y-14160190D01*
X14849762Y-14179238D02*
X14859286Y-14169714D01*
X14859286Y-14169714D02*
X14878333Y-14160190D01*
X14878333Y-14160190D02*
X14906905Y-14160190D01*
X14906905Y-14160190D02*
X14925952Y-14169714D01*
X14925952Y-14169714D02*
X14935476Y-14188762D01*
X14935476Y-14188762D02*
X14935476Y-14293524D01*
X14935476Y-14188762D02*
X14945000Y-14169714D01*
X14945000Y-14169714D02*
X14964048Y-14160190D01*
X14964048Y-14160190D02*
X14992619Y-14160190D01*
X14992619Y-14160190D02*
X15011667Y-14169714D01*
X15011667Y-14169714D02*
X15021190Y-14188762D01*
X15021190Y-14188762D02*
X15021190Y-14293524D01*
X15116429Y-14293524D02*
X15116429Y-14160190D01*
X15116429Y-14179238D02*
X15125952Y-14169714D01*
X15125952Y-14169714D02*
X15145000Y-14160190D01*
X15145000Y-14160190D02*
X15173571Y-14160190D01*
X15173571Y-14160190D02*
X15192619Y-14169714D01*
X15192619Y-14169714D02*
X15202143Y-14188762D01*
X15202143Y-14188762D02*
X15202143Y-14293524D01*
X15202143Y-14188762D02*
X15211667Y-14169714D01*
X15211667Y-14169714D02*
X15230714Y-14160190D01*
X15230714Y-14160190D02*
X15259286Y-14160190D01*
X15259286Y-14160190D02*
X15278333Y-14169714D01*
X15278333Y-14169714D02*
X15287857Y-14188762D01*
X15287857Y-14188762D02*
X15287857Y-14293524D01*
X15678333Y-14084000D02*
X15506905Y-14341143D01*
X15935476Y-14093524D02*
X15954524Y-14093524D01*
X15954524Y-14093524D02*
X15973572Y-14103048D01*
X15973572Y-14103048D02*
X15983095Y-14112571D01*
X15983095Y-14112571D02*
X15992619Y-14131619D01*
X15992619Y-14131619D02*
X16002143Y-14169714D01*
X16002143Y-14169714D02*
X16002143Y-14217333D01*
X16002143Y-14217333D02*
X15992619Y-14255428D01*
X15992619Y-14255428D02*
X15983095Y-14274476D01*
X15983095Y-14274476D02*
X15973572Y-14284000D01*
X15973572Y-14284000D02*
X15954524Y-14293524D01*
X15954524Y-14293524D02*
X15935476Y-14293524D01*
X15935476Y-14293524D02*
X15916429Y-14284000D01*
X15916429Y-14284000D02*
X15906905Y-14274476D01*
X15906905Y-14274476D02*
X15897381Y-14255428D01*
X15897381Y-14255428D02*
X15887857Y-14217333D01*
X15887857Y-14217333D02*
X15887857Y-14169714D01*
X15887857Y-14169714D02*
X15897381Y-14131619D01*
X15897381Y-14131619D02*
X15906905Y-14112571D01*
X15906905Y-14112571D02*
X15916429Y-14103048D01*
X15916429Y-14103048D02*
X15935476Y-14093524D01*
X16087857Y-14274476D02*
X16097381Y-14284000D01*
X16097381Y-14284000D02*
X16087857Y-14293524D01*
X16087857Y-14293524D02*
X16078333Y-14284000D01*
X16078333Y-14284000D02*
X16087857Y-14274476D01*
X16087857Y-14274476D02*
X16087857Y-14293524D01*
X16221191Y-14093524D02*
X16240238Y-14093524D01*
X16240238Y-14093524D02*
X16259286Y-14103048D01*
X16259286Y-14103048D02*
X16268810Y-14112571D01*
X16268810Y-14112571D02*
X16278333Y-14131619D01*
X16278333Y-14131619D02*
X16287857Y-14169714D01*
X16287857Y-14169714D02*
X16287857Y-14217333D01*
X16287857Y-14217333D02*
X16278333Y-14255428D01*
X16278333Y-14255428D02*
X16268810Y-14274476D01*
X16268810Y-14274476D02*
X16259286Y-14284000D01*
X16259286Y-14284000D02*
X16240238Y-14293524D01*
X16240238Y-14293524D02*
X16221191Y-14293524D01*
X16221191Y-14293524D02*
X16202143Y-14284000D01*
X16202143Y-14284000D02*
X16192619Y-14274476D01*
X16192619Y-14274476D02*
X16183095Y-14255428D01*
X16183095Y-14255428D02*
X16173572Y-14217333D01*
X16173572Y-14217333D02*
X16173572Y-14169714D01*
X16173572Y-14169714D02*
X16183095Y-14131619D01*
X16183095Y-14131619D02*
X16192619Y-14112571D01*
X16192619Y-14112571D02*
X16202143Y-14103048D01*
X16202143Y-14103048D02*
X16221191Y-14093524D01*
X16354524Y-14093524D02*
X16478333Y-14093524D01*
X16478333Y-14093524D02*
X16411667Y-14169714D01*
X16411667Y-14169714D02*
X16440238Y-14169714D01*
X16440238Y-14169714D02*
X16459286Y-14179238D01*
X16459286Y-14179238D02*
X16468810Y-14188762D01*
X16468810Y-14188762D02*
X16478333Y-14207809D01*
X16478333Y-14207809D02*
X16478333Y-14255428D01*
X16478333Y-14255428D02*
X16468810Y-14274476D01*
X16468810Y-14274476D02*
X16459286Y-14284000D01*
X16459286Y-14284000D02*
X16440238Y-14293524D01*
X16440238Y-14293524D02*
X16383095Y-14293524D01*
X16383095Y-14293524D02*
X16364048Y-14284000D01*
X16364048Y-14284000D02*
X16354524Y-14274476D01*
X16573572Y-14293524D02*
X16611667Y-14293524D01*
X16611667Y-14293524D02*
X16630714Y-14284000D01*
X16630714Y-14284000D02*
X16640238Y-14274476D01*
X16640238Y-14274476D02*
X16659286Y-14245905D01*
X16659286Y-14245905D02*
X16668810Y-14207809D01*
X16668810Y-14207809D02*
X16668810Y-14131619D01*
X16668810Y-14131619D02*
X16659286Y-14112571D01*
X16659286Y-14112571D02*
X16649762Y-14103048D01*
X16649762Y-14103048D02*
X16630714Y-14093524D01*
X16630714Y-14093524D02*
X16592619Y-14093524D01*
X16592619Y-14093524D02*
X16573572Y-14103048D01*
X16573572Y-14103048D02*
X16564048Y-14112571D01*
X16564048Y-14112571D02*
X16554524Y-14131619D01*
X16554524Y-14131619D02*
X16554524Y-14179238D01*
X16554524Y-14179238D02*
X16564048Y-14198286D01*
X16564048Y-14198286D02*
X16573572Y-14207809D01*
X16573572Y-14207809D02*
X16592619Y-14217333D01*
X16592619Y-14217333D02*
X16630714Y-14217333D01*
X16630714Y-14217333D02*
X16649762Y-14207809D01*
X16649762Y-14207809D02*
X16659286Y-14198286D01*
X16659286Y-14198286D02*
X16668810Y-14179238D01*
X16840238Y-14160190D02*
X16840238Y-14293524D01*
X16792619Y-14084000D02*
X16745000Y-14226857D01*
X16745000Y-14226857D02*
X16868810Y-14226857D01*
X16935476Y-14093524D02*
X16935476Y-14131619D01*
X17011667Y-14093524D02*
X17011667Y-14131619D01*
X17306905Y-14369714D02*
X17297381Y-14360190D01*
X17297381Y-14360190D02*
X17278334Y-14331619D01*
X17278334Y-14331619D02*
X17268810Y-14312571D01*
X17268810Y-14312571D02*
X17259286Y-14284000D01*
X17259286Y-14284000D02*
X17249762Y-14236381D01*
X17249762Y-14236381D02*
X17249762Y-14198286D01*
X17249762Y-14198286D02*
X17259286Y-14150667D01*
X17259286Y-14150667D02*
X17268810Y-14122095D01*
X17268810Y-14122095D02*
X17278334Y-14103048D01*
X17278334Y-14103048D02*
X17297381Y-14074476D01*
X17297381Y-14074476D02*
X17306905Y-14064952D01*
X17468810Y-14160190D02*
X17468810Y-14293524D01*
X17421191Y-14084000D02*
X17373572Y-14226857D01*
X17373572Y-14226857D02*
X17497381Y-14226857D01*
X17602143Y-14179238D02*
X17583096Y-14169714D01*
X17583096Y-14169714D02*
X17573572Y-14160190D01*
X17573572Y-14160190D02*
X17564048Y-14141143D01*
X17564048Y-14141143D02*
X17564048Y-14131619D01*
X17564048Y-14131619D02*
X17573572Y-14112571D01*
X17573572Y-14112571D02*
X17583096Y-14103048D01*
X17583096Y-14103048D02*
X17602143Y-14093524D01*
X17602143Y-14093524D02*
X17640238Y-14093524D01*
X17640238Y-14093524D02*
X17659286Y-14103048D01*
X17659286Y-14103048D02*
X17668810Y-14112571D01*
X17668810Y-14112571D02*
X17678334Y-14131619D01*
X17678334Y-14131619D02*
X17678334Y-14141143D01*
X17678334Y-14141143D02*
X17668810Y-14160190D01*
X17668810Y-14160190D02*
X17659286Y-14169714D01*
X17659286Y-14169714D02*
X17640238Y-14179238D01*
X17640238Y-14179238D02*
X17602143Y-14179238D01*
X17602143Y-14179238D02*
X17583096Y-14188762D01*
X17583096Y-14188762D02*
X17573572Y-14198286D01*
X17573572Y-14198286D02*
X17564048Y-14217333D01*
X17564048Y-14217333D02*
X17564048Y-14255428D01*
X17564048Y-14255428D02*
X17573572Y-14274476D01*
X17573572Y-14274476D02*
X17583096Y-14284000D01*
X17583096Y-14284000D02*
X17602143Y-14293524D01*
X17602143Y-14293524D02*
X17640238Y-14293524D01*
X17640238Y-14293524D02*
X17659286Y-14284000D01*
X17659286Y-14284000D02*
X17668810Y-14274476D01*
X17668810Y-14274476D02*
X17678334Y-14255428D01*
X17678334Y-14255428D02*
X17678334Y-14217333D01*
X17678334Y-14217333D02*
X17668810Y-14198286D01*
X17668810Y-14198286D02*
X17659286Y-14188762D01*
X17659286Y-14188762D02*
X17640238Y-14179238D01*
X17916429Y-14293524D02*
X17916429Y-14093524D01*
X18002143Y-14293524D02*
X18002143Y-14188762D01*
X18002143Y-14188762D02*
X17992619Y-14169714D01*
X17992619Y-14169714D02*
X17973572Y-14160190D01*
X17973572Y-14160190D02*
X17945000Y-14160190D01*
X17945000Y-14160190D02*
X17925953Y-14169714D01*
X17925953Y-14169714D02*
X17916429Y-14179238D01*
X18125953Y-14293524D02*
X18106905Y-14284000D01*
X18106905Y-14284000D02*
X18097381Y-14274476D01*
X18097381Y-14274476D02*
X18087858Y-14255428D01*
X18087858Y-14255428D02*
X18087858Y-14198286D01*
X18087858Y-14198286D02*
X18097381Y-14179238D01*
X18097381Y-14179238D02*
X18106905Y-14169714D01*
X18106905Y-14169714D02*
X18125953Y-14160190D01*
X18125953Y-14160190D02*
X18154524Y-14160190D01*
X18154524Y-14160190D02*
X18173572Y-14169714D01*
X18173572Y-14169714D02*
X18183096Y-14179238D01*
X18183096Y-14179238D02*
X18192619Y-14198286D01*
X18192619Y-14198286D02*
X18192619Y-14255428D01*
X18192619Y-14255428D02*
X18183096Y-14274476D01*
X18183096Y-14274476D02*
X18173572Y-14284000D01*
X18173572Y-14284000D02*
X18154524Y-14293524D01*
X18154524Y-14293524D02*
X18125953Y-14293524D01*
X18306905Y-14293524D02*
X18287858Y-14284000D01*
X18287858Y-14284000D02*
X18278334Y-14264952D01*
X18278334Y-14264952D02*
X18278334Y-14093524D01*
X18459286Y-14284000D02*
X18440239Y-14293524D01*
X18440239Y-14293524D02*
X18402143Y-14293524D01*
X18402143Y-14293524D02*
X18383096Y-14284000D01*
X18383096Y-14284000D02*
X18373572Y-14264952D01*
X18373572Y-14264952D02*
X18373572Y-14188762D01*
X18373572Y-14188762D02*
X18383096Y-14169714D01*
X18383096Y-14169714D02*
X18402143Y-14160190D01*
X18402143Y-14160190D02*
X18440239Y-14160190D01*
X18440239Y-14160190D02*
X18459286Y-14169714D01*
X18459286Y-14169714D02*
X18468810Y-14188762D01*
X18468810Y-14188762D02*
X18468810Y-14207809D01*
X18468810Y-14207809D02*
X18373572Y-14226857D01*
X18545000Y-14284000D02*
X18564048Y-14293524D01*
X18564048Y-14293524D02*
X18602143Y-14293524D01*
X18602143Y-14293524D02*
X18621191Y-14284000D01*
X18621191Y-14284000D02*
X18630715Y-14264952D01*
X18630715Y-14264952D02*
X18630715Y-14255428D01*
X18630715Y-14255428D02*
X18621191Y-14236381D01*
X18621191Y-14236381D02*
X18602143Y-14226857D01*
X18602143Y-14226857D02*
X18573572Y-14226857D01*
X18573572Y-14226857D02*
X18554524Y-14217333D01*
X18554524Y-14217333D02*
X18545000Y-14198286D01*
X18545000Y-14198286D02*
X18545000Y-14188762D01*
X18545000Y-14188762D02*
X18554524Y-14169714D01*
X18554524Y-14169714D02*
X18573572Y-14160190D01*
X18573572Y-14160190D02*
X18602143Y-14160190D01*
X18602143Y-14160190D02*
X18621191Y-14169714D01*
X18697381Y-14369714D02*
X18706905Y-14360190D01*
X18706905Y-14360190D02*
X18725953Y-14331619D01*
X18725953Y-14331619D02*
X18735477Y-14312571D01*
X18735477Y-14312571D02*
X18745000Y-14284000D01*
X18745000Y-14284000D02*
X18754524Y-14236381D01*
X18754524Y-14236381D02*
X18754524Y-14198286D01*
X18754524Y-14198286D02*
X18745000Y-14150667D01*
X18745000Y-14150667D02*
X18735477Y-14122095D01*
X18735477Y-14122095D02*
X18725953Y-14103048D01*
X18725953Y-14103048D02*
X18706905Y-14074476D01*
X18706905Y-14074476D02*
X18697381Y-14064952D01*
D16*
X13625000Y-14405000D02*
X13745000Y-14525000D01*
X13745000Y-14405000D02*
X13625000Y-14525000D01*
X13745000Y-14465000D02*
G75*
G03*
X13745000Y-14465000I-60000J0D01*
G01*
D11*
X14097381Y-14557524D02*
X13983095Y-14557524D01*
X14040238Y-14557524D02*
X14040238Y-14357524D01*
X14040238Y-14357524D02*
X14021190Y-14386095D01*
X14021190Y-14386095D02*
X14002143Y-14405143D01*
X14002143Y-14405143D02*
X13983095Y-14414667D01*
X14183095Y-14538476D02*
X14192619Y-14548000D01*
X14192619Y-14548000D02*
X14183095Y-14557524D01*
X14183095Y-14557524D02*
X14173571Y-14548000D01*
X14173571Y-14548000D02*
X14183095Y-14538476D01*
X14183095Y-14538476D02*
X14183095Y-14557524D01*
X14268809Y-14376571D02*
X14278333Y-14367048D01*
X14278333Y-14367048D02*
X14297381Y-14357524D01*
X14297381Y-14357524D02*
X14345000Y-14357524D01*
X14345000Y-14357524D02*
X14364048Y-14367048D01*
X14364048Y-14367048D02*
X14373571Y-14376571D01*
X14373571Y-14376571D02*
X14383095Y-14395619D01*
X14383095Y-14395619D02*
X14383095Y-14414667D01*
X14383095Y-14414667D02*
X14373571Y-14443238D01*
X14373571Y-14443238D02*
X14259286Y-14557524D01*
X14259286Y-14557524D02*
X14383095Y-14557524D01*
X14506905Y-14357524D02*
X14525952Y-14357524D01*
X14525952Y-14357524D02*
X14545000Y-14367048D01*
X14545000Y-14367048D02*
X14554524Y-14376571D01*
X14554524Y-14376571D02*
X14564048Y-14395619D01*
X14564048Y-14395619D02*
X14573571Y-14433714D01*
X14573571Y-14433714D02*
X14573571Y-14481333D01*
X14573571Y-14481333D02*
X14564048Y-14519428D01*
X14564048Y-14519428D02*
X14554524Y-14538476D01*
X14554524Y-14538476D02*
X14545000Y-14548000D01*
X14545000Y-14548000D02*
X14525952Y-14557524D01*
X14525952Y-14557524D02*
X14506905Y-14557524D01*
X14506905Y-14557524D02*
X14487857Y-14548000D01*
X14487857Y-14548000D02*
X14478333Y-14538476D01*
X14478333Y-14538476D02*
X14468809Y-14519428D01*
X14468809Y-14519428D02*
X14459286Y-14481333D01*
X14459286Y-14481333D02*
X14459286Y-14433714D01*
X14459286Y-14433714D02*
X14468809Y-14395619D01*
X14468809Y-14395619D02*
X14478333Y-14376571D01*
X14478333Y-14376571D02*
X14487857Y-14367048D01*
X14487857Y-14367048D02*
X14506905Y-14357524D01*
X14697381Y-14357524D02*
X14716429Y-14357524D01*
X14716429Y-14357524D02*
X14735476Y-14367048D01*
X14735476Y-14367048D02*
X14745000Y-14376571D01*
X14745000Y-14376571D02*
X14754524Y-14395619D01*
X14754524Y-14395619D02*
X14764048Y-14433714D01*
X14764048Y-14433714D02*
X14764048Y-14481333D01*
X14764048Y-14481333D02*
X14754524Y-14519428D01*
X14754524Y-14519428D02*
X14745000Y-14538476D01*
X14745000Y-14538476D02*
X14735476Y-14548000D01*
X14735476Y-14548000D02*
X14716429Y-14557524D01*
X14716429Y-14557524D02*
X14697381Y-14557524D01*
X14697381Y-14557524D02*
X14678333Y-14548000D01*
X14678333Y-14548000D02*
X14668809Y-14538476D01*
X14668809Y-14538476D02*
X14659286Y-14519428D01*
X14659286Y-14519428D02*
X14649762Y-14481333D01*
X14649762Y-14481333D02*
X14649762Y-14433714D01*
X14649762Y-14433714D02*
X14659286Y-14395619D01*
X14659286Y-14395619D02*
X14668809Y-14376571D01*
X14668809Y-14376571D02*
X14678333Y-14367048D01*
X14678333Y-14367048D02*
X14697381Y-14357524D01*
X14849762Y-14557524D02*
X14849762Y-14424190D01*
X14849762Y-14443238D02*
X14859286Y-14433714D01*
X14859286Y-14433714D02*
X14878333Y-14424190D01*
X14878333Y-14424190D02*
X14906905Y-14424190D01*
X14906905Y-14424190D02*
X14925952Y-14433714D01*
X14925952Y-14433714D02*
X14935476Y-14452762D01*
X14935476Y-14452762D02*
X14935476Y-14557524D01*
X14935476Y-14452762D02*
X14945000Y-14433714D01*
X14945000Y-14433714D02*
X14964048Y-14424190D01*
X14964048Y-14424190D02*
X14992619Y-14424190D01*
X14992619Y-14424190D02*
X15011667Y-14433714D01*
X15011667Y-14433714D02*
X15021190Y-14452762D01*
X15021190Y-14452762D02*
X15021190Y-14557524D01*
X15116429Y-14557524D02*
X15116429Y-14424190D01*
X15116429Y-14443238D02*
X15125952Y-14433714D01*
X15125952Y-14433714D02*
X15145000Y-14424190D01*
X15145000Y-14424190D02*
X15173571Y-14424190D01*
X15173571Y-14424190D02*
X15192619Y-14433714D01*
X15192619Y-14433714D02*
X15202143Y-14452762D01*
X15202143Y-14452762D02*
X15202143Y-14557524D01*
X15202143Y-14452762D02*
X15211667Y-14433714D01*
X15211667Y-14433714D02*
X15230714Y-14424190D01*
X15230714Y-14424190D02*
X15259286Y-14424190D01*
X15259286Y-14424190D02*
X15278333Y-14433714D01*
X15278333Y-14433714D02*
X15287857Y-14452762D01*
X15287857Y-14452762D02*
X15287857Y-14557524D01*
X15678333Y-14348000D02*
X15506905Y-14605143D01*
X15935476Y-14357524D02*
X15954524Y-14357524D01*
X15954524Y-14357524D02*
X15973572Y-14367048D01*
X15973572Y-14367048D02*
X15983095Y-14376571D01*
X15983095Y-14376571D02*
X15992619Y-14395619D01*
X15992619Y-14395619D02*
X16002143Y-14433714D01*
X16002143Y-14433714D02*
X16002143Y-14481333D01*
X16002143Y-14481333D02*
X15992619Y-14519428D01*
X15992619Y-14519428D02*
X15983095Y-14538476D01*
X15983095Y-14538476D02*
X15973572Y-14548000D01*
X15973572Y-14548000D02*
X15954524Y-14557524D01*
X15954524Y-14557524D02*
X15935476Y-14557524D01*
X15935476Y-14557524D02*
X15916429Y-14548000D01*
X15916429Y-14548000D02*
X15906905Y-14538476D01*
X15906905Y-14538476D02*
X15897381Y-14519428D01*
X15897381Y-14519428D02*
X15887857Y-14481333D01*
X15887857Y-14481333D02*
X15887857Y-14433714D01*
X15887857Y-14433714D02*
X15897381Y-14395619D01*
X15897381Y-14395619D02*
X15906905Y-14376571D01*
X15906905Y-14376571D02*
X15916429Y-14367048D01*
X15916429Y-14367048D02*
X15935476Y-14357524D01*
X16087857Y-14538476D02*
X16097381Y-14548000D01*
X16097381Y-14548000D02*
X16087857Y-14557524D01*
X16087857Y-14557524D02*
X16078333Y-14548000D01*
X16078333Y-14548000D02*
X16087857Y-14538476D01*
X16087857Y-14538476D02*
X16087857Y-14557524D01*
X16221191Y-14357524D02*
X16240238Y-14357524D01*
X16240238Y-14357524D02*
X16259286Y-14367048D01*
X16259286Y-14367048D02*
X16268810Y-14376571D01*
X16268810Y-14376571D02*
X16278333Y-14395619D01*
X16278333Y-14395619D02*
X16287857Y-14433714D01*
X16287857Y-14433714D02*
X16287857Y-14481333D01*
X16287857Y-14481333D02*
X16278333Y-14519428D01*
X16278333Y-14519428D02*
X16268810Y-14538476D01*
X16268810Y-14538476D02*
X16259286Y-14548000D01*
X16259286Y-14548000D02*
X16240238Y-14557524D01*
X16240238Y-14557524D02*
X16221191Y-14557524D01*
X16221191Y-14557524D02*
X16202143Y-14548000D01*
X16202143Y-14548000D02*
X16192619Y-14538476D01*
X16192619Y-14538476D02*
X16183095Y-14519428D01*
X16183095Y-14519428D02*
X16173572Y-14481333D01*
X16173572Y-14481333D02*
X16173572Y-14433714D01*
X16173572Y-14433714D02*
X16183095Y-14395619D01*
X16183095Y-14395619D02*
X16192619Y-14376571D01*
X16192619Y-14376571D02*
X16202143Y-14367048D01*
X16202143Y-14367048D02*
X16221191Y-14357524D01*
X16459286Y-14424190D02*
X16459286Y-14557524D01*
X16411667Y-14348000D02*
X16364048Y-14490857D01*
X16364048Y-14490857D02*
X16487857Y-14490857D01*
X16545000Y-14357524D02*
X16678333Y-14357524D01*
X16678333Y-14357524D02*
X16592619Y-14557524D01*
X16745000Y-14376571D02*
X16754524Y-14367048D01*
X16754524Y-14367048D02*
X16773572Y-14357524D01*
X16773572Y-14357524D02*
X16821191Y-14357524D01*
X16821191Y-14357524D02*
X16840238Y-14367048D01*
X16840238Y-14367048D02*
X16849762Y-14376571D01*
X16849762Y-14376571D02*
X16859286Y-14395619D01*
X16859286Y-14395619D02*
X16859286Y-14414667D01*
X16859286Y-14414667D02*
X16849762Y-14443238D01*
X16849762Y-14443238D02*
X16735476Y-14557524D01*
X16735476Y-14557524D02*
X16859286Y-14557524D01*
X16935476Y-14357524D02*
X16935476Y-14395619D01*
X17011667Y-14357524D02*
X17011667Y-14395619D01*
X17306905Y-14633714D02*
X17297381Y-14624190D01*
X17297381Y-14624190D02*
X17278334Y-14595619D01*
X17278334Y-14595619D02*
X17268810Y-14576571D01*
X17268810Y-14576571D02*
X17259286Y-14548000D01*
X17259286Y-14548000D02*
X17249762Y-14500381D01*
X17249762Y-14500381D02*
X17249762Y-14462286D01*
X17249762Y-14462286D02*
X17259286Y-14414667D01*
X17259286Y-14414667D02*
X17268810Y-14386095D01*
X17268810Y-14386095D02*
X17278334Y-14367048D01*
X17278334Y-14367048D02*
X17297381Y-14338476D01*
X17297381Y-14338476D02*
X17306905Y-14328952D01*
X17373572Y-14376571D02*
X17383096Y-14367048D01*
X17383096Y-14367048D02*
X17402143Y-14357524D01*
X17402143Y-14357524D02*
X17449762Y-14357524D01*
X17449762Y-14357524D02*
X17468810Y-14367048D01*
X17468810Y-14367048D02*
X17478334Y-14376571D01*
X17478334Y-14376571D02*
X17487857Y-14395619D01*
X17487857Y-14395619D02*
X17487857Y-14414667D01*
X17487857Y-14414667D02*
X17478334Y-14443238D01*
X17478334Y-14443238D02*
X17364048Y-14557524D01*
X17364048Y-14557524D02*
X17487857Y-14557524D01*
X17725953Y-14557524D02*
X17725953Y-14357524D01*
X17811667Y-14557524D02*
X17811667Y-14452762D01*
X17811667Y-14452762D02*
X17802143Y-14433714D01*
X17802143Y-14433714D02*
X17783096Y-14424190D01*
X17783096Y-14424190D02*
X17754524Y-14424190D01*
X17754524Y-14424190D02*
X17735477Y-14433714D01*
X17735477Y-14433714D02*
X17725953Y-14443238D01*
X17935477Y-14557524D02*
X17916429Y-14548000D01*
X17916429Y-14548000D02*
X17906905Y-14538476D01*
X17906905Y-14538476D02*
X17897381Y-14519428D01*
X17897381Y-14519428D02*
X17897381Y-14462286D01*
X17897381Y-14462286D02*
X17906905Y-14443238D01*
X17906905Y-14443238D02*
X17916429Y-14433714D01*
X17916429Y-14433714D02*
X17935477Y-14424190D01*
X17935477Y-14424190D02*
X17964048Y-14424190D01*
X17964048Y-14424190D02*
X17983096Y-14433714D01*
X17983096Y-14433714D02*
X17992619Y-14443238D01*
X17992619Y-14443238D02*
X18002143Y-14462286D01*
X18002143Y-14462286D02*
X18002143Y-14519428D01*
X18002143Y-14519428D02*
X17992619Y-14538476D01*
X17992619Y-14538476D02*
X17983096Y-14548000D01*
X17983096Y-14548000D02*
X17964048Y-14557524D01*
X17964048Y-14557524D02*
X17935477Y-14557524D01*
X18116429Y-14557524D02*
X18097381Y-14548000D01*
X18097381Y-14548000D02*
X18087858Y-14528952D01*
X18087858Y-14528952D02*
X18087858Y-14357524D01*
X18268810Y-14548000D02*
X18249762Y-14557524D01*
X18249762Y-14557524D02*
X18211667Y-14557524D01*
X18211667Y-14557524D02*
X18192619Y-14548000D01*
X18192619Y-14548000D02*
X18183096Y-14528952D01*
X18183096Y-14528952D02*
X18183096Y-14452762D01*
X18183096Y-14452762D02*
X18192619Y-14433714D01*
X18192619Y-14433714D02*
X18211667Y-14424190D01*
X18211667Y-14424190D02*
X18249762Y-14424190D01*
X18249762Y-14424190D02*
X18268810Y-14433714D01*
X18268810Y-14433714D02*
X18278334Y-14452762D01*
X18278334Y-14452762D02*
X18278334Y-14471809D01*
X18278334Y-14471809D02*
X18183096Y-14490857D01*
X18354524Y-14548000D02*
X18373572Y-14557524D01*
X18373572Y-14557524D02*
X18411667Y-14557524D01*
X18411667Y-14557524D02*
X18430715Y-14548000D01*
X18430715Y-14548000D02*
X18440239Y-14528952D01*
X18440239Y-14528952D02*
X18440239Y-14519428D01*
X18440239Y-14519428D02*
X18430715Y-14500381D01*
X18430715Y-14500381D02*
X18411667Y-14490857D01*
X18411667Y-14490857D02*
X18383096Y-14490857D01*
X18383096Y-14490857D02*
X18364048Y-14481333D01*
X18364048Y-14481333D02*
X18354524Y-14462286D01*
X18354524Y-14462286D02*
X18354524Y-14452762D01*
X18354524Y-14452762D02*
X18364048Y-14433714D01*
X18364048Y-14433714D02*
X18383096Y-14424190D01*
X18383096Y-14424190D02*
X18411667Y-14424190D01*
X18411667Y-14424190D02*
X18430715Y-14433714D01*
X18506905Y-14633714D02*
X18516429Y-14624190D01*
X18516429Y-14624190D02*
X18535477Y-14595619D01*
X18535477Y-14595619D02*
X18545000Y-14576571D01*
X18545000Y-14576571D02*
X18554524Y-14548000D01*
X18554524Y-14548000D02*
X18564048Y-14500381D01*
X18564048Y-14500381D02*
X18564048Y-14462286D01*
X18564048Y-14462286D02*
X18554524Y-14414667D01*
X18554524Y-14414667D02*
X18545000Y-14386095D01*
X18545000Y-14386095D02*
X18535477Y-14367048D01*
X18535477Y-14367048D02*
X18516429Y-14338476D01*
X18516429Y-14338476D02*
X18506905Y-14328952D01*
M02*
