%TF.GenerationSoftware,KiCad,Pcbnew,7.0.1-3b83917a11~171~ubuntu22.04.1*%
%TF.CreationDate,2023-04-15T23:20:08+01:00*%
%TF.ProjectId,spe_dongle,7370655f-646f-46e6-976c-652e6b696361,1.0*%
%TF.SameCoordinates,Original*%
%TF.FileFunction,Soldermask,Bot*%
%TF.FilePolarity,Negative*%
%FSLAX46Y46*%
G04 Gerber Fmt 4.6, Leading zero omitted, Abs format (unit mm)*
G04 Created by KiCad (PCBNEW 7.0.1-3b83917a11~171~ubuntu22.04.1) date 2023-04-15 23:20:08*
%MOMM*%
%LPD*%
G01*
G04 APERTURE LIST*
G04 Aperture macros list*
%AMRoundRect*
0 Rectangle with rounded corners*
0 $1 Rounding radius*
0 $2 $3 $4 $5 $6 $7 $8 $9 X,Y pos of 4 corners*
0 Add a 4 corners polygon primitive as box body*
4,1,4,$2,$3,$4,$5,$6,$7,$8,$9,$2,$3,0*
0 Add four circle primitives for the rounded corners*
1,1,$1+$1,$2,$3*
1,1,$1+$1,$4,$5*
1,1,$1+$1,$6,$7*
1,1,$1+$1,$8,$9*
0 Add four rect primitives between the rounded corners*
20,1,$1+$1,$2,$3,$4,$5,0*
20,1,$1+$1,$4,$5,$6,$7,0*
20,1,$1+$1,$6,$7,$8,$9,0*
20,1,$1+$1,$8,$9,$2,$3,0*%
G04 Aperture macros list end*
%ADD10R,1.700000X1.700000*%
%ADD11O,1.700000X1.700000*%
%ADD12C,0.700000*%
%ADD13O,0.900000X2.400000*%
%ADD14O,0.900000X1.700000*%
%ADD15R,2.400000X2.400000*%
%ADD16C,2.400000*%
%ADD17RoundRect,0.140000X0.170000X-0.140000X0.170000X0.140000X-0.170000X0.140000X-0.170000X-0.140000X0*%
%ADD18RoundRect,0.225000X0.250000X-0.225000X0.250000X0.225000X-0.250000X0.225000X-0.250000X-0.225000X0*%
%ADD19RoundRect,0.250000X-0.475000X0.250000X-0.475000X-0.250000X0.475000X-0.250000X0.475000X0.250000X0*%
%ADD20RoundRect,0.218750X0.256250X-0.218750X0.256250X0.218750X-0.256250X0.218750X-0.256250X-0.218750X0*%
%ADD21RoundRect,0.250000X-0.312500X-0.625000X0.312500X-0.625000X0.312500X0.625000X-0.312500X0.625000X0*%
%ADD22RoundRect,0.250000X0.312500X0.625000X-0.312500X0.625000X-0.312500X-0.625000X0.312500X-0.625000X0*%
%ADD23RoundRect,0.218750X0.218750X0.256250X-0.218750X0.256250X-0.218750X-0.256250X0.218750X-0.256250X0*%
%ADD24RoundRect,0.218750X-0.256250X0.218750X-0.256250X-0.218750X0.256250X-0.218750X0.256250X0.218750X0*%
%ADD25RoundRect,0.218750X-0.218750X-0.256250X0.218750X-0.256250X0.218750X0.256250X-0.218750X0.256250X0*%
G04 APERTURE END LIST*
D10*
X156330000Y-120750000D03*
D11*
X156330000Y-118210000D03*
D10*
X143580000Y-120750000D03*
D11*
X143580000Y-118210000D03*
D12*
X152975000Y-56025000D03*
X152125000Y-56025000D03*
X151275000Y-56025000D03*
X150425000Y-56025000D03*
X149575000Y-56025000D03*
X148725000Y-56025000D03*
X147875000Y-56025000D03*
X147025000Y-56025000D03*
X147025000Y-54675000D03*
X147875000Y-54675000D03*
X148725000Y-54675000D03*
X149575000Y-54675000D03*
X150425000Y-54675000D03*
X151275000Y-54675000D03*
X152125000Y-54675000D03*
X152975000Y-54675000D03*
D13*
X154325000Y-55045000D03*
D14*
X154325000Y-51665000D03*
D13*
X145675000Y-55045000D03*
D14*
X145675000Y-51665000D03*
D10*
X140000000Y-52450000D03*
D11*
X140000000Y-54990000D03*
X140000000Y-57530000D03*
X140000000Y-60070000D03*
D15*
X148250000Y-120250000D03*
D16*
X151750000Y-120250000D03*
D17*
X148500000Y-100750000D03*
X148500000Y-99790000D03*
D18*
X146830000Y-104025000D03*
X146830000Y-102475000D03*
D10*
X161175000Y-74000000D03*
D11*
X161175000Y-76540000D03*
X161175000Y-79080000D03*
X161175000Y-81620000D03*
X161175000Y-84160000D03*
X161175000Y-86700000D03*
X161175000Y-89240000D03*
X161175000Y-91780000D03*
X161175000Y-94320000D03*
X161175000Y-96860000D03*
X161175000Y-99400000D03*
X161175000Y-101940000D03*
X161175000Y-104480000D03*
X161175000Y-107020000D03*
X161175000Y-109560000D03*
X161175000Y-112100000D03*
X161175000Y-114640000D03*
X161175000Y-117180000D03*
X161175000Y-119720000D03*
X161175000Y-122260000D03*
D19*
X143580000Y-113300000D03*
X143580000Y-115200000D03*
D20*
X145080000Y-100787500D03*
X145080000Y-99212500D03*
D21*
X151330000Y-113250000D03*
X154255000Y-113250000D03*
D22*
X148580000Y-115750000D03*
X145655000Y-115750000D03*
D18*
X144750000Y-83775000D03*
X144750000Y-82225000D03*
D17*
X148580000Y-104230000D03*
X148580000Y-103270000D03*
D19*
X156330000Y-113300000D03*
X156330000Y-115200000D03*
D18*
X146750000Y-100775000D03*
X146750000Y-99225000D03*
D10*
X138925000Y-74000000D03*
D11*
X138925000Y-76540000D03*
X138925000Y-79080000D03*
X138925000Y-81620000D03*
X138925000Y-84160000D03*
X138925000Y-86700000D03*
X138925000Y-89240000D03*
X138925000Y-91780000D03*
X138925000Y-94320000D03*
X138925000Y-96860000D03*
X138925000Y-99400000D03*
X138925000Y-101940000D03*
X138925000Y-104480000D03*
X138925000Y-107020000D03*
X138925000Y-109560000D03*
X138925000Y-112100000D03*
X138925000Y-114640000D03*
X138925000Y-117180000D03*
X138925000Y-119720000D03*
X138925000Y-122260000D03*
D17*
X152250000Y-100730000D03*
X152250000Y-99770000D03*
D23*
X152905000Y-117750000D03*
X151330000Y-117750000D03*
D24*
X145080000Y-102462500D03*
X145080000Y-104037500D03*
D25*
X147005000Y-117750000D03*
X148580000Y-117750000D03*
D21*
X151330000Y-115750000D03*
X154255000Y-115750000D03*
D17*
X150330000Y-104730000D03*
X150330000Y-103770000D03*
D22*
X148580000Y-113250000D03*
X145655000Y-113250000D03*
M02*
