%TF.GenerationSoftware,KiCad,Pcbnew,7.0.1-3b83917a11~171~ubuntu22.04.1*%
%TF.CreationDate,2023-04-15T23:20:08+01:00*%
%TF.ProjectId,spe_dongle,7370655f-646f-46e6-976c-652e6b696361,1.0*%
%TF.SameCoordinates,Original*%
%TF.FileFunction,Copper,L4,Bot*%
%TF.FilePolarity,Positive*%
%FSLAX46Y46*%
G04 Gerber Fmt 4.6, Leading zero omitted, Abs format (unit mm)*
G04 Created by KiCad (PCBNEW 7.0.1-3b83917a11~171~ubuntu22.04.1) date 2023-04-15 23:20:08*
%MOMM*%
%LPD*%
G01*
G04 APERTURE LIST*
G04 Aperture macros list*
%AMRoundRect*
0 Rectangle with rounded corners*
0 $1 Rounding radius*
0 $2 $3 $4 $5 $6 $7 $8 $9 X,Y pos of 4 corners*
0 Add a 4 corners polygon primitive as box body*
4,1,4,$2,$3,$4,$5,$6,$7,$8,$9,$2,$3,0*
0 Add four circle primitives for the rounded corners*
1,1,$1+$1,$2,$3*
1,1,$1+$1,$4,$5*
1,1,$1+$1,$6,$7*
1,1,$1+$1,$8,$9*
0 Add four rect primitives between the rounded corners*
20,1,$1+$1,$2,$3,$4,$5,0*
20,1,$1+$1,$4,$5,$6,$7,0*
20,1,$1+$1,$6,$7,$8,$9,0*
20,1,$1+$1,$8,$9,$2,$3,0*%
G04 Aperture macros list end*
%TA.AperFunction,ComponentPad*%
%ADD10R,1.700000X1.700000*%
%TD*%
%TA.AperFunction,ComponentPad*%
%ADD11O,1.700000X1.700000*%
%TD*%
%TA.AperFunction,ComponentPad*%
%ADD12C,0.500000*%
%TD*%
%TA.AperFunction,SMDPad,CuDef*%
%ADD13R,2.500000X2.500000*%
%TD*%
%TA.AperFunction,ComponentPad*%
%ADD14C,0.700000*%
%TD*%
%TA.AperFunction,ComponentPad*%
%ADD15O,0.900000X2.400000*%
%TD*%
%TA.AperFunction,ComponentPad*%
%ADD16O,0.900000X1.700000*%
%TD*%
%TA.AperFunction,ComponentPad*%
%ADD17R,2.400000X2.400000*%
%TD*%
%TA.AperFunction,ComponentPad*%
%ADD18C,2.400000*%
%TD*%
%TA.AperFunction,SMDPad,CuDef*%
%ADD19RoundRect,0.140000X0.170000X-0.140000X0.170000X0.140000X-0.170000X0.140000X-0.170000X-0.140000X0*%
%TD*%
%TA.AperFunction,SMDPad,CuDef*%
%ADD20RoundRect,0.225000X0.250000X-0.225000X0.250000X0.225000X-0.250000X0.225000X-0.250000X-0.225000X0*%
%TD*%
%TA.AperFunction,SMDPad,CuDef*%
%ADD21RoundRect,0.250000X-0.475000X0.250000X-0.475000X-0.250000X0.475000X-0.250000X0.475000X0.250000X0*%
%TD*%
%TA.AperFunction,SMDPad,CuDef*%
%ADD22RoundRect,0.218750X0.256250X-0.218750X0.256250X0.218750X-0.256250X0.218750X-0.256250X-0.218750X0*%
%TD*%
%TA.AperFunction,SMDPad,CuDef*%
%ADD23RoundRect,0.250000X-0.312500X-0.625000X0.312500X-0.625000X0.312500X0.625000X-0.312500X0.625000X0*%
%TD*%
%TA.AperFunction,SMDPad,CuDef*%
%ADD24RoundRect,0.250000X0.312500X0.625000X-0.312500X0.625000X-0.312500X-0.625000X0.312500X-0.625000X0*%
%TD*%
%TA.AperFunction,SMDPad,CuDef*%
%ADD25RoundRect,0.218750X0.218750X0.256250X-0.218750X0.256250X-0.218750X-0.256250X0.218750X-0.256250X0*%
%TD*%
%TA.AperFunction,SMDPad,CuDef*%
%ADD26RoundRect,0.218750X-0.256250X0.218750X-0.256250X-0.218750X0.256250X-0.218750X0.256250X0.218750X0*%
%TD*%
%TA.AperFunction,SMDPad,CuDef*%
%ADD27RoundRect,0.218750X-0.218750X-0.256250X0.218750X-0.256250X0.218750X0.256250X-0.218750X0.256250X0*%
%TD*%
%TA.AperFunction,ViaPad*%
%ADD28C,0.450000*%
%TD*%
%TA.AperFunction,Conductor*%
%ADD29C,0.200000*%
%TD*%
%TA.AperFunction,Conductor*%
%ADD30C,0.150000*%
%TD*%
G04 APERTURE END LIST*
D10*
X156330000Y-120750000D03*
D11*
X156330000Y-118210000D03*
D12*
X151392500Y-103000000D03*
X151392500Y-102000000D03*
X151392500Y-101000000D03*
X150392500Y-103000000D03*
X150392500Y-102000000D03*
D13*
X150392500Y-102000000D03*
D12*
X150392500Y-101000000D03*
X149392500Y-103000000D03*
X149392500Y-102000000D03*
X149392500Y-101000000D03*
D10*
X143580000Y-120750000D03*
D11*
X143580000Y-118210000D03*
D14*
X152975000Y-56025000D03*
X152125000Y-56025000D03*
X151275000Y-56025000D03*
X150425000Y-56025000D03*
X149575000Y-56025000D03*
X148725000Y-56025000D03*
X147875000Y-56025000D03*
X147025000Y-56025000D03*
X147025000Y-54675000D03*
X147875000Y-54675000D03*
X148725000Y-54675000D03*
X149575000Y-54675000D03*
X150425000Y-54675000D03*
X151275000Y-54675000D03*
X152125000Y-54675000D03*
X152975000Y-54675000D03*
D15*
X154325000Y-55045000D03*
D16*
X154325000Y-51665000D03*
D15*
X145675000Y-55045000D03*
D16*
X145675000Y-51665000D03*
D10*
X140000000Y-52450000D03*
D11*
X140000000Y-54990000D03*
X140000000Y-57530000D03*
X140000000Y-60070000D03*
D17*
X148250000Y-120250000D03*
D18*
X151750000Y-120250000D03*
D19*
X148500000Y-100750000D03*
X148500000Y-99790000D03*
D20*
X146830000Y-104025000D03*
X146830000Y-102475000D03*
D10*
X161175000Y-74000000D03*
D11*
X161175000Y-76540000D03*
X161175000Y-79080000D03*
X161175000Y-81620000D03*
X161175000Y-84160000D03*
X161175000Y-86700000D03*
X161175000Y-89240000D03*
X161175000Y-91780000D03*
X161175000Y-94320000D03*
X161175000Y-96860000D03*
X161175000Y-99400000D03*
X161175000Y-101940000D03*
X161175000Y-104480000D03*
X161175000Y-107020000D03*
X161175000Y-109560000D03*
X161175000Y-112100000D03*
X161175000Y-114640000D03*
X161175000Y-117180000D03*
X161175000Y-119720000D03*
X161175000Y-122260000D03*
D21*
X143580000Y-113300000D03*
X143580000Y-115200000D03*
D22*
X145080000Y-100787500D03*
X145080000Y-99212500D03*
D23*
X151330000Y-113250000D03*
X154255000Y-113250000D03*
D24*
X148580000Y-115750000D03*
X145655000Y-115750000D03*
D20*
X144750000Y-83775000D03*
X144750000Y-82225000D03*
D19*
X148580000Y-104230000D03*
X148580000Y-103270000D03*
D21*
X156330000Y-113300000D03*
X156330000Y-115200000D03*
D20*
X146750000Y-100775000D03*
X146750000Y-99225000D03*
D10*
X138925000Y-74000000D03*
D11*
X138925000Y-76540000D03*
X138925000Y-79080000D03*
X138925000Y-81620000D03*
X138925000Y-84160000D03*
X138925000Y-86700000D03*
X138925000Y-89240000D03*
X138925000Y-91780000D03*
X138925000Y-94320000D03*
X138925000Y-96860000D03*
X138925000Y-99400000D03*
X138925000Y-101940000D03*
X138925000Y-104480000D03*
X138925000Y-107020000D03*
X138925000Y-109560000D03*
X138925000Y-112100000D03*
X138925000Y-114640000D03*
X138925000Y-117180000D03*
X138925000Y-119720000D03*
X138925000Y-122260000D03*
D19*
X152250000Y-100730000D03*
X152250000Y-99770000D03*
D25*
X152905000Y-117750000D03*
X151330000Y-117750000D03*
D26*
X145080000Y-102462500D03*
X145080000Y-104037500D03*
D27*
X147005000Y-117750000D03*
X148580000Y-117750000D03*
D23*
X151330000Y-115750000D03*
X154255000Y-115750000D03*
D19*
X150330000Y-104730000D03*
X150330000Y-103770000D03*
D24*
X148580000Y-113250000D03*
X145655000Y-113250000D03*
D28*
X143642500Y-50750000D03*
X156642500Y-50750000D03*
X150330000Y-105500000D03*
X147580000Y-104000000D03*
X143000000Y-72750000D03*
X156500000Y-88000000D03*
X140750000Y-90250000D03*
X150000000Y-118000000D03*
X141500000Y-77000000D03*
X160500000Y-52500000D03*
X152500000Y-59500000D03*
X141000000Y-124000000D03*
X142000000Y-115500000D03*
X158000000Y-74500000D03*
X153500000Y-66500000D03*
X146742500Y-88000000D03*
X147000000Y-89500000D03*
X153925000Y-88000000D03*
X146000000Y-107000000D03*
X144000000Y-123500000D03*
X158000000Y-106000000D03*
X158000000Y-104500000D03*
X152500000Y-69000000D03*
X147250000Y-105250000D03*
X151000000Y-67500000D03*
X153000000Y-93000000D03*
X158000000Y-108500000D03*
X159500000Y-79500000D03*
X155500000Y-123500000D03*
X157175000Y-77750000D03*
X154000000Y-111500000D03*
X148500000Y-91000000D03*
X159500000Y-85500000D03*
X152500000Y-105500000D03*
X139250000Y-66500000D03*
X157000000Y-73500000D03*
X155750000Y-100000000D03*
X147250000Y-62250000D03*
X156500000Y-54500000D03*
X148000000Y-108500000D03*
X152000000Y-110000000D03*
X155500000Y-68500000D03*
X152000000Y-65000000D03*
X144000000Y-108500000D03*
X142925000Y-74750000D03*
X146500000Y-97000000D03*
X150000000Y-62250000D03*
X149500000Y-91500000D03*
X144000000Y-86000000D03*
X144500000Y-67500000D03*
X154000000Y-70500000D03*
X152042500Y-95950000D03*
X142000000Y-113500000D03*
X143750000Y-54250000D03*
X146000000Y-108500000D03*
X152000000Y-111500000D03*
X141000000Y-67500000D03*
X144000000Y-110000000D03*
X156500000Y-104500000D03*
X156500000Y-106000000D03*
X145992500Y-82500000D03*
X155675000Y-75250000D03*
X151500000Y-94500000D03*
X148000000Y-111500000D03*
X153250000Y-103500000D03*
X153000000Y-98000000D03*
X143750000Y-60750000D03*
X161000000Y-56500000D03*
X158000000Y-111000000D03*
X156500000Y-108500000D03*
X155500000Y-72000000D03*
X147175000Y-74250000D03*
X149000000Y-107500000D03*
X144000000Y-97000000D03*
X144000000Y-111500000D03*
X152500000Y-62500000D03*
X140500000Y-75000000D03*
X146500000Y-68250000D03*
X156500000Y-86000000D03*
X152500000Y-64000000D03*
X146000000Y-111500000D03*
X150000000Y-115500000D03*
X144000000Y-107000000D03*
X160000000Y-77500000D03*
X141092500Y-96600000D03*
X149500000Y-66000000D03*
X154000000Y-110000000D03*
X152500000Y-107500000D03*
X152500000Y-61000000D03*
X148000000Y-110000000D03*
X159500000Y-84000000D03*
X150000000Y-106500000D03*
X141000000Y-108000000D03*
X156750000Y-58000000D03*
X159500000Y-88000000D03*
X152175000Y-73000000D03*
X158500000Y-124000000D03*
X146000000Y-110000000D03*
X161000000Y-58000000D03*
X155500000Y-57750000D03*
X151250000Y-91500000D03*
X144500000Y-57750000D03*
X161000000Y-61000000D03*
X158500000Y-59000000D03*
X152000000Y-108500000D03*
X158500000Y-71500000D03*
X144000000Y-101600500D03*
X157000000Y-70000000D03*
X147750000Y-100000000D03*
X153250000Y-100500000D03*
X144500000Y-76000000D03*
X155500000Y-61000000D03*
X142750000Y-60750000D03*
X155000000Y-63250000D03*
X156425000Y-76750000D03*
X144000000Y-102500000D03*
X145942500Y-83500000D03*
X139250000Y-71250000D03*
X147592500Y-88000000D03*
X145750000Y-88750000D03*
X155500000Y-64500000D03*
X146175000Y-74250000D03*
X143250000Y-90500000D03*
X143675000Y-77000000D03*
X144000000Y-100750000D03*
X155500000Y-66000000D03*
X146250000Y-105000000D03*
X156000000Y-63250000D03*
X154675000Y-88000000D03*
X148580000Y-114500000D03*
X151330000Y-114500000D03*
X157500000Y-59250000D03*
X159325000Y-59250000D03*
X156750000Y-56000000D03*
X150000000Y-57750000D03*
X150642500Y-95500000D03*
X144212500Y-88462500D03*
X148250000Y-94000000D03*
X143425000Y-81250000D03*
X148250000Y-93250000D03*
X150142500Y-95000000D03*
X144242500Y-103450000D03*
X143192500Y-103450000D03*
X150480350Y-65162150D03*
X149534100Y-64215900D03*
X148892500Y-77250000D03*
X148425000Y-76750000D03*
X142675000Y-71250000D03*
X142675000Y-72000000D03*
X157425000Y-81250000D03*
X154925000Y-81750000D03*
X154425000Y-82250000D03*
X153925000Y-82750000D03*
X149392500Y-77750000D03*
X149892500Y-78300000D03*
X142925000Y-84250000D03*
X143596250Y-89346250D03*
X142712500Y-89212500D03*
X143371250Y-79728750D03*
X157675000Y-77000000D03*
X157175000Y-80250000D03*
X142992500Y-80750000D03*
X147446250Y-93946250D03*
X143587500Y-88587500D03*
X151142500Y-96000000D03*
X150392500Y-78800000D03*
X146175000Y-86500000D03*
X148175000Y-88400000D03*
X148675000Y-88800000D03*
X149175000Y-89250000D03*
X150892500Y-79300000D03*
X151392500Y-79800000D03*
X153425000Y-83250000D03*
X152925000Y-83750000D03*
X152675000Y-88300000D03*
X152175000Y-88850000D03*
X151675000Y-89450000D03*
X151175000Y-90000000D03*
X142158750Y-82266250D03*
X142175000Y-83000000D03*
X151892500Y-80300000D03*
X154425000Y-80500000D03*
D29*
X150330000Y-105500000D02*
X150330000Y-104730000D01*
X145717500Y-82225000D02*
X144750000Y-82225000D01*
X145992500Y-82500000D02*
X145717500Y-82225000D01*
X152980000Y-100500000D02*
X152250000Y-99770000D01*
X153250000Y-100500000D02*
X152980000Y-100500000D01*
X145942500Y-83500000D02*
X145667500Y-83775000D01*
X145080000Y-100787500D02*
X144037500Y-100787500D01*
X145667500Y-83775000D02*
X144750000Y-83775000D01*
X144037500Y-100787500D02*
X144000000Y-100750000D01*
X144037500Y-102462500D02*
X144000000Y-102500000D01*
X145080000Y-102462500D02*
X144037500Y-102462500D01*
X148580000Y-117750000D02*
X148580000Y-119920000D01*
X148580000Y-115750000D02*
X148580000Y-117750000D01*
X148580000Y-114500000D02*
X148580000Y-115750000D01*
X148580000Y-119920000D02*
X148250000Y-120250000D01*
X148580000Y-113250000D02*
X148580000Y-114500000D01*
X154305000Y-113300000D02*
X154255000Y-113250000D01*
X156330000Y-113300000D02*
X154305000Y-113300000D01*
X156330000Y-115200000D02*
X156330000Y-118210000D01*
X143630000Y-113250000D02*
X143580000Y-113300000D01*
X145655000Y-113250000D02*
X143630000Y-113250000D01*
X143580000Y-118210000D02*
X143580000Y-115200000D01*
X151330000Y-117750000D02*
X151330000Y-119830000D01*
X151330000Y-119830000D02*
X151750000Y-120250000D01*
X151330000Y-114500000D02*
X151330000Y-115750000D01*
X151330000Y-115750000D02*
X151330000Y-117750000D01*
X151330000Y-113250000D02*
X151330000Y-114500000D01*
D30*
X143425000Y-85317500D02*
X143675000Y-85067500D01*
X150642500Y-95500000D02*
X149750000Y-95500000D01*
X149750000Y-95500000D02*
X148250000Y-94000000D01*
X144212500Y-88462500D02*
X143425000Y-87675000D01*
X143675000Y-81500000D02*
X143425000Y-81250000D01*
X143675000Y-85067500D02*
X143675000Y-81500000D01*
X143425000Y-87675000D02*
X143425000Y-85317500D01*
X150142500Y-95000000D02*
X150000000Y-95000000D01*
X150000000Y-95000000D02*
X148250000Y-93250000D01*
X143192500Y-103450000D02*
X144242500Y-103450000D01*
D29*
X149534100Y-64215900D02*
X150480350Y-65162150D01*
X150425000Y-54825000D02*
X149575000Y-55675000D01*
X150425000Y-54675000D02*
X150425000Y-54825000D01*
X149575000Y-55675000D02*
X149575000Y-56025000D01*
D30*
X148892500Y-77250000D02*
X144675000Y-77250000D01*
X141777140Y-77750000D02*
X140675000Y-78852140D01*
X144675000Y-77250000D02*
X144175000Y-77750000D01*
X140675000Y-80795720D02*
X139949000Y-81521720D01*
X139949000Y-81521720D02*
X139949000Y-83136000D01*
X140675000Y-78852140D02*
X140675000Y-80795720D01*
X144175000Y-77750000D02*
X141777140Y-77750000D01*
X139949000Y-83136000D02*
X138925000Y-84160000D01*
X143925000Y-77500000D02*
X141675000Y-77500000D01*
X141675000Y-77500000D02*
X140425000Y-78750000D01*
X140425000Y-78750000D02*
X140425000Y-80120000D01*
X148425000Y-76750000D02*
X144675000Y-76750000D01*
X140425000Y-80120000D02*
X138925000Y-81620000D01*
X144675000Y-76750000D02*
X143925000Y-77500000D01*
X138925000Y-74000000D02*
X139925000Y-74000000D01*
X139925000Y-74000000D02*
X142675000Y-71250000D01*
X141175000Y-73500000D02*
X141175000Y-76250000D01*
X140925000Y-76500000D02*
X140425000Y-76500000D01*
X141175000Y-76250000D02*
X140925000Y-76500000D01*
X142675000Y-72000000D02*
X141175000Y-73500000D01*
X140385000Y-76540000D02*
X138925000Y-76540000D01*
X140425000Y-76500000D02*
X140385000Y-76540000D01*
X159245000Y-94320000D02*
X161175000Y-94320000D01*
X157425000Y-92500000D02*
X159245000Y-94320000D01*
X157425000Y-81250000D02*
X157425000Y-92500000D01*
X155925000Y-91250000D02*
X155925000Y-96000000D01*
X154925000Y-86250000D02*
X155675000Y-87000000D01*
X155675000Y-87000000D02*
X155675000Y-91000000D01*
X156785000Y-96860000D02*
X161175000Y-96860000D01*
X155675000Y-91000000D02*
X155925000Y-91250000D01*
X154925000Y-81750000D02*
X154925000Y-86250000D01*
X155925000Y-96000000D02*
X156785000Y-96860000D01*
X155675000Y-98250000D02*
X156825000Y-99400000D01*
X156825000Y-99400000D02*
X161175000Y-99400000D01*
X155425000Y-91250000D02*
X155675000Y-91500000D01*
X155675000Y-91500000D02*
X155675000Y-98250000D01*
X154425000Y-82250000D02*
X154425000Y-86250000D01*
X154425000Y-86250000D02*
X155425000Y-87250000D01*
X155425000Y-87250000D02*
X155425000Y-91250000D01*
X155175000Y-91500000D02*
X155425000Y-91750000D01*
X153925000Y-86250000D02*
X155175000Y-87500000D01*
X155175000Y-87500000D02*
X155175000Y-91500000D01*
X153925000Y-82750000D02*
X153925000Y-86250000D01*
X158365000Y-101940000D02*
X161175000Y-101940000D01*
X155425000Y-91750000D02*
X155425000Y-99000000D01*
X155425000Y-99000000D02*
X158365000Y-101940000D01*
X140198000Y-85427000D02*
X138925000Y-86700000D01*
X149392500Y-77750000D02*
X144675000Y-77750000D01*
X144425000Y-78000000D02*
X141879280Y-78000000D01*
X140198000Y-81624860D02*
X140198000Y-85427000D01*
X140925000Y-78954280D02*
X140925000Y-80897860D01*
X144675000Y-77750000D02*
X144425000Y-78000000D01*
X140925000Y-80897860D02*
X140198000Y-81624860D01*
X141879280Y-78000000D02*
X140925000Y-78954280D01*
X149842500Y-78250000D02*
X141981420Y-78250000D01*
X141175000Y-81000000D02*
X140447000Y-81728000D01*
X141175000Y-79056420D02*
X141175000Y-81000000D01*
X140447000Y-81728000D02*
X140447000Y-87718000D01*
X149892500Y-78300000D02*
X149842500Y-78250000D01*
X140447000Y-87718000D02*
X138925000Y-89240000D01*
X141981420Y-78250000D02*
X141175000Y-79056420D01*
X143596250Y-89346250D02*
X142925000Y-88675000D01*
X142925000Y-88675000D02*
X142925000Y-84250000D01*
X142492500Y-80200000D02*
X142492500Y-81450000D01*
X142492500Y-81450000D02*
X142676000Y-81633500D01*
X142675000Y-89175000D02*
X142712500Y-89212500D01*
X142676000Y-83499000D02*
X142425000Y-83750000D01*
X142676000Y-81633500D02*
X142676000Y-83499000D01*
X142675000Y-85000000D02*
X142675000Y-89175000D01*
X142425000Y-83750000D02*
X142425000Y-84750000D01*
X142963750Y-79728750D02*
X142492500Y-80200000D01*
X142425000Y-84750000D02*
X142675000Y-85000000D01*
X143371250Y-79728750D02*
X142963750Y-79728750D01*
D29*
X157675000Y-77000000D02*
X157675000Y-79750000D01*
X157675000Y-79750000D02*
X157175000Y-80250000D01*
D30*
X142992500Y-80932500D02*
X142992500Y-80750000D01*
X142925000Y-81000000D02*
X142992500Y-80932500D01*
X149500000Y-96000000D02*
X151142500Y-96000000D01*
X143425000Y-83650000D02*
X142925000Y-83150000D01*
X142925000Y-83150000D02*
X142925000Y-81000000D01*
X143175000Y-88175000D02*
X143175000Y-85100000D01*
X147446250Y-93946250D02*
X149500000Y-96000000D01*
X143425000Y-84850000D02*
X143425000Y-83650000D01*
X143175000Y-85100000D02*
X143425000Y-84850000D01*
X143587500Y-88587500D02*
X143175000Y-88175000D01*
X140696000Y-81831140D02*
X140696000Y-88979000D01*
X139949000Y-93296000D02*
X138925000Y-94320000D01*
X140696000Y-88979000D02*
X139925000Y-89750000D01*
X139925000Y-91331845D02*
X139949000Y-91355845D01*
X139949000Y-91355845D02*
X139949000Y-93296000D01*
X142083560Y-78500000D02*
X141425000Y-79158560D01*
X147475000Y-78800000D02*
X147175000Y-78500000D01*
X141425000Y-79158560D02*
X141425000Y-81102140D01*
X141425000Y-81102140D02*
X140696000Y-81831140D01*
X147175000Y-78500000D02*
X142083560Y-78500000D01*
X150392500Y-78800000D02*
X147475000Y-78800000D01*
X139925000Y-89750000D02*
X139925000Y-91331845D01*
X146175000Y-91147860D02*
X141925000Y-95397860D01*
X141925000Y-95397860D02*
X141925000Y-111250000D01*
X141925000Y-111250000D02*
X141075000Y-112100000D01*
X145892500Y-87100000D02*
X145892500Y-88000000D01*
X146175000Y-86817500D02*
X145892500Y-87100000D01*
X146175000Y-86500000D02*
X146175000Y-86817500D01*
X141075000Y-112100000D02*
X138925000Y-112100000D01*
X146392500Y-89132500D02*
X146175000Y-89350000D01*
X146175000Y-89350000D02*
X146175000Y-91147860D01*
X146392500Y-88500000D02*
X146392500Y-89132500D01*
X145892500Y-88000000D02*
X146392500Y-88500000D01*
X140035000Y-114640000D02*
X138925000Y-114640000D01*
X142175000Y-95500000D02*
X142175000Y-111500000D01*
X148175000Y-88400000D02*
X148175000Y-89500000D01*
X148175000Y-89500000D02*
X142175000Y-95500000D01*
X142175000Y-111500000D02*
X140925000Y-112750000D01*
X140925000Y-113750000D02*
X140035000Y-114640000D01*
X140925000Y-112750000D02*
X140925000Y-113750000D01*
X141175000Y-112897860D02*
X141175000Y-119250000D01*
X142424000Y-95648860D02*
X142424000Y-111648860D01*
X141175000Y-119250000D02*
X140705000Y-119720000D01*
X148675000Y-88800000D02*
X148675000Y-89397860D01*
X148675000Y-89397860D02*
X142424000Y-95648860D01*
X142424000Y-111648860D02*
X141175000Y-112897860D01*
X140705000Y-119720000D02*
X138925000Y-119720000D01*
X140165000Y-122260000D02*
X138925000Y-122260000D01*
X141425000Y-113000000D02*
X141425000Y-121500000D01*
X140175000Y-122250000D02*
X140165000Y-122260000D01*
X141425000Y-121500000D02*
X140675000Y-122250000D01*
X142675000Y-95750000D02*
X142675000Y-111750000D01*
X140675000Y-122250000D02*
X140175000Y-122250000D01*
X149175000Y-89250000D02*
X142675000Y-95750000D01*
X142675000Y-111750000D02*
X141425000Y-113000000D01*
X146675000Y-78750000D02*
X142185700Y-78750000D01*
X141675000Y-81250000D02*
X140945000Y-81980000D01*
X140226070Y-95558930D02*
X138925000Y-96860000D01*
X140226070Y-89801070D02*
X140226070Y-95558930D01*
X147225000Y-79300000D02*
X146675000Y-78750000D01*
X140945000Y-89082139D02*
X140226070Y-89801070D01*
X142185700Y-78750000D02*
X141675000Y-79260700D01*
X141675000Y-79260700D02*
X141675000Y-81250000D01*
X140945000Y-81980000D02*
X140945000Y-89082139D01*
X150892500Y-79300000D02*
X147225000Y-79300000D01*
X147372860Y-79800000D02*
X146572860Y-79000000D01*
X141194000Y-89250000D02*
X141428000Y-89484000D01*
X141925000Y-79362840D02*
X141925000Y-81352140D01*
X142287840Y-79000000D02*
X141925000Y-79362840D01*
X140531070Y-94662930D02*
X140531070Y-95606070D01*
X141428000Y-93766000D02*
X140531070Y-94662930D01*
X139992500Y-98332500D02*
X138925000Y-99400000D01*
X140531070Y-95606070D02*
X139992500Y-96144640D01*
X141428000Y-89484000D02*
X141428000Y-93766000D01*
X139992500Y-96144640D02*
X139992500Y-98332500D01*
X146572860Y-79000000D02*
X142287840Y-79000000D01*
X141925000Y-81352140D02*
X141194000Y-82083140D01*
X141194000Y-82083140D02*
X141194000Y-89250000D01*
X151392500Y-79800000D02*
X147372860Y-79800000D01*
X153425000Y-90250000D02*
X155175000Y-92000000D01*
X155695000Y-107020000D02*
X161175000Y-107020000D01*
X155175000Y-106500000D02*
X155695000Y-107020000D01*
X155175000Y-92000000D02*
X155175000Y-106500000D01*
X153425000Y-83250000D02*
X153425000Y-90250000D01*
X153175000Y-84000000D02*
X152925000Y-83750000D01*
X153175000Y-90352140D02*
X153175000Y-84500000D01*
X153175000Y-84500000D02*
X153175000Y-84000000D01*
X161175000Y-109560000D02*
X156235000Y-109560000D01*
X154925000Y-92102140D02*
X153175000Y-90352140D01*
X156235000Y-109560000D02*
X154925000Y-108250000D01*
X154925000Y-108250000D02*
X154925000Y-92102140D01*
X154578210Y-108346790D02*
X158331420Y-112100000D01*
X152675000Y-88300000D02*
X152675000Y-90397860D01*
X158331420Y-112100000D02*
X161175000Y-112100000D01*
X154578210Y-92301070D02*
X154578210Y-108346790D01*
X152675000Y-90397860D02*
X154578210Y-92301070D01*
X154264873Y-92339873D02*
X154264873Y-108385593D01*
X154264873Y-108385593D02*
X158425000Y-112545720D01*
X158425000Y-114000000D02*
X159065000Y-114640000D01*
X158425000Y-112545720D02*
X158425000Y-114000000D01*
X159065000Y-114640000D02*
X161175000Y-114640000D01*
X152175000Y-88850000D02*
X152175000Y-90250000D01*
X152175000Y-90250000D02*
X154264873Y-92339873D01*
X158175000Y-112647860D02*
X158175000Y-118500000D01*
X154015873Y-92488733D02*
X154015873Y-108488733D01*
X158175000Y-118500000D02*
X159395000Y-119720000D01*
X151675000Y-90147860D02*
X154015873Y-92488733D01*
X159395000Y-119720000D02*
X161175000Y-119720000D01*
X151675000Y-89450000D02*
X151675000Y-90147860D01*
X154015873Y-108488733D02*
X158175000Y-112647860D01*
X157925000Y-112750000D02*
X157925000Y-121250000D01*
X153766873Y-92591873D02*
X153766873Y-108591873D01*
X158935000Y-122260000D02*
X161175000Y-122260000D01*
X153766873Y-108591873D02*
X157925000Y-112750000D01*
X157925000Y-121250000D02*
X158935000Y-122260000D01*
X151175000Y-90000000D02*
X153766873Y-92591873D01*
X140392500Y-106532500D02*
X139905000Y-107020000D01*
X141425000Y-95417500D02*
X140492500Y-96350000D01*
X141926000Y-94646860D02*
X141425000Y-95147860D01*
X140492500Y-100900000D02*
X140392500Y-101000000D01*
X140492500Y-96350000D02*
X140492500Y-100900000D01*
X141425000Y-95147860D02*
X141425000Y-95417500D01*
X141692000Y-88900000D02*
X141926000Y-89134000D01*
X139905000Y-107020000D02*
X138925000Y-107020000D01*
X142158750Y-82266250D02*
X141692000Y-82733000D01*
X141692000Y-82733000D02*
X141692000Y-88900000D01*
X141926000Y-89134000D02*
X141926000Y-94646860D01*
X140392500Y-101000000D02*
X140392500Y-106532500D01*
X141675000Y-108750000D02*
X140865000Y-109560000D01*
X142175000Y-94750000D02*
X141675000Y-95250000D01*
X142175000Y-83000000D02*
X142175000Y-94750000D01*
X141675000Y-95250000D02*
X141675000Y-108750000D01*
X140865000Y-109560000D02*
X138925000Y-109560000D01*
X141443000Y-89100000D02*
X141677000Y-89334000D01*
X140242500Y-96246780D02*
X140242500Y-100622500D01*
X140242500Y-100622500D02*
X138925000Y-101940000D01*
X141677000Y-94516000D02*
X141176000Y-95017000D01*
X141443000Y-82232000D02*
X141443000Y-89100000D01*
X141176000Y-95017000D02*
X141176000Y-95313280D01*
X141176000Y-95313280D02*
X140242500Y-96246780D01*
X146425000Y-79250000D02*
X142425000Y-79250000D01*
X147475000Y-80300000D02*
X146425000Y-79250000D01*
X142425000Y-79250000D02*
X142175000Y-79500000D01*
X141677000Y-89334000D02*
X141677000Y-94516000D01*
X142175000Y-79500000D02*
X142175000Y-81500000D01*
X142175000Y-81500000D02*
X141443000Y-82232000D01*
X151892500Y-80300000D02*
X147475000Y-80300000D01*
X157675000Y-80750000D02*
X158925000Y-82000000D01*
X154425000Y-80500000D02*
X154675000Y-80750000D01*
X159015000Y-82000000D02*
X161175000Y-84160000D01*
X154675000Y-80750000D02*
X157675000Y-80750000D01*
X158925000Y-82000000D02*
X159015000Y-82000000D01*
%TA.AperFunction,Conductor*%
G36*
X157688000Y-50217113D02*
G01*
X157733387Y-50262500D01*
X157750000Y-50324500D01*
X157750000Y-52376000D01*
X157733387Y-52438000D01*
X157688000Y-52483387D01*
X157626000Y-52500000D01*
X155250000Y-52500000D01*
X155250000Y-56626000D01*
X155233387Y-56688000D01*
X155188000Y-56733387D01*
X155126000Y-56750000D01*
X153745176Y-56750000D01*
X153690041Y-56737068D01*
X153646406Y-56700970D01*
X153623372Y-56649234D01*
X153625744Y-56592653D01*
X153653025Y-56543028D01*
X153666859Y-56527665D01*
X153756250Y-56372835D01*
X153811497Y-56202803D01*
X153830185Y-56025000D01*
X153811497Y-55847197D01*
X153756250Y-55677165D01*
X153756250Y-55677164D01*
X153666859Y-55522335D01*
X153666858Y-55522334D01*
X153586394Y-55432970D01*
X153558228Y-55379999D01*
X153558228Y-55320001D01*
X153586394Y-55267029D01*
X153666859Y-55177665D01*
X153756250Y-55022835D01*
X153811497Y-54852803D01*
X153830185Y-54675000D01*
X153811497Y-54497197D01*
X153756250Y-54327165D01*
X153756250Y-54327164D01*
X153666859Y-54172334D01*
X153538510Y-54029790D01*
X153539596Y-54028811D01*
X153513515Y-53998274D01*
X153500000Y-53941979D01*
X153500000Y-53750000D01*
X146500000Y-53750000D01*
X146500000Y-53941979D01*
X146486485Y-53998274D01*
X146460403Y-54028811D01*
X146461490Y-54029790D01*
X146333140Y-54172334D01*
X146243749Y-54327164D01*
X146188503Y-54497195D01*
X146169815Y-54674999D01*
X146188503Y-54852804D01*
X146243749Y-55022835D01*
X146333138Y-55177662D01*
X146333140Y-55177664D01*
X146333141Y-55177665D01*
X146413605Y-55267029D01*
X146441771Y-55320002D01*
X146441771Y-55379998D01*
X146413605Y-55432970D01*
X146381105Y-55469065D01*
X146333138Y-55522337D01*
X146243749Y-55677164D01*
X146188503Y-55847195D01*
X146169815Y-56024999D01*
X146188503Y-56202804D01*
X146243749Y-56372835D01*
X146333138Y-56527661D01*
X146333139Y-56527663D01*
X146333141Y-56527665D01*
X146346974Y-56543028D01*
X146374256Y-56592653D01*
X146376628Y-56649234D01*
X146353594Y-56700970D01*
X146309959Y-56737068D01*
X146254824Y-56750000D01*
X144874000Y-56750000D01*
X144812000Y-56733387D01*
X144766613Y-56688000D01*
X144750000Y-56626000D01*
X144750000Y-52500000D01*
X142874000Y-52500000D01*
X142812000Y-52483387D01*
X142766613Y-52438000D01*
X142750000Y-52376000D01*
X142750000Y-50324500D01*
X142766613Y-50262500D01*
X142812000Y-50217113D01*
X142874000Y-50200500D01*
X157626000Y-50200500D01*
X157688000Y-50217113D01*
G37*
%TD.AperFunction*%
%TA.AperFunction,Conductor*%
G36*
X142188000Y-50217113D02*
G01*
X142233387Y-50262500D01*
X142250000Y-50324500D01*
X142250000Y-53000000D01*
X144126000Y-53000000D01*
X144188000Y-53016613D01*
X144233387Y-53062000D01*
X144250000Y-53124000D01*
X144250000Y-57250000D01*
X149598889Y-57250000D01*
X149655184Y-57263515D01*
X149699207Y-57301115D01*
X149721362Y-57354602D01*
X149716820Y-57412318D01*
X149686570Y-57461681D01*
X149651472Y-57496778D01*
X149590280Y-57616875D01*
X149569195Y-57750000D01*
X149590280Y-57883124D01*
X149651472Y-58003221D01*
X149746778Y-58098527D01*
X149746780Y-58098528D01*
X149866874Y-58159719D01*
X150000000Y-58180804D01*
X150133126Y-58159719D01*
X150253220Y-58098528D01*
X150348528Y-58003220D01*
X150409719Y-57883126D01*
X150430804Y-57750000D01*
X150409719Y-57616874D01*
X150348528Y-57496780D01*
X150348527Y-57496778D01*
X150313430Y-57461681D01*
X150283180Y-57412318D01*
X150278638Y-57354602D01*
X150300793Y-57301115D01*
X150344816Y-57263515D01*
X150401111Y-57250000D01*
X155750000Y-57250000D01*
X155750000Y-56000000D01*
X156319195Y-56000000D01*
X156340280Y-56133124D01*
X156401472Y-56253221D01*
X156496778Y-56348527D01*
X156496780Y-56348528D01*
X156616874Y-56409719D01*
X156750000Y-56430804D01*
X156883126Y-56409719D01*
X157003220Y-56348528D01*
X157098528Y-56253220D01*
X157159719Y-56133126D01*
X157180804Y-56000000D01*
X157159719Y-55866874D01*
X157098528Y-55746780D01*
X157098527Y-55746778D01*
X157003221Y-55651472D01*
X156883124Y-55590280D01*
X156750000Y-55569195D01*
X156616875Y-55590280D01*
X156496778Y-55651472D01*
X156401472Y-55746778D01*
X156340280Y-55866875D01*
X156319195Y-56000000D01*
X155750000Y-56000000D01*
X155750000Y-53124000D01*
X155766613Y-53062000D01*
X155812000Y-53016613D01*
X155874000Y-53000000D01*
X158250000Y-53000000D01*
X158250000Y-50324500D01*
X158266613Y-50262500D01*
X158312000Y-50217113D01*
X158374000Y-50200500D01*
X162175500Y-50200500D01*
X162237500Y-50217113D01*
X162282887Y-50262500D01*
X162299500Y-50324500D01*
X162299500Y-72860288D01*
X162281858Y-72924037D01*
X162233953Y-72969646D01*
X162169416Y-72984139D01*
X162106610Y-72963390D01*
X162103232Y-72961133D01*
X162044749Y-72949500D01*
X162044748Y-72949500D01*
X160305252Y-72949500D01*
X160305251Y-72949500D01*
X160246769Y-72961132D01*
X160180447Y-73005447D01*
X160136132Y-73071769D01*
X160124500Y-73130251D01*
X160124500Y-74869749D01*
X160136132Y-74928230D01*
X160180447Y-74994552D01*
X160246769Y-75038867D01*
X160305251Y-75050500D01*
X160305252Y-75050500D01*
X162044748Y-75050500D01*
X162044749Y-75050500D01*
X162056382Y-75048185D01*
X162103231Y-75038867D01*
X162104211Y-75038211D01*
X162106610Y-75036610D01*
X162169416Y-75015861D01*
X162233953Y-75030354D01*
X162281858Y-75075963D01*
X162299500Y-75139712D01*
X162299500Y-75920273D01*
X162282479Y-75982975D01*
X162236089Y-76028463D01*
X162173065Y-76044249D01*
X162110710Y-76026000D01*
X162066142Y-75978726D01*
X162065436Y-75977405D01*
X162052685Y-75953550D01*
X161981552Y-75866874D01*
X161921410Y-75793589D01*
X161823952Y-75713609D01*
X161761450Y-75662315D01*
X161578954Y-75564768D01*
X161479943Y-75534733D01*
X161380932Y-75504699D01*
X161175000Y-75484417D01*
X160969067Y-75504699D01*
X160771043Y-75564769D01*
X160588551Y-75662314D01*
X160428589Y-75793589D01*
X160297314Y-75953551D01*
X160199769Y-76136043D01*
X160139699Y-76334067D01*
X160119810Y-76536006D01*
X160119417Y-76540000D01*
X160121233Y-76558440D01*
X160139699Y-76745932D01*
X160169733Y-76844943D01*
X160198328Y-76939208D01*
X160199769Y-76943956D01*
X160228003Y-76996778D01*
X160297315Y-77126450D01*
X160302794Y-77133126D01*
X160428589Y-77286410D01*
X160494231Y-77340280D01*
X160588550Y-77417685D01*
X160771046Y-77515232D01*
X160969066Y-77575300D01*
X161175000Y-77595583D01*
X161380934Y-77575300D01*
X161578954Y-77515232D01*
X161761450Y-77417685D01*
X161921410Y-77286410D01*
X162052685Y-77126450D01*
X162066141Y-77101274D01*
X162110710Y-77054000D01*
X162173065Y-77035751D01*
X162236089Y-77051537D01*
X162282479Y-77097025D01*
X162299500Y-77159727D01*
X162299500Y-78373794D01*
X162284382Y-78433129D01*
X162242715Y-78477997D01*
X162184658Y-78497455D01*
X162124368Y-78486761D01*
X162076546Y-78448521D01*
X161991392Y-78335758D01*
X161840740Y-78198421D01*
X161667411Y-78091100D01*
X161477320Y-78017460D01*
X161425000Y-78007680D01*
X161425000Y-80152320D01*
X161477320Y-80142539D01*
X161667411Y-80068899D01*
X161840740Y-79961578D01*
X161991392Y-79824241D01*
X162076546Y-79711479D01*
X162124368Y-79673239D01*
X162184658Y-79662545D01*
X162242715Y-79682003D01*
X162284382Y-79726871D01*
X162299500Y-79786206D01*
X162299500Y-81000273D01*
X162282479Y-81062975D01*
X162236089Y-81108463D01*
X162173065Y-81124249D01*
X162110710Y-81106000D01*
X162066142Y-81058726D01*
X162054470Y-81036890D01*
X162052685Y-81033550D01*
X161982988Y-80948624D01*
X161921410Y-80873589D01*
X161807193Y-80779855D01*
X161761450Y-80742315D01*
X161616231Y-80664693D01*
X161578956Y-80644769D01*
X161578955Y-80644768D01*
X161578954Y-80644768D01*
X161470338Y-80611820D01*
X161380932Y-80584699D01*
X161175000Y-80564417D01*
X160969067Y-80584699D01*
X160771043Y-80644769D01*
X160588551Y-80742314D01*
X160428589Y-80873589D01*
X160297314Y-81033551D01*
X160199769Y-81216043D01*
X160139699Y-81414067D01*
X160119417Y-81620000D01*
X160139699Y-81825932D01*
X160166819Y-81915335D01*
X160193478Y-82003220D01*
X160199769Y-82023956D01*
X160208306Y-82039928D01*
X160297315Y-82206450D01*
X160340864Y-82259515D01*
X160428589Y-82366410D01*
X160471313Y-82401472D01*
X160588550Y-82497685D01*
X160771046Y-82595232D01*
X160969066Y-82655300D01*
X161175000Y-82675583D01*
X161380934Y-82655300D01*
X161578954Y-82595232D01*
X161761450Y-82497685D01*
X161921410Y-82366410D01*
X162052685Y-82206450D01*
X162066141Y-82181274D01*
X162110710Y-82134000D01*
X162173065Y-82115751D01*
X162236089Y-82131537D01*
X162282479Y-82177025D01*
X162299500Y-82239727D01*
X162299500Y-83540273D01*
X162282479Y-83602975D01*
X162236089Y-83648463D01*
X162173065Y-83664249D01*
X162110710Y-83646000D01*
X162066142Y-83598726D01*
X162065436Y-83597405D01*
X162052685Y-83573550D01*
X161971397Y-83474500D01*
X161921410Y-83413589D01*
X161789517Y-83305349D01*
X161761450Y-83282315D01*
X161578954Y-83184768D01*
X161479943Y-83154733D01*
X161380932Y-83124699D01*
X161175000Y-83104417D01*
X160969067Y-83124699D01*
X160793692Y-83177898D01*
X160776819Y-83183017D01*
X160771043Y-83184769D01*
X160733767Y-83204694D01*
X160683424Y-83219071D01*
X160631635Y-83211388D01*
X160587633Y-83183017D01*
X159237627Y-81833011D01*
X159222205Y-81814219D01*
X159216278Y-81805349D01*
X159213624Y-81801376D01*
X159190623Y-81786007D01*
X159190622Y-81786006D01*
X159150975Y-81759515D01*
X159122495Y-81740485D01*
X159122494Y-81740484D01*
X159075256Y-81731088D01*
X159040995Y-81718829D01*
X159011768Y-81697152D01*
X157897627Y-80583011D01*
X157882205Y-80564219D01*
X157879061Y-80559514D01*
X157873624Y-80551376D01*
X157850623Y-80536007D01*
X157850622Y-80536006D01*
X157801554Y-80503220D01*
X157782495Y-80490485D01*
X157782494Y-80490484D01*
X157691206Y-80472326D01*
X157634866Y-80444999D01*
X157599062Y-80393627D01*
X157592925Y-80331313D01*
X157600599Y-80282856D01*
X157612587Y-80245964D01*
X157635388Y-80214581D01*
X157838518Y-80011451D01*
X157852353Y-80001498D01*
X157859225Y-79993959D01*
X157859228Y-79993958D01*
X157890488Y-79959666D01*
X157894379Y-79955590D01*
X157907174Y-79942797D01*
X157907178Y-79942790D01*
X157907868Y-79942101D01*
X157916922Y-79930671D01*
X157934915Y-79910934D01*
X157934914Y-79910934D01*
X157934916Y-79910933D01*
X157937417Y-79904474D01*
X157950747Y-79879187D01*
X157954657Y-79873480D01*
X157960773Y-79847476D01*
X157965851Y-79831080D01*
X157968501Y-79824241D01*
X157975500Y-79806173D01*
X157975500Y-79799248D01*
X157978794Y-79770858D01*
X157978819Y-79770749D01*
X157980379Y-79764119D01*
X157976689Y-79737667D01*
X157975500Y-79720536D01*
X157975500Y-79330000D01*
X160102472Y-79330000D01*
X160144886Y-79479069D01*
X160235751Y-79661553D01*
X160358607Y-79824241D01*
X160509259Y-79961578D01*
X160682588Y-80068899D01*
X160872679Y-80142539D01*
X160925000Y-80152320D01*
X160925000Y-79330000D01*
X160102472Y-79330000D01*
X157975500Y-79330000D01*
X157975500Y-78829999D01*
X160102471Y-78829999D01*
X160102472Y-78830000D01*
X160925000Y-78830000D01*
X160925000Y-78007680D01*
X160872679Y-78017460D01*
X160682588Y-78091100D01*
X160509259Y-78198421D01*
X160358607Y-78335758D01*
X160235751Y-78498446D01*
X160144886Y-78680930D01*
X160102471Y-78829999D01*
X157975500Y-78829999D01*
X157975500Y-77352611D01*
X157984939Y-77305158D01*
X158011819Y-77264930D01*
X158023527Y-77253221D01*
X158023528Y-77253220D01*
X158084719Y-77133126D01*
X158105804Y-77000000D01*
X158084719Y-76866874D01*
X158023528Y-76746780D01*
X158023527Y-76746778D01*
X157928221Y-76651472D01*
X157808124Y-76590280D01*
X157675000Y-76569195D01*
X157541875Y-76590280D01*
X157421778Y-76651472D01*
X157326472Y-76746778D01*
X157265280Y-76866875D01*
X157244195Y-76999999D01*
X157265280Y-77133124D01*
X157326472Y-77253221D01*
X157338181Y-77264930D01*
X157365061Y-77305158D01*
X157374500Y-77352611D01*
X157374500Y-79574167D01*
X157365061Y-79621620D01*
X157338183Y-79661845D01*
X157235909Y-79764119D01*
X157210419Y-79789609D01*
X157179033Y-79812412D01*
X157142137Y-79824400D01*
X157041875Y-79840280D01*
X156921778Y-79901472D01*
X156826472Y-79996778D01*
X156765280Y-80116875D01*
X156744195Y-80249999D01*
X156757041Y-80331102D01*
X156753913Y-80384158D01*
X156728858Y-80431031D01*
X156686482Y-80463110D01*
X156634568Y-80474500D01*
X154957671Y-80474500D01*
X154901376Y-80460985D01*
X154857352Y-80423385D01*
X154835198Y-80369898D01*
X154834719Y-80366874D01*
X154773528Y-80246780D01*
X154773527Y-80246778D01*
X154678221Y-80151472D01*
X154558124Y-80090280D01*
X154425000Y-80069195D01*
X154291875Y-80090280D01*
X154171778Y-80151472D01*
X154076472Y-80246778D01*
X154015280Y-80366875D01*
X153994195Y-80499999D01*
X154015280Y-80633124D01*
X154076472Y-80753221D01*
X154171778Y-80848527D01*
X154171780Y-80848528D01*
X154291874Y-80909719D01*
X154363788Y-80921109D01*
X154430511Y-80931677D01*
X154479999Y-80951045D01*
X154489218Y-80957204D01*
X154489222Y-80957208D01*
X154499377Y-80963993D01*
X154499378Y-80963994D01*
X154548446Y-80996780D01*
X154567505Y-81009515D01*
X154647867Y-81025500D01*
X154659836Y-81027881D01*
X154659846Y-81027882D01*
X154674999Y-81030896D01*
X154674999Y-81030895D01*
X154675000Y-81030896D01*
X154683540Y-81029197D01*
X154690154Y-81027882D01*
X154714343Y-81025500D01*
X156884568Y-81025500D01*
X156936482Y-81036890D01*
X156978858Y-81068969D01*
X157003913Y-81115842D01*
X157007041Y-81168898D01*
X156994195Y-81250000D01*
X157015280Y-81383124D01*
X157076472Y-81503221D01*
X157113180Y-81539928D01*
X157140061Y-81580157D01*
X157149500Y-81627610D01*
X157149500Y-92460656D01*
X157147117Y-92484847D01*
X157144102Y-92500000D01*
X157147117Y-92515153D01*
X157149500Y-92527132D01*
X157149500Y-92527133D01*
X157165485Y-92607495D01*
X157226376Y-92698624D01*
X157239221Y-92707206D01*
X157258011Y-92722627D01*
X159022370Y-94486986D01*
X159037791Y-94505776D01*
X159046376Y-94518624D01*
X159059219Y-94527205D01*
X159059229Y-94527213D01*
X159077415Y-94539364D01*
X159077417Y-94539366D01*
X159101484Y-94555447D01*
X159137505Y-94579515D01*
X159217867Y-94595500D01*
X159217868Y-94595500D01*
X159229846Y-94597882D01*
X159229847Y-94597883D01*
X159244999Y-94600897D01*
X159244999Y-94600896D01*
X159245000Y-94600897D01*
X159260152Y-94597883D01*
X159284344Y-94595500D01*
X160068837Y-94595500D01*
X160120012Y-94606553D01*
X160162065Y-94637741D01*
X160187497Y-94683504D01*
X160199766Y-94723951D01*
X160297315Y-94906450D01*
X160428589Y-95066410D01*
X160508570Y-95132047D01*
X160588550Y-95197685D01*
X160771046Y-95295232D01*
X160969066Y-95355300D01*
X161175000Y-95375583D01*
X161380934Y-95355300D01*
X161578954Y-95295232D01*
X161761450Y-95197685D01*
X161921410Y-95066410D01*
X162052685Y-94906450D01*
X162066141Y-94881274D01*
X162110710Y-94834000D01*
X162173065Y-94815751D01*
X162236089Y-94831537D01*
X162282479Y-94877025D01*
X162299500Y-94939727D01*
X162299500Y-96240273D01*
X162282479Y-96302975D01*
X162236089Y-96348463D01*
X162173065Y-96364249D01*
X162110710Y-96346000D01*
X162066142Y-96298726D01*
X162065436Y-96297405D01*
X162052685Y-96273550D01*
X161937443Y-96133126D01*
X161921410Y-96113589D01*
X161821577Y-96031660D01*
X161761450Y-95982315D01*
X161578954Y-95884768D01*
X161479944Y-95854734D01*
X161380932Y-95824699D01*
X161175000Y-95804417D01*
X160969067Y-95824699D01*
X160839127Y-95864116D01*
X160780254Y-95881975D01*
X160771043Y-95884769D01*
X160588551Y-95982314D01*
X160428589Y-96113589D01*
X160297315Y-96273549D01*
X160199766Y-96456048D01*
X160187497Y-96496496D01*
X160162065Y-96542259D01*
X160120012Y-96573447D01*
X160068837Y-96584500D01*
X156950478Y-96584500D01*
X156903025Y-96575061D01*
X156862797Y-96548181D01*
X156236819Y-95922203D01*
X156209939Y-95881975D01*
X156200500Y-95834522D01*
X156200500Y-91289343D01*
X156202882Y-91265154D01*
X156205896Y-91250000D01*
X156202882Y-91234846D01*
X156202881Y-91234836D01*
X156193318Y-91186761D01*
X156184515Y-91142505D01*
X156153662Y-91096330D01*
X156138994Y-91074378D01*
X156138993Y-91074377D01*
X156132208Y-91064222D01*
X156132207Y-91064222D01*
X156132203Y-91064216D01*
X156123623Y-91051375D01*
X156110776Y-91042791D01*
X156091986Y-91027370D01*
X155986819Y-90922203D01*
X155959939Y-90881975D01*
X155950500Y-90834522D01*
X155950500Y-87039344D01*
X155952883Y-87015153D01*
X155955897Y-87000000D01*
X155942133Y-86930804D01*
X155934515Y-86892505D01*
X155902528Y-86844633D01*
X155893560Y-86831211D01*
X155882210Y-86814225D01*
X155882209Y-86814225D01*
X155882205Y-86814219D01*
X155873623Y-86801375D01*
X155860776Y-86792791D01*
X155841986Y-86777370D01*
X155236819Y-86172203D01*
X155209939Y-86131975D01*
X155200500Y-86084522D01*
X155200500Y-82127610D01*
X155209939Y-82080157D01*
X155236820Y-82039928D01*
X155273527Y-82003221D01*
X155276810Y-81996778D01*
X155334719Y-81883126D01*
X155355804Y-81750000D01*
X155334719Y-81616874D01*
X155273528Y-81496780D01*
X155273527Y-81496778D01*
X155178221Y-81401472D01*
X155058124Y-81340280D01*
X154925000Y-81319195D01*
X154791875Y-81340280D01*
X154671778Y-81401472D01*
X154576472Y-81496778D01*
X154515280Y-81616875D01*
X154498827Y-81720753D01*
X154480349Y-81768890D01*
X154443890Y-81805349D01*
X154395753Y-81823827D01*
X154291875Y-81840280D01*
X154171778Y-81901472D01*
X154076472Y-81996778D01*
X154015280Y-82116875D01*
X153998827Y-82220753D01*
X153980349Y-82268890D01*
X153943890Y-82305349D01*
X153895753Y-82323827D01*
X153791875Y-82340280D01*
X153671778Y-82401472D01*
X153576472Y-82496778D01*
X153515280Y-82616875D01*
X153498827Y-82720753D01*
X153480349Y-82768890D01*
X153443890Y-82805349D01*
X153395753Y-82823827D01*
X153291875Y-82840280D01*
X153171778Y-82901472D01*
X153076472Y-82996778D01*
X153015280Y-83116875D01*
X152998827Y-83220753D01*
X152980349Y-83268890D01*
X152943890Y-83305349D01*
X152895753Y-83323827D01*
X152791875Y-83340280D01*
X152671778Y-83401472D01*
X152576472Y-83496778D01*
X152515280Y-83616875D01*
X152494195Y-83750000D01*
X152515280Y-83883124D01*
X152576472Y-84003221D01*
X152671778Y-84098527D01*
X152671780Y-84098528D01*
X152791874Y-84159719D01*
X152794898Y-84160198D01*
X152848385Y-84182352D01*
X152885985Y-84226376D01*
X152899500Y-84282671D01*
X152899500Y-87759568D01*
X152888110Y-87811482D01*
X152856031Y-87853858D01*
X152809158Y-87878913D01*
X152756102Y-87882041D01*
X152674999Y-87869195D01*
X152541875Y-87890280D01*
X152421778Y-87951472D01*
X152326472Y-88046778D01*
X152265280Y-88166875D01*
X152241123Y-88319398D01*
X152237763Y-88318865D01*
X152234801Y-88346975D01*
X152197072Y-88398887D01*
X152138445Y-88424985D01*
X152041875Y-88440280D01*
X151921778Y-88501472D01*
X151826472Y-88596778D01*
X151765280Y-88716875D01*
X151744195Y-88850000D01*
X151749246Y-88881891D01*
X151742537Y-88945726D01*
X151704809Y-88997654D01*
X151646171Y-89023761D01*
X151541875Y-89040280D01*
X151421778Y-89101472D01*
X151326472Y-89196778D01*
X151265280Y-89316875D01*
X151241123Y-89469398D01*
X151237763Y-89468865D01*
X151234801Y-89496975D01*
X151197072Y-89548887D01*
X151138445Y-89574985D01*
X151041875Y-89590280D01*
X150921778Y-89651472D01*
X150826472Y-89746778D01*
X150765280Y-89866875D01*
X150744195Y-89999999D01*
X150765280Y-90133124D01*
X150826472Y-90253221D01*
X150921778Y-90348527D01*
X150921780Y-90348528D01*
X151041874Y-90409719D01*
X151080707Y-90415869D01*
X151184146Y-90432253D01*
X151221043Y-90444241D01*
X151252429Y-90467045D01*
X153455054Y-92669670D01*
X153481934Y-92709898D01*
X153491373Y-92757351D01*
X153491373Y-98942011D01*
X153477858Y-98998306D01*
X153440258Y-99042329D01*
X153386771Y-99064484D01*
X153329055Y-99059942D01*
X153279692Y-99029692D01*
X153250000Y-99000000D01*
X148551362Y-99000000D01*
X148503909Y-98990561D01*
X148463681Y-98963681D01*
X147750000Y-98250000D01*
X144250000Y-98250000D01*
X144250000Y-100000000D01*
X144500229Y-100000000D01*
X144556524Y-100013515D01*
X144600547Y-100051115D01*
X144622702Y-100104602D01*
X144618160Y-100162318D01*
X144587910Y-100211681D01*
X144480342Y-100319248D01*
X144453408Y-100372109D01*
X144415809Y-100416132D01*
X144362321Y-100438286D01*
X144304606Y-100433744D01*
X144255243Y-100403494D01*
X144253221Y-100401472D01*
X144133124Y-100340280D01*
X144000000Y-100319195D01*
X143866875Y-100340280D01*
X143746778Y-100401472D01*
X143651472Y-100496778D01*
X143590280Y-100616875D01*
X143569195Y-100750000D01*
X143590280Y-100883124D01*
X143651472Y-101003221D01*
X143746778Y-101098527D01*
X143746780Y-101098528D01*
X143866874Y-101159719D01*
X144000000Y-101180804D01*
X144133126Y-101159719D01*
X144238022Y-101106272D01*
X144247358Y-101101515D01*
X144303653Y-101088000D01*
X144318881Y-101088000D01*
X144383671Y-101106272D01*
X144429365Y-101155705D01*
X144480341Y-101255750D01*
X144480342Y-101255751D01*
X144574249Y-101349658D01*
X144692580Y-101409951D01*
X144725304Y-101415133D01*
X144790752Y-101425500D01*
X144790754Y-101425500D01*
X145369246Y-101425500D01*
X145369248Y-101425500D01*
X145418734Y-101417662D01*
X145467420Y-101409951D01*
X145585751Y-101349658D01*
X145679658Y-101255751D01*
X145739951Y-101137420D01*
X145751846Y-101062315D01*
X145755500Y-101039248D01*
X145755500Y-101025000D01*
X146025001Y-101025000D01*
X146025001Y-101045433D01*
X146031082Y-101102006D01*
X146078816Y-101229986D01*
X146160669Y-101339330D01*
X146270013Y-101421183D01*
X146397992Y-101468917D01*
X146454567Y-101475000D01*
X146500000Y-101475000D01*
X146500000Y-101025000D01*
X147000000Y-101025000D01*
X147000000Y-101474999D01*
X147045433Y-101474999D01*
X147102006Y-101468917D01*
X147229986Y-101421183D01*
X147339330Y-101339330D01*
X147421183Y-101229986D01*
X147468917Y-101102007D01*
X147475000Y-101045433D01*
X147475000Y-101025000D01*
X147000000Y-101025000D01*
X146500000Y-101025000D01*
X146025001Y-101025000D01*
X145755500Y-101025000D01*
X145755500Y-101000000D01*
X147952562Y-101000000D01*
X147954464Y-101012017D01*
X148010552Y-101122094D01*
X148097906Y-101209448D01*
X148207981Y-101265535D01*
X148250000Y-101272190D01*
X148250000Y-101000000D01*
X148750000Y-101000000D01*
X148750000Y-101272190D01*
X148792017Y-101265535D01*
X148852499Y-101234718D01*
X148852500Y-101234718D01*
X148852500Y-101000000D01*
X148750000Y-101000000D01*
X148250000Y-101000000D01*
X147952562Y-101000000D01*
X145755500Y-101000000D01*
X145755500Y-100980000D01*
X151932500Y-100980000D01*
X151932500Y-101232551D01*
X151957981Y-101245535D01*
X152000000Y-101252190D01*
X152000000Y-100980000D01*
X151932500Y-100980000D01*
X145755500Y-100980000D01*
X145755500Y-100535752D01*
X145739951Y-100437581D01*
X145739951Y-100437580D01*
X145679658Y-100319249D01*
X145585751Y-100225342D01*
X145572090Y-100211681D01*
X145541840Y-100162318D01*
X145537298Y-100104602D01*
X145559453Y-100051115D01*
X145603476Y-100013515D01*
X145659771Y-100000000D01*
X146070655Y-100000000D01*
X146135822Y-100018505D01*
X146181539Y-100068495D01*
X146194161Y-100135052D01*
X146169922Y-100198310D01*
X146078816Y-100320013D01*
X146031082Y-100447992D01*
X146025000Y-100504567D01*
X146025000Y-100525000D01*
X147480620Y-100525000D01*
X147503908Y-100509439D01*
X147551361Y-100500000D01*
X149005746Y-100500000D01*
X149053199Y-100509439D01*
X149100103Y-100528867D01*
X149150102Y-100500000D01*
X149224775Y-100500000D01*
X149275120Y-100529067D01*
X149496053Y-100750000D01*
X151288947Y-100750000D01*
X151288947Y-100749999D01*
X151509879Y-100529067D01*
X151560223Y-100500000D01*
X151634896Y-100500000D01*
X151634977Y-100500047D01*
X151635090Y-100500000D01*
X152441387Y-100500000D01*
X152483387Y-100542000D01*
X152500000Y-100604000D01*
X152500000Y-101252190D01*
X152542018Y-101245535D01*
X152652093Y-101189448D01*
X152739448Y-101102093D01*
X152795534Y-100992021D01*
X152804892Y-100932933D01*
X152827047Y-100879445D01*
X152871070Y-100841845D01*
X152927365Y-100828329D01*
X152983660Y-100841844D01*
X153116873Y-100909719D01*
X153250000Y-100930804D01*
X153347975Y-100915287D01*
X153401032Y-100918416D01*
X153447905Y-100943470D01*
X153479983Y-100985846D01*
X153491373Y-101037760D01*
X153491373Y-108552529D01*
X153488990Y-108576720D01*
X153485975Y-108591872D01*
X153488990Y-108607026D01*
X153488990Y-108607028D01*
X153507356Y-108699366D01*
X153535401Y-108741338D01*
X153541189Y-108750000D01*
X153568249Y-108790497D01*
X153581095Y-108799080D01*
X153599884Y-108814500D01*
X157613181Y-112827797D01*
X157640061Y-112868025D01*
X157649500Y-112915478D01*
X157649500Y-119743896D01*
X157633689Y-119804485D01*
X157590290Y-119849623D01*
X157530368Y-119867800D01*
X157469205Y-119854381D01*
X157422397Y-119812786D01*
X157360239Y-119719760D01*
X157277543Y-119664504D01*
X157204625Y-119650000D01*
X156580000Y-119650000D01*
X156580000Y-121850000D01*
X157204625Y-121850000D01*
X157277543Y-121835495D01*
X157360239Y-121780239D01*
X157415495Y-121697543D01*
X157430000Y-121624625D01*
X157430000Y-121413840D01*
X157445810Y-121353251D01*
X157489210Y-121308113D01*
X157549132Y-121289936D01*
X157610295Y-121303355D01*
X157657102Y-121344949D01*
X157711571Y-121426468D01*
X157726376Y-121448624D01*
X157739221Y-121457206D01*
X157758011Y-121472627D01*
X158712370Y-122426986D01*
X158727791Y-122445776D01*
X158736376Y-122458624D01*
X158749218Y-122467204D01*
X158749222Y-122467208D01*
X158759377Y-122473993D01*
X158759378Y-122473994D01*
X158785534Y-122491471D01*
X158827505Y-122519515D01*
X158907867Y-122535500D01*
X158907868Y-122535500D01*
X158919846Y-122537882D01*
X158919847Y-122537883D01*
X158935000Y-122540897D01*
X158950153Y-122537883D01*
X158974344Y-122535500D01*
X160068837Y-122535500D01*
X160120012Y-122546553D01*
X160162065Y-122577741D01*
X160187497Y-122623504D01*
X160199766Y-122663951D01*
X160297315Y-122846450D01*
X160428589Y-123006410D01*
X160508569Y-123072047D01*
X160588550Y-123137685D01*
X160771046Y-123235232D01*
X160969066Y-123295300D01*
X161175000Y-123315583D01*
X161380934Y-123295300D01*
X161578954Y-123235232D01*
X161761450Y-123137685D01*
X161921410Y-123006410D01*
X162052685Y-122846450D01*
X162066141Y-122821274D01*
X162110710Y-122774000D01*
X162173065Y-122755751D01*
X162236089Y-122771537D01*
X162282479Y-122817025D01*
X162299500Y-122879727D01*
X162299500Y-124675500D01*
X162282887Y-124737500D01*
X162237500Y-124782887D01*
X162175500Y-124799500D01*
X137824500Y-124799500D01*
X137762500Y-124782887D01*
X137717113Y-124737500D01*
X137700500Y-124675500D01*
X137700500Y-122678166D01*
X137720065Y-122611313D01*
X137772586Y-122565556D01*
X137841490Y-122555335D01*
X137905032Y-122583876D01*
X137943159Y-122642168D01*
X137949767Y-122663951D01*
X137949769Y-122663956D01*
X137998541Y-122755201D01*
X138047315Y-122846450D01*
X138074625Y-122879727D01*
X138178589Y-123006410D01*
X138258569Y-123072047D01*
X138338550Y-123137685D01*
X138521046Y-123235232D01*
X138719066Y-123295300D01*
X138925000Y-123315583D01*
X139130934Y-123295300D01*
X139328954Y-123235232D01*
X139511450Y-123137685D01*
X139671410Y-123006410D01*
X139802685Y-122846450D01*
X139900232Y-122663954D01*
X139906840Y-122642171D01*
X139912503Y-122623504D01*
X139937935Y-122577741D01*
X139979988Y-122546553D01*
X140031163Y-122535500D01*
X140125656Y-122535500D01*
X140149847Y-122537883D01*
X140165000Y-122540897D01*
X140180153Y-122537883D01*
X140180153Y-122537882D01*
X140192132Y-122535500D01*
X140192133Y-122535500D01*
X140230426Y-122527882D01*
X140254617Y-122525500D01*
X140635656Y-122525500D01*
X140659847Y-122527883D01*
X140675000Y-122530897D01*
X140690153Y-122527883D01*
X140690153Y-122527882D01*
X140702132Y-122525500D01*
X140702133Y-122525500D01*
X140782495Y-122509515D01*
X140831589Y-122476711D01*
X140850622Y-122463994D01*
X140850622Y-122463993D01*
X140864050Y-122455022D01*
X140864053Y-122455018D01*
X140873624Y-122448624D01*
X140882210Y-122435774D01*
X140897624Y-122416991D01*
X141591990Y-121722624D01*
X141610770Y-121707212D01*
X141623624Y-121698624D01*
X141684515Y-121607495D01*
X141700500Y-121527133D01*
X141700500Y-121527132D01*
X141705897Y-121500000D01*
X141702883Y-121484847D01*
X141700500Y-121460656D01*
X141700500Y-121000000D01*
X142480000Y-121000000D01*
X142480000Y-121624625D01*
X142494504Y-121697543D01*
X142549760Y-121780239D01*
X142632456Y-121835495D01*
X142705375Y-121850000D01*
X143330000Y-121850000D01*
X143330000Y-121000000D01*
X143830000Y-121000000D01*
X143830000Y-121850000D01*
X144454625Y-121850000D01*
X144527543Y-121835495D01*
X144610239Y-121780239D01*
X144665495Y-121697543D01*
X144680000Y-121624625D01*
X144680000Y-121469749D01*
X146849500Y-121469749D01*
X146861132Y-121528230D01*
X146905447Y-121594552D01*
X146971769Y-121638867D01*
X147030251Y-121650500D01*
X147030252Y-121650500D01*
X149469748Y-121650500D01*
X149469749Y-121650500D01*
X149498989Y-121644683D01*
X149528231Y-121638867D01*
X149594552Y-121594552D01*
X149638867Y-121528231D01*
X149647497Y-121484847D01*
X149650500Y-121469749D01*
X149650500Y-120250000D01*
X150344699Y-120250000D01*
X150363865Y-120481299D01*
X150363865Y-120481301D01*
X150363866Y-120481305D01*
X150420843Y-120706300D01*
X150514076Y-120918849D01*
X150641021Y-121113153D01*
X150798216Y-121283913D01*
X150981374Y-121426470D01*
X151185497Y-121536936D01*
X151295258Y-121574617D01*
X151405015Y-121612297D01*
X151405017Y-121612297D01*
X151405019Y-121612298D01*
X151633951Y-121650500D01*
X151866048Y-121650500D01*
X151866049Y-121650500D01*
X152094981Y-121612298D01*
X152314503Y-121536936D01*
X152518626Y-121426470D01*
X152701784Y-121283913D01*
X152858979Y-121113153D01*
X152932905Y-121000000D01*
X155230000Y-121000000D01*
X155230000Y-121624625D01*
X155244504Y-121697543D01*
X155299760Y-121780239D01*
X155382456Y-121835495D01*
X155455375Y-121850000D01*
X156080000Y-121850000D01*
X156080000Y-121000000D01*
X155230000Y-121000000D01*
X152932905Y-121000000D01*
X152985924Y-120918849D01*
X153079157Y-120706300D01*
X153131400Y-120500000D01*
X155230000Y-120500000D01*
X156080000Y-120500000D01*
X156080000Y-119650000D01*
X155455375Y-119650000D01*
X155382456Y-119664504D01*
X155299760Y-119719760D01*
X155244504Y-119802456D01*
X155230000Y-119875375D01*
X155230000Y-120500000D01*
X153131400Y-120500000D01*
X153136134Y-120481305D01*
X153155300Y-120250000D01*
X153136134Y-120018695D01*
X153079157Y-119793700D01*
X152985924Y-119581151D01*
X152858979Y-119386847D01*
X152701784Y-119216087D01*
X152518626Y-119073530D01*
X152314503Y-118963064D01*
X152314499Y-118963062D01*
X152314498Y-118963062D01*
X152094984Y-118887702D01*
X151923282Y-118859050D01*
X151866049Y-118849500D01*
X151754500Y-118849500D01*
X151692500Y-118832887D01*
X151647113Y-118787500D01*
X151630500Y-118725500D01*
X151630500Y-118511119D01*
X151648772Y-118446329D01*
X151698205Y-118400635D01*
X151756991Y-118370680D01*
X151798251Y-118349658D01*
X151892158Y-118255751D01*
X151952451Y-118137420D01*
X151968000Y-118039246D01*
X151968000Y-118000000D01*
X152217500Y-118000000D01*
X152217500Y-118062722D01*
X152220468Y-118094379D01*
X152267140Y-118227756D01*
X152351049Y-118341450D01*
X152464743Y-118425359D01*
X152598120Y-118472031D01*
X152629778Y-118475000D01*
X152655000Y-118475000D01*
X152655000Y-118000000D01*
X153155000Y-118000000D01*
X153155000Y-118475000D01*
X153180222Y-118475000D01*
X153211879Y-118472031D01*
X153345256Y-118425359D01*
X153458950Y-118341450D01*
X153542859Y-118227756D01*
X153549073Y-118209999D01*
X155274417Y-118209999D01*
X155294699Y-118415932D01*
X155312617Y-118475000D01*
X155354768Y-118613954D01*
X155452315Y-118796450D01*
X155503608Y-118858952D01*
X155583589Y-118956410D01*
X155663569Y-119022047D01*
X155743550Y-119087685D01*
X155926046Y-119185232D01*
X156124066Y-119245300D01*
X156330000Y-119265583D01*
X156535934Y-119245300D01*
X156733954Y-119185232D01*
X156916450Y-119087685D01*
X157076410Y-118956410D01*
X157207685Y-118796450D01*
X157305232Y-118613954D01*
X157365300Y-118415934D01*
X157385583Y-118210000D01*
X157365300Y-118004066D01*
X157305232Y-117806046D01*
X157207685Y-117623550D01*
X157106291Y-117500000D01*
X157076410Y-117463589D01*
X156953328Y-117362580D01*
X156916450Y-117332315D01*
X156733954Y-117234768D01*
X156718503Y-117230081D01*
X156672740Y-117204648D01*
X156641553Y-117162596D01*
X156630500Y-117111421D01*
X156630500Y-116024500D01*
X156647113Y-115962500D01*
X156692500Y-115917113D01*
X156754500Y-115900500D01*
X156859269Y-115900500D01*
X156874482Y-115899072D01*
X156889699Y-115897646D01*
X157017882Y-115852793D01*
X157017882Y-115852792D01*
X157017884Y-115852792D01*
X157127150Y-115772150D01*
X157207792Y-115662884D01*
X157224467Y-115615230D01*
X157252646Y-115534699D01*
X157255500Y-115504266D01*
X157255500Y-114895734D01*
X157252646Y-114865301D01*
X157207793Y-114737118D01*
X157207792Y-114737115D01*
X157127150Y-114627849D01*
X157017884Y-114547207D01*
X156889696Y-114502353D01*
X156859269Y-114499500D01*
X156859266Y-114499500D01*
X155800734Y-114499500D01*
X155800731Y-114499500D01*
X155770303Y-114502353D01*
X155642115Y-114547207D01*
X155532849Y-114627849D01*
X155452207Y-114737115D01*
X155407353Y-114865303D01*
X155404500Y-114895731D01*
X155404500Y-115504269D01*
X155407353Y-115534696D01*
X155452207Y-115662884D01*
X155532849Y-115772150D01*
X155642115Y-115852792D01*
X155642118Y-115852793D01*
X155770301Y-115897646D01*
X155782474Y-115898787D01*
X155800731Y-115900500D01*
X155800734Y-115900500D01*
X155905500Y-115900500D01*
X155967500Y-115917113D01*
X156012887Y-115962500D01*
X156029500Y-116024500D01*
X156029500Y-117111421D01*
X156018447Y-117162596D01*
X155987260Y-117204648D01*
X155941497Y-117230081D01*
X155926046Y-117234768D01*
X155743551Y-117332314D01*
X155583589Y-117463589D01*
X155452314Y-117623551D01*
X155354769Y-117806043D01*
X155294699Y-118004067D01*
X155274417Y-118209999D01*
X153549073Y-118209999D01*
X153589531Y-118094379D01*
X153592500Y-118062722D01*
X153592500Y-118000000D01*
X153155000Y-118000000D01*
X152655000Y-118000000D01*
X152217500Y-118000000D01*
X151968000Y-118000000D01*
X151968000Y-117500000D01*
X152217500Y-117500000D01*
X152655000Y-117500000D01*
X152655000Y-117025000D01*
X153155000Y-117025000D01*
X153155000Y-117500000D01*
X153592500Y-117500000D01*
X153592500Y-117437278D01*
X153589531Y-117405620D01*
X153542859Y-117272243D01*
X153458950Y-117158549D01*
X153345256Y-117074640D01*
X153211879Y-117027968D01*
X153180222Y-117025000D01*
X153155000Y-117025000D01*
X152655000Y-117025000D01*
X152629778Y-117025000D01*
X152598120Y-117027968D01*
X152464743Y-117074640D01*
X152351049Y-117158549D01*
X152267140Y-117272243D01*
X152220468Y-117405620D01*
X152217500Y-117437278D01*
X152217500Y-117500000D01*
X151968000Y-117500000D01*
X151968000Y-117460754D01*
X151952451Y-117362580D01*
X151892158Y-117244249D01*
X151798251Y-117150342D01*
X151798250Y-117150341D01*
X151698205Y-117099365D01*
X151648772Y-117053671D01*
X151630500Y-116988881D01*
X151630500Y-116944465D01*
X151640846Y-116894878D01*
X151670159Y-116853566D01*
X151713546Y-116827423D01*
X151727197Y-116822646D01*
X151727199Y-116822646D01*
X151855382Y-116777793D01*
X151855382Y-116777792D01*
X151855384Y-116777792D01*
X151964650Y-116697150D01*
X152045292Y-116587884D01*
X152048752Y-116577997D01*
X152090146Y-116459699D01*
X152093000Y-116429266D01*
X152093000Y-116000000D01*
X153442500Y-116000000D01*
X153442500Y-116422824D01*
X153448902Y-116482375D01*
X153499147Y-116617089D01*
X153585311Y-116732188D01*
X153700410Y-116818352D01*
X153835124Y-116868597D01*
X153894676Y-116875000D01*
X154005000Y-116875000D01*
X154005000Y-116000000D01*
X154505000Y-116000000D01*
X154505000Y-116875000D01*
X154615324Y-116875000D01*
X154674875Y-116868597D01*
X154809589Y-116818352D01*
X154924688Y-116732188D01*
X155010852Y-116617089D01*
X155061097Y-116482375D01*
X155067500Y-116422824D01*
X155067500Y-116000000D01*
X154505000Y-116000000D01*
X154005000Y-116000000D01*
X153442500Y-116000000D01*
X152093000Y-116000000D01*
X152093000Y-115500000D01*
X153442500Y-115500000D01*
X154005000Y-115500000D01*
X154005000Y-114625000D01*
X154505000Y-114625000D01*
X154505000Y-115500000D01*
X155067500Y-115500000D01*
X155067500Y-115077176D01*
X155061097Y-115017624D01*
X155010852Y-114882910D01*
X154924688Y-114767811D01*
X154809589Y-114681647D01*
X154674875Y-114631402D01*
X154615324Y-114625000D01*
X154505000Y-114625000D01*
X154005000Y-114625000D01*
X153894676Y-114625000D01*
X153835124Y-114631402D01*
X153700410Y-114681647D01*
X153585311Y-114767811D01*
X153499147Y-114882910D01*
X153448902Y-115017624D01*
X153442500Y-115077176D01*
X153442500Y-115500000D01*
X152093000Y-115500000D01*
X152093000Y-115070734D01*
X152090146Y-115040301D01*
X152045293Y-114912118D01*
X152045292Y-114912115D01*
X151964650Y-114802849D01*
X151855383Y-114722206D01*
X151830136Y-114713372D01*
X151782108Y-114682690D01*
X151752877Y-114633765D01*
X151748619Y-114576932D01*
X151760804Y-114499999D01*
X151748619Y-114423067D01*
X151752878Y-114366233D01*
X151782109Y-114317308D01*
X151830139Y-114286626D01*
X151837605Y-114284013D01*
X151855382Y-114277793D01*
X151855382Y-114277792D01*
X151855384Y-114277792D01*
X151964650Y-114197150D01*
X152045292Y-114087884D01*
X152047010Y-114082975D01*
X152090146Y-113959699D01*
X152093000Y-113929269D01*
X153492000Y-113929269D01*
X153494853Y-113959696D01*
X153539707Y-114087884D01*
X153620349Y-114197150D01*
X153729615Y-114277792D01*
X153729618Y-114277793D01*
X153857801Y-114322646D01*
X153869974Y-114323787D01*
X153888231Y-114325500D01*
X153888234Y-114325500D01*
X154621766Y-114325500D01*
X154621769Y-114325500D01*
X154636982Y-114324072D01*
X154652199Y-114322646D01*
X154780382Y-114277793D01*
X154780382Y-114277792D01*
X154780384Y-114277792D01*
X154889650Y-114197150D01*
X154970292Y-114087884D01*
X154972010Y-114082975D01*
X155015146Y-113959699D01*
X155018000Y-113929266D01*
X155018000Y-113724500D01*
X155034613Y-113662500D01*
X155080000Y-113617113D01*
X155142000Y-113600500D01*
X155307404Y-113600500D01*
X155356991Y-113610846D01*
X155398302Y-113640159D01*
X155424446Y-113683545D01*
X155452208Y-113762885D01*
X155532849Y-113872150D01*
X155642115Y-113952792D01*
X155642118Y-113952793D01*
X155770301Y-113997646D01*
X155782474Y-113998787D01*
X155800731Y-114000500D01*
X155800734Y-114000500D01*
X156859266Y-114000500D01*
X156859269Y-114000500D01*
X156874482Y-113999073D01*
X156889699Y-113997646D01*
X157017882Y-113952793D01*
X157017882Y-113952792D01*
X157017884Y-113952792D01*
X157127150Y-113872150D01*
X157207792Y-113762884D01*
X157207991Y-113762315D01*
X157252646Y-113634699D01*
X157254883Y-113610846D01*
X157255500Y-113604269D01*
X157255500Y-112995731D01*
X157252646Y-112965303D01*
X157252646Y-112965301D01*
X157207793Y-112837118D01*
X157207792Y-112837115D01*
X157127150Y-112727849D01*
X157017884Y-112647207D01*
X156889696Y-112602353D01*
X156859269Y-112599500D01*
X156859266Y-112599500D01*
X155800734Y-112599500D01*
X155800731Y-112599500D01*
X155770303Y-112602353D01*
X155642115Y-112647207D01*
X155532849Y-112727849D01*
X155452208Y-112837114D01*
X155424446Y-112916455D01*
X155398302Y-112959841D01*
X155356991Y-112989154D01*
X155307404Y-112999500D01*
X155142000Y-112999500D01*
X155080000Y-112982887D01*
X155034613Y-112937500D01*
X155018000Y-112875500D01*
X155018000Y-112570731D01*
X155015146Y-112540303D01*
X155015146Y-112540301D01*
X154970293Y-112412118D01*
X154970292Y-112412115D01*
X154889650Y-112302849D01*
X154780384Y-112222207D01*
X154652196Y-112177353D01*
X154621769Y-112174500D01*
X154621766Y-112174500D01*
X153888234Y-112174500D01*
X153888231Y-112174500D01*
X153857803Y-112177353D01*
X153729615Y-112222207D01*
X153620349Y-112302849D01*
X153539707Y-112412115D01*
X153494853Y-112540303D01*
X153492000Y-112570731D01*
X153492000Y-113929269D01*
X152093000Y-113929269D01*
X152093000Y-113929266D01*
X152093000Y-112570734D01*
X152092780Y-112568391D01*
X152090146Y-112540303D01*
X152090146Y-112540301D01*
X152045293Y-112412118D01*
X152045292Y-112412115D01*
X151964650Y-112302849D01*
X151855384Y-112222207D01*
X151727196Y-112177353D01*
X151696769Y-112174500D01*
X151696766Y-112174500D01*
X150963234Y-112174500D01*
X150963231Y-112174500D01*
X150932803Y-112177353D01*
X150804615Y-112222207D01*
X150695349Y-112302849D01*
X150614707Y-112412115D01*
X150569853Y-112540303D01*
X150567000Y-112570731D01*
X150567000Y-113929269D01*
X150569853Y-113959696D01*
X150614707Y-114087884D01*
X150695349Y-114197150D01*
X150804615Y-114277792D01*
X150829861Y-114286626D01*
X150877890Y-114317308D01*
X150907121Y-114366233D01*
X150911380Y-114423065D01*
X150899195Y-114499999D01*
X150911380Y-114576934D01*
X150907121Y-114633765D01*
X150877891Y-114682690D01*
X150829864Y-114713372D01*
X150804616Y-114722207D01*
X150695349Y-114802849D01*
X150614707Y-114912115D01*
X150569853Y-115040303D01*
X150567000Y-115070731D01*
X150567000Y-116429269D01*
X150569853Y-116459696D01*
X150614707Y-116587884D01*
X150695349Y-116697150D01*
X150804615Y-116777792D01*
X150804618Y-116777793D01*
X150932801Y-116822646D01*
X150932802Y-116822646D01*
X150946454Y-116827423D01*
X150989841Y-116853566D01*
X151019154Y-116894878D01*
X151029500Y-116944465D01*
X151029500Y-116988881D01*
X151011228Y-117053671D01*
X150961795Y-117099365D01*
X150861749Y-117150341D01*
X150767843Y-117244247D01*
X150707548Y-117362581D01*
X150692000Y-117460752D01*
X150692000Y-118039248D01*
X150707548Y-118137418D01*
X150707548Y-118137419D01*
X150707549Y-118137420D01*
X150761110Y-118242539D01*
X150767843Y-118255752D01*
X150861749Y-118349658D01*
X150961795Y-118400635D01*
X151011228Y-118446329D01*
X151029500Y-118511119D01*
X151029500Y-118975453D01*
X151016900Y-119029914D01*
X150981662Y-119073307D01*
X150981378Y-119073527D01*
X150981374Y-119073530D01*
X150872611Y-119158183D01*
X150798215Y-119216087D01*
X150641020Y-119386848D01*
X150514076Y-119581150D01*
X150420844Y-119793696D01*
X150420842Y-119793700D01*
X150420843Y-119793700D01*
X150368374Y-120000896D01*
X150363865Y-120018700D01*
X150344699Y-120250000D01*
X149650500Y-120250000D01*
X149650500Y-119030251D01*
X149638867Y-118971769D01*
X149594552Y-118905447D01*
X149528230Y-118861132D01*
X149469749Y-118849500D01*
X149469748Y-118849500D01*
X149004500Y-118849500D01*
X148942500Y-118832887D01*
X148897113Y-118787500D01*
X148880500Y-118725500D01*
X148880500Y-118511119D01*
X148898772Y-118446329D01*
X148948205Y-118400635D01*
X149006991Y-118370680D01*
X149048251Y-118349658D01*
X149142158Y-118255751D01*
X149202451Y-118137420D01*
X149218000Y-118039246D01*
X149218000Y-117460754D01*
X149202451Y-117362580D01*
X149142158Y-117244249D01*
X149048251Y-117150342D01*
X149048250Y-117150341D01*
X148948205Y-117099365D01*
X148898772Y-117053671D01*
X148880500Y-116988881D01*
X148880500Y-116944465D01*
X148890846Y-116894878D01*
X148920159Y-116853566D01*
X148963546Y-116827423D01*
X148977197Y-116822646D01*
X148977199Y-116822646D01*
X149105382Y-116777793D01*
X149105382Y-116777792D01*
X149105384Y-116777792D01*
X149214650Y-116697150D01*
X149295292Y-116587884D01*
X149298752Y-116577997D01*
X149340146Y-116459699D01*
X149343000Y-116429266D01*
X149343000Y-115070734D01*
X149340146Y-115040301D01*
X149295293Y-114912118D01*
X149295292Y-114912115D01*
X149214650Y-114802849D01*
X149105383Y-114722206D01*
X149080136Y-114713372D01*
X149032108Y-114682690D01*
X149002877Y-114633765D01*
X148998619Y-114576932D01*
X149010804Y-114499999D01*
X148998619Y-114423067D01*
X149002878Y-114366233D01*
X149032109Y-114317308D01*
X149080139Y-114286626D01*
X149087605Y-114284013D01*
X149105382Y-114277793D01*
X149105382Y-114277792D01*
X149105384Y-114277792D01*
X149214650Y-114197150D01*
X149295292Y-114087884D01*
X149297010Y-114082975D01*
X149340146Y-113959699D01*
X149343000Y-113929266D01*
X149343000Y-112570734D01*
X149342780Y-112568391D01*
X149340146Y-112540303D01*
X149340146Y-112540301D01*
X149295293Y-112412118D01*
X149295292Y-112412115D01*
X149214650Y-112302849D01*
X149105384Y-112222207D01*
X148977196Y-112177353D01*
X148946769Y-112174500D01*
X148946766Y-112174500D01*
X148213234Y-112174500D01*
X148213231Y-112174500D01*
X148182803Y-112177353D01*
X148054615Y-112222207D01*
X147945349Y-112302849D01*
X147864707Y-112412115D01*
X147819853Y-112540303D01*
X147817000Y-112570731D01*
X147817000Y-113929269D01*
X147819853Y-113959696D01*
X147864707Y-114087884D01*
X147945349Y-114197150D01*
X148054615Y-114277792D01*
X148079861Y-114286626D01*
X148127890Y-114317308D01*
X148157121Y-114366233D01*
X148161380Y-114423065D01*
X148149195Y-114499999D01*
X148161380Y-114576934D01*
X148157121Y-114633765D01*
X148127891Y-114682690D01*
X148079864Y-114713372D01*
X148054616Y-114722207D01*
X147945349Y-114802849D01*
X147864707Y-114912115D01*
X147819853Y-115040303D01*
X147817000Y-115070731D01*
X147817000Y-116429269D01*
X147819853Y-116459696D01*
X147864707Y-116587884D01*
X147945349Y-116697150D01*
X148054615Y-116777792D01*
X148054618Y-116777793D01*
X148182801Y-116822646D01*
X148182802Y-116822646D01*
X148196454Y-116827423D01*
X148239841Y-116853566D01*
X148269154Y-116894878D01*
X148279500Y-116944465D01*
X148279500Y-116988881D01*
X148261228Y-117053671D01*
X148211795Y-117099365D01*
X148111749Y-117150341D01*
X148017843Y-117244247D01*
X147957548Y-117362581D01*
X147942000Y-117460752D01*
X147942000Y-118039248D01*
X147957548Y-118137418D01*
X147957548Y-118137419D01*
X147957549Y-118137420D01*
X148011110Y-118242539D01*
X148017843Y-118255752D01*
X148111749Y-118349658D01*
X148211795Y-118400635D01*
X148261228Y-118446329D01*
X148279500Y-118511119D01*
X148279500Y-118725500D01*
X148262887Y-118787500D01*
X148217500Y-118832887D01*
X148155500Y-118849500D01*
X147030251Y-118849500D01*
X146971769Y-118861132D01*
X146905447Y-118905447D01*
X146861132Y-118971769D01*
X146849500Y-119030251D01*
X146849500Y-121469749D01*
X144680000Y-121469749D01*
X144680000Y-121000000D01*
X143830000Y-121000000D01*
X143330000Y-121000000D01*
X142480000Y-121000000D01*
X141700500Y-121000000D01*
X141700500Y-120500000D01*
X142480000Y-120500000D01*
X143330000Y-120500000D01*
X143330000Y-119650000D01*
X143830000Y-119650000D01*
X143830000Y-120500000D01*
X144680000Y-120500000D01*
X144680000Y-119875375D01*
X144665495Y-119802456D01*
X144610239Y-119719760D01*
X144527543Y-119664504D01*
X144454625Y-119650000D01*
X143830000Y-119650000D01*
X143330000Y-119650000D01*
X142705375Y-119650000D01*
X142632456Y-119664504D01*
X142549760Y-119719760D01*
X142494504Y-119802456D01*
X142480000Y-119875375D01*
X142480000Y-120500000D01*
X141700500Y-120500000D01*
X141700500Y-118209999D01*
X142524417Y-118209999D01*
X142544699Y-118415932D01*
X142562617Y-118475000D01*
X142604768Y-118613954D01*
X142702315Y-118796450D01*
X142753608Y-118858952D01*
X142833589Y-118956410D01*
X142913569Y-119022047D01*
X142993550Y-119087685D01*
X143176046Y-119185232D01*
X143374066Y-119245300D01*
X143580000Y-119265583D01*
X143785934Y-119245300D01*
X143983954Y-119185232D01*
X144166450Y-119087685D01*
X144326410Y-118956410D01*
X144457685Y-118796450D01*
X144555232Y-118613954D01*
X144615300Y-118415934D01*
X144635583Y-118210000D01*
X144615300Y-118004066D01*
X144614067Y-118000000D01*
X146317500Y-118000000D01*
X146317500Y-118062722D01*
X146320468Y-118094379D01*
X146367140Y-118227756D01*
X146451049Y-118341450D01*
X146564743Y-118425359D01*
X146698120Y-118472031D01*
X146729778Y-118475000D01*
X146755000Y-118475000D01*
X146755000Y-118000000D01*
X147255000Y-118000000D01*
X147255000Y-118475000D01*
X147280222Y-118475000D01*
X147311879Y-118472031D01*
X147445256Y-118425359D01*
X147558950Y-118341450D01*
X147642859Y-118227756D01*
X147689531Y-118094379D01*
X147692500Y-118062722D01*
X147692500Y-118000000D01*
X147255000Y-118000000D01*
X146755000Y-118000000D01*
X146317500Y-118000000D01*
X144614067Y-118000000D01*
X144555232Y-117806046D01*
X144457685Y-117623550D01*
X144356291Y-117500000D01*
X146317500Y-117500000D01*
X146755000Y-117500000D01*
X146755000Y-117025000D01*
X147255000Y-117025000D01*
X147255000Y-117500000D01*
X147692500Y-117500000D01*
X147692500Y-117437278D01*
X147689531Y-117405620D01*
X147642859Y-117272243D01*
X147558950Y-117158549D01*
X147445256Y-117074640D01*
X147311879Y-117027968D01*
X147280222Y-117025000D01*
X147255000Y-117025000D01*
X146755000Y-117025000D01*
X146729778Y-117025000D01*
X146698120Y-117027968D01*
X146564743Y-117074640D01*
X146451049Y-117158549D01*
X146367140Y-117272243D01*
X146320468Y-117405620D01*
X146317500Y-117437278D01*
X146317500Y-117500000D01*
X144356291Y-117500000D01*
X144326410Y-117463589D01*
X144203328Y-117362580D01*
X144166450Y-117332315D01*
X143983954Y-117234768D01*
X143968503Y-117230081D01*
X143922740Y-117204648D01*
X143891553Y-117162596D01*
X143880500Y-117111421D01*
X143880500Y-116024500D01*
X143887065Y-116000000D01*
X144842500Y-116000000D01*
X144842500Y-116422824D01*
X144848902Y-116482375D01*
X144899147Y-116617089D01*
X144985311Y-116732188D01*
X145100410Y-116818352D01*
X145235124Y-116868597D01*
X145294676Y-116875000D01*
X145405000Y-116875000D01*
X145405000Y-116000000D01*
X145905000Y-116000000D01*
X145905000Y-116875000D01*
X146015324Y-116875000D01*
X146074875Y-116868597D01*
X146209589Y-116818352D01*
X146324688Y-116732188D01*
X146410852Y-116617089D01*
X146461097Y-116482375D01*
X146467500Y-116422824D01*
X146467500Y-116000000D01*
X145905000Y-116000000D01*
X145405000Y-116000000D01*
X144842500Y-116000000D01*
X143887065Y-116000000D01*
X143897113Y-115962500D01*
X143942500Y-115917113D01*
X144004500Y-115900500D01*
X144109269Y-115900500D01*
X144124482Y-115899072D01*
X144139699Y-115897646D01*
X144267882Y-115852793D01*
X144267882Y-115852792D01*
X144267884Y-115852792D01*
X144377150Y-115772150D01*
X144457792Y-115662884D01*
X144474467Y-115615230D01*
X144502646Y-115534699D01*
X144505500Y-115504266D01*
X144505500Y-115500000D01*
X144842500Y-115500000D01*
X145405000Y-115500000D01*
X145405000Y-114625000D01*
X145905000Y-114625000D01*
X145905000Y-115500000D01*
X146467500Y-115500000D01*
X146467500Y-115077176D01*
X146461097Y-115017624D01*
X146410852Y-114882910D01*
X146324688Y-114767811D01*
X146209589Y-114681647D01*
X146074875Y-114631402D01*
X146015324Y-114625000D01*
X145905000Y-114625000D01*
X145405000Y-114625000D01*
X145294676Y-114625000D01*
X145235124Y-114631402D01*
X145100410Y-114681647D01*
X144985311Y-114767811D01*
X144899147Y-114882910D01*
X144848902Y-115017624D01*
X144842500Y-115077176D01*
X144842500Y-115500000D01*
X144505500Y-115500000D01*
X144505500Y-114895734D01*
X144502646Y-114865301D01*
X144457793Y-114737118D01*
X144457792Y-114737115D01*
X144377150Y-114627849D01*
X144267884Y-114547207D01*
X144139696Y-114502353D01*
X144109269Y-114499500D01*
X144109266Y-114499500D01*
X143050734Y-114499500D01*
X143050731Y-114499500D01*
X143020303Y-114502353D01*
X142892115Y-114547207D01*
X142782849Y-114627849D01*
X142702207Y-114737115D01*
X142657353Y-114865303D01*
X142654500Y-114895731D01*
X142654500Y-115504269D01*
X142657353Y-115534696D01*
X142702207Y-115662884D01*
X142782849Y-115772150D01*
X142892115Y-115852792D01*
X142892118Y-115852793D01*
X143020301Y-115897646D01*
X143032474Y-115898787D01*
X143050731Y-115900500D01*
X143050734Y-115900500D01*
X143155500Y-115900500D01*
X143217500Y-115917113D01*
X143262887Y-115962500D01*
X143279500Y-116024500D01*
X143279500Y-117111421D01*
X143268447Y-117162596D01*
X143237260Y-117204648D01*
X143191497Y-117230081D01*
X143176046Y-117234768D01*
X142993551Y-117332314D01*
X142833589Y-117463589D01*
X142702314Y-117623551D01*
X142604769Y-117806043D01*
X142544699Y-118004067D01*
X142524417Y-118209999D01*
X141700500Y-118209999D01*
X141700500Y-113604269D01*
X142654500Y-113604269D01*
X142657353Y-113634696D01*
X142702207Y-113762884D01*
X142782849Y-113872150D01*
X142892115Y-113952792D01*
X142892118Y-113952793D01*
X143020301Y-113997646D01*
X143032474Y-113998787D01*
X143050731Y-114000500D01*
X143050734Y-114000500D01*
X144109266Y-114000500D01*
X144109269Y-114000500D01*
X144124482Y-113999073D01*
X144139699Y-113997646D01*
X144267882Y-113952793D01*
X144267882Y-113952792D01*
X144267884Y-113952792D01*
X144377150Y-113872150D01*
X144457792Y-113762884D01*
X144457991Y-113762315D01*
X144502646Y-113634699D01*
X144502646Y-113634697D01*
X144503049Y-113633546D01*
X144529192Y-113590159D01*
X144570504Y-113560846D01*
X144620091Y-113550500D01*
X144768000Y-113550500D01*
X144830000Y-113567113D01*
X144875387Y-113612500D01*
X144892000Y-113674500D01*
X144892000Y-113929269D01*
X144894853Y-113959696D01*
X144939707Y-114087884D01*
X145020349Y-114197150D01*
X145129615Y-114277792D01*
X145129618Y-114277793D01*
X145257801Y-114322646D01*
X145269974Y-114323787D01*
X145288231Y-114325500D01*
X145288234Y-114325500D01*
X146021766Y-114325500D01*
X146021769Y-114325500D01*
X146036982Y-114324072D01*
X146052199Y-114322646D01*
X146180382Y-114277793D01*
X146180382Y-114277792D01*
X146180384Y-114277792D01*
X146289650Y-114197150D01*
X146370292Y-114087884D01*
X146372010Y-114082975D01*
X146415146Y-113959699D01*
X146418000Y-113929266D01*
X146418000Y-112570734D01*
X146417780Y-112568391D01*
X146415146Y-112540303D01*
X146415146Y-112540301D01*
X146370293Y-112412118D01*
X146370292Y-112412115D01*
X146289650Y-112302849D01*
X146180384Y-112222207D01*
X146052196Y-112177353D01*
X146021769Y-112174500D01*
X146021766Y-112174500D01*
X145288234Y-112174500D01*
X145288231Y-112174500D01*
X145257803Y-112177353D01*
X145129615Y-112222207D01*
X145020349Y-112302849D01*
X144939707Y-112412115D01*
X144894853Y-112540303D01*
X144892000Y-112570731D01*
X144892000Y-112825500D01*
X144875387Y-112887500D01*
X144830000Y-112932887D01*
X144768000Y-112949500D01*
X144585100Y-112949500D01*
X144535513Y-112939154D01*
X144494201Y-112909841D01*
X144468058Y-112866454D01*
X144457792Y-112837115D01*
X144377150Y-112727849D01*
X144267884Y-112647207D01*
X144139696Y-112602353D01*
X144109269Y-112599500D01*
X144109266Y-112599500D01*
X143050734Y-112599500D01*
X143050731Y-112599500D01*
X143020303Y-112602353D01*
X142892115Y-112647207D01*
X142782849Y-112727849D01*
X142702207Y-112837115D01*
X142657353Y-112965303D01*
X142654500Y-112995731D01*
X142654500Y-113604269D01*
X141700500Y-113604269D01*
X141700500Y-113165478D01*
X141709939Y-113118025D01*
X141736819Y-113077797D01*
X141989116Y-112825500D01*
X142841990Y-111972624D01*
X142860770Y-111957212D01*
X142873624Y-111948624D01*
X142934515Y-111857495D01*
X142947057Y-111794444D01*
X142952883Y-111765154D01*
X142952883Y-111765153D01*
X142955897Y-111750000D01*
X142952883Y-111734847D01*
X142950500Y-111710656D01*
X142950500Y-103987660D01*
X142961890Y-103935746D01*
X142993969Y-103893369D01*
X143040842Y-103868315D01*
X143093898Y-103865187D01*
X143192500Y-103880804D01*
X143325626Y-103859719D01*
X143445720Y-103798528D01*
X143482428Y-103761820D01*
X143522657Y-103734939D01*
X143570110Y-103725500D01*
X143864890Y-103725500D01*
X143912345Y-103734940D01*
X143952575Y-103761823D01*
X143963685Y-103772934D01*
X143990562Y-103813161D01*
X144000000Y-103860611D01*
X144000000Y-105000000D01*
X145713290Y-105000000D01*
X145769585Y-105013515D01*
X145813608Y-105051115D01*
X145835763Y-105104602D01*
X145840280Y-105133124D01*
X145901472Y-105253221D01*
X145996778Y-105348527D01*
X145996780Y-105348528D01*
X146116874Y-105409719D01*
X146250000Y-105430804D01*
X146383126Y-105409719D01*
X146503220Y-105348528D01*
X146598528Y-105253220D01*
X146659719Y-105133126D01*
X146664237Y-105104602D01*
X146686392Y-105051115D01*
X146730415Y-105013515D01*
X146786710Y-105000000D01*
X148908018Y-105000000D01*
X148955471Y-105009439D01*
X148995699Y-105036319D01*
X149318371Y-105358991D01*
X149349507Y-105384545D01*
X149349510Y-105384547D01*
X149389738Y-105411427D01*
X149403975Y-105417324D01*
X149444204Y-105444204D01*
X149500000Y-105500000D01*
X149793290Y-105500000D01*
X149849585Y-105513515D01*
X149893608Y-105551115D01*
X149915763Y-105604602D01*
X149920280Y-105633124D01*
X149981472Y-105753221D01*
X150076778Y-105848527D01*
X150076780Y-105848528D01*
X150196874Y-105909719D01*
X150330000Y-105930804D01*
X150463126Y-105909719D01*
X150583220Y-105848528D01*
X150678528Y-105753220D01*
X150739719Y-105633126D01*
X150744237Y-105604602D01*
X150766392Y-105551115D01*
X150810415Y-105513515D01*
X150866710Y-105500000D01*
X151000000Y-105500000D01*
X151000000Y-104000000D01*
X149738104Y-104000000D01*
X149551362Y-104000000D01*
X149503909Y-103990561D01*
X149463681Y-103963681D01*
X149250000Y-103750000D01*
X149249999Y-103749999D01*
X149185341Y-103728447D01*
X149139867Y-103701386D01*
X149109815Y-103657827D01*
X149100661Y-103605706D01*
X149114072Y-103554514D01*
X149125534Y-103532017D01*
X149127438Y-103520000D01*
X148560000Y-103520000D01*
X148343926Y-103447975D01*
X148330000Y-103396000D01*
X148330000Y-103250000D01*
X151642500Y-103250000D01*
X151642500Y-103500000D01*
X151667125Y-103500000D01*
X151740043Y-103485495D01*
X151822739Y-103430239D01*
X151877995Y-103347543D01*
X151892500Y-103274625D01*
X151892500Y-103250000D01*
X151642500Y-103250000D01*
X148330000Y-103250000D01*
X148330000Y-102747810D01*
X148287981Y-102754464D01*
X148177906Y-102810551D01*
X148090551Y-102897906D01*
X148034464Y-103007981D01*
X148020000Y-103099307D01*
X148020000Y-103167959D01*
X148006378Y-103224463D01*
X147968504Y-103268553D01*
X147914700Y-103290541D01*
X147856788Y-103285596D01*
X147805659Y-103268553D01*
X147750000Y-103250000D01*
X147749999Y-103250000D01*
X147509345Y-103250000D01*
X147444178Y-103231495D01*
X147398461Y-103181505D01*
X147385839Y-103114948D01*
X147410078Y-103051690D01*
X147501183Y-102929986D01*
X147548917Y-102802007D01*
X147554745Y-102747809D01*
X148829999Y-102747809D01*
X148830000Y-102747810D01*
X148830000Y-103020000D01*
X148852500Y-103020000D01*
X148852500Y-102751373D01*
X148852499Y-102751372D01*
X148829999Y-102747809D01*
X147554745Y-102747809D01*
X147555000Y-102745433D01*
X147555000Y-102725000D01*
X146105001Y-102725000D01*
X146105001Y-102745433D01*
X146111082Y-102802006D01*
X146158816Y-102929986D01*
X146249922Y-103051690D01*
X146274161Y-103114948D01*
X146261539Y-103181505D01*
X146215822Y-103231495D01*
X146150655Y-103250000D01*
X145659771Y-103250000D01*
X145603476Y-103236485D01*
X145559453Y-103198885D01*
X145537298Y-103145398D01*
X145541840Y-103087682D01*
X145572090Y-103038319D01*
X145614827Y-102995582D01*
X145679658Y-102930751D01*
X145739951Y-102812420D01*
X145755500Y-102714246D01*
X145755500Y-102225000D01*
X146105000Y-102225000D01*
X146580000Y-102225000D01*
X146580000Y-101775001D01*
X146534567Y-101775001D01*
X146477993Y-101781082D01*
X146350013Y-101828816D01*
X146240669Y-101910669D01*
X146158816Y-102020013D01*
X146111082Y-102147992D01*
X146105000Y-102204567D01*
X146105000Y-102225000D01*
X145755500Y-102225000D01*
X145755500Y-102210754D01*
X145739951Y-102112580D01*
X145679658Y-101994249D01*
X145585751Y-101900342D01*
X145467420Y-101840049D01*
X145467419Y-101840048D01*
X145467418Y-101840048D01*
X145369248Y-101824500D01*
X145369246Y-101824500D01*
X144790754Y-101824500D01*
X144790752Y-101824500D01*
X144692581Y-101840048D01*
X144574247Y-101900343D01*
X144480341Y-101994249D01*
X144429365Y-102094295D01*
X144383671Y-102143728D01*
X144318881Y-102162000D01*
X144303653Y-102162000D01*
X144247358Y-102148485D01*
X144133124Y-102090280D01*
X144000000Y-102069195D01*
X143866875Y-102090280D01*
X143746778Y-102151472D01*
X143651472Y-102246778D01*
X143590280Y-102366875D01*
X143569195Y-102500000D01*
X143590280Y-102633124D01*
X143651472Y-102753221D01*
X143746778Y-102848527D01*
X143746780Y-102848528D01*
X143866874Y-102909719D01*
X143879259Y-102911680D01*
X143897709Y-102914603D01*
X143958841Y-102942784D01*
X143996241Y-102998753D01*
X143998888Y-103066016D01*
X143966000Y-103124751D01*
X143959288Y-103131463D01*
X143952574Y-103138177D01*
X143912347Y-103165059D01*
X143864890Y-103174500D01*
X143570110Y-103174500D01*
X143522657Y-103165061D01*
X143482428Y-103138180D01*
X143445721Y-103101472D01*
X143325624Y-103040280D01*
X143192500Y-103019195D01*
X143113647Y-103031685D01*
X143093898Y-103034812D01*
X143040842Y-103031685D01*
X142993969Y-103006631D01*
X142961890Y-102964254D01*
X142950500Y-102912340D01*
X142950500Y-101775000D01*
X147080000Y-101775000D01*
X147080000Y-102225000D01*
X147554999Y-102225000D01*
X147554999Y-102204567D01*
X147548917Y-102147993D01*
X147501183Y-102020013D01*
X147419330Y-101910669D01*
X147309986Y-101828816D01*
X147182007Y-101781082D01*
X147125433Y-101775000D01*
X147080000Y-101775000D01*
X142950500Y-101775000D01*
X142950500Y-95915478D01*
X142959939Y-95868025D01*
X142986819Y-95827797D01*
X144513303Y-94301313D01*
X144868367Y-93946249D01*
X147015445Y-93946249D01*
X147036530Y-94079374D01*
X147097722Y-94199471D01*
X147193028Y-94294777D01*
X147193030Y-94294778D01*
X147313124Y-94355969D01*
X147351957Y-94362119D01*
X147455396Y-94378503D01*
X147492293Y-94390491D01*
X147523679Y-94413295D01*
X149277370Y-96166986D01*
X149292790Y-96185775D01*
X149301374Y-96198622D01*
X149301375Y-96198622D01*
X149301376Y-96198624D01*
X149314218Y-96207205D01*
X149314222Y-96207208D01*
X149324377Y-96213993D01*
X149324378Y-96213994D01*
X149350534Y-96231471D01*
X149392505Y-96259515D01*
X149472867Y-96275500D01*
X149472868Y-96275500D01*
X149484846Y-96277882D01*
X149484847Y-96277883D01*
X149500000Y-96280897D01*
X149515153Y-96277883D01*
X149539344Y-96275500D01*
X150764890Y-96275500D01*
X150812343Y-96284939D01*
X150852572Y-96311820D01*
X150889278Y-96348527D01*
X150889280Y-96348528D01*
X151009374Y-96409719D01*
X151142500Y-96430804D01*
X151275626Y-96409719D01*
X151395720Y-96348528D01*
X151491028Y-96253220D01*
X151552219Y-96133126D01*
X151573304Y-96000000D01*
X151552219Y-95866874D01*
X151491028Y-95746780D01*
X151491027Y-95746778D01*
X151395721Y-95651472D01*
X151275624Y-95590280D01*
X151171746Y-95573827D01*
X151123609Y-95555349D01*
X151087150Y-95518889D01*
X151068672Y-95470752D01*
X151052219Y-95366875D01*
X151052219Y-95366874D01*
X150991028Y-95246780D01*
X150991027Y-95246778D01*
X150895721Y-95151472D01*
X150775624Y-95090280D01*
X150671746Y-95073827D01*
X150623609Y-95055349D01*
X150587150Y-95018889D01*
X150568672Y-94970752D01*
X150552219Y-94866875D01*
X150552219Y-94866874D01*
X150491028Y-94746780D01*
X150491027Y-94746778D01*
X150395721Y-94651472D01*
X150275624Y-94590280D01*
X150142499Y-94569195D01*
X150046330Y-94584427D01*
X149988614Y-94579885D01*
X149939251Y-94549635D01*
X148717045Y-93327429D01*
X148694241Y-93296043D01*
X148682253Y-93259146D01*
X148659719Y-93116875D01*
X148659719Y-93116874D01*
X148598528Y-92996780D01*
X148598527Y-92996778D01*
X148503221Y-92901472D01*
X148383124Y-92840280D01*
X148250000Y-92819195D01*
X148116875Y-92840280D01*
X147996778Y-92901472D01*
X147901472Y-92996778D01*
X147840280Y-93116875D01*
X147819195Y-93249999D01*
X147840280Y-93383124D01*
X147864081Y-93429836D01*
X147877535Y-93490026D01*
X147860328Y-93549252D01*
X147816717Y-93592863D01*
X147757491Y-93610070D01*
X147697302Y-93596616D01*
X147579376Y-93536530D01*
X147446250Y-93515445D01*
X147313125Y-93536530D01*
X147193028Y-93597722D01*
X147097722Y-93693028D01*
X147036530Y-93813125D01*
X147015445Y-93946249D01*
X144868367Y-93946249D01*
X149097572Y-89717042D01*
X149128955Y-89694241D01*
X149165852Y-89682253D01*
X149175000Y-89680804D01*
X149308126Y-89659719D01*
X149428220Y-89598528D01*
X149523528Y-89503220D01*
X149584719Y-89383126D01*
X149605804Y-89250000D01*
X149604219Y-89239995D01*
X149591491Y-89159629D01*
X149584719Y-89116874D01*
X149523528Y-88996780D01*
X149523527Y-88996778D01*
X149428221Y-88901472D01*
X149308124Y-88840280D01*
X149196123Y-88822540D01*
X149147986Y-88804062D01*
X149111527Y-88767602D01*
X149093049Y-88719465D01*
X149084719Y-88666875D01*
X149084719Y-88666874D01*
X149023528Y-88546780D01*
X149023527Y-88546778D01*
X148928221Y-88451472D01*
X148808124Y-88390280D01*
X148688000Y-88371254D01*
X148639861Y-88352775D01*
X148603401Y-88316313D01*
X148584925Y-88268177D01*
X148584719Y-88266874D01*
X148533767Y-88166875D01*
X148523528Y-88146779D01*
X148428221Y-88051472D01*
X148308124Y-87990280D01*
X148175001Y-87969195D01*
X148144728Y-87973990D01*
X148080893Y-87967279D01*
X148028965Y-87929551D01*
X148002859Y-87870915D01*
X148002219Y-87866874D01*
X147941028Y-87746780D01*
X147941027Y-87746778D01*
X147845721Y-87651472D01*
X147725624Y-87590280D01*
X147592500Y-87569195D01*
X147459375Y-87590280D01*
X147339278Y-87651472D01*
X147243972Y-87746778D01*
X147182780Y-87866875D01*
X147161695Y-88000000D01*
X147182780Y-88133124D01*
X147243972Y-88253221D01*
X147339278Y-88348527D01*
X147339280Y-88348528D01*
X147459374Y-88409719D01*
X147503749Y-88416747D01*
X147592498Y-88430804D01*
X147592499Y-88430803D01*
X147592500Y-88430804D01*
X147622768Y-88426010D01*
X147686603Y-88432718D01*
X147738531Y-88470445D01*
X147764640Y-88529082D01*
X147765280Y-88533124D01*
X147826472Y-88653221D01*
X147863180Y-88689928D01*
X147890061Y-88730157D01*
X147899500Y-88777610D01*
X147899500Y-89334522D01*
X147890061Y-89381975D01*
X147863181Y-89422203D01*
X146662181Y-90623203D01*
X146612818Y-90653453D01*
X146555102Y-90657995D01*
X146501615Y-90635840D01*
X146464015Y-90591817D01*
X146450500Y-90535522D01*
X146450500Y-89515479D01*
X146459939Y-89468027D01*
X146486818Y-89427799D01*
X146559487Y-89355128D01*
X146578278Y-89339706D01*
X146591124Y-89331124D01*
X146596641Y-89322867D01*
X146607333Y-89306868D01*
X146607338Y-89306859D01*
X146652014Y-89239997D01*
X146652014Y-89239996D01*
X146652015Y-89239995D01*
X146657484Y-89212500D01*
X146668000Y-89159633D01*
X146670381Y-89147663D01*
X146670382Y-89147654D01*
X146673396Y-89132500D01*
X146670382Y-89117346D01*
X146668000Y-89093157D01*
X146668000Y-88539344D01*
X146670383Y-88515153D01*
X146673397Y-88500000D01*
X146668000Y-88472867D01*
X146659633Y-88430804D01*
X146652015Y-88392505D01*
X146617120Y-88340281D01*
X146606494Y-88324378D01*
X146606492Y-88324376D01*
X146599709Y-88314224D01*
X146599709Y-88314223D01*
X146599705Y-88314219D01*
X146597557Y-88311005D01*
X146591124Y-88301376D01*
X146578276Y-88292791D01*
X146559486Y-88277370D01*
X146204319Y-87922203D01*
X146177439Y-87881975D01*
X146168000Y-87834522D01*
X146168000Y-87265478D01*
X146177439Y-87218026D01*
X146204316Y-87177799D01*
X146341995Y-87040119D01*
X146360775Y-87024708D01*
X146373624Y-87016124D01*
X146380686Y-87005556D01*
X146389406Y-86992507D01*
X146389411Y-86992498D01*
X146434514Y-86924997D01*
X146434514Y-86924996D01*
X146434515Y-86924995D01*
X146439213Y-86901376D01*
X146447728Y-86858568D01*
X146459985Y-86824313D01*
X146481663Y-86795084D01*
X146487702Y-86789045D01*
X146523528Y-86753220D01*
X146584719Y-86633126D01*
X146605804Y-86500000D01*
X146584719Y-86366874D01*
X146523528Y-86246780D01*
X146523527Y-86246778D01*
X146428221Y-86151472D01*
X146308124Y-86090280D01*
X146175000Y-86069195D01*
X146041875Y-86090280D01*
X145921778Y-86151472D01*
X145826472Y-86246778D01*
X145765280Y-86366875D01*
X145744195Y-86499999D01*
X145765280Y-86633126D01*
X145793399Y-86688312D01*
X145806744Y-86738117D01*
X145798678Y-86789045D01*
X145770594Y-86832288D01*
X145725506Y-86877375D01*
X145706719Y-86892794D01*
X145693875Y-86901375D01*
X145678092Y-86924997D01*
X145661028Y-86950534D01*
X145661023Y-86950540D01*
X145661007Y-86950563D01*
X145639766Y-86982353D01*
X145627205Y-86997658D01*
X145625646Y-87029399D01*
X145611602Y-87099999D01*
X145614617Y-87115153D01*
X145617000Y-87139344D01*
X145617000Y-87960656D01*
X145614617Y-87984847D01*
X145611602Y-88000000D01*
X145614617Y-88015153D01*
X145614617Y-88015154D01*
X145632985Y-88107495D01*
X145659235Y-88146781D01*
X145659236Y-88146782D01*
X145667407Y-88159012D01*
X145688260Y-88224656D01*
X145670868Y-88291300D01*
X145620597Y-88338383D01*
X145496778Y-88401472D01*
X145401472Y-88496778D01*
X145340280Y-88616875D01*
X145319195Y-88750000D01*
X145340280Y-88883124D01*
X145401472Y-89003221D01*
X145496778Y-89098527D01*
X145496780Y-89098528D01*
X145616874Y-89159719D01*
X145643499Y-89163935D01*
X145749996Y-89180804D01*
X145749997Y-89180803D01*
X145750000Y-89180804D01*
X145757814Y-89179566D01*
X145816684Y-89184489D01*
X145866597Y-89216094D01*
X145896220Y-89267208D01*
X145898831Y-89326228D01*
X145894102Y-89350000D01*
X145897117Y-89365153D01*
X145899500Y-89389344D01*
X145899500Y-90982382D01*
X145890061Y-91029835D01*
X145863181Y-91070063D01*
X142662181Y-94271063D01*
X142612818Y-94301313D01*
X142555102Y-94305855D01*
X142501615Y-94283700D01*
X142464015Y-94239677D01*
X142450500Y-94183382D01*
X142450500Y-90500000D01*
X142819195Y-90500000D01*
X142840280Y-90633124D01*
X142901472Y-90753221D01*
X142996778Y-90848527D01*
X142996780Y-90848528D01*
X143116874Y-90909719D01*
X143250000Y-90930804D01*
X143383126Y-90909719D01*
X143503220Y-90848528D01*
X143598528Y-90753220D01*
X143659719Y-90633126D01*
X143680804Y-90500000D01*
X143659719Y-90366874D01*
X143598528Y-90246780D01*
X143598527Y-90246778D01*
X143503221Y-90151472D01*
X143383124Y-90090280D01*
X143250000Y-90069195D01*
X143116875Y-90090280D01*
X142996778Y-90151472D01*
X142901472Y-90246778D01*
X142840280Y-90366875D01*
X142819195Y-90500000D01*
X142450500Y-90500000D01*
X142450500Y-89746993D01*
X142461890Y-89695079D01*
X142493968Y-89652703D01*
X142540841Y-89627649D01*
X142593898Y-89624520D01*
X142712499Y-89643304D01*
X142712499Y-89643303D01*
X142712500Y-89643304D01*
X142845626Y-89622219D01*
X142965720Y-89561028D01*
X143018877Y-89507870D01*
X143068238Y-89477622D01*
X143125954Y-89473080D01*
X143179442Y-89495235D01*
X143217042Y-89539258D01*
X143247722Y-89599471D01*
X143343028Y-89694777D01*
X143343030Y-89694778D01*
X143463124Y-89755969D01*
X143596250Y-89777054D01*
X143729376Y-89755969D01*
X143849470Y-89694778D01*
X143944778Y-89599470D01*
X144005969Y-89479376D01*
X144027054Y-89346250D01*
X144005969Y-89213124D01*
X143944778Y-89093030D01*
X143944777Y-89093028D01*
X143908354Y-89056606D01*
X143875021Y-88995975D01*
X143879364Y-88926921D01*
X143920033Y-88870945D01*
X143984364Y-88845474D01*
X144052328Y-88858439D01*
X144079373Y-88872219D01*
X144212500Y-88893304D01*
X144345626Y-88872219D01*
X144465720Y-88811028D01*
X144561028Y-88715720D01*
X144622219Y-88595626D01*
X144643304Y-88462500D01*
X144622219Y-88329374D01*
X144561028Y-88209280D01*
X144561027Y-88209278D01*
X144465721Y-88113972D01*
X144345624Y-88052780D01*
X144203354Y-88030247D01*
X144166457Y-88018259D01*
X144135071Y-87995455D01*
X143736819Y-87597203D01*
X143709939Y-87556975D01*
X143700500Y-87509522D01*
X143700500Y-85482979D01*
X143709939Y-85435527D01*
X143736818Y-85395299D01*
X143841986Y-85290129D01*
X143860773Y-85274710D01*
X143873624Y-85266124D01*
X143908457Y-85213994D01*
X143908458Y-85213991D01*
X143908463Y-85213986D01*
X143934514Y-85174997D01*
X143934514Y-85174996D01*
X143934515Y-85174995D01*
X143942424Y-85135232D01*
X143950500Y-85094633D01*
X143950500Y-85094629D01*
X143952881Y-85082661D01*
X143952882Y-85082654D01*
X143955896Y-85067500D01*
X143952882Y-85052346D01*
X143950500Y-85028157D01*
X143950500Y-84351611D01*
X143964015Y-84295316D01*
X144001615Y-84251293D01*
X144055102Y-84229138D01*
X144112818Y-84233680D01*
X144162181Y-84263930D01*
X144246778Y-84348527D01*
X144246780Y-84348528D01*
X144366874Y-84409719D01*
X144400086Y-84414979D01*
X144466510Y-84425500D01*
X144466512Y-84425500D01*
X145033488Y-84425500D01*
X145033490Y-84425500D01*
X145083307Y-84417609D01*
X145133126Y-84409719D01*
X145253220Y-84348528D01*
X145348528Y-84253220D01*
X145404582Y-84143206D01*
X145450278Y-84093773D01*
X145515068Y-84075500D01*
X145598257Y-84075500D01*
X145615077Y-84078243D01*
X145625262Y-84077772D01*
X145625265Y-84077773D01*
X145671580Y-84075631D01*
X145677305Y-84075500D01*
X145696324Y-84075500D01*
X145710818Y-84073817D01*
X145737492Y-84072585D01*
X145743830Y-84069786D01*
X145771133Y-84061332D01*
X145777933Y-84060061D01*
X145800643Y-84045998D01*
X145815825Y-84037996D01*
X145840265Y-84027206D01*
X145845159Y-84022311D01*
X145867563Y-84004564D01*
X145873452Y-84000919D01*
X145889553Y-83979595D01*
X145900813Y-83966656D01*
X145907081Y-83960388D01*
X145938465Y-83937587D01*
X145975360Y-83925599D01*
X146075626Y-83909719D01*
X146195720Y-83848528D01*
X146291028Y-83753220D01*
X146352219Y-83633126D01*
X146373304Y-83500000D01*
X146352219Y-83366874D01*
X146291028Y-83246780D01*
X146291027Y-83246778D01*
X146195721Y-83151472D01*
X146075624Y-83090280D01*
X145942500Y-83069195D01*
X145809375Y-83090280D01*
X145689278Y-83151472D01*
X145593971Y-83246779D01*
X145568995Y-83295797D01*
X145523299Y-83345230D01*
X145458508Y-83363501D01*
X145393718Y-83345226D01*
X145353925Y-83302176D01*
X145253221Y-83201472D01*
X145120505Y-83133850D01*
X145077110Y-83097107D01*
X145054677Y-83044858D01*
X145057923Y-82988090D01*
X145086166Y-82938739D01*
X145133467Y-82907183D01*
X145229985Y-82871183D01*
X145339330Y-82789330D01*
X145421183Y-82679986D01*
X145468917Y-82552007D01*
X145475000Y-82495433D01*
X145475000Y-82475000D01*
X144624000Y-82475000D01*
X144562000Y-82458387D01*
X144516613Y-82413000D01*
X144500000Y-82351000D01*
X144500000Y-81525001D01*
X144454567Y-81525001D01*
X144397993Y-81531082D01*
X144270013Y-81578816D01*
X144148810Y-81669548D01*
X144085552Y-81693787D01*
X144018995Y-81681165D01*
X143969005Y-81635448D01*
X143950500Y-81570281D01*
X143950500Y-81539343D01*
X143951912Y-81525000D01*
X145000000Y-81525000D01*
X145000000Y-81975000D01*
X145474999Y-81975000D01*
X145474999Y-81954567D01*
X145468917Y-81897993D01*
X145421183Y-81770013D01*
X145339330Y-81660669D01*
X145229986Y-81578816D01*
X145102007Y-81531082D01*
X145045433Y-81525000D01*
X145000000Y-81525000D01*
X143951912Y-81525000D01*
X143952882Y-81515154D01*
X143955896Y-81500000D01*
X143952882Y-81484846D01*
X143952881Y-81484836D01*
X143939596Y-81418050D01*
X143934515Y-81392505D01*
X143902081Y-81343964D01*
X143902080Y-81343962D01*
X143882216Y-81314233D01*
X143882208Y-81314223D01*
X143876046Y-81305002D01*
X143856677Y-81255512D01*
X143834719Y-81116875D01*
X143834719Y-81116874D01*
X143773528Y-80996780D01*
X143773527Y-80996778D01*
X143678221Y-80901472D01*
X143558124Y-80840280D01*
X143523482Y-80834793D01*
X143475346Y-80816314D01*
X143438887Y-80779855D01*
X143420409Y-80731718D01*
X143402219Y-80616875D01*
X143402219Y-80616874D01*
X143341028Y-80496780D01*
X143341027Y-80496778D01*
X143245721Y-80401472D01*
X143197725Y-80377017D01*
X143147288Y-80329653D01*
X143130081Y-80262637D01*
X143151462Y-80196833D01*
X143204774Y-80152730D01*
X143273418Y-80144059D01*
X143371250Y-80159554D01*
X143504376Y-80138469D01*
X143624470Y-80077278D01*
X143719778Y-79981970D01*
X143780969Y-79861876D01*
X143802054Y-79728750D01*
X143802054Y-79728749D01*
X143792575Y-79668898D01*
X143795704Y-79615841D01*
X143820758Y-79568968D01*
X143863134Y-79536890D01*
X143915048Y-79525500D01*
X146259522Y-79525500D01*
X146306975Y-79534939D01*
X146347203Y-79561819D01*
X147252370Y-80466986D01*
X147267791Y-80485776D01*
X147275142Y-80496778D01*
X147276376Y-80498624D01*
X147289221Y-80507207D01*
X147289224Y-80507209D01*
X147299377Y-80513993D01*
X147299378Y-80513994D01*
X147355324Y-80551376D01*
X147367505Y-80559515D01*
X147442216Y-80574376D01*
X147442226Y-80574378D01*
X147474999Y-80580897D01*
X147474999Y-80580896D01*
X147475000Y-80580897D01*
X147490152Y-80577882D01*
X147514344Y-80575500D01*
X151514890Y-80575500D01*
X151562343Y-80584939D01*
X151602572Y-80611820D01*
X151639278Y-80648527D01*
X151639280Y-80648528D01*
X151759374Y-80709719D01*
X151892500Y-80730804D01*
X152025626Y-80709719D01*
X152145720Y-80648528D01*
X152241028Y-80553220D01*
X152302219Y-80433126D01*
X152323304Y-80300000D01*
X152302219Y-80166874D01*
X152241028Y-80046780D01*
X152241027Y-80046778D01*
X152145721Y-79951472D01*
X152025624Y-79890280D01*
X151921746Y-79873827D01*
X151873609Y-79855349D01*
X151837150Y-79818889D01*
X151818672Y-79770752D01*
X151803227Y-79673239D01*
X151802219Y-79666874D01*
X151741028Y-79546780D01*
X151741027Y-79546778D01*
X151645721Y-79451472D01*
X151525624Y-79390280D01*
X151421746Y-79373827D01*
X151373609Y-79355349D01*
X151337150Y-79318889D01*
X151318672Y-79270752D01*
X151302219Y-79166875D01*
X151302219Y-79166874D01*
X151241028Y-79046780D01*
X151241027Y-79046778D01*
X151145721Y-78951472D01*
X151025624Y-78890280D01*
X150921746Y-78873827D01*
X150873609Y-78855349D01*
X150837150Y-78818889D01*
X150818672Y-78770752D01*
X150802219Y-78666875D01*
X150802219Y-78666874D01*
X150741028Y-78546780D01*
X150741027Y-78546778D01*
X150645721Y-78451472D01*
X150525624Y-78390280D01*
X150421746Y-78373827D01*
X150373609Y-78355349D01*
X150337150Y-78318889D01*
X150318672Y-78270752D01*
X150302219Y-78166875D01*
X150302219Y-78166874D01*
X150241028Y-78046780D01*
X150241027Y-78046778D01*
X150145721Y-77951472D01*
X150025624Y-77890280D01*
X149929054Y-77874985D01*
X149870414Y-77848877D01*
X149832686Y-77796945D01*
X149829736Y-77768865D01*
X149826377Y-77769398D01*
X149802219Y-77616875D01*
X149802219Y-77616874D01*
X149741028Y-77496780D01*
X149741027Y-77496778D01*
X149645721Y-77401472D01*
X149525624Y-77340280D01*
X149421746Y-77323827D01*
X149373609Y-77305349D01*
X149337150Y-77268889D01*
X149318672Y-77220752D01*
X149306811Y-77145872D01*
X149302219Y-77116874D01*
X149241028Y-76996780D01*
X149241027Y-76996778D01*
X149145721Y-76901472D01*
X149025624Y-76840280D01*
X148955082Y-76829107D01*
X148906945Y-76810629D01*
X148870486Y-76774169D01*
X148861208Y-76750000D01*
X155994195Y-76750000D01*
X156015280Y-76883124D01*
X156076472Y-77003221D01*
X156171778Y-77098527D01*
X156171780Y-77098528D01*
X156291874Y-77159719D01*
X156425000Y-77180804D01*
X156558126Y-77159719D01*
X156678220Y-77098528D01*
X156773528Y-77003220D01*
X156834719Y-76883126D01*
X156855804Y-76750000D01*
X156834719Y-76616874D01*
X156773528Y-76496780D01*
X156773527Y-76496778D01*
X156678221Y-76401472D01*
X156558124Y-76340280D01*
X156424999Y-76319195D01*
X156291875Y-76340280D01*
X156171778Y-76401472D01*
X156076472Y-76496778D01*
X156015280Y-76616875D01*
X155994195Y-76750000D01*
X148861208Y-76750000D01*
X148852008Y-76726032D01*
X148834719Y-76616875D01*
X148834719Y-76616874D01*
X148773528Y-76496780D01*
X148773527Y-76496778D01*
X148678221Y-76401472D01*
X148558124Y-76340280D01*
X148424999Y-76319195D01*
X148291875Y-76340280D01*
X148171778Y-76401472D01*
X148135072Y-76438180D01*
X148094843Y-76465061D01*
X148047390Y-76474500D01*
X144926611Y-76474500D01*
X144870316Y-76460985D01*
X144826293Y-76423385D01*
X144804138Y-76369898D01*
X144808680Y-76312182D01*
X144838930Y-76262819D01*
X144848527Y-76253221D01*
X144848528Y-76253220D01*
X144909719Y-76133126D01*
X144930804Y-76000000D01*
X144909719Y-75866874D01*
X144848528Y-75746780D01*
X144848527Y-75746778D01*
X144753221Y-75651472D01*
X144633124Y-75590280D01*
X144499999Y-75569195D01*
X144366875Y-75590280D01*
X144246778Y-75651472D01*
X144151472Y-75746778D01*
X144090280Y-75866875D01*
X144069195Y-76000000D01*
X144090280Y-76133124D01*
X144151472Y-76253221D01*
X144246778Y-76348527D01*
X144246780Y-76348528D01*
X144350688Y-76401472D01*
X144384373Y-76418635D01*
X144382605Y-76422103D01*
X144411019Y-76435191D01*
X144448438Y-76491164D01*
X144451092Y-76558440D01*
X144418196Y-76617186D01*
X144233684Y-76801698D01*
X144184321Y-76831948D01*
X144126605Y-76836490D01*
X144073117Y-76814335D01*
X144035518Y-76770311D01*
X144023528Y-76746779D01*
X143928221Y-76651472D01*
X143808124Y-76590280D01*
X143675000Y-76569195D01*
X143541875Y-76590280D01*
X143421778Y-76651472D01*
X143326472Y-76746778D01*
X143265280Y-76866875D01*
X143244195Y-76999999D01*
X143257041Y-77081102D01*
X143253913Y-77134158D01*
X143228858Y-77181031D01*
X143186482Y-77213110D01*
X143134568Y-77224500D01*
X141714344Y-77224500D01*
X141690153Y-77222117D01*
X141675000Y-77219102D01*
X141659847Y-77222117D01*
X141659845Y-77222117D01*
X141567505Y-77240485D01*
X141548446Y-77253220D01*
X141548445Y-77253221D01*
X141505855Y-77281678D01*
X141505850Y-77281681D01*
X141476375Y-77301375D01*
X141467792Y-77314222D01*
X141452372Y-77333010D01*
X140258010Y-78527372D01*
X140239222Y-78542792D01*
X140226375Y-78551375D01*
X140206681Y-78580850D01*
X140206680Y-78580849D01*
X140198816Y-78592621D01*
X140198813Y-78592626D01*
X140152773Y-78661529D01*
X140104621Y-78703798D01*
X140041799Y-78716388D01*
X139981078Y-78695938D01*
X139938671Y-78647909D01*
X139864248Y-78498446D01*
X139741392Y-78335758D01*
X139590740Y-78198421D01*
X139417411Y-78091100D01*
X139227320Y-78017460D01*
X139175000Y-78007680D01*
X139175000Y-80152320D01*
X139227320Y-80142539D01*
X139417411Y-80068899D01*
X139590740Y-79961578D01*
X139741392Y-79824241D01*
X139864246Y-79661555D01*
X139914500Y-79560633D01*
X139958285Y-79511702D01*
X140020918Y-79491990D01*
X140084835Y-79507023D01*
X140132115Y-79552587D01*
X140149500Y-79615905D01*
X140149500Y-79954522D01*
X140140061Y-80001975D01*
X140113181Y-80042203D01*
X139512366Y-80643016D01*
X139468364Y-80671387D01*
X139416575Y-80679070D01*
X139366232Y-80664693D01*
X139328957Y-80644769D01*
X139130932Y-80584699D01*
X138925000Y-80564417D01*
X138719067Y-80584699D01*
X138521043Y-80644769D01*
X138338551Y-80742314D01*
X138178589Y-80873589D01*
X138047314Y-81033551D01*
X137949769Y-81216043D01*
X137949768Y-81216045D01*
X137949768Y-81216046D01*
X137943159Y-81237831D01*
X137905032Y-81296124D01*
X137841490Y-81324665D01*
X137772586Y-81314444D01*
X137720065Y-81268687D01*
X137700500Y-81201834D01*
X137700500Y-79615905D01*
X137717885Y-79552587D01*
X137765165Y-79507023D01*
X137829082Y-79491990D01*
X137891715Y-79511702D01*
X137935500Y-79560633D01*
X137985753Y-79661555D01*
X138108607Y-79824241D01*
X138259259Y-79961578D01*
X138432588Y-80068899D01*
X138622679Y-80142539D01*
X138675000Y-80152320D01*
X138675000Y-78007680D01*
X138622679Y-78017460D01*
X138432588Y-78091100D01*
X138259259Y-78198421D01*
X138108607Y-78335758D01*
X137985753Y-78498444D01*
X137935500Y-78599367D01*
X137891715Y-78648298D01*
X137829082Y-78668010D01*
X137765165Y-78652977D01*
X137717885Y-78607413D01*
X137700500Y-78544095D01*
X137700500Y-76958166D01*
X137720065Y-76891313D01*
X137772586Y-76845556D01*
X137841490Y-76835335D01*
X137905032Y-76863876D01*
X137943159Y-76922168D01*
X137949767Y-76943951D01*
X137949769Y-76943956D01*
X137978003Y-76996778D01*
X138047315Y-77126450D01*
X138052794Y-77133126D01*
X138178589Y-77286410D01*
X138244231Y-77340280D01*
X138338550Y-77417685D01*
X138521046Y-77515232D01*
X138719066Y-77575300D01*
X138925000Y-77595583D01*
X139130934Y-77575300D01*
X139328954Y-77515232D01*
X139511450Y-77417685D01*
X139671410Y-77286410D01*
X139802685Y-77126450D01*
X139900232Y-76943954D01*
X139906840Y-76922171D01*
X139912503Y-76903504D01*
X139937935Y-76857741D01*
X139979988Y-76826553D01*
X140031163Y-76815500D01*
X140345656Y-76815500D01*
X140369847Y-76817883D01*
X140385000Y-76820897D01*
X140400153Y-76817883D01*
X140400153Y-76817882D01*
X140412132Y-76815500D01*
X140412133Y-76815500D01*
X140492495Y-76799515D01*
X140497162Y-76796396D01*
X140530055Y-76780839D01*
X140566050Y-76775500D01*
X140885656Y-76775500D01*
X140909847Y-76777883D01*
X140925000Y-76780897D01*
X140940153Y-76777883D01*
X140940153Y-76777882D01*
X140952132Y-76775500D01*
X140952133Y-76775500D01*
X141032495Y-76759515D01*
X141074465Y-76731471D01*
X141100622Y-76713994D01*
X141100622Y-76713992D01*
X141114052Y-76705020D01*
X141114053Y-76705018D01*
X141123624Y-76698624D01*
X141132210Y-76685774D01*
X141147624Y-76666991D01*
X141341990Y-76472624D01*
X141360775Y-76457208D01*
X141373624Y-76448624D01*
X141391448Y-76421950D01*
X141391449Y-76421947D01*
X141391454Y-76421942D01*
X141434514Y-76357497D01*
X141434514Y-76357496D01*
X141434515Y-76357495D01*
X141442133Y-76319196D01*
X141450500Y-76277133D01*
X141452881Y-76265163D01*
X141452882Y-76265154D01*
X141455255Y-76253221D01*
X141455896Y-76250000D01*
X141452882Y-76234846D01*
X141450500Y-76210657D01*
X141450500Y-74250000D01*
X145744195Y-74250000D01*
X145765280Y-74383124D01*
X145826472Y-74503221D01*
X145921778Y-74598527D01*
X145921780Y-74598528D01*
X146041874Y-74659719D01*
X146175000Y-74680804D01*
X146308126Y-74659719D01*
X146428220Y-74598528D01*
X146523528Y-74503220D01*
X146584719Y-74383126D01*
X146605804Y-74250000D01*
X146584719Y-74116874D01*
X146523528Y-73996780D01*
X146523527Y-73996778D01*
X146428221Y-73901472D01*
X146308124Y-73840280D01*
X146175000Y-73819195D01*
X146041875Y-73840280D01*
X145921778Y-73901472D01*
X145826472Y-73996778D01*
X145765280Y-74116875D01*
X145744195Y-74250000D01*
X141450500Y-74250000D01*
X141450500Y-73665478D01*
X141459939Y-73618025D01*
X141486819Y-73577797D01*
X141747799Y-73316817D01*
X142597572Y-72467042D01*
X142628955Y-72444241D01*
X142665852Y-72432253D01*
X142675000Y-72430804D01*
X142808126Y-72409719D01*
X142928220Y-72348528D01*
X143023528Y-72253220D01*
X143084719Y-72133126D01*
X143105804Y-72000000D01*
X143084719Y-71866874D01*
X143023528Y-71746780D01*
X143023527Y-71746778D01*
X142989430Y-71712681D01*
X142957336Y-71657094D01*
X142957336Y-71592906D01*
X142989430Y-71537319D01*
X143023527Y-71503221D01*
X143023528Y-71503220D01*
X143084719Y-71383126D01*
X143105804Y-71250000D01*
X143084719Y-71116874D01*
X143023528Y-70996780D01*
X143023527Y-70996778D01*
X142928221Y-70901472D01*
X142808124Y-70840280D01*
X142675000Y-70819195D01*
X142541875Y-70840280D01*
X142421778Y-70901472D01*
X142326472Y-70996778D01*
X142265280Y-71116875D01*
X142242746Y-71259146D01*
X142230758Y-71296042D01*
X142207954Y-71327428D01*
X140187181Y-73348203D01*
X140137818Y-73378453D01*
X140080102Y-73382995D01*
X140026615Y-73360840D01*
X139989015Y-73316817D01*
X139975500Y-73260522D01*
X139975500Y-73130251D01*
X139963867Y-73071769D01*
X139919552Y-73005447D01*
X139853230Y-72961132D01*
X139794749Y-72949500D01*
X139794748Y-72949500D01*
X138055252Y-72949500D01*
X138055251Y-72949500D01*
X137996769Y-72961132D01*
X137930447Y-73005447D01*
X137927602Y-73009707D01*
X137880794Y-73051301D01*
X137819631Y-73064720D01*
X137759710Y-73046543D01*
X137716310Y-73001405D01*
X137700500Y-72940816D01*
X137700500Y-71250000D01*
X138819195Y-71250000D01*
X138840280Y-71383124D01*
X138901472Y-71503221D01*
X138996778Y-71598527D01*
X138996780Y-71598528D01*
X139116874Y-71659719D01*
X139250000Y-71680804D01*
X139383126Y-71659719D01*
X139503220Y-71598528D01*
X139598528Y-71503220D01*
X139659719Y-71383126D01*
X139680804Y-71250000D01*
X139659719Y-71116874D01*
X139598528Y-70996780D01*
X139598527Y-70996778D01*
X139503221Y-70901472D01*
X139383124Y-70840280D01*
X139250000Y-70819195D01*
X139116875Y-70840280D01*
X138996778Y-70901472D01*
X138901472Y-70996778D01*
X138840280Y-71116875D01*
X138819195Y-71250000D01*
X137700500Y-71250000D01*
X137700500Y-65999999D01*
X155069195Y-65999999D01*
X155090280Y-66133124D01*
X155151472Y-66253221D01*
X155246778Y-66348527D01*
X155246780Y-66348528D01*
X155366874Y-66409719D01*
X155500000Y-66430804D01*
X155633126Y-66409719D01*
X155753220Y-66348528D01*
X155848528Y-66253220D01*
X155909719Y-66133126D01*
X155930804Y-66000000D01*
X155909719Y-65866874D01*
X155848528Y-65746780D01*
X155848527Y-65746778D01*
X155753221Y-65651472D01*
X155633124Y-65590280D01*
X155500000Y-65569195D01*
X155366875Y-65590280D01*
X155246778Y-65651472D01*
X155151472Y-65746778D01*
X155090280Y-65866875D01*
X155069195Y-65999999D01*
X137700500Y-65999999D01*
X137700500Y-64215900D01*
X149103295Y-64215900D01*
X149124380Y-64349024D01*
X149185572Y-64469121D01*
X149280878Y-64564427D01*
X149280880Y-64564428D01*
X149400974Y-64625619D01*
X149448359Y-64633124D01*
X149501236Y-64641499D01*
X149538134Y-64653487D01*
X149569520Y-64676291D01*
X150019958Y-65126730D01*
X150042762Y-65158116D01*
X150054750Y-65195013D01*
X150070630Y-65295274D01*
X150131822Y-65415371D01*
X150227128Y-65510677D01*
X150227130Y-65510678D01*
X150347224Y-65571869D01*
X150480350Y-65592954D01*
X150613476Y-65571869D01*
X150733570Y-65510678D01*
X150828878Y-65415370D01*
X150890069Y-65295276D01*
X150911154Y-65162150D01*
X150890069Y-65029024D01*
X150828878Y-64908930D01*
X150828877Y-64908928D01*
X150733571Y-64813622D01*
X150613474Y-64752430D01*
X150513212Y-64736550D01*
X150476315Y-64724562D01*
X150444929Y-64701758D01*
X150243171Y-64500000D01*
X155069195Y-64500000D01*
X155090280Y-64633124D01*
X155151472Y-64753221D01*
X155246778Y-64848527D01*
X155246780Y-64848528D01*
X155366874Y-64909719D01*
X155500000Y-64930804D01*
X155633126Y-64909719D01*
X155753220Y-64848528D01*
X155848528Y-64753220D01*
X155909719Y-64633126D01*
X155930804Y-64500000D01*
X155909719Y-64366874D01*
X155848528Y-64246780D01*
X155848527Y-64246778D01*
X155753221Y-64151472D01*
X155633124Y-64090280D01*
X155500000Y-64069195D01*
X155366875Y-64090280D01*
X155246778Y-64151472D01*
X155151472Y-64246778D01*
X155090280Y-64366875D01*
X155069195Y-64500000D01*
X150243171Y-64500000D01*
X149994491Y-64251320D01*
X149971687Y-64219934D01*
X149959699Y-64183036D01*
X149943819Y-64082775D01*
X149943819Y-64082774D01*
X149882628Y-63962680D01*
X149882627Y-63962678D01*
X149787321Y-63867372D01*
X149667224Y-63806180D01*
X149534100Y-63785095D01*
X149400975Y-63806180D01*
X149280878Y-63867372D01*
X149185572Y-63962678D01*
X149124380Y-64082775D01*
X149103295Y-64215900D01*
X137700500Y-64215900D01*
X137700500Y-63249999D01*
X154569195Y-63249999D01*
X154590280Y-63383124D01*
X154651472Y-63503221D01*
X154746778Y-63598527D01*
X154746780Y-63598528D01*
X154866874Y-63659719D01*
X154933436Y-63670261D01*
X154999999Y-63680804D01*
X154999999Y-63680803D01*
X155000000Y-63680804D01*
X155133126Y-63659719D01*
X155253220Y-63598528D01*
X155348528Y-63503220D01*
X155389514Y-63422779D01*
X155435210Y-63373346D01*
X155500000Y-63355073D01*
X155564790Y-63373346D01*
X155610485Y-63422779D01*
X155651471Y-63503220D01*
X155746778Y-63598527D01*
X155746780Y-63598528D01*
X155866874Y-63659719D01*
X155933436Y-63670261D01*
X155999999Y-63680804D01*
X155999999Y-63680803D01*
X156000000Y-63680804D01*
X156133126Y-63659719D01*
X156253220Y-63598528D01*
X156348528Y-63503220D01*
X156409719Y-63383126D01*
X156430804Y-63250000D01*
X156409719Y-63116874D01*
X156348528Y-62996780D01*
X156348527Y-62996778D01*
X156253221Y-62901472D01*
X156133124Y-62840280D01*
X156000000Y-62819195D01*
X155866875Y-62840280D01*
X155746778Y-62901472D01*
X155651472Y-62996778D01*
X155610485Y-63077221D01*
X155564790Y-63126653D01*
X155500000Y-63144926D01*
X155435210Y-63126653D01*
X155389515Y-63077221D01*
X155348527Y-62996778D01*
X155253221Y-62901472D01*
X155133124Y-62840280D01*
X155000000Y-62819195D01*
X154866875Y-62840280D01*
X154746778Y-62901472D01*
X154651472Y-62996778D01*
X154590280Y-63116875D01*
X154569195Y-63249999D01*
X137700500Y-63249999D01*
X137700500Y-60069999D01*
X138944417Y-60069999D01*
X138964699Y-60275932D01*
X138964700Y-60275934D01*
X139024768Y-60473954D01*
X139122315Y-60656450D01*
X139173609Y-60718952D01*
X139253589Y-60816410D01*
X139315081Y-60866874D01*
X139413550Y-60947685D01*
X139596046Y-61045232D01*
X139794066Y-61105300D01*
X140000000Y-61125583D01*
X140205934Y-61105300D01*
X140403954Y-61045232D01*
X140586450Y-60947685D01*
X140746410Y-60816410D01*
X140800912Y-60749999D01*
X142319195Y-60749999D01*
X142340280Y-60883124D01*
X142401472Y-61003221D01*
X142496778Y-61098527D01*
X142496780Y-61098528D01*
X142616874Y-61159719D01*
X142750000Y-61180804D01*
X142883126Y-61159719D01*
X143003220Y-61098528D01*
X143098528Y-61003220D01*
X143100169Y-61000000D01*
X155069195Y-61000000D01*
X155090280Y-61133124D01*
X155151472Y-61253221D01*
X155246778Y-61348527D01*
X155246780Y-61348528D01*
X155366874Y-61409719D01*
X155500000Y-61430804D01*
X155633126Y-61409719D01*
X155753220Y-61348528D01*
X155848528Y-61253220D01*
X155909719Y-61133126D01*
X155930804Y-61000000D01*
X155909719Y-60866874D01*
X155848528Y-60746780D01*
X155848527Y-60746778D01*
X155753221Y-60651472D01*
X155633124Y-60590280D01*
X155499999Y-60569195D01*
X155366875Y-60590280D01*
X155246778Y-60651472D01*
X155151472Y-60746778D01*
X155090280Y-60866875D01*
X155069195Y-61000000D01*
X143100169Y-61000000D01*
X143159719Y-60883126D01*
X143180804Y-60750000D01*
X143159719Y-60616874D01*
X143098528Y-60496780D01*
X143098527Y-60496778D01*
X143003221Y-60401472D01*
X142883124Y-60340280D01*
X142750000Y-60319195D01*
X142616875Y-60340280D01*
X142496778Y-60401472D01*
X142401472Y-60496778D01*
X142340280Y-60616875D01*
X142319195Y-60749999D01*
X140800912Y-60749999D01*
X140877685Y-60656450D01*
X140975232Y-60473954D01*
X141035300Y-60275934D01*
X141055583Y-60070000D01*
X141035300Y-59864066D01*
X140975232Y-59666046D01*
X140877685Y-59483550D01*
X140795268Y-59383124D01*
X140746410Y-59323589D01*
X140656740Y-59250000D01*
X157069195Y-59250000D01*
X157090280Y-59383124D01*
X157151472Y-59503221D01*
X157246778Y-59598527D01*
X157246780Y-59598528D01*
X157366874Y-59659719D01*
X157500000Y-59680804D01*
X157633126Y-59659719D01*
X157753220Y-59598528D01*
X157848528Y-59503220D01*
X157909719Y-59383126D01*
X157930804Y-59250000D01*
X158894195Y-59250000D01*
X158915280Y-59383124D01*
X158976472Y-59503221D01*
X159071778Y-59598527D01*
X159071780Y-59598528D01*
X159191874Y-59659719D01*
X159325000Y-59680804D01*
X159458126Y-59659719D01*
X159578220Y-59598528D01*
X159673528Y-59503220D01*
X159734719Y-59383126D01*
X159755804Y-59250000D01*
X159734719Y-59116874D01*
X159673528Y-58996780D01*
X159673527Y-58996778D01*
X159578221Y-58901472D01*
X159458124Y-58840280D01*
X159325000Y-58819195D01*
X159191875Y-58840280D01*
X159071778Y-58901472D01*
X158976472Y-58996778D01*
X158915280Y-59116875D01*
X158894195Y-59250000D01*
X157930804Y-59250000D01*
X157909719Y-59116874D01*
X157848528Y-58996780D01*
X157848527Y-58996778D01*
X157753221Y-58901472D01*
X157633124Y-58840280D01*
X157500000Y-58819195D01*
X157366875Y-58840280D01*
X157246778Y-58901472D01*
X157151472Y-58996778D01*
X157090280Y-59116875D01*
X157069195Y-59250000D01*
X140656740Y-59250000D01*
X140648952Y-59243609D01*
X140586450Y-59192315D01*
X140403954Y-59094768D01*
X140304944Y-59064734D01*
X140205932Y-59034699D01*
X140000000Y-59014417D01*
X139794067Y-59034699D01*
X139596043Y-59094769D01*
X139413551Y-59192314D01*
X139253589Y-59323589D01*
X139122314Y-59483551D01*
X139024769Y-59666043D01*
X138964699Y-59864067D01*
X138944417Y-60069999D01*
X137700500Y-60069999D01*
X137700500Y-57530000D01*
X138944417Y-57530000D01*
X138964699Y-57735932D01*
X138994733Y-57834943D01*
X139024768Y-57933954D01*
X139122315Y-58116450D01*
X139157825Y-58159719D01*
X139253589Y-58276410D01*
X139333570Y-58342047D01*
X139413550Y-58407685D01*
X139596046Y-58505232D01*
X139794066Y-58565300D01*
X140000000Y-58585583D01*
X140205934Y-58565300D01*
X140403954Y-58505232D01*
X140586450Y-58407685D01*
X140746410Y-58276410D01*
X140877685Y-58116450D01*
X140975232Y-57933954D01*
X141035300Y-57735934D01*
X141055583Y-57530000D01*
X141035300Y-57324066D01*
X140975232Y-57126046D01*
X140877685Y-56943550D01*
X140812047Y-56863570D01*
X140746410Y-56783589D01*
X140648952Y-56703609D01*
X140586450Y-56652315D01*
X140403954Y-56554768D01*
X140304943Y-56524733D01*
X140205932Y-56494699D01*
X140000000Y-56474417D01*
X139794067Y-56494699D01*
X139596043Y-56554769D01*
X139413551Y-56652314D01*
X139253589Y-56783589D01*
X139122314Y-56943551D01*
X139024769Y-57126043D01*
X138964699Y-57324067D01*
X138944417Y-57530000D01*
X137700500Y-57530000D01*
X137700500Y-55240000D01*
X138927472Y-55240000D01*
X138969886Y-55389069D01*
X139060751Y-55571553D01*
X139183607Y-55734241D01*
X139334259Y-55871578D01*
X139507588Y-55978899D01*
X139697679Y-56052539D01*
X139750000Y-56062320D01*
X139750000Y-55240000D01*
X140250000Y-55240000D01*
X140250000Y-56062320D01*
X140302320Y-56052539D01*
X140492411Y-55978899D01*
X140665740Y-55871578D01*
X140816392Y-55734241D01*
X140939248Y-55571553D01*
X141030113Y-55389069D01*
X141072528Y-55240000D01*
X140250000Y-55240000D01*
X139750000Y-55240000D01*
X138927472Y-55240000D01*
X137700500Y-55240000D01*
X137700500Y-54739999D01*
X138927471Y-54739999D01*
X138927472Y-54740000D01*
X139750000Y-54740000D01*
X139750000Y-53917680D01*
X140250000Y-53917680D01*
X140250000Y-54740000D01*
X141072528Y-54740000D01*
X141072528Y-54739999D01*
X141030113Y-54590930D01*
X140939248Y-54408446D01*
X140816392Y-54245758D01*
X140665740Y-54108421D01*
X140492411Y-54001100D01*
X140302320Y-53927460D01*
X140250000Y-53917680D01*
X139750000Y-53917680D01*
X139697679Y-53927460D01*
X139507588Y-54001100D01*
X139334259Y-54108421D01*
X139183607Y-54245758D01*
X139060751Y-54408446D01*
X138969886Y-54590930D01*
X138927471Y-54739999D01*
X137700500Y-54739999D01*
X137700500Y-53319749D01*
X138949500Y-53319749D01*
X138961132Y-53378230D01*
X139005447Y-53444552D01*
X139071769Y-53488867D01*
X139130251Y-53500500D01*
X139130252Y-53500500D01*
X140869748Y-53500500D01*
X140869749Y-53500500D01*
X140898989Y-53494683D01*
X140928231Y-53488867D01*
X140994552Y-53444552D01*
X141038867Y-53378231D01*
X141050500Y-53319748D01*
X141050500Y-51580252D01*
X141038867Y-51521769D01*
X140994552Y-51455447D01*
X140928230Y-51411132D01*
X140869749Y-51399500D01*
X140869748Y-51399500D01*
X139130252Y-51399500D01*
X139130251Y-51399500D01*
X139071769Y-51411132D01*
X139005447Y-51455447D01*
X138961132Y-51521769D01*
X138949500Y-51580251D01*
X138949500Y-53319749D01*
X137700500Y-53319749D01*
X137700500Y-50324500D01*
X137717113Y-50262500D01*
X137762500Y-50217113D01*
X137824500Y-50200500D01*
X142126000Y-50200500D01*
X142188000Y-50217113D01*
G37*
%TD.AperFunction*%
%TA.AperFunction,Conductor*%
G36*
X158612818Y-114596547D02*
G01*
X158662181Y-114626797D01*
X158842370Y-114806986D01*
X158857791Y-114825776D01*
X158866376Y-114838624D01*
X158879218Y-114847204D01*
X158879222Y-114847208D01*
X158889377Y-114853993D01*
X158889378Y-114853994D01*
X158915534Y-114871471D01*
X158957505Y-114899515D01*
X159037867Y-114915500D01*
X159037868Y-114915500D01*
X159049846Y-114917882D01*
X159049847Y-114917883D01*
X159065000Y-114920897D01*
X159080153Y-114917883D01*
X159104344Y-114915500D01*
X160068837Y-114915500D01*
X160120012Y-114926553D01*
X160162065Y-114957741D01*
X160187497Y-115003504D01*
X160199766Y-115043951D01*
X160297315Y-115226450D01*
X160428589Y-115386410D01*
X160508569Y-115452047D01*
X160588550Y-115517685D01*
X160771046Y-115615232D01*
X160969066Y-115675300D01*
X161175000Y-115695583D01*
X161380934Y-115675300D01*
X161578954Y-115615232D01*
X161761450Y-115517685D01*
X161921410Y-115386410D01*
X162052685Y-115226450D01*
X162066141Y-115201274D01*
X162110710Y-115154000D01*
X162173065Y-115135751D01*
X162236089Y-115151537D01*
X162282479Y-115197025D01*
X162299500Y-115259727D01*
X162299500Y-116473794D01*
X162284382Y-116533129D01*
X162242715Y-116577997D01*
X162184658Y-116597455D01*
X162124368Y-116586761D01*
X162076546Y-116548521D01*
X161991392Y-116435758D01*
X161840740Y-116298421D01*
X161667411Y-116191100D01*
X161477320Y-116117460D01*
X161425000Y-116107680D01*
X161425000Y-118252320D01*
X161477320Y-118242539D01*
X161667411Y-118168899D01*
X161840740Y-118061578D01*
X161991392Y-117924241D01*
X162076546Y-117811479D01*
X162124368Y-117773239D01*
X162184658Y-117762545D01*
X162242715Y-117782003D01*
X162284382Y-117826871D01*
X162299500Y-117886206D01*
X162299500Y-119100273D01*
X162282479Y-119162975D01*
X162236089Y-119208463D01*
X162173065Y-119224249D01*
X162110710Y-119206000D01*
X162066142Y-119158726D01*
X162065436Y-119157405D01*
X162052685Y-119133550D01*
X161967634Y-119029914D01*
X161921410Y-118973589D01*
X161823952Y-118893608D01*
X161761450Y-118842315D01*
X161578954Y-118744768D01*
X161479944Y-118714734D01*
X161380932Y-118684699D01*
X161175000Y-118664417D01*
X160969067Y-118684699D01*
X160771043Y-118744769D01*
X160588551Y-118842314D01*
X160428589Y-118973589D01*
X160297315Y-119133549D01*
X160199766Y-119316048D01*
X160187497Y-119356496D01*
X160162065Y-119402259D01*
X160120012Y-119433447D01*
X160068837Y-119444500D01*
X159560478Y-119444500D01*
X159513025Y-119435061D01*
X159472797Y-119408181D01*
X158486819Y-118422203D01*
X158459939Y-118381975D01*
X158450500Y-118334522D01*
X158450500Y-117430000D01*
X160102472Y-117430000D01*
X160144886Y-117579069D01*
X160235751Y-117761553D01*
X160358607Y-117924241D01*
X160509259Y-118061578D01*
X160682588Y-118168899D01*
X160872679Y-118242539D01*
X160925000Y-118252320D01*
X160925000Y-117430000D01*
X160102472Y-117430000D01*
X158450500Y-117430000D01*
X158450500Y-116929999D01*
X160102471Y-116929999D01*
X160102472Y-116930000D01*
X160925000Y-116930000D01*
X160925000Y-116107680D01*
X160872679Y-116117460D01*
X160682588Y-116191100D01*
X160509259Y-116298421D01*
X160358607Y-116435758D01*
X160235751Y-116598446D01*
X160144886Y-116780930D01*
X160102471Y-116929999D01*
X158450500Y-116929999D01*
X158450500Y-114714478D01*
X158464015Y-114658183D01*
X158501615Y-114614160D01*
X158555102Y-114592005D01*
X158612818Y-114596547D01*
G37*
%TD.AperFunction*%
%TA.AperFunction,Conductor*%
G36*
X140848385Y-114364160D02*
G01*
X140885985Y-114408183D01*
X140899500Y-114464478D01*
X140899500Y-119084522D01*
X140890061Y-119131975D01*
X140863181Y-119172203D01*
X140627203Y-119408181D01*
X140586975Y-119435061D01*
X140539522Y-119444500D01*
X140031163Y-119444500D01*
X139979988Y-119433447D01*
X139937935Y-119402259D01*
X139912503Y-119356496D01*
X139900233Y-119316048D01*
X139842727Y-119208463D01*
X139802685Y-119133550D01*
X139717911Y-119030252D01*
X139671410Y-118973589D01*
X139573952Y-118893608D01*
X139511450Y-118842315D01*
X139328954Y-118744768D01*
X139229944Y-118714734D01*
X139130932Y-118684699D01*
X138925000Y-118664417D01*
X138719067Y-118684699D01*
X138521043Y-118744769D01*
X138338551Y-118842314D01*
X138178589Y-118973589D01*
X138047314Y-119133551D01*
X137949769Y-119316043D01*
X137949768Y-119316045D01*
X137949768Y-119316046D01*
X137943159Y-119337831D01*
X137905032Y-119396124D01*
X137841490Y-119424665D01*
X137772586Y-119414444D01*
X137720065Y-119368687D01*
X137700500Y-119301834D01*
X137700500Y-117715905D01*
X137717885Y-117652587D01*
X137765165Y-117607023D01*
X137829082Y-117591990D01*
X137891715Y-117611702D01*
X137935500Y-117660633D01*
X137985753Y-117761555D01*
X138108607Y-117924241D01*
X138259259Y-118061578D01*
X138432588Y-118168899D01*
X138622679Y-118242539D01*
X138675000Y-118252320D01*
X138675000Y-117430000D01*
X139175000Y-117430000D01*
X139175000Y-118252320D01*
X139227320Y-118242539D01*
X139417411Y-118168899D01*
X139590740Y-118061578D01*
X139741392Y-117924241D01*
X139864248Y-117761553D01*
X139955113Y-117579069D01*
X139997528Y-117430000D01*
X139175000Y-117430000D01*
X138675000Y-117430000D01*
X138675000Y-116107680D01*
X139175000Y-116107680D01*
X139175000Y-116930000D01*
X139997528Y-116930000D01*
X139997528Y-116929999D01*
X139955113Y-116780930D01*
X139864248Y-116598446D01*
X139741392Y-116435758D01*
X139590740Y-116298421D01*
X139417411Y-116191100D01*
X139227320Y-116117460D01*
X139175000Y-116107680D01*
X138675000Y-116107680D01*
X138622679Y-116117460D01*
X138432588Y-116191100D01*
X138259259Y-116298421D01*
X138108607Y-116435758D01*
X137985753Y-116598444D01*
X137935500Y-116699367D01*
X137891715Y-116748298D01*
X137829082Y-116768010D01*
X137765165Y-116752977D01*
X137717885Y-116707413D01*
X137700500Y-116644095D01*
X137700500Y-115058166D01*
X137720065Y-114991313D01*
X137772586Y-114945556D01*
X137841490Y-114935335D01*
X137905032Y-114963876D01*
X137943159Y-115022168D01*
X137949767Y-115043951D01*
X137949769Y-115043956D01*
X137964081Y-115070731D01*
X138047315Y-115226450D01*
X138074625Y-115259727D01*
X138178589Y-115386410D01*
X138258569Y-115452047D01*
X138338550Y-115517685D01*
X138521046Y-115615232D01*
X138719066Y-115675300D01*
X138925000Y-115695583D01*
X139130934Y-115675300D01*
X139328954Y-115615232D01*
X139511450Y-115517685D01*
X139671410Y-115386410D01*
X139802685Y-115226450D01*
X139900232Y-115043954D01*
X139910482Y-115010162D01*
X139941464Y-114958475D01*
X139993156Y-114927496D01*
X140010990Y-114926621D01*
X140010809Y-114925709D01*
X140050153Y-114917883D01*
X140050153Y-114917882D01*
X140062132Y-114915500D01*
X140062133Y-114915500D01*
X140142495Y-114899515D01*
X140184465Y-114871471D01*
X140210622Y-114853994D01*
X140210622Y-114853992D01*
X140224052Y-114845020D01*
X140224053Y-114845018D01*
X140233624Y-114838624D01*
X140242211Y-114825771D01*
X140257624Y-114806990D01*
X140687818Y-114376797D01*
X140737182Y-114346547D01*
X140794898Y-114342005D01*
X140848385Y-114364160D01*
G37*
%TD.AperFunction*%
%TA.AperFunction,Conductor*%
G36*
X160120012Y-109846553D02*
G01*
X160162065Y-109877741D01*
X160187497Y-109923504D01*
X160199766Y-109963951D01*
X160297315Y-110146450D01*
X160428589Y-110306410D01*
X160508570Y-110372047D01*
X160588550Y-110437685D01*
X160771046Y-110535232D01*
X160969066Y-110595300D01*
X161175000Y-110615583D01*
X161380934Y-110595300D01*
X161578954Y-110535232D01*
X161761450Y-110437685D01*
X161921410Y-110306410D01*
X162052685Y-110146450D01*
X162066141Y-110121274D01*
X162110710Y-110074000D01*
X162173065Y-110055751D01*
X162236089Y-110071537D01*
X162282479Y-110117025D01*
X162299500Y-110179727D01*
X162299500Y-111480273D01*
X162282479Y-111542975D01*
X162236089Y-111588463D01*
X162173065Y-111604249D01*
X162110710Y-111586000D01*
X162066142Y-111538726D01*
X162065436Y-111537405D01*
X162052685Y-111513550D01*
X161987047Y-111433569D01*
X161921410Y-111353589D01*
X161823952Y-111273609D01*
X161761450Y-111222315D01*
X161578954Y-111124768D01*
X161479943Y-111094733D01*
X161380932Y-111064699D01*
X161175000Y-111044417D01*
X160969067Y-111064699D01*
X160771043Y-111124769D01*
X160588551Y-111222314D01*
X160428589Y-111353589D01*
X160297315Y-111513549D01*
X160199766Y-111696048D01*
X160187497Y-111736496D01*
X160162065Y-111782259D01*
X160120012Y-111813447D01*
X160068837Y-111824500D01*
X158496898Y-111824500D01*
X158449445Y-111815061D01*
X158409217Y-111788181D01*
X156668217Y-110047181D01*
X156637967Y-109997818D01*
X156633425Y-109940102D01*
X156655580Y-109886615D01*
X156699603Y-109849015D01*
X156755898Y-109835500D01*
X160068837Y-109835500D01*
X160120012Y-109846553D01*
G37*
%TD.AperFunction*%
%TA.AperFunction,Conductor*%
G36*
X155362818Y-107096547D02*
G01*
X155412181Y-107126797D01*
X155472370Y-107186986D01*
X155487791Y-107205776D01*
X155493605Y-107214478D01*
X155496376Y-107218624D01*
X155509218Y-107227204D01*
X155509222Y-107227208D01*
X155519377Y-107233993D01*
X155519378Y-107233994D01*
X155545534Y-107251471D01*
X155587505Y-107279515D01*
X155667867Y-107295500D01*
X155667868Y-107295500D01*
X155679846Y-107297882D01*
X155679847Y-107297883D01*
X155695000Y-107300897D01*
X155710153Y-107297883D01*
X155734344Y-107295500D01*
X160068837Y-107295500D01*
X160120012Y-107306553D01*
X160162065Y-107337741D01*
X160187497Y-107383504D01*
X160199766Y-107423951D01*
X160297315Y-107606450D01*
X160428589Y-107766410D01*
X160508569Y-107832047D01*
X160588550Y-107897685D01*
X160771046Y-107995232D01*
X160969066Y-108055300D01*
X161175000Y-108075583D01*
X161380934Y-108055300D01*
X161578954Y-107995232D01*
X161761450Y-107897685D01*
X161921410Y-107766410D01*
X162052685Y-107606450D01*
X162066141Y-107581274D01*
X162110710Y-107534000D01*
X162173065Y-107515751D01*
X162236089Y-107531537D01*
X162282479Y-107577025D01*
X162299500Y-107639727D01*
X162299500Y-108940273D01*
X162282479Y-109002975D01*
X162236089Y-109048463D01*
X162173065Y-109064249D01*
X162110710Y-109046000D01*
X162066142Y-108998726D01*
X162065436Y-108997405D01*
X162052685Y-108973550D01*
X161987047Y-108893570D01*
X161921410Y-108813589D01*
X161782229Y-108699368D01*
X161761450Y-108682315D01*
X161620595Y-108607026D01*
X161578956Y-108584769D01*
X161578955Y-108584768D01*
X161578954Y-108584768D01*
X161472675Y-108552529D01*
X161380932Y-108524699D01*
X161175000Y-108504417D01*
X160969067Y-108524699D01*
X160771043Y-108584769D01*
X160588551Y-108682314D01*
X160428589Y-108813589D01*
X160297315Y-108973549D01*
X160199766Y-109156048D01*
X160187497Y-109196496D01*
X160162065Y-109242259D01*
X160120012Y-109273447D01*
X160068837Y-109284500D01*
X156400478Y-109284500D01*
X156353025Y-109275061D01*
X156312797Y-109248181D01*
X155236819Y-108172203D01*
X155209939Y-108131975D01*
X155200500Y-108084522D01*
X155200500Y-107214478D01*
X155214015Y-107158183D01*
X155251615Y-107114160D01*
X155305102Y-107092005D01*
X155362818Y-107096547D01*
G37*
%TD.AperFunction*%
%TA.AperFunction,Conductor*%
G36*
X141348385Y-96031660D02*
G01*
X141385985Y-96075683D01*
X141399500Y-96131978D01*
X141399500Y-108584522D01*
X141390061Y-108631975D01*
X141363181Y-108672203D01*
X140787203Y-109248181D01*
X140746975Y-109275061D01*
X140699522Y-109284500D01*
X140031163Y-109284500D01*
X139979988Y-109273447D01*
X139937935Y-109242259D01*
X139912503Y-109196496D01*
X139900233Y-109156048D01*
X139842727Y-109048463D01*
X139802685Y-108973550D01*
X139775375Y-108940273D01*
X139671410Y-108813589D01*
X139532229Y-108699368D01*
X139511450Y-108682315D01*
X139370595Y-108607026D01*
X139328956Y-108584769D01*
X139328955Y-108584768D01*
X139328954Y-108584768D01*
X139222675Y-108552529D01*
X139130932Y-108524699D01*
X138925000Y-108504417D01*
X138719067Y-108524699D01*
X138521043Y-108584769D01*
X138338551Y-108682314D01*
X138178589Y-108813589D01*
X138047314Y-108973551D01*
X137949769Y-109156043D01*
X137949768Y-109156045D01*
X137949768Y-109156046D01*
X137943159Y-109177831D01*
X137905032Y-109236124D01*
X137841490Y-109264665D01*
X137772586Y-109254444D01*
X137720065Y-109208687D01*
X137700500Y-109141834D01*
X137700500Y-107438166D01*
X137720065Y-107371313D01*
X137772586Y-107325556D01*
X137841490Y-107315335D01*
X137905032Y-107343876D01*
X137943159Y-107402168D01*
X137949767Y-107423951D01*
X137949769Y-107423956D01*
X137998541Y-107515202D01*
X138047315Y-107606450D01*
X138074625Y-107639727D01*
X138178589Y-107766410D01*
X138258569Y-107832047D01*
X138338550Y-107897685D01*
X138521046Y-107995232D01*
X138719066Y-108055300D01*
X138925000Y-108075583D01*
X139130934Y-108055300D01*
X139328954Y-107995232D01*
X139511450Y-107897685D01*
X139671410Y-107766410D01*
X139802685Y-107606450D01*
X139900232Y-107423954D01*
X139918076Y-107365126D01*
X139953464Y-107309243D01*
X140012394Y-107279582D01*
X140012493Y-107279515D01*
X140012495Y-107279515D01*
X140054465Y-107251471D01*
X140080622Y-107233994D01*
X140080622Y-107233992D01*
X140094052Y-107225020D01*
X140094053Y-107225018D01*
X140103624Y-107218624D01*
X140112211Y-107205771D01*
X140127624Y-107186990D01*
X140559490Y-106755124D01*
X140578270Y-106739712D01*
X140591124Y-106731124D01*
X140652015Y-106639995D01*
X140668000Y-106559633D01*
X140668000Y-106559632D01*
X140673397Y-106532500D01*
X140671756Y-106524249D01*
X140670383Y-106517347D01*
X140668000Y-106493156D01*
X140668000Y-101170846D01*
X140673340Y-101134850D01*
X140688899Y-101101954D01*
X140698223Y-101088000D01*
X140712151Y-101067156D01*
X140752015Y-101007495D01*
X140758903Y-100972867D01*
X140768000Y-100927133D01*
X140773397Y-100900000D01*
X140770383Y-100884847D01*
X140768000Y-100860656D01*
X140768000Y-96515478D01*
X140777439Y-96468025D01*
X140804319Y-96427797D01*
X141187819Y-96044297D01*
X141237182Y-96014047D01*
X141294898Y-96009505D01*
X141348385Y-96031660D01*
G37*
%TD.AperFunction*%
%TA.AperFunction,Conductor*%
G36*
X155612818Y-99596547D02*
G01*
X155662181Y-99626797D01*
X158142370Y-102106986D01*
X158157791Y-102125776D01*
X158166376Y-102138624D01*
X158179221Y-102147206D01*
X158179225Y-102147210D01*
X158201362Y-102162002D01*
X158201360Y-102162000D01*
X158257505Y-102199515D01*
X158337867Y-102215500D01*
X158337868Y-102215500D01*
X158349846Y-102217882D01*
X158349847Y-102217883D01*
X158364999Y-102220897D01*
X158364999Y-102220896D01*
X158365000Y-102220897D01*
X158372947Y-102219316D01*
X158380153Y-102217883D01*
X158404344Y-102215500D01*
X160068837Y-102215500D01*
X160120012Y-102226553D01*
X160162065Y-102257741D01*
X160187497Y-102303504D01*
X160199766Y-102343951D01*
X160297315Y-102526450D01*
X160428589Y-102686410D01*
X160507747Y-102751372D01*
X160588550Y-102817685D01*
X160771046Y-102915232D01*
X160969066Y-102975300D01*
X161175000Y-102995583D01*
X161380934Y-102975300D01*
X161578954Y-102915232D01*
X161761450Y-102817685D01*
X161921410Y-102686410D01*
X162052685Y-102526450D01*
X162066141Y-102501274D01*
X162110710Y-102454000D01*
X162173065Y-102435751D01*
X162236089Y-102451537D01*
X162282479Y-102497025D01*
X162299500Y-102559727D01*
X162299500Y-103773794D01*
X162284382Y-103833129D01*
X162242715Y-103877997D01*
X162184658Y-103897455D01*
X162124368Y-103886761D01*
X162076546Y-103848521D01*
X161991392Y-103735758D01*
X161840740Y-103598421D01*
X161667411Y-103491100D01*
X161477320Y-103417460D01*
X161425000Y-103407680D01*
X161425000Y-105552320D01*
X161477320Y-105542539D01*
X161667411Y-105468899D01*
X161840740Y-105361578D01*
X161991392Y-105224241D01*
X162076546Y-105111479D01*
X162124368Y-105073239D01*
X162184658Y-105062545D01*
X162242715Y-105082003D01*
X162284382Y-105126871D01*
X162299500Y-105186206D01*
X162299500Y-106400273D01*
X162282479Y-106462975D01*
X162236089Y-106508463D01*
X162173065Y-106524249D01*
X162110710Y-106506000D01*
X162066142Y-106458726D01*
X162063993Y-106454705D01*
X162052685Y-106433550D01*
X161971415Y-106334522D01*
X161921410Y-106273589D01*
X161823952Y-106193608D01*
X161761450Y-106142315D01*
X161578954Y-106044768D01*
X161479944Y-106014734D01*
X161380932Y-105984699D01*
X161175000Y-105964417D01*
X160969067Y-105984699D01*
X160771043Y-106044769D01*
X160588551Y-106142314D01*
X160428589Y-106273589D01*
X160297315Y-106433549D01*
X160199766Y-106616048D01*
X160187497Y-106656496D01*
X160162065Y-106702259D01*
X160120012Y-106733447D01*
X160068837Y-106744500D01*
X155860478Y-106744500D01*
X155813025Y-106735061D01*
X155772797Y-106708181D01*
X155486819Y-106422203D01*
X155459939Y-106381975D01*
X155450500Y-106334522D01*
X155450500Y-104730000D01*
X160102472Y-104730000D01*
X160144886Y-104879069D01*
X160235751Y-105061553D01*
X160358607Y-105224241D01*
X160509259Y-105361578D01*
X160682588Y-105468899D01*
X160872679Y-105542539D01*
X160925000Y-105552320D01*
X160925000Y-104730000D01*
X160102472Y-104730000D01*
X155450500Y-104730000D01*
X155450500Y-104229999D01*
X160102471Y-104229999D01*
X160102472Y-104230000D01*
X160925000Y-104230000D01*
X160925000Y-103407680D01*
X160872679Y-103417460D01*
X160682588Y-103491100D01*
X160509259Y-103598421D01*
X160358607Y-103735758D01*
X160235751Y-103898446D01*
X160144886Y-104080930D01*
X160102471Y-104229999D01*
X155450500Y-104229999D01*
X155450500Y-99714478D01*
X155464015Y-99658183D01*
X155501615Y-99614160D01*
X155555102Y-99592005D01*
X155612818Y-99596547D01*
G37*
%TD.AperFunction*%
%TA.AperFunction,Conductor*%
G36*
X137905032Y-102263876D02*
G01*
X137943159Y-102322168D01*
X137944096Y-102325255D01*
X137949769Y-102343956D01*
X137962019Y-102366874D01*
X138047315Y-102526450D01*
X138074625Y-102559727D01*
X138178589Y-102686410D01*
X138257747Y-102751372D01*
X138338550Y-102817685D01*
X138521046Y-102915232D01*
X138719066Y-102975300D01*
X138925000Y-102995583D01*
X139130934Y-102975300D01*
X139328954Y-102915232D01*
X139511450Y-102817685D01*
X139671410Y-102686410D01*
X139802685Y-102526450D01*
X139883642Y-102374990D01*
X139928210Y-102327717D01*
X139990566Y-102309468D01*
X140053589Y-102325255D01*
X140099979Y-102370743D01*
X140117000Y-102433444D01*
X140117000Y-103878826D01*
X140099615Y-103942144D01*
X140052336Y-103987708D01*
X139988418Y-104002741D01*
X139925786Y-103983029D01*
X139882000Y-103934098D01*
X139864246Y-103898444D01*
X139741392Y-103735758D01*
X139590740Y-103598421D01*
X139417411Y-103491100D01*
X139227320Y-103417460D01*
X139175000Y-103407680D01*
X139175000Y-105552320D01*
X139227320Y-105542539D01*
X139417411Y-105468899D01*
X139590740Y-105361578D01*
X139741392Y-105224241D01*
X139864246Y-105061555D01*
X139882000Y-105025902D01*
X139925786Y-104976971D01*
X139988418Y-104957259D01*
X140052336Y-104972292D01*
X140099615Y-105017856D01*
X140117000Y-105081174D01*
X140117000Y-106367022D01*
X140107561Y-106414476D01*
X140080682Y-106454701D01*
X140054340Y-106481044D01*
X140025109Y-106510274D01*
X139976324Y-106540333D01*
X139919233Y-106545249D01*
X139866028Y-106523971D01*
X139828071Y-106481044D01*
X139802685Y-106433550D01*
X139671410Y-106273589D01*
X139573952Y-106193608D01*
X139511450Y-106142315D01*
X139328954Y-106044768D01*
X139229944Y-106014734D01*
X139130932Y-105984699D01*
X138925000Y-105964417D01*
X138719067Y-105984699D01*
X138521043Y-106044769D01*
X138338551Y-106142314D01*
X138178589Y-106273589D01*
X138047314Y-106433551D01*
X137949769Y-106616043D01*
X137949768Y-106616045D01*
X137949768Y-106616046D01*
X137943159Y-106637831D01*
X137905032Y-106696124D01*
X137841490Y-106724665D01*
X137772586Y-106714444D01*
X137720065Y-106668687D01*
X137700500Y-106601834D01*
X137700500Y-105015905D01*
X137717885Y-104952587D01*
X137765165Y-104907023D01*
X137829082Y-104891990D01*
X137891715Y-104911702D01*
X137935500Y-104960633D01*
X137985753Y-105061555D01*
X138108607Y-105224241D01*
X138259259Y-105361578D01*
X138432588Y-105468899D01*
X138622679Y-105542539D01*
X138675000Y-105552320D01*
X138675000Y-103407680D01*
X138622679Y-103417460D01*
X138432588Y-103491100D01*
X138259259Y-103598421D01*
X138108607Y-103735758D01*
X137985753Y-103898444D01*
X137935500Y-103999367D01*
X137891715Y-104048298D01*
X137829082Y-104068010D01*
X137765165Y-104052977D01*
X137717885Y-104007413D01*
X137700500Y-103944095D01*
X137700500Y-102358166D01*
X137720065Y-102291313D01*
X137772586Y-102245556D01*
X137841490Y-102235335D01*
X137905032Y-102263876D01*
G37*
%TD.AperFunction*%
%TA.AperFunction,Conductor*%
G36*
X141073250Y-89518866D02*
G01*
X141116181Y-89561797D01*
X141143061Y-89602025D01*
X141152500Y-89649478D01*
X141152500Y-93600522D01*
X141143061Y-93647975D01*
X141116181Y-93688203D01*
X140713251Y-94091133D01*
X140663888Y-94121383D01*
X140606172Y-94125925D01*
X140552685Y-94103770D01*
X140515085Y-94059747D01*
X140501570Y-94003452D01*
X140501570Y-89966548D01*
X140511009Y-89919095D01*
X140537889Y-89878867D01*
X140619731Y-89797025D01*
X140897890Y-89518864D01*
X140953475Y-89486772D01*
X141017662Y-89486772D01*
X141073250Y-89518866D01*
G37*
%TD.AperFunction*%
%TA.AperFunction,Conductor*%
G36*
X157934320Y-81418050D02*
G01*
X157983684Y-81448300D01*
X158702370Y-82166986D01*
X158717790Y-82185775D01*
X158726374Y-82198622D01*
X158726375Y-82198622D01*
X158726376Y-82198624D01*
X158739223Y-82207208D01*
X158739228Y-82207212D01*
X158762659Y-82222868D01*
X158762661Y-82222869D01*
X158817505Y-82259515D01*
X158864741Y-82268911D01*
X158899003Y-82281170D01*
X158928231Y-82302847D01*
X160198017Y-83572633D01*
X160226388Y-83616635D01*
X160234071Y-83668424D01*
X160219694Y-83718767D01*
X160199769Y-83756043D01*
X160139699Y-83954067D01*
X160119417Y-84160000D01*
X160139699Y-84365932D01*
X160139700Y-84365934D01*
X160193160Y-84542171D01*
X160199769Y-84563956D01*
X160248541Y-84655202D01*
X160297315Y-84746450D01*
X160324625Y-84779727D01*
X160428589Y-84906410D01*
X160478065Y-84947013D01*
X160588550Y-85037685D01*
X160771046Y-85135232D01*
X160969066Y-85195300D01*
X161175000Y-85215583D01*
X161380934Y-85195300D01*
X161578954Y-85135232D01*
X161761450Y-85037685D01*
X161921410Y-84906410D01*
X162052685Y-84746450D01*
X162066141Y-84721274D01*
X162110710Y-84674000D01*
X162173065Y-84655751D01*
X162236089Y-84671537D01*
X162282479Y-84717025D01*
X162299500Y-84779727D01*
X162299500Y-86080273D01*
X162282479Y-86142975D01*
X162236089Y-86188463D01*
X162173065Y-86204249D01*
X162110710Y-86186000D01*
X162066142Y-86138726D01*
X162062533Y-86131975D01*
X162052685Y-86113550D01*
X161975914Y-86020004D01*
X161921410Y-85953589D01*
X161786796Y-85843116D01*
X161761450Y-85822315D01*
X161578954Y-85724768D01*
X161479943Y-85694733D01*
X161380932Y-85664699D01*
X161175000Y-85644417D01*
X160969067Y-85664699D01*
X160771043Y-85724769D01*
X160588551Y-85822314D01*
X160428589Y-85953589D01*
X160297314Y-86113551D01*
X160199769Y-86296043D01*
X160139699Y-86494067D01*
X160119417Y-86699999D01*
X160139699Y-86905932D01*
X160147920Y-86933032D01*
X160198568Y-87099999D01*
X160199769Y-87103956D01*
X160239238Y-87177797D01*
X160297315Y-87286450D01*
X160324625Y-87319727D01*
X160428589Y-87446410D01*
X160505493Y-87509522D01*
X160588550Y-87577685D01*
X160771046Y-87675232D01*
X160969066Y-87735300D01*
X161175000Y-87755583D01*
X161380934Y-87735300D01*
X161578954Y-87675232D01*
X161761450Y-87577685D01*
X161921410Y-87446410D01*
X162052685Y-87286450D01*
X162066141Y-87261274D01*
X162110710Y-87214000D01*
X162173065Y-87195751D01*
X162236089Y-87211537D01*
X162282479Y-87257025D01*
X162299500Y-87319727D01*
X162299500Y-88620273D01*
X162282479Y-88682975D01*
X162236089Y-88728463D01*
X162173065Y-88744249D01*
X162110710Y-88726000D01*
X162066142Y-88678726D01*
X162059807Y-88666874D01*
X162052685Y-88653550D01*
X161958959Y-88539344D01*
X161921410Y-88493589D01*
X161795527Y-88390281D01*
X161761450Y-88362315D01*
X161628754Y-88291387D01*
X161578956Y-88264769D01*
X161578955Y-88264768D01*
X161578954Y-88264768D01*
X161446721Y-88224656D01*
X161380932Y-88204699D01*
X161175000Y-88184417D01*
X160969067Y-88204699D01*
X160771043Y-88264769D01*
X160588551Y-88362314D01*
X160428589Y-88493589D01*
X160297314Y-88653551D01*
X160199769Y-88836043D01*
X160139699Y-89034067D01*
X160119417Y-89239999D01*
X160139699Y-89445932D01*
X160158488Y-89507872D01*
X160193160Y-89622171D01*
X160199769Y-89643956D01*
X160219465Y-89680804D01*
X160297315Y-89826450D01*
X160324625Y-89859727D01*
X160428589Y-89986410D01*
X160508569Y-90052047D01*
X160588550Y-90117685D01*
X160771046Y-90215232D01*
X160969066Y-90275300D01*
X161175000Y-90295583D01*
X161380934Y-90275300D01*
X161578954Y-90215232D01*
X161761450Y-90117685D01*
X161921410Y-89986410D01*
X162052685Y-89826450D01*
X162066141Y-89801274D01*
X162110710Y-89754000D01*
X162173065Y-89735751D01*
X162236089Y-89751537D01*
X162282479Y-89797025D01*
X162299500Y-89859727D01*
X162299500Y-91073794D01*
X162284382Y-91133129D01*
X162242715Y-91177997D01*
X162184658Y-91197455D01*
X162124368Y-91186761D01*
X162076546Y-91148521D01*
X161991392Y-91035758D01*
X161840740Y-90898421D01*
X161667411Y-90791100D01*
X161477320Y-90717460D01*
X161425000Y-90707680D01*
X161425000Y-92852320D01*
X161477320Y-92842539D01*
X161667411Y-92768899D01*
X161840740Y-92661578D01*
X161991392Y-92524241D01*
X162076546Y-92411479D01*
X162124368Y-92373239D01*
X162184658Y-92362545D01*
X162242715Y-92382003D01*
X162284382Y-92426871D01*
X162299500Y-92486206D01*
X162299500Y-93700273D01*
X162282479Y-93762975D01*
X162236089Y-93808463D01*
X162173065Y-93824249D01*
X162110710Y-93806000D01*
X162066142Y-93758726D01*
X162065436Y-93757405D01*
X162052685Y-93733550D01*
X161963600Y-93624999D01*
X161921410Y-93573589D01*
X161819586Y-93490026D01*
X161761450Y-93442315D01*
X161578954Y-93344768D01*
X161479944Y-93314734D01*
X161380932Y-93284699D01*
X161197497Y-93266632D01*
X161175000Y-93264417D01*
X161174999Y-93264417D01*
X160969067Y-93284699D01*
X160793692Y-93337898D01*
X160776819Y-93343017D01*
X160771043Y-93344769D01*
X160588551Y-93442314D01*
X160428589Y-93573589D01*
X160297315Y-93733549D01*
X160199766Y-93916048D01*
X160187497Y-93956496D01*
X160162065Y-94002259D01*
X160120012Y-94033447D01*
X160068837Y-94044500D01*
X159410478Y-94044500D01*
X159363025Y-94035061D01*
X159322797Y-94008181D01*
X157736819Y-92422203D01*
X157709939Y-92381975D01*
X157700500Y-92334522D01*
X157700500Y-92030000D01*
X160102472Y-92030000D01*
X160144886Y-92179069D01*
X160235751Y-92361553D01*
X160358607Y-92524241D01*
X160509259Y-92661578D01*
X160682588Y-92768899D01*
X160872679Y-92842539D01*
X160925000Y-92852320D01*
X160925000Y-92030000D01*
X160102472Y-92030000D01*
X157700500Y-92030000D01*
X157700500Y-91529999D01*
X160102471Y-91529999D01*
X160102472Y-91530000D01*
X160925000Y-91530000D01*
X160925000Y-90707680D01*
X160872679Y-90717460D01*
X160682588Y-90791100D01*
X160509259Y-90898421D01*
X160358607Y-91035758D01*
X160235751Y-91198446D01*
X160144886Y-91380930D01*
X160102471Y-91529999D01*
X157700500Y-91529999D01*
X157700500Y-81627610D01*
X157709939Y-81580157D01*
X157736820Y-81539928D01*
X157773527Y-81503221D01*
X157773528Y-81503220D01*
X157785518Y-81479687D01*
X157823116Y-81435664D01*
X157876604Y-81413508D01*
X157934320Y-81418050D01*
G37*
%TD.AperFunction*%
%TA.AperFunction,Conductor*%
G36*
X137905032Y-89563876D02*
G01*
X137943159Y-89622168D01*
X137949571Y-89643304D01*
X137949769Y-89643956D01*
X137969465Y-89680804D01*
X138047315Y-89826450D01*
X138074625Y-89859727D01*
X138178589Y-89986410D01*
X138258569Y-90052047D01*
X138338550Y-90117685D01*
X138521046Y-90215232D01*
X138719066Y-90275300D01*
X138925000Y-90295583D01*
X139130934Y-90275300D01*
X139328954Y-90215232D01*
X139467048Y-90141418D01*
X139528543Y-90126814D01*
X139589249Y-90144419D01*
X139633391Y-90189658D01*
X139649500Y-90250777D01*
X139649500Y-90712181D01*
X139632406Y-90775006D01*
X139585839Y-90820510D01*
X139522635Y-90836148D01*
X139460222Y-90817608D01*
X139417411Y-90791100D01*
X139227320Y-90717460D01*
X139175000Y-90707680D01*
X139175000Y-92852320D01*
X139227320Y-92842539D01*
X139417411Y-92768899D01*
X139484222Y-92727532D01*
X139546636Y-92708992D01*
X139609839Y-92724630D01*
X139656407Y-92770134D01*
X139673500Y-92832959D01*
X139673500Y-93130522D01*
X139664061Y-93177975D01*
X139637183Y-93218200D01*
X139537148Y-93318234D01*
X139512366Y-93343017D01*
X139468364Y-93371388D01*
X139416575Y-93379070D01*
X139366232Y-93364693D01*
X139328957Y-93344769D01*
X139323181Y-93343017D01*
X139271794Y-93327429D01*
X139130932Y-93284699D01*
X138947497Y-93266632D01*
X138925000Y-93264417D01*
X138924999Y-93264417D01*
X138719067Y-93284699D01*
X138543692Y-93337898D01*
X138526819Y-93343017D01*
X138521043Y-93344769D01*
X138338551Y-93442314D01*
X138178589Y-93573589D01*
X138047314Y-93733551D01*
X137949769Y-93916043D01*
X137949768Y-93916045D01*
X137949768Y-93916046D01*
X137943159Y-93937831D01*
X137905032Y-93996124D01*
X137841490Y-94024665D01*
X137772586Y-94014444D01*
X137720065Y-93968687D01*
X137700500Y-93901834D01*
X137700500Y-92315905D01*
X137717885Y-92252587D01*
X137765165Y-92207023D01*
X137829082Y-92191990D01*
X137891715Y-92211702D01*
X137935500Y-92260633D01*
X137985753Y-92361555D01*
X138108607Y-92524241D01*
X138259259Y-92661578D01*
X138432588Y-92768899D01*
X138622679Y-92842539D01*
X138675000Y-92852320D01*
X138675000Y-90707680D01*
X138622679Y-90717460D01*
X138432588Y-90791100D01*
X138259259Y-90898421D01*
X138108607Y-91035758D01*
X137985753Y-91198444D01*
X137935500Y-91299367D01*
X137891715Y-91348298D01*
X137829082Y-91368010D01*
X137765165Y-91352977D01*
X137717885Y-91307413D01*
X137700500Y-91244095D01*
X137700500Y-89658166D01*
X137720065Y-89591313D01*
X137772586Y-89545556D01*
X137841490Y-89535335D01*
X137905032Y-89563876D01*
G37*
%TD.AperFunction*%
%TA.AperFunction,Conductor*%
G36*
X153862818Y-86596547D02*
G01*
X153912181Y-86626797D01*
X154657942Y-87372558D01*
X154690835Y-87431292D01*
X154688192Y-87498557D01*
X154650793Y-87554529D01*
X154589659Y-87582712D01*
X154541875Y-87590280D01*
X154421778Y-87651472D01*
X154326472Y-87746778D01*
X154265280Y-87866875D01*
X154244195Y-88000000D01*
X154265280Y-88133124D01*
X154326472Y-88253221D01*
X154421778Y-88348527D01*
X154421780Y-88348528D01*
X154541874Y-88409719D01*
X154593900Y-88417959D01*
X154674999Y-88430804D01*
X154674999Y-88430803D01*
X154675000Y-88430804D01*
X154711740Y-88424985D01*
X154756102Y-88417959D01*
X154809158Y-88421087D01*
X154856031Y-88446142D01*
X154888110Y-88488518D01*
X154899500Y-88540432D01*
X154899500Y-91035522D01*
X154885985Y-91091817D01*
X154848385Y-91135840D01*
X154794898Y-91157995D01*
X154737182Y-91153453D01*
X154687819Y-91123203D01*
X153736819Y-90172203D01*
X153709939Y-90131975D01*
X153700500Y-90084522D01*
X153700500Y-86714478D01*
X153714015Y-86658183D01*
X153751615Y-86614160D01*
X153805102Y-86592005D01*
X153862818Y-86596547D01*
G37*
%TD.AperFunction*%
%TA.AperFunction,Conductor*%
G36*
X140848385Y-73614159D02*
G01*
X140885985Y-73658182D01*
X140899500Y-73714477D01*
X140899500Y-76084522D01*
X140890061Y-76131975D01*
X140863181Y-76172203D01*
X140847203Y-76188181D01*
X140806975Y-76215061D01*
X140759522Y-76224500D01*
X140464348Y-76224500D01*
X140440159Y-76222118D01*
X140425001Y-76219103D01*
X140425000Y-76219103D01*
X140371253Y-76229793D01*
X140317505Y-76240484D01*
X140312841Y-76243601D01*
X140279945Y-76259160D01*
X140243949Y-76264500D01*
X140031163Y-76264500D01*
X139979988Y-76253447D01*
X139937935Y-76222259D01*
X139912503Y-76176496D01*
X139900233Y-76136048D01*
X139892635Y-76121834D01*
X139802685Y-75953550D01*
X139731553Y-75866875D01*
X139671410Y-75793589D01*
X139573952Y-75713609D01*
X139511450Y-75662315D01*
X139328954Y-75564768D01*
X139229943Y-75534733D01*
X139130932Y-75504699D01*
X138925000Y-75484417D01*
X138719067Y-75504699D01*
X138521043Y-75564769D01*
X138338551Y-75662314D01*
X138178589Y-75793589D01*
X138047314Y-75953551D01*
X137949769Y-76136043D01*
X137949768Y-76136045D01*
X137949768Y-76136046D01*
X137943159Y-76157831D01*
X137905032Y-76216124D01*
X137841490Y-76244665D01*
X137772586Y-76234444D01*
X137720065Y-76188687D01*
X137700500Y-76121834D01*
X137700500Y-75059184D01*
X137716310Y-74998595D01*
X137759710Y-74953457D01*
X137819631Y-74935280D01*
X137880794Y-74948699D01*
X137927602Y-74990293D01*
X137930447Y-74994552D01*
X137996769Y-75038867D01*
X138055251Y-75050500D01*
X138055252Y-75050500D01*
X139794748Y-75050500D01*
X139794749Y-75050500D01*
X139823989Y-75044683D01*
X139853231Y-75038867D01*
X139919552Y-74994552D01*
X139963867Y-74928231D01*
X139975500Y-74869748D01*
X139975500Y-74363877D01*
X139990142Y-74305424D01*
X140030610Y-74260774D01*
X140032493Y-74259515D01*
X140032495Y-74259515D01*
X140074465Y-74231471D01*
X140100622Y-74213994D01*
X140100622Y-74213992D01*
X140114052Y-74205020D01*
X140114053Y-74205018D01*
X140123624Y-74198624D01*
X140132211Y-74185771D01*
X140147624Y-74166990D01*
X140687819Y-73626796D01*
X140737182Y-73596546D01*
X140794898Y-73592004D01*
X140848385Y-73614159D01*
G37*
%TD.AperFunction*%
%TA.AperFunction,Conductor*%
G36*
X147496878Y-98507536D02*
G01*
X147528996Y-98528996D01*
X148250000Y-99250000D01*
X152901000Y-99250000D01*
X152950500Y-99263263D01*
X152986737Y-99299500D01*
X153000000Y-99349000D01*
X153000000Y-100151000D01*
X152986737Y-100200500D01*
X152950500Y-100236737D01*
X152901000Y-100250000D01*
X152470187Y-100250000D01*
X152462559Y-100249500D01*
X152037435Y-100249500D01*
X152029822Y-100250000D01*
X147791008Y-100250000D01*
X147753122Y-100242464D01*
X147721005Y-100221004D01*
X147250000Y-99750000D01*
X144599000Y-99750000D01*
X144549500Y-99736737D01*
X144513263Y-99700500D01*
X144500000Y-99651000D01*
X144500000Y-98599000D01*
X144513263Y-98549500D01*
X144549500Y-98513263D01*
X144599000Y-98500000D01*
X147458992Y-98500000D01*
X147496878Y-98507536D01*
G37*
%TD.AperFunction*%
%TA.AperFunction,Conductor*%
G36*
X147599990Y-103507039D02*
G01*
X148305266Y-103755375D01*
X148973424Y-103990642D01*
X149019922Y-104019921D01*
X149500000Y-104500000D01*
X150626000Y-104500000D01*
X150688000Y-104516613D01*
X150733387Y-104562000D01*
X150750000Y-104624000D01*
X150750000Y-105126000D01*
X150733387Y-105188000D01*
X150688000Y-105233387D01*
X150626000Y-105250000D01*
X149551362Y-105250000D01*
X149503909Y-105240561D01*
X149463681Y-105213681D01*
X149000000Y-104750000D01*
X146653111Y-104750000D01*
X146605658Y-104740561D01*
X146565430Y-104713681D01*
X146503221Y-104651472D01*
X146383124Y-104590280D01*
X146250000Y-104569195D01*
X146116875Y-104590280D01*
X145996778Y-104651472D01*
X145934570Y-104713681D01*
X145894342Y-104740561D01*
X145846889Y-104750000D01*
X144454000Y-104750000D01*
X144392000Y-104733387D01*
X144346613Y-104688000D01*
X144330000Y-104626000D01*
X144330000Y-103958954D01*
X144348273Y-103894164D01*
X144397705Y-103848469D01*
X144495720Y-103798528D01*
X144591028Y-103703220D01*
X144652219Y-103583126D01*
X144652219Y-103583124D01*
X144660076Y-103567705D01*
X144705771Y-103518273D01*
X144770561Y-103500000D01*
X147558807Y-103500000D01*
X147599990Y-103507039D01*
G37*
%TD.AperFunction*%
M02*
