%TF.GenerationSoftware,KiCad,Pcbnew,7.0.1-3b83917a11~171~ubuntu22.04.1*%
%TF.CreationDate,2023-04-15T23:20:08+01:00*%
%TF.ProjectId,spe_dongle,7370655f-646f-46e6-976c-652e6b696361,1.0*%
%TF.SameCoordinates,Original*%
%TF.FileFunction,Copper,L2,Inr*%
%TF.FilePolarity,Positive*%
%FSLAX46Y46*%
G04 Gerber Fmt 4.6, Leading zero omitted, Abs format (unit mm)*
G04 Created by KiCad (PCBNEW 7.0.1-3b83917a11~171~ubuntu22.04.1) date 2023-04-15 23:20:08*
%MOMM*%
%LPD*%
G01*
G04 APERTURE LIST*
%TA.AperFunction,ComponentPad*%
%ADD10R,1.700000X1.700000*%
%TD*%
%TA.AperFunction,ComponentPad*%
%ADD11O,1.700000X1.700000*%
%TD*%
%TA.AperFunction,ComponentPad*%
%ADD12C,0.500000*%
%TD*%
%TA.AperFunction,ComponentPad*%
%ADD13C,0.700000*%
%TD*%
%TA.AperFunction,ComponentPad*%
%ADD14O,0.900000X2.400000*%
%TD*%
%TA.AperFunction,ComponentPad*%
%ADD15O,0.900000X1.700000*%
%TD*%
%TA.AperFunction,ComponentPad*%
%ADD16R,2.400000X2.400000*%
%TD*%
%TA.AperFunction,ComponentPad*%
%ADD17C,2.400000*%
%TD*%
%TA.AperFunction,ViaPad*%
%ADD18C,0.450000*%
%TD*%
G04 APERTURE END LIST*
D10*
X156330000Y-120750000D03*
D11*
X156330000Y-118210000D03*
D12*
X151392500Y-103000000D03*
X151392500Y-102000000D03*
X151392500Y-101000000D03*
X150392500Y-103000000D03*
X150392500Y-102000000D03*
X150392500Y-101000000D03*
X149392500Y-103000000D03*
X149392500Y-102000000D03*
X149392500Y-101000000D03*
D10*
X143580000Y-120750000D03*
D11*
X143580000Y-118210000D03*
D13*
X152975000Y-56025000D03*
X152125000Y-56025000D03*
X151275000Y-56025000D03*
X150425000Y-56025000D03*
X149575000Y-56025000D03*
X148725000Y-56025000D03*
X147875000Y-56025000D03*
X147025000Y-56025000D03*
X147025000Y-54675000D03*
X147875000Y-54675000D03*
X148725000Y-54675000D03*
X149575000Y-54675000D03*
X150425000Y-54675000D03*
X151275000Y-54675000D03*
X152125000Y-54675000D03*
X152975000Y-54675000D03*
D14*
X154325000Y-55045000D03*
D15*
X154325000Y-51665000D03*
D14*
X145675000Y-55045000D03*
D15*
X145675000Y-51665000D03*
D10*
X140000000Y-52450000D03*
D11*
X140000000Y-54990000D03*
X140000000Y-57530000D03*
X140000000Y-60070000D03*
D16*
X148250000Y-120250000D03*
D17*
X151750000Y-120250000D03*
D10*
X161175000Y-74000000D03*
D11*
X161175000Y-76540000D03*
X161175000Y-79080000D03*
X161175000Y-81620000D03*
X161175000Y-84160000D03*
X161175000Y-86700000D03*
X161175000Y-89240000D03*
X161175000Y-91780000D03*
X161175000Y-94320000D03*
X161175000Y-96860000D03*
X161175000Y-99400000D03*
X161175000Y-101940000D03*
X161175000Y-104480000D03*
X161175000Y-107020000D03*
X161175000Y-109560000D03*
X161175000Y-112100000D03*
X161175000Y-114640000D03*
X161175000Y-117180000D03*
X161175000Y-119720000D03*
X161175000Y-122260000D03*
D10*
X138925000Y-74000000D03*
D11*
X138925000Y-76540000D03*
X138925000Y-79080000D03*
X138925000Y-81620000D03*
X138925000Y-84160000D03*
X138925000Y-86700000D03*
X138925000Y-89240000D03*
X138925000Y-91780000D03*
X138925000Y-94320000D03*
X138925000Y-96860000D03*
X138925000Y-99400000D03*
X138925000Y-101940000D03*
X138925000Y-104480000D03*
X138925000Y-107020000D03*
X138925000Y-109560000D03*
X138925000Y-112100000D03*
X138925000Y-114640000D03*
X138925000Y-117180000D03*
X138925000Y-119720000D03*
X138925000Y-122260000D03*
D18*
X143642500Y-50750000D03*
X156642500Y-50750000D03*
X150330000Y-105500000D03*
X147580000Y-104000000D03*
X143000000Y-72750000D03*
X156500000Y-88000000D03*
X140750000Y-90250000D03*
X150000000Y-118000000D03*
X141500000Y-77000000D03*
X160500000Y-52500000D03*
X152500000Y-59500000D03*
X141000000Y-124000000D03*
X142000000Y-115500000D03*
X158000000Y-74500000D03*
X153500000Y-66500000D03*
X146742500Y-88000000D03*
X147000000Y-89500000D03*
X153925000Y-88000000D03*
X146000000Y-107000000D03*
X144000000Y-123500000D03*
X158000000Y-106000000D03*
X158000000Y-104500000D03*
X152500000Y-69000000D03*
X147250000Y-105250000D03*
X151000000Y-67500000D03*
X153000000Y-93000000D03*
X158000000Y-108500000D03*
X159500000Y-79500000D03*
X155500000Y-123500000D03*
X157175000Y-77750000D03*
X154000000Y-111500000D03*
X148500000Y-91000000D03*
X159500000Y-85500000D03*
X152500000Y-105500000D03*
X139250000Y-66500000D03*
X157000000Y-73500000D03*
X155750000Y-100000000D03*
X147250000Y-62250000D03*
X156500000Y-54500000D03*
X148000000Y-108500000D03*
X152000000Y-110000000D03*
X155500000Y-68500000D03*
X152000000Y-65000000D03*
X144000000Y-108500000D03*
X142925000Y-74750000D03*
X146500000Y-97000000D03*
X150000000Y-62250000D03*
X149500000Y-91500000D03*
X144000000Y-86000000D03*
X144500000Y-67500000D03*
X154000000Y-70500000D03*
X152042500Y-95950000D03*
X142000000Y-113500000D03*
X143750000Y-54250000D03*
X146000000Y-108500000D03*
X152000000Y-111500000D03*
X141000000Y-67500000D03*
X144000000Y-110000000D03*
X156500000Y-104500000D03*
X156500000Y-106000000D03*
X145992500Y-82500000D03*
X155675000Y-75250000D03*
X151500000Y-94500000D03*
X148000000Y-111500000D03*
X153250000Y-103500000D03*
X153000000Y-98000000D03*
X143750000Y-60750000D03*
X161000000Y-56500000D03*
X158000000Y-111000000D03*
X156500000Y-108500000D03*
X155500000Y-72000000D03*
X147175000Y-74250000D03*
X149000000Y-107500000D03*
X144000000Y-97000000D03*
X144000000Y-111500000D03*
X152500000Y-62500000D03*
X140500000Y-75000000D03*
X146500000Y-68250000D03*
X156500000Y-86000000D03*
X152500000Y-64000000D03*
X146000000Y-111500000D03*
X150000000Y-115500000D03*
X144000000Y-107000000D03*
X160000000Y-77500000D03*
X141092500Y-96600000D03*
X149500000Y-66000000D03*
X154000000Y-110000000D03*
X152500000Y-107500000D03*
X152500000Y-61000000D03*
X148000000Y-110000000D03*
X159500000Y-84000000D03*
X150000000Y-106500000D03*
X141000000Y-108000000D03*
X156750000Y-58000000D03*
X159500000Y-88000000D03*
X152175000Y-73000000D03*
X158500000Y-124000000D03*
X146000000Y-110000000D03*
X161000000Y-58000000D03*
X155500000Y-57750000D03*
X151250000Y-91500000D03*
X144500000Y-57750000D03*
X161000000Y-61000000D03*
X158500000Y-59000000D03*
X152000000Y-108500000D03*
X158500000Y-71500000D03*
X144000000Y-101600500D03*
X157000000Y-70000000D03*
X147750000Y-100000000D03*
X153250000Y-100500000D03*
X144500000Y-76000000D03*
X155500000Y-61000000D03*
X142750000Y-60750000D03*
X155000000Y-63250000D03*
X156425000Y-76750000D03*
X144000000Y-102500000D03*
X145942500Y-83500000D03*
X139250000Y-71250000D03*
X147592500Y-88000000D03*
X145750000Y-88750000D03*
X155500000Y-64500000D03*
X146175000Y-74250000D03*
X143250000Y-90500000D03*
X143675000Y-77000000D03*
X144000000Y-100750000D03*
X155500000Y-66000000D03*
X146250000Y-105000000D03*
X156000000Y-63250000D03*
X154675000Y-88000000D03*
X148580000Y-114500000D03*
X151330000Y-114500000D03*
X157500000Y-59250000D03*
X159325000Y-59250000D03*
X156750000Y-56000000D03*
X150000000Y-57750000D03*
X150642500Y-95500000D03*
X144212500Y-88462500D03*
X148250000Y-94000000D03*
X143425000Y-81250000D03*
X148250000Y-93250000D03*
X150142500Y-95000000D03*
X144242500Y-103450000D03*
X143192500Y-103450000D03*
X150480350Y-65162150D03*
X149534100Y-64215900D03*
X148892500Y-77250000D03*
X148425000Y-76750000D03*
X142675000Y-71250000D03*
X142675000Y-72000000D03*
X157425000Y-81250000D03*
X154925000Y-81750000D03*
X154425000Y-82250000D03*
X153925000Y-82750000D03*
X149392500Y-77750000D03*
X149892500Y-78300000D03*
X142925000Y-84250000D03*
X143596250Y-89346250D03*
X142712500Y-89212500D03*
X143371250Y-79728750D03*
X157675000Y-77000000D03*
X157175000Y-80250000D03*
X142992500Y-80750000D03*
X147446250Y-93946250D03*
X143587500Y-88587500D03*
X151142500Y-96000000D03*
X150392500Y-78800000D03*
X146175000Y-86500000D03*
X148175000Y-88400000D03*
X148675000Y-88800000D03*
X149175000Y-89250000D03*
X150892500Y-79300000D03*
X151392500Y-79800000D03*
X153425000Y-83250000D03*
X152925000Y-83750000D03*
X152675000Y-88300000D03*
X152175000Y-88850000D03*
X151675000Y-89450000D03*
X151175000Y-90000000D03*
X142158750Y-82266250D03*
X142175000Y-83000000D03*
X151892500Y-80300000D03*
X154425000Y-80500000D03*
%TA.AperFunction,Conductor*%
G36*
X143421740Y-50214287D02*
G01*
X143458099Y-50251806D01*
X143470296Y-50302610D01*
X143454934Y-50352547D01*
X143416290Y-50387709D01*
X143406172Y-50392864D01*
X143389281Y-50401471D01*
X143293971Y-50496781D01*
X143232780Y-50616875D01*
X143211695Y-50749999D01*
X143232780Y-50883124D01*
X143232780Y-50883125D01*
X143232781Y-50883126D01*
X143293972Y-51003220D01*
X143389280Y-51098528D01*
X143509374Y-51159719D01*
X143642500Y-51180804D01*
X143775626Y-51159719D01*
X143895720Y-51098528D01*
X143991028Y-51003220D01*
X144052219Y-50883126D01*
X144073304Y-50750000D01*
X144052219Y-50616874D01*
X143991028Y-50496780D01*
X143895720Y-50401472D01*
X143868709Y-50387709D01*
X143830066Y-50352547D01*
X143814704Y-50302610D01*
X143826901Y-50251806D01*
X143863260Y-50214287D01*
X143913655Y-50200500D01*
X156371345Y-50200500D01*
X156421740Y-50214287D01*
X156458099Y-50251806D01*
X156470296Y-50302610D01*
X156454934Y-50352547D01*
X156416290Y-50387709D01*
X156406172Y-50392864D01*
X156389281Y-50401471D01*
X156293971Y-50496781D01*
X156232780Y-50616875D01*
X156211695Y-50749999D01*
X156232780Y-50883124D01*
X156232780Y-50883125D01*
X156232781Y-50883126D01*
X156293972Y-51003220D01*
X156389280Y-51098528D01*
X156509374Y-51159719D01*
X156642500Y-51180804D01*
X156775626Y-51159719D01*
X156895720Y-51098528D01*
X156991028Y-51003220D01*
X157052219Y-50883126D01*
X157073304Y-50750000D01*
X157052219Y-50616874D01*
X156991028Y-50496780D01*
X156895720Y-50401472D01*
X156868709Y-50387709D01*
X156830066Y-50352547D01*
X156814704Y-50302610D01*
X156826901Y-50251806D01*
X156863260Y-50214287D01*
X156913655Y-50200500D01*
X162200500Y-50200500D01*
X162250000Y-50213763D01*
X162286237Y-50250000D01*
X162299500Y-50299500D01*
X162299500Y-72907060D01*
X162285415Y-72957956D01*
X162247168Y-72994370D01*
X162195642Y-73005941D01*
X162145498Y-72989375D01*
X162103231Y-72961133D01*
X162087259Y-72957956D01*
X162044748Y-72949500D01*
X160305252Y-72949500D01*
X160276010Y-72955316D01*
X160246768Y-72961133D01*
X160180447Y-73005447D01*
X160136133Y-73071768D01*
X160124500Y-73130253D01*
X160124500Y-74869747D01*
X160136133Y-74928231D01*
X160180447Y-74994552D01*
X160224761Y-75024162D01*
X160246769Y-75038867D01*
X160305252Y-75050500D01*
X162044747Y-75050500D01*
X162044748Y-75050500D01*
X162103231Y-75038867D01*
X162134122Y-75018225D01*
X162145498Y-75010625D01*
X162195642Y-74994059D01*
X162247168Y-75005630D01*
X162285415Y-75042044D01*
X162299500Y-75092940D01*
X162299500Y-76020076D01*
X162285911Y-76070136D01*
X162248874Y-76106453D01*
X162198557Y-76119057D01*
X162148773Y-76104488D01*
X162113190Y-76066745D01*
X162052684Y-75953549D01*
X161921410Y-75793590D01*
X161761450Y-75662315D01*
X161578954Y-75564768D01*
X161578953Y-75564767D01*
X161578952Y-75564767D01*
X161380933Y-75504699D01*
X161175000Y-75484416D01*
X160969066Y-75504699D01*
X160771047Y-75564767D01*
X160588549Y-75662315D01*
X160428590Y-75793590D01*
X160297315Y-75953549D01*
X160199767Y-76136047D01*
X160139699Y-76334066D01*
X160119416Y-76540000D01*
X160139699Y-76745933D01*
X160181316Y-76883126D01*
X160199768Y-76943954D01*
X160297315Y-77126450D01*
X160428590Y-77286410D01*
X160588550Y-77417685D01*
X160771046Y-77515232D01*
X160969066Y-77575300D01*
X161175000Y-77595583D01*
X161380934Y-77575300D01*
X161578954Y-77515232D01*
X161761450Y-77417685D01*
X161921410Y-77286410D01*
X162052685Y-77126450D01*
X162113190Y-77013255D01*
X162148773Y-76975512D01*
X162198557Y-76960943D01*
X162248874Y-76973547D01*
X162285911Y-77009864D01*
X162299500Y-77059924D01*
X162299500Y-78561136D01*
X162285911Y-78611196D01*
X162248873Y-78647513D01*
X162198556Y-78660117D01*
X162148773Y-78645547D01*
X162113190Y-78607804D01*
X162052269Y-78493829D01*
X161921054Y-78333945D01*
X161761170Y-78202730D01*
X161578763Y-78105231D01*
X161425000Y-78058588D01*
X161425000Y-80101411D01*
X161578763Y-80054768D01*
X161761170Y-79957269D01*
X161921054Y-79826054D01*
X162052269Y-79666170D01*
X162113190Y-79552196D01*
X162148773Y-79514453D01*
X162198556Y-79499883D01*
X162248873Y-79512487D01*
X162285911Y-79548804D01*
X162299500Y-79598864D01*
X162299500Y-81100076D01*
X162285911Y-81150136D01*
X162248874Y-81186453D01*
X162198557Y-81199057D01*
X162148773Y-81184488D01*
X162113190Y-81146745D01*
X162052684Y-81033549D01*
X162027792Y-81003218D01*
X161921410Y-80873590D01*
X161761450Y-80742315D01*
X161578954Y-80644768D01*
X161578953Y-80644767D01*
X161578952Y-80644767D01*
X161380933Y-80584699D01*
X161175000Y-80564416D01*
X160969066Y-80584699D01*
X160771047Y-80644767D01*
X160588549Y-80742315D01*
X160428590Y-80873590D01*
X160297315Y-81033549D01*
X160199767Y-81216047D01*
X160139699Y-81414066D01*
X160119416Y-81620000D01*
X160139699Y-81825933D01*
X160199767Y-82023952D01*
X160199768Y-82023954D01*
X160297315Y-82206450D01*
X160428590Y-82366410D01*
X160588550Y-82497685D01*
X160771046Y-82595232D01*
X160969066Y-82655300D01*
X161175000Y-82675583D01*
X161380934Y-82655300D01*
X161578954Y-82595232D01*
X161761450Y-82497685D01*
X161921410Y-82366410D01*
X162052685Y-82206450D01*
X162113190Y-82093255D01*
X162148773Y-82055512D01*
X162198557Y-82040943D01*
X162248874Y-82053547D01*
X162285911Y-82089864D01*
X162299500Y-82139924D01*
X162299500Y-83640076D01*
X162285911Y-83690136D01*
X162248874Y-83726453D01*
X162198557Y-83739057D01*
X162148773Y-83724488D01*
X162113190Y-83686745D01*
X162052684Y-83573549D01*
X161921410Y-83413590D01*
X161761450Y-83282315D01*
X161578954Y-83184768D01*
X161578953Y-83184767D01*
X161578952Y-83184767D01*
X161380933Y-83124699D01*
X161175000Y-83104416D01*
X160969066Y-83124699D01*
X160771047Y-83184767D01*
X160588549Y-83282315D01*
X160428590Y-83413590D01*
X160297315Y-83573549D01*
X160199767Y-83756047D01*
X160139699Y-83954066D01*
X160119416Y-84159999D01*
X160139699Y-84365933D01*
X160199767Y-84563952D01*
X160199768Y-84563954D01*
X160297315Y-84746450D01*
X160428590Y-84906410D01*
X160588550Y-85037685D01*
X160771046Y-85135232D01*
X160969065Y-85195299D01*
X160969066Y-85195300D01*
X161174999Y-85215583D01*
X161174999Y-85215582D01*
X161175000Y-85215583D01*
X161380934Y-85195300D01*
X161578954Y-85135232D01*
X161761450Y-85037685D01*
X161921410Y-84906410D01*
X162052685Y-84746450D01*
X162113190Y-84633255D01*
X162148773Y-84595512D01*
X162198557Y-84580943D01*
X162248874Y-84593547D01*
X162285911Y-84629864D01*
X162299500Y-84679924D01*
X162299500Y-86180076D01*
X162285911Y-86230136D01*
X162248874Y-86266453D01*
X162198557Y-86279057D01*
X162148773Y-86264488D01*
X162113190Y-86226745D01*
X162052684Y-86113549D01*
X161921410Y-85953590D01*
X161761450Y-85822315D01*
X161578954Y-85724768D01*
X161578953Y-85724767D01*
X161578952Y-85724767D01*
X161380933Y-85664699D01*
X161175000Y-85644416D01*
X160969066Y-85664699D01*
X160771047Y-85724767D01*
X160588549Y-85822315D01*
X160428590Y-85953590D01*
X160297315Y-86113549D01*
X160199767Y-86296047D01*
X160139699Y-86494066D01*
X160119416Y-86700000D01*
X160139699Y-86905933D01*
X160199767Y-87103952D01*
X160199768Y-87103954D01*
X160297315Y-87286450D01*
X160428590Y-87446410D01*
X160588550Y-87577685D01*
X160771046Y-87675232D01*
X160969066Y-87735300D01*
X161175000Y-87755583D01*
X161380934Y-87735300D01*
X161578954Y-87675232D01*
X161761450Y-87577685D01*
X161921410Y-87446410D01*
X162052685Y-87286450D01*
X162113190Y-87173255D01*
X162148773Y-87135512D01*
X162198557Y-87120943D01*
X162248874Y-87133547D01*
X162285911Y-87169864D01*
X162299500Y-87219924D01*
X162299500Y-88720076D01*
X162285911Y-88770136D01*
X162248874Y-88806453D01*
X162198557Y-88819057D01*
X162148773Y-88804488D01*
X162113190Y-88766745D01*
X162052684Y-88653549D01*
X162052414Y-88653220D01*
X161921410Y-88493590D01*
X161761450Y-88362315D01*
X161578954Y-88264768D01*
X161578953Y-88264767D01*
X161578952Y-88264767D01*
X161380933Y-88204699D01*
X161175000Y-88184416D01*
X160969066Y-88204699D01*
X160771047Y-88264767D01*
X160588549Y-88362315D01*
X160428590Y-88493590D01*
X160297315Y-88653549D01*
X160199767Y-88836047D01*
X160139699Y-89034066D01*
X160119416Y-89239999D01*
X160139699Y-89445933D01*
X160199767Y-89643952D01*
X160199768Y-89643954D01*
X160297315Y-89826450D01*
X160428590Y-89986410D01*
X160588550Y-90117685D01*
X160771046Y-90215232D01*
X160969066Y-90275300D01*
X161175000Y-90295583D01*
X161380934Y-90275300D01*
X161578954Y-90215232D01*
X161761450Y-90117685D01*
X161921410Y-89986410D01*
X162052685Y-89826450D01*
X162113190Y-89713255D01*
X162148773Y-89675512D01*
X162198557Y-89660943D01*
X162248874Y-89673547D01*
X162285911Y-89709864D01*
X162299500Y-89759924D01*
X162299500Y-91261136D01*
X162285911Y-91311196D01*
X162248873Y-91347513D01*
X162198556Y-91360117D01*
X162148773Y-91345547D01*
X162113190Y-91307804D01*
X162052269Y-91193829D01*
X161921054Y-91033945D01*
X161761170Y-90902730D01*
X161578763Y-90805231D01*
X161425000Y-90758588D01*
X161425000Y-92801411D01*
X161578763Y-92754768D01*
X161761170Y-92657269D01*
X161921054Y-92526054D01*
X162052269Y-92366170D01*
X162113190Y-92252196D01*
X162148773Y-92214453D01*
X162198556Y-92199883D01*
X162248873Y-92212487D01*
X162285911Y-92248804D01*
X162299500Y-92298864D01*
X162299500Y-93800076D01*
X162285911Y-93850136D01*
X162248874Y-93886453D01*
X162198557Y-93899057D01*
X162148773Y-93884488D01*
X162113190Y-93846745D01*
X162059757Y-93746781D01*
X162052685Y-93733550D01*
X161921410Y-93573590D01*
X161761450Y-93442315D01*
X161578954Y-93344768D01*
X161578953Y-93344767D01*
X161578952Y-93344767D01*
X161380933Y-93284699D01*
X161175000Y-93264416D01*
X160969066Y-93284699D01*
X160771047Y-93344767D01*
X160588549Y-93442315D01*
X160428590Y-93573590D01*
X160297315Y-93733549D01*
X160199767Y-93916047D01*
X160139699Y-94114066D01*
X160119416Y-94319999D01*
X160139699Y-94525933D01*
X160177781Y-94651472D01*
X160199768Y-94723954D01*
X160297315Y-94906450D01*
X160428590Y-95066410D01*
X160588550Y-95197685D01*
X160771046Y-95295232D01*
X160969066Y-95355300D01*
X161174999Y-95375583D01*
X161174999Y-95375582D01*
X161175000Y-95375583D01*
X161380934Y-95355300D01*
X161578954Y-95295232D01*
X161761450Y-95197685D01*
X161921410Y-95066410D01*
X162052685Y-94906450D01*
X162113190Y-94793255D01*
X162148773Y-94755512D01*
X162198557Y-94740943D01*
X162248874Y-94753547D01*
X162285911Y-94789864D01*
X162299500Y-94839924D01*
X162299500Y-96340076D01*
X162285911Y-96390136D01*
X162248874Y-96426453D01*
X162198557Y-96439057D01*
X162148773Y-96424488D01*
X162113190Y-96386745D01*
X162052684Y-96273549D01*
X161921410Y-96113590D01*
X161761450Y-95982315D01*
X161578954Y-95884768D01*
X161578953Y-95884767D01*
X161578952Y-95884767D01*
X161380933Y-95824699D01*
X161175000Y-95804416D01*
X160969066Y-95824699D01*
X160771047Y-95884767D01*
X160588549Y-95982315D01*
X160428590Y-96113590D01*
X160297315Y-96273549D01*
X160199767Y-96456047D01*
X160139699Y-96654066D01*
X160119416Y-96860000D01*
X160139699Y-97065933D01*
X160199767Y-97263952D01*
X160199768Y-97263954D01*
X160297315Y-97446450D01*
X160428590Y-97606410D01*
X160588550Y-97737685D01*
X160771046Y-97835232D01*
X160969066Y-97895300D01*
X161175000Y-97915583D01*
X161380934Y-97895300D01*
X161578954Y-97835232D01*
X161761450Y-97737685D01*
X161921410Y-97606410D01*
X162052685Y-97446450D01*
X162113190Y-97333255D01*
X162148773Y-97295512D01*
X162198557Y-97280943D01*
X162248874Y-97293547D01*
X162285911Y-97329864D01*
X162299500Y-97379924D01*
X162299500Y-98880076D01*
X162285911Y-98930136D01*
X162248874Y-98966453D01*
X162198557Y-98979057D01*
X162148773Y-98964488D01*
X162113190Y-98926745D01*
X162052684Y-98813549D01*
X161921410Y-98653590D01*
X161761450Y-98522315D01*
X161578954Y-98424768D01*
X161578953Y-98424767D01*
X161578952Y-98424767D01*
X161380933Y-98364699D01*
X161174999Y-98344416D01*
X160969066Y-98364699D01*
X160771047Y-98424767D01*
X160588549Y-98522315D01*
X160428590Y-98653590D01*
X160297315Y-98813549D01*
X160199767Y-98996047D01*
X160139699Y-99194066D01*
X160119416Y-99399999D01*
X160139699Y-99605933D01*
X160199767Y-99803952D01*
X160199768Y-99803954D01*
X160297315Y-99986450D01*
X160428590Y-100146410D01*
X160588550Y-100277685D01*
X160771046Y-100375232D01*
X160969066Y-100435300D01*
X161175000Y-100455583D01*
X161380934Y-100435300D01*
X161578954Y-100375232D01*
X161761450Y-100277685D01*
X161921410Y-100146410D01*
X162052685Y-99986450D01*
X162113190Y-99873255D01*
X162148773Y-99835512D01*
X162198557Y-99820943D01*
X162248874Y-99833547D01*
X162285911Y-99869864D01*
X162299500Y-99919924D01*
X162299500Y-101420076D01*
X162285911Y-101470136D01*
X162248874Y-101506453D01*
X162198557Y-101519057D01*
X162148773Y-101504488D01*
X162113190Y-101466745D01*
X162082435Y-101409208D01*
X162052685Y-101353550D01*
X161921410Y-101193590D01*
X161761450Y-101062315D01*
X161578954Y-100964768D01*
X161578953Y-100964767D01*
X161578952Y-100964767D01*
X161380933Y-100904699D01*
X161175000Y-100884416D01*
X160969066Y-100904699D01*
X160771047Y-100964767D01*
X160588549Y-101062315D01*
X160428590Y-101193590D01*
X160297315Y-101353549D01*
X160199767Y-101536047D01*
X160139699Y-101734066D01*
X160119416Y-101940000D01*
X160139699Y-102145933D01*
X160170291Y-102246781D01*
X160199768Y-102343954D01*
X160297315Y-102526450D01*
X160428590Y-102686410D01*
X160588550Y-102817685D01*
X160771046Y-102915232D01*
X160948970Y-102969204D01*
X160969066Y-102975300D01*
X161174999Y-102995583D01*
X161174999Y-102995582D01*
X161175000Y-102995583D01*
X161380934Y-102975300D01*
X161578954Y-102915232D01*
X161761450Y-102817685D01*
X161921410Y-102686410D01*
X162052685Y-102526450D01*
X162113190Y-102413255D01*
X162148773Y-102375512D01*
X162198557Y-102360943D01*
X162248874Y-102373547D01*
X162285911Y-102409864D01*
X162299500Y-102459924D01*
X162299500Y-103961136D01*
X162285911Y-104011196D01*
X162248873Y-104047513D01*
X162198556Y-104060117D01*
X162148773Y-104045547D01*
X162113190Y-104007804D01*
X162052269Y-103893829D01*
X161921054Y-103733945D01*
X161761170Y-103602730D01*
X161578763Y-103505231D01*
X161425000Y-103458589D01*
X161425000Y-105501411D01*
X161578763Y-105454768D01*
X161761170Y-105357269D01*
X161921054Y-105226054D01*
X162052269Y-105066170D01*
X162113190Y-104952196D01*
X162148773Y-104914453D01*
X162198556Y-104899883D01*
X162248873Y-104912487D01*
X162285911Y-104948804D01*
X162299500Y-104998864D01*
X162299500Y-106500076D01*
X162285911Y-106550136D01*
X162248874Y-106586453D01*
X162198557Y-106599057D01*
X162148773Y-106584488D01*
X162113190Y-106546745D01*
X162052684Y-106433549D01*
X161921410Y-106273590D01*
X161761450Y-106142315D01*
X161578954Y-106044768D01*
X161578953Y-106044767D01*
X161578952Y-106044767D01*
X161380933Y-105984699D01*
X161175000Y-105964416D01*
X160969066Y-105984699D01*
X160771047Y-106044767D01*
X160588549Y-106142315D01*
X160428590Y-106273590D01*
X160297315Y-106433549D01*
X160199767Y-106616047D01*
X160139699Y-106814066D01*
X160119416Y-107020000D01*
X160139699Y-107225933D01*
X160199767Y-107423952D01*
X160199768Y-107423954D01*
X160297315Y-107606450D01*
X160428590Y-107766410D01*
X160588550Y-107897685D01*
X160771046Y-107995232D01*
X160969066Y-108055300D01*
X161175000Y-108075583D01*
X161380934Y-108055300D01*
X161578954Y-107995232D01*
X161761450Y-107897685D01*
X161921410Y-107766410D01*
X162052685Y-107606450D01*
X162113190Y-107493255D01*
X162148773Y-107455512D01*
X162198557Y-107440943D01*
X162248874Y-107453547D01*
X162285911Y-107489864D01*
X162299500Y-107539924D01*
X162299500Y-109040076D01*
X162285911Y-109090136D01*
X162248874Y-109126453D01*
X162198557Y-109139057D01*
X162148773Y-109124488D01*
X162113190Y-109086745D01*
X162052684Y-108973549D01*
X161921410Y-108813590D01*
X161761450Y-108682315D01*
X161578954Y-108584768D01*
X161578953Y-108584767D01*
X161578952Y-108584767D01*
X161380933Y-108524699D01*
X161175000Y-108504416D01*
X160969066Y-108524699D01*
X160771047Y-108584767D01*
X160588549Y-108682315D01*
X160428590Y-108813590D01*
X160297315Y-108973549D01*
X160199767Y-109156047D01*
X160139699Y-109354066D01*
X160119416Y-109560000D01*
X160139699Y-109765933D01*
X160199767Y-109963952D01*
X160199768Y-109963954D01*
X160297315Y-110146450D01*
X160428590Y-110306410D01*
X160588550Y-110437685D01*
X160771046Y-110535232D01*
X160969066Y-110595300D01*
X161175000Y-110615583D01*
X161380934Y-110595300D01*
X161578954Y-110535232D01*
X161761450Y-110437685D01*
X161921410Y-110306410D01*
X162052685Y-110146450D01*
X162113190Y-110033255D01*
X162148773Y-109995512D01*
X162198557Y-109980943D01*
X162248874Y-109993547D01*
X162285911Y-110029864D01*
X162299500Y-110079924D01*
X162299500Y-111580076D01*
X162285911Y-111630136D01*
X162248874Y-111666453D01*
X162198557Y-111679057D01*
X162148773Y-111664488D01*
X162113190Y-111626745D01*
X162052684Y-111513549D01*
X161921410Y-111353590D01*
X161761450Y-111222315D01*
X161578954Y-111124768D01*
X161578953Y-111124767D01*
X161578952Y-111124767D01*
X161380933Y-111064699D01*
X161175000Y-111044416D01*
X160969066Y-111064699D01*
X160771047Y-111124767D01*
X160588549Y-111222315D01*
X160428590Y-111353590D01*
X160297315Y-111513549D01*
X160199767Y-111696047D01*
X160139699Y-111894066D01*
X160119416Y-112100000D01*
X160139699Y-112305933D01*
X160199767Y-112503952D01*
X160199768Y-112503954D01*
X160297315Y-112686450D01*
X160428590Y-112846410D01*
X160588550Y-112977685D01*
X160771046Y-113075232D01*
X160969066Y-113135300D01*
X161175000Y-113155583D01*
X161380934Y-113135300D01*
X161578954Y-113075232D01*
X161761450Y-112977685D01*
X161921410Y-112846410D01*
X162052685Y-112686450D01*
X162113190Y-112573255D01*
X162148773Y-112535512D01*
X162198557Y-112520943D01*
X162248874Y-112533547D01*
X162285911Y-112569864D01*
X162299500Y-112619924D01*
X162299500Y-114120076D01*
X162285911Y-114170136D01*
X162248874Y-114206453D01*
X162198557Y-114219057D01*
X162148773Y-114204488D01*
X162113190Y-114166745D01*
X162061048Y-114069196D01*
X162052685Y-114053550D01*
X161921410Y-113893590D01*
X161761450Y-113762315D01*
X161578954Y-113664768D01*
X161578953Y-113664767D01*
X161578952Y-113664767D01*
X161380933Y-113604699D01*
X161175000Y-113584416D01*
X160969066Y-113604699D01*
X160771047Y-113664767D01*
X160588549Y-113762315D01*
X160428590Y-113893590D01*
X160297315Y-114053549D01*
X160199767Y-114236047D01*
X160139699Y-114434066D01*
X160119416Y-114640000D01*
X160139699Y-114845933D01*
X160199767Y-115043952D01*
X160199768Y-115043954D01*
X160297315Y-115226450D01*
X160428590Y-115386410D01*
X160588550Y-115517685D01*
X160771046Y-115615232D01*
X160969066Y-115675300D01*
X161175000Y-115695583D01*
X161380934Y-115675300D01*
X161578954Y-115615232D01*
X161761450Y-115517685D01*
X161921410Y-115386410D01*
X162052685Y-115226450D01*
X162113190Y-115113255D01*
X162148773Y-115075512D01*
X162198557Y-115060943D01*
X162248874Y-115073547D01*
X162285911Y-115109864D01*
X162299500Y-115159924D01*
X162299500Y-116661136D01*
X162285911Y-116711196D01*
X162248873Y-116747513D01*
X162198556Y-116760117D01*
X162148773Y-116745547D01*
X162113190Y-116707804D01*
X162052269Y-116593829D01*
X161921054Y-116433945D01*
X161761170Y-116302730D01*
X161578763Y-116205231D01*
X161425000Y-116158588D01*
X161425000Y-118201411D01*
X161578763Y-118154768D01*
X161761170Y-118057269D01*
X161921054Y-117926054D01*
X162052269Y-117766170D01*
X162113190Y-117652196D01*
X162148773Y-117614453D01*
X162198556Y-117599883D01*
X162248873Y-117612487D01*
X162285911Y-117648804D01*
X162299500Y-117698864D01*
X162299500Y-119200076D01*
X162285911Y-119250136D01*
X162248874Y-119286453D01*
X162198557Y-119299057D01*
X162148773Y-119284488D01*
X162113190Y-119246745D01*
X162052684Y-119133549D01*
X161921410Y-118973590D01*
X161761450Y-118842315D01*
X161578954Y-118744768D01*
X161578953Y-118744767D01*
X161578952Y-118744767D01*
X161380933Y-118684699D01*
X161175000Y-118664416D01*
X160969066Y-118684699D01*
X160771047Y-118744767D01*
X160588549Y-118842315D01*
X160428590Y-118973590D01*
X160297315Y-119133549D01*
X160199767Y-119316047D01*
X160139699Y-119514066D01*
X160119416Y-119720000D01*
X160139699Y-119925933D01*
X160199767Y-120123952D01*
X160199768Y-120123954D01*
X160297315Y-120306450D01*
X160428590Y-120466410D01*
X160588550Y-120597685D01*
X160771046Y-120695232D01*
X160969066Y-120755300D01*
X161175000Y-120775583D01*
X161380934Y-120755300D01*
X161578954Y-120695232D01*
X161761450Y-120597685D01*
X161921410Y-120466410D01*
X162052685Y-120306450D01*
X162113190Y-120193255D01*
X162148773Y-120155512D01*
X162198557Y-120140943D01*
X162248874Y-120153547D01*
X162285911Y-120189864D01*
X162299500Y-120239924D01*
X162299500Y-121740076D01*
X162285911Y-121790136D01*
X162248874Y-121826453D01*
X162198557Y-121839057D01*
X162148773Y-121824488D01*
X162113190Y-121786745D01*
X162082435Y-121729208D01*
X162052685Y-121673550D01*
X161921410Y-121513590D01*
X161761450Y-121382315D01*
X161578954Y-121284768D01*
X161578953Y-121284767D01*
X161578952Y-121284767D01*
X161380933Y-121224699D01*
X161175000Y-121204416D01*
X160969066Y-121224699D01*
X160771047Y-121284767D01*
X160588549Y-121382315D01*
X160428590Y-121513590D01*
X160297315Y-121673549D01*
X160199767Y-121856047D01*
X160139699Y-122054066D01*
X160119416Y-122259999D01*
X160139699Y-122465933D01*
X160199767Y-122663952D01*
X160199768Y-122663954D01*
X160297315Y-122846450D01*
X160428590Y-123006410D01*
X160588550Y-123137685D01*
X160771046Y-123235232D01*
X160969066Y-123295300D01*
X161175000Y-123315583D01*
X161380934Y-123295300D01*
X161578954Y-123235232D01*
X161761450Y-123137685D01*
X161921410Y-123006410D01*
X162052685Y-122846450D01*
X162113190Y-122733255D01*
X162148773Y-122695512D01*
X162198557Y-122680943D01*
X162248874Y-122693547D01*
X162285911Y-122729864D01*
X162299500Y-122779924D01*
X162299500Y-124700500D01*
X162286237Y-124750000D01*
X162250000Y-124786237D01*
X162200500Y-124799500D01*
X137799500Y-124799500D01*
X137750000Y-124786237D01*
X137713763Y-124750000D01*
X137700500Y-124700500D01*
X137700500Y-122509630D01*
X137716121Y-122456255D01*
X137758053Y-122419724D01*
X137813064Y-122411564D01*
X137863796Y-122434350D01*
X137894237Y-122480892D01*
X137949767Y-122663952D01*
X137949768Y-122663954D01*
X138047315Y-122846450D01*
X138178590Y-123006410D01*
X138338550Y-123137685D01*
X138521046Y-123235232D01*
X138719066Y-123295300D01*
X138925000Y-123315583D01*
X139130934Y-123295300D01*
X139328954Y-123235232D01*
X139511450Y-123137685D01*
X139671410Y-123006410D01*
X139802685Y-122846450D01*
X139900232Y-122663954D01*
X139960300Y-122465934D01*
X139980583Y-122260000D01*
X139960300Y-122054066D01*
X139900232Y-121856046D01*
X139802685Y-121673550D01*
X139758489Y-121619697D01*
X142530000Y-121619697D01*
X142541604Y-121678036D01*
X142585807Y-121744192D01*
X142651963Y-121788395D01*
X142710303Y-121800000D01*
X143329999Y-121800000D01*
X143330000Y-121799999D01*
X143830000Y-121799999D01*
X143830001Y-121800000D01*
X144449697Y-121800000D01*
X144508036Y-121788395D01*
X144574192Y-121744192D01*
X144618395Y-121678036D01*
X144630000Y-121619697D01*
X144630000Y-121469747D01*
X146849500Y-121469747D01*
X146861133Y-121528231D01*
X146905447Y-121594552D01*
X146949762Y-121624162D01*
X146971769Y-121638867D01*
X147030252Y-121650500D01*
X149469747Y-121650500D01*
X149469748Y-121650500D01*
X149528231Y-121638867D01*
X149594552Y-121594552D01*
X149638867Y-121528231D01*
X149650500Y-121469748D01*
X149650500Y-120250000D01*
X150344700Y-120250000D01*
X150363866Y-120481305D01*
X150393338Y-120597685D01*
X150420844Y-120706304D01*
X150442336Y-120755300D01*
X150514076Y-120918849D01*
X150641021Y-121113153D01*
X150798216Y-121283913D01*
X150981374Y-121426470D01*
X151185497Y-121536936D01*
X151405019Y-121612298D01*
X151633951Y-121650500D01*
X151866047Y-121650500D01*
X151866049Y-121650500D01*
X152050641Y-121619697D01*
X155280000Y-121619697D01*
X155291604Y-121678036D01*
X155335807Y-121744192D01*
X155401963Y-121788395D01*
X155460303Y-121800000D01*
X156079999Y-121800000D01*
X156080000Y-121799999D01*
X156580000Y-121799999D01*
X156580001Y-121800000D01*
X157199697Y-121800000D01*
X157258036Y-121788395D01*
X157324192Y-121744192D01*
X157368395Y-121678036D01*
X157380000Y-121619697D01*
X157380000Y-121000001D01*
X157379999Y-121000000D01*
X156580001Y-121000000D01*
X156580000Y-121000001D01*
X156580000Y-121799999D01*
X156080000Y-121799999D01*
X156080000Y-121000001D01*
X156079999Y-121000000D01*
X155280001Y-121000000D01*
X155280000Y-121000001D01*
X155280000Y-121619697D01*
X152050641Y-121619697D01*
X152094981Y-121612298D01*
X152314503Y-121536936D01*
X152518626Y-121426470D01*
X152701784Y-121283913D01*
X152858979Y-121113153D01*
X152985924Y-120918849D01*
X153079157Y-120706300D01*
X153131400Y-120499999D01*
X155280000Y-120499999D01*
X155280001Y-120500000D01*
X156079999Y-120500000D01*
X156080000Y-120499999D01*
X156580000Y-120499999D01*
X156580001Y-120500000D01*
X157379999Y-120500000D01*
X157380000Y-120499999D01*
X157380000Y-119880303D01*
X157368395Y-119821963D01*
X157324192Y-119755807D01*
X157258036Y-119711604D01*
X157199697Y-119700000D01*
X156580001Y-119700000D01*
X156580000Y-119700001D01*
X156580000Y-120499999D01*
X156080000Y-120499999D01*
X156080000Y-119700001D01*
X156079999Y-119700000D01*
X155460303Y-119700000D01*
X155401963Y-119711604D01*
X155335807Y-119755807D01*
X155291604Y-119821963D01*
X155280000Y-119880303D01*
X155280000Y-120499999D01*
X153131400Y-120499999D01*
X153136134Y-120481305D01*
X153155300Y-120250000D01*
X153136134Y-120018695D01*
X153079157Y-119793700D01*
X152985924Y-119581151D01*
X152858979Y-119386847D01*
X152701784Y-119216087D01*
X152518626Y-119073530D01*
X152314503Y-118963064D01*
X152314502Y-118963063D01*
X152314501Y-118963063D01*
X152094981Y-118887702D01*
X152094980Y-118887701D01*
X151866049Y-118849500D01*
X151633951Y-118849500D01*
X151481329Y-118874967D01*
X151405018Y-118887702D01*
X151185498Y-118963063D01*
X150981373Y-119073530D01*
X150798217Y-119216086D01*
X150641021Y-119386846D01*
X150514073Y-119581156D01*
X150420844Y-119793695D01*
X150398912Y-119880303D01*
X150363866Y-120018695D01*
X150344700Y-120250000D01*
X149650500Y-120250000D01*
X149650500Y-119030252D01*
X149638867Y-118971769D01*
X149624162Y-118949761D01*
X149594552Y-118905447D01*
X149528231Y-118861133D01*
X149469748Y-118849500D01*
X147030252Y-118849500D01*
X147001010Y-118855316D01*
X146971768Y-118861133D01*
X146905447Y-118905447D01*
X146861133Y-118971768D01*
X146849500Y-119030253D01*
X146849500Y-121469747D01*
X144630000Y-121469747D01*
X144630000Y-121000001D01*
X144629999Y-121000000D01*
X143830001Y-121000000D01*
X143830000Y-121000001D01*
X143830000Y-121799999D01*
X143330000Y-121799999D01*
X143330000Y-121000001D01*
X143329999Y-121000000D01*
X142530001Y-121000000D01*
X142530000Y-121000001D01*
X142530000Y-121619697D01*
X139758489Y-121619697D01*
X139671410Y-121513590D01*
X139511450Y-121382315D01*
X139328954Y-121284768D01*
X139328953Y-121284767D01*
X139328952Y-121284767D01*
X139130933Y-121224699D01*
X138925000Y-121204416D01*
X138719066Y-121224699D01*
X138521047Y-121284767D01*
X138338549Y-121382315D01*
X138178590Y-121513590D01*
X138047315Y-121673549D01*
X137949767Y-121856047D01*
X137894237Y-122039108D01*
X137863796Y-122085650D01*
X137813064Y-122108436D01*
X137758053Y-122100276D01*
X137716121Y-122063745D01*
X137700500Y-122010370D01*
X137700500Y-119969630D01*
X137716121Y-119916255D01*
X137758053Y-119879724D01*
X137813064Y-119871564D01*
X137863796Y-119894350D01*
X137894237Y-119940892D01*
X137949767Y-120123952D01*
X137949768Y-120123954D01*
X138047315Y-120306450D01*
X138178590Y-120466410D01*
X138338550Y-120597685D01*
X138521046Y-120695232D01*
X138719066Y-120755300D01*
X138925000Y-120775583D01*
X139130934Y-120755300D01*
X139328954Y-120695232D01*
X139511450Y-120597685D01*
X139630481Y-120499999D01*
X142530000Y-120499999D01*
X142530001Y-120500000D01*
X143329999Y-120500000D01*
X143330000Y-120499999D01*
X143830000Y-120499999D01*
X143830001Y-120500000D01*
X144629999Y-120500000D01*
X144630000Y-120499999D01*
X144630000Y-119880303D01*
X144618395Y-119821963D01*
X144574192Y-119755807D01*
X144508036Y-119711604D01*
X144449697Y-119700000D01*
X143830001Y-119700000D01*
X143830000Y-119700001D01*
X143830000Y-120499999D01*
X143330000Y-120499999D01*
X143330000Y-119700001D01*
X143329999Y-119700000D01*
X142710303Y-119700000D01*
X142651963Y-119711604D01*
X142585807Y-119755807D01*
X142541604Y-119821963D01*
X142530000Y-119880303D01*
X142530000Y-120499999D01*
X139630481Y-120499999D01*
X139671410Y-120466410D01*
X139802685Y-120306450D01*
X139900232Y-120123954D01*
X139960300Y-119925934D01*
X139980583Y-119720000D01*
X139960300Y-119514066D01*
X139900232Y-119316046D01*
X139802685Y-119133550D01*
X139671410Y-118973590D01*
X139511450Y-118842315D01*
X139328954Y-118744768D01*
X139328953Y-118744767D01*
X139328952Y-118744767D01*
X139130933Y-118684699D01*
X138925000Y-118664416D01*
X138719066Y-118684699D01*
X138521047Y-118744767D01*
X138338549Y-118842315D01*
X138178590Y-118973590D01*
X138047315Y-119133549D01*
X137949767Y-119316047D01*
X137894237Y-119499108D01*
X137863796Y-119545650D01*
X137813064Y-119568436D01*
X137758053Y-119560276D01*
X137716121Y-119523745D01*
X137700500Y-119470370D01*
X137700500Y-118209999D01*
X142524416Y-118209999D01*
X142544699Y-118415933D01*
X142604767Y-118613952D01*
X142604768Y-118613954D01*
X142702315Y-118796450D01*
X142833590Y-118956410D01*
X142993550Y-119087685D01*
X143176046Y-119185232D01*
X143374066Y-119245300D01*
X143580000Y-119265583D01*
X143785934Y-119245300D01*
X143983954Y-119185232D01*
X144166450Y-119087685D01*
X144326410Y-118956410D01*
X144457685Y-118796450D01*
X144555232Y-118613954D01*
X144615300Y-118415934D01*
X144635583Y-118210000D01*
X144635583Y-118209999D01*
X155274416Y-118209999D01*
X155294699Y-118415933D01*
X155354767Y-118613952D01*
X155354768Y-118613954D01*
X155452315Y-118796450D01*
X155583590Y-118956410D01*
X155743550Y-119087685D01*
X155926046Y-119185232D01*
X156124066Y-119245300D01*
X156330000Y-119265583D01*
X156535934Y-119245300D01*
X156733954Y-119185232D01*
X156916450Y-119087685D01*
X157076410Y-118956410D01*
X157207685Y-118796450D01*
X157305232Y-118613954D01*
X157365300Y-118415934D01*
X157385583Y-118210000D01*
X157365300Y-118004066D01*
X157305232Y-117806046D01*
X157207685Y-117623550D01*
X157076410Y-117463590D01*
X157035480Y-117430000D01*
X160153589Y-117430000D01*
X160200231Y-117583763D01*
X160297730Y-117766170D01*
X160428945Y-117926054D01*
X160588829Y-118057269D01*
X160771236Y-118154768D01*
X160924999Y-118201411D01*
X160925000Y-118201411D01*
X160925000Y-117430001D01*
X160924999Y-117430000D01*
X160153589Y-117430000D01*
X157035480Y-117430000D01*
X156916450Y-117332315D01*
X156733954Y-117234768D01*
X156733953Y-117234767D01*
X156733952Y-117234767D01*
X156535933Y-117174699D01*
X156330000Y-117154416D01*
X156124066Y-117174699D01*
X155926047Y-117234767D01*
X155743549Y-117332315D01*
X155583590Y-117463590D01*
X155452315Y-117623549D01*
X155354767Y-117806047D01*
X155294699Y-118004066D01*
X155274416Y-118209999D01*
X144635583Y-118209999D01*
X144615300Y-118004066D01*
X144555232Y-117806046D01*
X144457685Y-117623550D01*
X144326410Y-117463590D01*
X144166450Y-117332315D01*
X143983954Y-117234768D01*
X143983953Y-117234767D01*
X143983952Y-117234767D01*
X143785933Y-117174699D01*
X143580000Y-117154416D01*
X143374066Y-117174699D01*
X143176047Y-117234767D01*
X142993549Y-117332315D01*
X142833590Y-117463590D01*
X142702315Y-117623549D01*
X142604767Y-117806047D01*
X142544699Y-118004066D01*
X142524416Y-118209999D01*
X137700500Y-118209999D01*
X137700500Y-117427910D01*
X137716121Y-117374535D01*
X137758053Y-117338004D01*
X137813064Y-117329844D01*
X137863795Y-117352630D01*
X137894237Y-117399172D01*
X137950231Y-117583763D01*
X138047730Y-117766170D01*
X138178945Y-117926054D01*
X138338829Y-118057269D01*
X138521236Y-118154768D01*
X138674999Y-118201411D01*
X138675000Y-118201411D01*
X139175000Y-118201411D01*
X139328763Y-118154768D01*
X139511170Y-118057269D01*
X139671054Y-117926054D01*
X139802269Y-117766170D01*
X139899768Y-117583763D01*
X139946411Y-117430000D01*
X139175001Y-117430000D01*
X139175000Y-117430001D01*
X139175000Y-118201411D01*
X138675000Y-118201411D01*
X138675000Y-116158589D01*
X138674999Y-116158588D01*
X139175000Y-116158588D01*
X139175000Y-116929999D01*
X139175001Y-116930000D01*
X139946411Y-116930000D01*
X139946411Y-116929999D01*
X160153588Y-116929999D01*
X160153589Y-116930000D01*
X160924999Y-116930000D01*
X160925000Y-116929999D01*
X160925000Y-116158589D01*
X160924999Y-116158588D01*
X160771236Y-116205231D01*
X160588829Y-116302730D01*
X160428945Y-116433945D01*
X160297730Y-116593829D01*
X160200231Y-116776236D01*
X160153588Y-116929999D01*
X139946411Y-116929999D01*
X139899768Y-116776236D01*
X139802269Y-116593829D01*
X139671054Y-116433945D01*
X139511170Y-116302730D01*
X139328763Y-116205231D01*
X139175000Y-116158588D01*
X138674999Y-116158588D01*
X138521236Y-116205231D01*
X138338829Y-116302730D01*
X138178945Y-116433945D01*
X138047730Y-116593829D01*
X137950231Y-116776236D01*
X137894237Y-116960828D01*
X137863795Y-117007370D01*
X137813064Y-117030156D01*
X137758053Y-117021996D01*
X137716121Y-116985465D01*
X137700500Y-116932090D01*
X137700500Y-114889630D01*
X137716121Y-114836255D01*
X137758053Y-114799724D01*
X137813064Y-114791564D01*
X137863796Y-114814350D01*
X137894237Y-114860892D01*
X137949767Y-115043952D01*
X137949768Y-115043954D01*
X138047315Y-115226450D01*
X138178590Y-115386410D01*
X138338550Y-115517685D01*
X138521046Y-115615232D01*
X138719066Y-115675300D01*
X138925000Y-115695583D01*
X139130934Y-115675300D01*
X139328954Y-115615232D01*
X139511450Y-115517685D01*
X139671410Y-115386410D01*
X139802685Y-115226450D01*
X139900232Y-115043954D01*
X139960300Y-114845934D01*
X139980583Y-114640000D01*
X139966794Y-114500000D01*
X148149195Y-114500000D01*
X148170280Y-114633124D01*
X148170280Y-114633125D01*
X148170281Y-114633126D01*
X148231472Y-114753220D01*
X148326780Y-114848528D01*
X148446874Y-114909719D01*
X148580000Y-114930804D01*
X148713126Y-114909719D01*
X148833220Y-114848528D01*
X148928528Y-114753220D01*
X148989719Y-114633126D01*
X149010804Y-114500000D01*
X150899195Y-114500000D01*
X150920280Y-114633124D01*
X150920280Y-114633125D01*
X150920281Y-114633126D01*
X150981472Y-114753220D01*
X151076780Y-114848528D01*
X151196874Y-114909719D01*
X151330000Y-114930804D01*
X151463126Y-114909719D01*
X151583220Y-114848528D01*
X151678528Y-114753220D01*
X151739719Y-114633126D01*
X151760804Y-114500000D01*
X151739719Y-114366874D01*
X151678528Y-114246780D01*
X151583220Y-114151472D01*
X151463126Y-114090281D01*
X151463125Y-114090280D01*
X151463124Y-114090280D01*
X151330000Y-114069195D01*
X151196875Y-114090280D01*
X151076781Y-114151471D01*
X150981471Y-114246781D01*
X150920280Y-114366875D01*
X150899195Y-114500000D01*
X149010804Y-114500000D01*
X148989719Y-114366874D01*
X148928528Y-114246780D01*
X148833220Y-114151472D01*
X148713126Y-114090281D01*
X148713125Y-114090280D01*
X148713124Y-114090280D01*
X148580000Y-114069195D01*
X148446875Y-114090280D01*
X148326781Y-114151471D01*
X148231471Y-114246781D01*
X148170280Y-114366875D01*
X148149195Y-114500000D01*
X139966794Y-114500000D01*
X139960300Y-114434066D01*
X139900232Y-114236046D01*
X139802685Y-114053550D01*
X139671410Y-113893590D01*
X139511450Y-113762315D01*
X139328954Y-113664768D01*
X139328953Y-113664767D01*
X139328952Y-113664767D01*
X139130933Y-113604699D01*
X138925000Y-113584416D01*
X138719066Y-113604699D01*
X138521047Y-113664767D01*
X138338549Y-113762315D01*
X138178590Y-113893590D01*
X138047315Y-114053549D01*
X137949767Y-114236047D01*
X137894237Y-114419108D01*
X137863796Y-114465650D01*
X137813064Y-114488436D01*
X137758053Y-114480276D01*
X137716121Y-114443745D01*
X137700500Y-114390370D01*
X137700500Y-112349630D01*
X137716121Y-112296255D01*
X137758053Y-112259724D01*
X137813064Y-112251564D01*
X137863796Y-112274350D01*
X137894237Y-112320892D01*
X137949767Y-112503952D01*
X137949768Y-112503954D01*
X138047315Y-112686450D01*
X138178590Y-112846410D01*
X138338550Y-112977685D01*
X138521046Y-113075232D01*
X138719066Y-113135300D01*
X138925000Y-113155583D01*
X139130934Y-113135300D01*
X139328954Y-113075232D01*
X139511450Y-112977685D01*
X139671410Y-112846410D01*
X139802685Y-112686450D01*
X139900232Y-112503954D01*
X139960300Y-112305934D01*
X139980583Y-112100000D01*
X139960300Y-111894066D01*
X139900232Y-111696046D01*
X139802685Y-111513550D01*
X139671410Y-111353590D01*
X139511450Y-111222315D01*
X139328954Y-111124768D01*
X139328953Y-111124767D01*
X139328952Y-111124767D01*
X139130933Y-111064699D01*
X138925000Y-111044416D01*
X138719066Y-111064699D01*
X138521047Y-111124767D01*
X138338549Y-111222315D01*
X138178590Y-111353590D01*
X138047315Y-111513549D01*
X137949767Y-111696047D01*
X137894237Y-111879108D01*
X137863796Y-111925650D01*
X137813064Y-111948436D01*
X137758053Y-111940276D01*
X137716121Y-111903745D01*
X137700500Y-111850370D01*
X137700500Y-109809630D01*
X137716121Y-109756255D01*
X137758053Y-109719724D01*
X137813064Y-109711564D01*
X137863796Y-109734350D01*
X137894237Y-109780892D01*
X137949767Y-109963952D01*
X137949768Y-109963954D01*
X138047315Y-110146450D01*
X138178590Y-110306410D01*
X138338550Y-110437685D01*
X138521046Y-110535232D01*
X138719066Y-110595300D01*
X138925000Y-110615583D01*
X139130934Y-110595300D01*
X139328954Y-110535232D01*
X139511450Y-110437685D01*
X139671410Y-110306410D01*
X139802685Y-110146450D01*
X139900232Y-109963954D01*
X139960300Y-109765934D01*
X139980583Y-109560000D01*
X139960300Y-109354066D01*
X139900232Y-109156046D01*
X139802685Y-108973550D01*
X139671410Y-108813590D01*
X139511450Y-108682315D01*
X139328954Y-108584768D01*
X139328953Y-108584767D01*
X139328952Y-108584767D01*
X139130933Y-108524699D01*
X138925000Y-108504416D01*
X138719066Y-108524699D01*
X138521047Y-108584767D01*
X138338549Y-108682315D01*
X138178590Y-108813590D01*
X138047315Y-108973549D01*
X137949767Y-109156047D01*
X137894237Y-109339108D01*
X137863796Y-109385650D01*
X137813064Y-109408436D01*
X137758053Y-109400276D01*
X137716121Y-109363745D01*
X137700500Y-109310370D01*
X137700500Y-107269630D01*
X137716121Y-107216255D01*
X137758053Y-107179724D01*
X137813064Y-107171564D01*
X137863796Y-107194350D01*
X137894237Y-107240892D01*
X137949767Y-107423952D01*
X137949768Y-107423954D01*
X138047315Y-107606450D01*
X138178590Y-107766410D01*
X138338550Y-107897685D01*
X138521046Y-107995232D01*
X138719066Y-108055300D01*
X138925000Y-108075583D01*
X139130934Y-108055300D01*
X139328954Y-107995232D01*
X139511450Y-107897685D01*
X139671410Y-107766410D01*
X139802685Y-107606450D01*
X139900232Y-107423954D01*
X139960300Y-107225934D01*
X139980583Y-107020000D01*
X139960300Y-106814066D01*
X139900232Y-106616046D01*
X139802685Y-106433550D01*
X139671410Y-106273590D01*
X139511450Y-106142315D01*
X139328954Y-106044768D01*
X139328953Y-106044767D01*
X139328952Y-106044767D01*
X139130933Y-105984699D01*
X138925000Y-105964416D01*
X138719066Y-105984699D01*
X138521047Y-106044767D01*
X138338549Y-106142315D01*
X138178590Y-106273590D01*
X138047315Y-106433549D01*
X137949767Y-106616047D01*
X137894237Y-106799108D01*
X137863796Y-106845650D01*
X137813064Y-106868436D01*
X137758053Y-106860276D01*
X137716121Y-106823745D01*
X137700500Y-106770370D01*
X137700500Y-104727910D01*
X137716121Y-104674535D01*
X137758053Y-104638004D01*
X137813064Y-104629844D01*
X137863795Y-104652630D01*
X137894237Y-104699172D01*
X137950231Y-104883763D01*
X138047730Y-105066170D01*
X138178945Y-105226054D01*
X138338829Y-105357269D01*
X138521236Y-105454768D01*
X138674999Y-105501411D01*
X138675000Y-105501411D01*
X139175000Y-105501411D01*
X139179651Y-105500000D01*
X149899195Y-105500000D01*
X149920280Y-105633124D01*
X149920280Y-105633125D01*
X149920281Y-105633126D01*
X149981472Y-105753220D01*
X150076780Y-105848528D01*
X150196874Y-105909719D01*
X150330000Y-105930804D01*
X150463126Y-105909719D01*
X150583220Y-105848528D01*
X150678528Y-105753220D01*
X150739719Y-105633126D01*
X150760804Y-105500000D01*
X150739719Y-105366874D01*
X150678528Y-105246780D01*
X150583220Y-105151472D01*
X150463126Y-105090281D01*
X150463125Y-105090280D01*
X150463124Y-105090280D01*
X150330000Y-105069195D01*
X150196875Y-105090280D01*
X150076781Y-105151471D01*
X149981471Y-105246781D01*
X149920280Y-105366875D01*
X149899195Y-105500000D01*
X139179651Y-105500000D01*
X139328763Y-105454768D01*
X139511170Y-105357269D01*
X139671054Y-105226054D01*
X139802269Y-105066170D01*
X139837638Y-105000000D01*
X145819195Y-105000000D01*
X145840280Y-105133124D01*
X145840280Y-105133125D01*
X145840281Y-105133126D01*
X145901472Y-105253220D01*
X145996780Y-105348528D01*
X146116874Y-105409719D01*
X146250000Y-105430804D01*
X146383126Y-105409719D01*
X146503220Y-105348528D01*
X146598528Y-105253220D01*
X146659719Y-105133126D01*
X146680804Y-105000000D01*
X146659719Y-104866874D01*
X146598528Y-104746780D01*
X146581748Y-104730000D01*
X160153589Y-104730000D01*
X160200231Y-104883763D01*
X160297730Y-105066170D01*
X160428945Y-105226054D01*
X160588829Y-105357269D01*
X160771236Y-105454768D01*
X160924999Y-105501411D01*
X160925000Y-105501411D01*
X160925000Y-104730001D01*
X160924999Y-104730000D01*
X160153589Y-104730000D01*
X146581748Y-104730000D01*
X146503220Y-104651472D01*
X146383126Y-104590281D01*
X146383125Y-104590280D01*
X146383124Y-104590280D01*
X146250000Y-104569195D01*
X146116875Y-104590280D01*
X145996781Y-104651471D01*
X145901471Y-104746781D01*
X145840280Y-104866875D01*
X145819195Y-105000000D01*
X139837638Y-105000000D01*
X139899768Y-104883763D01*
X139946411Y-104730000D01*
X139175001Y-104730000D01*
X139175000Y-104730001D01*
X139175000Y-105501411D01*
X138675000Y-105501411D01*
X138675000Y-103458589D01*
X138674999Y-103458588D01*
X139175000Y-103458588D01*
X139175000Y-104229999D01*
X139175001Y-104230000D01*
X139946411Y-104230000D01*
X139946411Y-104229999D01*
X139899768Y-104076236D01*
X139859018Y-103999999D01*
X147149195Y-103999999D01*
X147170280Y-104133124D01*
X147170280Y-104133125D01*
X147170281Y-104133126D01*
X147231472Y-104253220D01*
X147326780Y-104348528D01*
X147446874Y-104409719D01*
X147580000Y-104430804D01*
X147713126Y-104409719D01*
X147833220Y-104348528D01*
X147928528Y-104253220D01*
X147940360Y-104229999D01*
X160153588Y-104229999D01*
X160153589Y-104230000D01*
X160924999Y-104230000D01*
X160925000Y-104229999D01*
X160925000Y-103458589D01*
X160771236Y-103505231D01*
X160588829Y-103602730D01*
X160428945Y-103733945D01*
X160297730Y-103893829D01*
X160200231Y-104076236D01*
X160153588Y-104229999D01*
X147940360Y-104229999D01*
X147989719Y-104133126D01*
X148010804Y-104000000D01*
X147989719Y-103866874D01*
X147928528Y-103746780D01*
X147833220Y-103651472D01*
X147713126Y-103590281D01*
X147713125Y-103590280D01*
X147713124Y-103590280D01*
X147580000Y-103569195D01*
X147446875Y-103590280D01*
X147326781Y-103651471D01*
X147231471Y-103746781D01*
X147170280Y-103866875D01*
X147149195Y-103999999D01*
X139859018Y-103999999D01*
X139802269Y-103893829D01*
X139671054Y-103733945D01*
X139511170Y-103602730D01*
X139328763Y-103505231D01*
X139175000Y-103458588D01*
X138674999Y-103458588D01*
X138521236Y-103505231D01*
X138338829Y-103602730D01*
X138178945Y-103733945D01*
X138047730Y-103893829D01*
X137950231Y-104076236D01*
X137894237Y-104260828D01*
X137863795Y-104307370D01*
X137813064Y-104330156D01*
X137758053Y-104321996D01*
X137716121Y-104285465D01*
X137700500Y-104232090D01*
X137700500Y-103449999D01*
X142761695Y-103449999D01*
X142782780Y-103583124D01*
X142782780Y-103583125D01*
X142782781Y-103583126D01*
X142843972Y-103703220D01*
X142939280Y-103798528D01*
X143059374Y-103859719D01*
X143192500Y-103880804D01*
X143325626Y-103859719D01*
X143445720Y-103798528D01*
X143541028Y-103703220D01*
X143602219Y-103583126D01*
X143619718Y-103472635D01*
X143630370Y-103449999D01*
X143619719Y-103427364D01*
X143602219Y-103316875D01*
X143602219Y-103316874D01*
X143541028Y-103196780D01*
X143445720Y-103101472D01*
X143325626Y-103040281D01*
X143325625Y-103040280D01*
X143325624Y-103040280D01*
X143192500Y-103019195D01*
X143059375Y-103040280D01*
X142939281Y-103101471D01*
X142843971Y-103196781D01*
X142782780Y-103316875D01*
X142761695Y-103449999D01*
X137700500Y-103449999D01*
X137700500Y-102189630D01*
X137716121Y-102136255D01*
X137758053Y-102099724D01*
X137813064Y-102091564D01*
X137863796Y-102114350D01*
X137894237Y-102160892D01*
X137920291Y-102246780D01*
X137949768Y-102343954D01*
X138047315Y-102526450D01*
X138178590Y-102686410D01*
X138338550Y-102817685D01*
X138521046Y-102915232D01*
X138698970Y-102969204D01*
X138719066Y-102975300D01*
X138924999Y-102995583D01*
X138924999Y-102995582D01*
X138925000Y-102995583D01*
X139130934Y-102975300D01*
X139328954Y-102915232D01*
X139511450Y-102817685D01*
X139671410Y-102686410D01*
X139802685Y-102526450D01*
X139816823Y-102500000D01*
X143569195Y-102500000D01*
X143590280Y-102633124D01*
X143590280Y-102633125D01*
X143590281Y-102633126D01*
X143651472Y-102753220D01*
X143746780Y-102848528D01*
X143866874Y-102909719D01*
X143946409Y-102922316D01*
X144000894Y-102950062D01*
X144028689Y-103004525D01*
X144019188Y-103064928D01*
X143997082Y-103087099D01*
X144000368Y-103090385D01*
X143989281Y-103101471D01*
X143989280Y-103101472D01*
X143893971Y-103196780D01*
X143893971Y-103196781D01*
X143832780Y-103316875D01*
X143815281Y-103427364D01*
X143804629Y-103449999D01*
X143815281Y-103472635D01*
X143832780Y-103583124D01*
X143832780Y-103583125D01*
X143832781Y-103583126D01*
X143893972Y-103703220D01*
X143989280Y-103798528D01*
X144109374Y-103859719D01*
X144242500Y-103880804D01*
X144375626Y-103859719D01*
X144495720Y-103798528D01*
X144591028Y-103703220D01*
X144652219Y-103583126D01*
X144673304Y-103450000D01*
X144672162Y-103442792D01*
X149303259Y-103442792D01*
X149327802Y-103450000D01*
X149457201Y-103450000D01*
X149481739Y-103442793D01*
X149481738Y-103442792D01*
X150303259Y-103442792D01*
X150327802Y-103450000D01*
X150457201Y-103450000D01*
X150481739Y-103442793D01*
X150481738Y-103442792D01*
X151303259Y-103442792D01*
X151327802Y-103450000D01*
X151457201Y-103450000D01*
X151481739Y-103442793D01*
X151392499Y-103353553D01*
X151303259Y-103442792D01*
X150481738Y-103442792D01*
X150392499Y-103353553D01*
X150303259Y-103442792D01*
X149481738Y-103442792D01*
X149392499Y-103353553D01*
X149303259Y-103442792D01*
X144672162Y-103442792D01*
X144652219Y-103316875D01*
X144652219Y-103316874D01*
X144591028Y-103196780D01*
X144495720Y-103101472D01*
X144375626Y-103040281D01*
X144375625Y-103040280D01*
X144375624Y-103040280D01*
X144296091Y-103027684D01*
X144250893Y-103008123D01*
X144244593Y-102999999D01*
X148937872Y-102999999D01*
X148950577Y-103088367D01*
X148950578Y-103088367D01*
X149038946Y-103000000D01*
X149038945Y-102999999D01*
X149746053Y-102999999D01*
X149834421Y-103088367D01*
X149861236Y-103079443D01*
X149892500Y-103074377D01*
X149923764Y-103079443D01*
X149950578Y-103088367D01*
X150038946Y-103000000D01*
X150038945Y-102999999D01*
X150746053Y-102999999D01*
X150834421Y-103088367D01*
X150861236Y-103079443D01*
X150892500Y-103074377D01*
X150923764Y-103079443D01*
X150950578Y-103088367D01*
X151038946Y-103000000D01*
X151038945Y-102999999D01*
X151746053Y-102999999D01*
X151834421Y-103088367D01*
X151847127Y-102999999D01*
X151834421Y-102911630D01*
X151746053Y-102999999D01*
X151038945Y-102999999D01*
X150950576Y-102911630D01*
X150923763Y-102920555D01*
X150892500Y-102925621D01*
X150861237Y-102920555D01*
X150834421Y-102911630D01*
X150746053Y-102999999D01*
X150038945Y-102999999D01*
X149950576Y-102911630D01*
X149923763Y-102920555D01*
X149892500Y-102925621D01*
X149861237Y-102920555D01*
X149834421Y-102911630D01*
X149746053Y-102999999D01*
X149038945Y-102999999D01*
X148950577Y-102911631D01*
X148937872Y-102999999D01*
X144244593Y-102999999D01*
X144220713Y-102969204D01*
X144213020Y-102920560D01*
X144229717Y-102874227D01*
X144244086Y-102861569D01*
X144242132Y-102859615D01*
X144253217Y-102848529D01*
X144253220Y-102848528D01*
X144348528Y-102753220D01*
X144409719Y-102633126D01*
X144421744Y-102557205D01*
X149303258Y-102557205D01*
X149392500Y-102646447D01*
X149481739Y-102557206D01*
X149481739Y-102557205D01*
X150303258Y-102557205D01*
X150392500Y-102646447D01*
X150481739Y-102557206D01*
X150481739Y-102557205D01*
X151303258Y-102557205D01*
X151392500Y-102646447D01*
X151481739Y-102557206D01*
X151473387Y-102524484D01*
X151473387Y-102475518D01*
X151481738Y-102442792D01*
X151392499Y-102353553D01*
X151303258Y-102442793D01*
X151311610Y-102475519D01*
X151311610Y-102524482D01*
X151303258Y-102557205D01*
X150481739Y-102557205D01*
X150473387Y-102524484D01*
X150473387Y-102475518D01*
X150481738Y-102442792D01*
X150392499Y-102353553D01*
X150303258Y-102442793D01*
X150311610Y-102475519D01*
X150311610Y-102524482D01*
X150303258Y-102557205D01*
X149481739Y-102557205D01*
X149473387Y-102524484D01*
X149473387Y-102475518D01*
X149481738Y-102442792D01*
X149392499Y-102353553D01*
X149303258Y-102442793D01*
X149311610Y-102475519D01*
X149311610Y-102524482D01*
X149303258Y-102557205D01*
X144421744Y-102557205D01*
X144430804Y-102500000D01*
X144409719Y-102366874D01*
X144348528Y-102246780D01*
X144253220Y-102151472D01*
X144133126Y-102090281D01*
X144133125Y-102090280D01*
X144133124Y-102090280D01*
X144000000Y-102069195D01*
X143866875Y-102090280D01*
X143746781Y-102151471D01*
X143651471Y-102246781D01*
X143590280Y-102366875D01*
X143569195Y-102500000D01*
X139816823Y-102500000D01*
X139900232Y-102343954D01*
X139960300Y-102145934D01*
X139974674Y-101999999D01*
X148937872Y-101999999D01*
X148950577Y-102088367D01*
X148950578Y-102088367D01*
X149038946Y-102000000D01*
X149038945Y-101999999D01*
X149746053Y-101999999D01*
X149834421Y-102088367D01*
X149861236Y-102079443D01*
X149892500Y-102074377D01*
X149923764Y-102079443D01*
X149950578Y-102088367D01*
X150038946Y-102000000D01*
X150038945Y-101999999D01*
X150746053Y-101999999D01*
X150834421Y-102088367D01*
X150861236Y-102079443D01*
X150892500Y-102074377D01*
X150923764Y-102079443D01*
X150950578Y-102088367D01*
X151038946Y-102000000D01*
X151038945Y-101999999D01*
X151746053Y-101999999D01*
X151834421Y-102088367D01*
X151847127Y-101999999D01*
X151834421Y-101911630D01*
X151746053Y-101999999D01*
X151038945Y-101999999D01*
X150950576Y-101911630D01*
X150923763Y-101920555D01*
X150892500Y-101925621D01*
X150861237Y-101920555D01*
X150834421Y-101911630D01*
X150746053Y-101999999D01*
X150038945Y-101999999D01*
X149950576Y-101911630D01*
X149923763Y-101920555D01*
X149892500Y-101925621D01*
X149861237Y-101920555D01*
X149834421Y-101911630D01*
X149746053Y-101999999D01*
X149038945Y-101999999D01*
X148950577Y-101911631D01*
X148937872Y-101999999D01*
X139974674Y-101999999D01*
X139980583Y-101940000D01*
X139960300Y-101734066D01*
X139906650Y-101557205D01*
X149303258Y-101557205D01*
X149392500Y-101646447D01*
X149481739Y-101557206D01*
X149481739Y-101557205D01*
X150303258Y-101557205D01*
X150392500Y-101646447D01*
X150481739Y-101557206D01*
X150481739Y-101557205D01*
X151303258Y-101557205D01*
X151392500Y-101646447D01*
X151481739Y-101557206D01*
X151473387Y-101524484D01*
X151473387Y-101475518D01*
X151481738Y-101442792D01*
X151392499Y-101353553D01*
X151303258Y-101442793D01*
X151311610Y-101475519D01*
X151311610Y-101524482D01*
X151303258Y-101557205D01*
X150481739Y-101557205D01*
X150473387Y-101524484D01*
X150473387Y-101475518D01*
X150481738Y-101442792D01*
X150392499Y-101353553D01*
X150303258Y-101442793D01*
X150311610Y-101475519D01*
X150311610Y-101524482D01*
X150303258Y-101557205D01*
X149481739Y-101557205D01*
X149473387Y-101524484D01*
X149473387Y-101475518D01*
X149481738Y-101442792D01*
X149392499Y-101353553D01*
X149303258Y-101442793D01*
X149311610Y-101475519D01*
X149311610Y-101524482D01*
X149303258Y-101557205D01*
X139906650Y-101557205D01*
X139900232Y-101536046D01*
X139802685Y-101353550D01*
X139671410Y-101193590D01*
X139511450Y-101062315D01*
X139328954Y-100964768D01*
X139328953Y-100964767D01*
X139328952Y-100964767D01*
X139130933Y-100904699D01*
X138925000Y-100884416D01*
X138719066Y-100904699D01*
X138521047Y-100964767D01*
X138338549Y-101062315D01*
X138178590Y-101193590D01*
X138047315Y-101353549D01*
X137949767Y-101536047D01*
X137894237Y-101719108D01*
X137863796Y-101765650D01*
X137813064Y-101788436D01*
X137758053Y-101780276D01*
X137716121Y-101743745D01*
X137700500Y-101690370D01*
X137700500Y-100750000D01*
X143569195Y-100750000D01*
X143590280Y-100883124D01*
X143590280Y-100883125D01*
X143590281Y-100883126D01*
X143651472Y-101003220D01*
X143746780Y-101098528D01*
X143866874Y-101159719D01*
X144000000Y-101180804D01*
X144133126Y-101159719D01*
X144253220Y-101098528D01*
X144348528Y-101003220D01*
X144350169Y-100999999D01*
X148937872Y-100999999D01*
X148950577Y-101088367D01*
X148950578Y-101088367D01*
X149038946Y-101000000D01*
X149038945Y-100999999D01*
X149746053Y-100999999D01*
X149834421Y-101088367D01*
X149861236Y-101079443D01*
X149892500Y-101074377D01*
X149923764Y-101079443D01*
X149950578Y-101088367D01*
X150038946Y-101000000D01*
X150038945Y-100999999D01*
X150746053Y-100999999D01*
X150834421Y-101088367D01*
X150861236Y-101079443D01*
X150892500Y-101074377D01*
X150923764Y-101079443D01*
X150950578Y-101088367D01*
X151038946Y-101000000D01*
X151038945Y-100999999D01*
X151746053Y-100999999D01*
X151834421Y-101088367D01*
X151847127Y-100999999D01*
X151834421Y-100911630D01*
X151746053Y-100999999D01*
X151038945Y-100999999D01*
X150950576Y-100911630D01*
X150923763Y-100920555D01*
X150892500Y-100925621D01*
X150861237Y-100920555D01*
X150834421Y-100911630D01*
X150746053Y-100999999D01*
X150038945Y-100999999D01*
X149950576Y-100911630D01*
X149923763Y-100920555D01*
X149892500Y-100925621D01*
X149861237Y-100920555D01*
X149834421Y-100911630D01*
X149746053Y-100999999D01*
X149038945Y-100999999D01*
X148950577Y-100911631D01*
X148937872Y-100999999D01*
X144350169Y-100999999D01*
X144409719Y-100883126D01*
X144430804Y-100750000D01*
X144409719Y-100616874D01*
X144379317Y-100557206D01*
X149303258Y-100557206D01*
X149392500Y-100646447D01*
X149481739Y-100557206D01*
X150303258Y-100557206D01*
X150392500Y-100646447D01*
X150481739Y-100557206D01*
X151303258Y-100557206D01*
X151392500Y-100646447D01*
X151481739Y-100557206D01*
X151481739Y-100557205D01*
X151457201Y-100550000D01*
X151327801Y-100550000D01*
X151303258Y-100557206D01*
X150481739Y-100557206D01*
X150481739Y-100557205D01*
X150457201Y-100550000D01*
X150327801Y-100550000D01*
X150303258Y-100557206D01*
X149481739Y-100557206D01*
X149481739Y-100557205D01*
X149457201Y-100550000D01*
X149327801Y-100550000D01*
X149303258Y-100557206D01*
X144379317Y-100557206D01*
X144350169Y-100500000D01*
X152819195Y-100500000D01*
X152840280Y-100633124D01*
X152840280Y-100633125D01*
X152840281Y-100633126D01*
X152901472Y-100753220D01*
X152996780Y-100848528D01*
X153116874Y-100909719D01*
X153250000Y-100930804D01*
X153383126Y-100909719D01*
X153503220Y-100848528D01*
X153598528Y-100753220D01*
X153659719Y-100633126D01*
X153680804Y-100500000D01*
X153659719Y-100366874D01*
X153598528Y-100246780D01*
X153503220Y-100151472D01*
X153383126Y-100090281D01*
X153383125Y-100090280D01*
X153383124Y-100090280D01*
X153250000Y-100069195D01*
X153116875Y-100090280D01*
X152996781Y-100151471D01*
X152901471Y-100246781D01*
X152840280Y-100366875D01*
X152819195Y-100500000D01*
X144350169Y-100500000D01*
X144348528Y-100496780D01*
X144253220Y-100401472D01*
X144133126Y-100340281D01*
X144133125Y-100340280D01*
X144133124Y-100340280D01*
X144000000Y-100319195D01*
X143866875Y-100340280D01*
X143746781Y-100401471D01*
X143651471Y-100496781D01*
X143590280Y-100616875D01*
X143569195Y-100750000D01*
X137700500Y-100750000D01*
X137700500Y-99649630D01*
X137716121Y-99596255D01*
X137758053Y-99559724D01*
X137813064Y-99551564D01*
X137863796Y-99574350D01*
X137894237Y-99620892D01*
X137932425Y-99746781D01*
X137949768Y-99803954D01*
X138047315Y-99986450D01*
X138178590Y-100146410D01*
X138338550Y-100277685D01*
X138521046Y-100375232D01*
X138719066Y-100435300D01*
X138925000Y-100455583D01*
X139130934Y-100435300D01*
X139328954Y-100375232D01*
X139511450Y-100277685D01*
X139671410Y-100146410D01*
X139791566Y-99999999D01*
X147319195Y-99999999D01*
X147340280Y-100133124D01*
X147340280Y-100133125D01*
X147340281Y-100133126D01*
X147401472Y-100253220D01*
X147496780Y-100348528D01*
X147616874Y-100409719D01*
X147750000Y-100430804D01*
X147883126Y-100409719D01*
X148003220Y-100348528D01*
X148098528Y-100253220D01*
X148159719Y-100133126D01*
X148180804Y-100000000D01*
X148159719Y-99866874D01*
X148098528Y-99746780D01*
X148003220Y-99651472D01*
X147883126Y-99590281D01*
X147883125Y-99590280D01*
X147883124Y-99590280D01*
X147750000Y-99569195D01*
X147616875Y-99590280D01*
X147496781Y-99651471D01*
X147401471Y-99746781D01*
X147340280Y-99866875D01*
X147319195Y-99999999D01*
X139791566Y-99999999D01*
X139802685Y-99986450D01*
X139900232Y-99803954D01*
X139960300Y-99605934D01*
X139980583Y-99400000D01*
X139960300Y-99194066D01*
X139900232Y-98996046D01*
X139802685Y-98813550D01*
X139671410Y-98653590D01*
X139511450Y-98522315D01*
X139328954Y-98424768D01*
X139328953Y-98424767D01*
X139328952Y-98424767D01*
X139130933Y-98364699D01*
X138924999Y-98344416D01*
X138719066Y-98364699D01*
X138521047Y-98424767D01*
X138338549Y-98522315D01*
X138178590Y-98653590D01*
X138047315Y-98813549D01*
X137949767Y-98996047D01*
X137894237Y-99179108D01*
X137863796Y-99225650D01*
X137813064Y-99248436D01*
X137758053Y-99240276D01*
X137716121Y-99203745D01*
X137700500Y-99150370D01*
X137700500Y-97109630D01*
X137716121Y-97056255D01*
X137758053Y-97019724D01*
X137813064Y-97011564D01*
X137863796Y-97034350D01*
X137894237Y-97080892D01*
X137949767Y-97263952D01*
X137949768Y-97263954D01*
X138047315Y-97446450D01*
X138178590Y-97606410D01*
X138338550Y-97737685D01*
X138521046Y-97835232D01*
X138719066Y-97895300D01*
X138925000Y-97915583D01*
X139130934Y-97895300D01*
X139328954Y-97835232D01*
X139511450Y-97737685D01*
X139671410Y-97606410D01*
X139802685Y-97446450D01*
X139900232Y-97263954D01*
X139960300Y-97065934D01*
X139980583Y-96860000D01*
X139960300Y-96654066D01*
X139900232Y-96456046D01*
X139802685Y-96273550D01*
X139671410Y-96113590D01*
X139511450Y-95982315D01*
X139328954Y-95884768D01*
X139328953Y-95884767D01*
X139328952Y-95884767D01*
X139130933Y-95824699D01*
X138925000Y-95804416D01*
X138719066Y-95824699D01*
X138521047Y-95884767D01*
X138338549Y-95982315D01*
X138178590Y-96113590D01*
X138047315Y-96273549D01*
X137949767Y-96456047D01*
X137894237Y-96639108D01*
X137863796Y-96685650D01*
X137813064Y-96708436D01*
X137758053Y-96700276D01*
X137716121Y-96663745D01*
X137700500Y-96610370D01*
X137700500Y-94569630D01*
X137716121Y-94516255D01*
X137758053Y-94479724D01*
X137813064Y-94471564D01*
X137863796Y-94494350D01*
X137894237Y-94540892D01*
X137927781Y-94651472D01*
X137949768Y-94723954D01*
X138047315Y-94906450D01*
X138178590Y-95066410D01*
X138338550Y-95197685D01*
X138521046Y-95295232D01*
X138719066Y-95355300D01*
X138924999Y-95375583D01*
X138924999Y-95375582D01*
X138925000Y-95375583D01*
X139130934Y-95355300D01*
X139328954Y-95295232D01*
X139511450Y-95197685D01*
X139671410Y-95066410D01*
X139725912Y-94999999D01*
X149711695Y-94999999D01*
X149732780Y-95133124D01*
X149732780Y-95133125D01*
X149732781Y-95133126D01*
X149793972Y-95253220D01*
X149889280Y-95348528D01*
X150009374Y-95409719D01*
X150128293Y-95428553D01*
X150131192Y-95429013D01*
X150185708Y-95456790D01*
X150213486Y-95511306D01*
X150232780Y-95633124D01*
X150232780Y-95633125D01*
X150232781Y-95633126D01*
X150293972Y-95753220D01*
X150389280Y-95848528D01*
X150509374Y-95909719D01*
X150628293Y-95928553D01*
X150631192Y-95929013D01*
X150685708Y-95956790D01*
X150713486Y-96011306D01*
X150732780Y-96133124D01*
X150732780Y-96133125D01*
X150732781Y-96133126D01*
X150793972Y-96253220D01*
X150889280Y-96348528D01*
X151009374Y-96409719D01*
X151142500Y-96430804D01*
X151275626Y-96409719D01*
X151395720Y-96348528D01*
X151491028Y-96253220D01*
X151552219Y-96133126D01*
X151573304Y-96000000D01*
X151552219Y-95866874D01*
X151491028Y-95746780D01*
X151395720Y-95651472D01*
X151275626Y-95590281D01*
X151275625Y-95590280D01*
X151275624Y-95590280D01*
X151153806Y-95570986D01*
X151099290Y-95543208D01*
X151071513Y-95488692D01*
X151052219Y-95366875D01*
X151052219Y-95366874D01*
X150991028Y-95246780D01*
X150895720Y-95151472D01*
X150775626Y-95090281D01*
X150775625Y-95090280D01*
X150775624Y-95090280D01*
X150653806Y-95070986D01*
X150599290Y-95043208D01*
X150571513Y-94988692D01*
X150552219Y-94866875D01*
X150552219Y-94866874D01*
X150491028Y-94746780D01*
X150395720Y-94651472D01*
X150275626Y-94590281D01*
X150275625Y-94590280D01*
X150275624Y-94590280D01*
X150142500Y-94569195D01*
X150009375Y-94590280D01*
X149889281Y-94651471D01*
X149793971Y-94746781D01*
X149732780Y-94866875D01*
X149711695Y-94999999D01*
X139725912Y-94999999D01*
X139802685Y-94906450D01*
X139900232Y-94723954D01*
X139960300Y-94525934D01*
X139980583Y-94320000D01*
X139974005Y-94253218D01*
X139960300Y-94114066D01*
X139909394Y-93946250D01*
X147015445Y-93946250D01*
X147036530Y-94079374D01*
X147036530Y-94079375D01*
X147036531Y-94079376D01*
X147097722Y-94199470D01*
X147193030Y-94294778D01*
X147313124Y-94355969D01*
X147446250Y-94377054D01*
X147579376Y-94355969D01*
X147699470Y-94294778D01*
X147751248Y-94242999D01*
X147795627Y-94217378D01*
X147846873Y-94217378D01*
X147891254Y-94243001D01*
X147901470Y-94253217D01*
X147901472Y-94253220D01*
X147996780Y-94348528D01*
X148116874Y-94409719D01*
X148250000Y-94430804D01*
X148383126Y-94409719D01*
X148503220Y-94348528D01*
X148598528Y-94253220D01*
X148659719Y-94133126D01*
X148680804Y-94000000D01*
X148659719Y-93866874D01*
X148598528Y-93746780D01*
X148546749Y-93695001D01*
X148521128Y-93650623D01*
X148521128Y-93599377D01*
X148546749Y-93554998D01*
X148598528Y-93503220D01*
X148659719Y-93383126D01*
X148680804Y-93250000D01*
X148659719Y-93116874D01*
X148598528Y-92996780D01*
X148503220Y-92901472D01*
X148383126Y-92840281D01*
X148383125Y-92840280D01*
X148383124Y-92840280D01*
X148250000Y-92819195D01*
X148116875Y-92840280D01*
X147996781Y-92901471D01*
X147901471Y-92996781D01*
X147840280Y-93116875D01*
X147819195Y-93250000D01*
X147840280Y-93383124D01*
X147840280Y-93383125D01*
X147840281Y-93383126D01*
X147870439Y-93442315D01*
X147901473Y-93503221D01*
X147953248Y-93554997D01*
X147978870Y-93599375D01*
X147978872Y-93650619D01*
X147953252Y-93694999D01*
X147945008Y-93703244D01*
X147900627Y-93728871D01*
X147849379Y-93728872D01*
X147804996Y-93703249D01*
X147794779Y-93693032D01*
X147794778Y-93693030D01*
X147699470Y-93597722D01*
X147579376Y-93536531D01*
X147579375Y-93536530D01*
X147579374Y-93536530D01*
X147446250Y-93515445D01*
X147313125Y-93536530D01*
X147193031Y-93597721D01*
X147097721Y-93693031D01*
X147036530Y-93813125D01*
X147015445Y-93946250D01*
X139909394Y-93946250D01*
X139900232Y-93916047D01*
X139900232Y-93916046D01*
X139802685Y-93733550D01*
X139671410Y-93573590D01*
X139511450Y-93442315D01*
X139328954Y-93344768D01*
X139328953Y-93344767D01*
X139328952Y-93344767D01*
X139130933Y-93284699D01*
X138925000Y-93264416D01*
X138719066Y-93284699D01*
X138521047Y-93344767D01*
X138338549Y-93442315D01*
X138178590Y-93573590D01*
X138047315Y-93733549D01*
X137949767Y-93916047D01*
X137894237Y-94099108D01*
X137863796Y-94145650D01*
X137813064Y-94168436D01*
X137758053Y-94160276D01*
X137716121Y-94123745D01*
X137700500Y-94070370D01*
X137700500Y-92027910D01*
X137716121Y-91974535D01*
X137758053Y-91938004D01*
X137813064Y-91929844D01*
X137863795Y-91952630D01*
X137894237Y-91999172D01*
X137950231Y-92183763D01*
X138047730Y-92366170D01*
X138178945Y-92526054D01*
X138338829Y-92657269D01*
X138521236Y-92754768D01*
X138674999Y-92801411D01*
X138675000Y-92801411D01*
X139175000Y-92801411D01*
X139328763Y-92754768D01*
X139511170Y-92657269D01*
X139671054Y-92526054D01*
X139802269Y-92366170D01*
X139899768Y-92183763D01*
X139946411Y-92030000D01*
X160153589Y-92030000D01*
X160200231Y-92183763D01*
X160297730Y-92366170D01*
X160428945Y-92526054D01*
X160588829Y-92657269D01*
X160771236Y-92754768D01*
X160924999Y-92801411D01*
X160925000Y-92801411D01*
X160925000Y-92030001D01*
X160924999Y-92030000D01*
X160153589Y-92030000D01*
X139946411Y-92030000D01*
X139175001Y-92030000D01*
X139175000Y-92030001D01*
X139175000Y-92801411D01*
X138675000Y-92801411D01*
X138675000Y-90758589D01*
X138674999Y-90758588D01*
X139175000Y-90758588D01*
X139175000Y-91529999D01*
X139175001Y-91530000D01*
X139946411Y-91530000D01*
X139946411Y-91529999D01*
X160153588Y-91529999D01*
X160153589Y-91530000D01*
X160924999Y-91530000D01*
X160925000Y-91529999D01*
X160925000Y-90758589D01*
X160924999Y-90758588D01*
X160771236Y-90805231D01*
X160588829Y-90902730D01*
X160428945Y-91033945D01*
X160297730Y-91193829D01*
X160200231Y-91376236D01*
X160153588Y-91529999D01*
X139946411Y-91529999D01*
X139899768Y-91376236D01*
X139802269Y-91193829D01*
X139671054Y-91033945D01*
X139511170Y-90902730D01*
X139328763Y-90805231D01*
X139175000Y-90758588D01*
X138674999Y-90758588D01*
X138521236Y-90805231D01*
X138338829Y-90902730D01*
X138178945Y-91033945D01*
X138047730Y-91193829D01*
X137950231Y-91376236D01*
X137894237Y-91560828D01*
X137863795Y-91607370D01*
X137813064Y-91630156D01*
X137758053Y-91621996D01*
X137716121Y-91585465D01*
X137700500Y-91532090D01*
X137700500Y-90499999D01*
X142819195Y-90499999D01*
X142840280Y-90633124D01*
X142840280Y-90633125D01*
X142840281Y-90633126D01*
X142901472Y-90753220D01*
X142996780Y-90848528D01*
X143116874Y-90909719D01*
X143250000Y-90930804D01*
X143383126Y-90909719D01*
X143503220Y-90848528D01*
X143598528Y-90753220D01*
X143659719Y-90633126D01*
X143680804Y-90500000D01*
X143659719Y-90366874D01*
X143598528Y-90246780D01*
X143503220Y-90151472D01*
X143383126Y-90090281D01*
X143383125Y-90090280D01*
X143383124Y-90090280D01*
X143250000Y-90069195D01*
X143116875Y-90090280D01*
X142996781Y-90151471D01*
X142901471Y-90246781D01*
X142840280Y-90366875D01*
X142819195Y-90499999D01*
X137700500Y-90499999D01*
X137700500Y-89489630D01*
X137716121Y-89436255D01*
X137758053Y-89399724D01*
X137813064Y-89391564D01*
X137863796Y-89414350D01*
X137894237Y-89460892D01*
X137949767Y-89643952D01*
X137949768Y-89643954D01*
X138047315Y-89826450D01*
X138178590Y-89986410D01*
X138338550Y-90117685D01*
X138521046Y-90215232D01*
X138719066Y-90275300D01*
X138925000Y-90295583D01*
X139130934Y-90275300D01*
X139328954Y-90215232D01*
X139511450Y-90117685D01*
X139654852Y-89999999D01*
X150744195Y-89999999D01*
X150765280Y-90133124D01*
X150765280Y-90133125D01*
X150765281Y-90133126D01*
X150826472Y-90253220D01*
X150921780Y-90348528D01*
X151041874Y-90409719D01*
X151175000Y-90430804D01*
X151308126Y-90409719D01*
X151428220Y-90348528D01*
X151523528Y-90253220D01*
X151584719Y-90133126D01*
X151605804Y-90000000D01*
X151604567Y-89992191D01*
X151609923Y-89941229D01*
X151640045Y-89899769D01*
X151686859Y-89878925D01*
X151808126Y-89859719D01*
X151928220Y-89798528D01*
X152023528Y-89703220D01*
X152084719Y-89583126D01*
X152105804Y-89450000D01*
X152096842Y-89393415D01*
X152102199Y-89342450D01*
X152132321Y-89300991D01*
X152179134Y-89280149D01*
X152308126Y-89259719D01*
X152428220Y-89198528D01*
X152523528Y-89103220D01*
X152584719Y-88983126D01*
X152605804Y-88850000D01*
X152604567Y-88842191D01*
X152609923Y-88791229D01*
X152640045Y-88749769D01*
X152686859Y-88728925D01*
X152808126Y-88709719D01*
X152928220Y-88648528D01*
X153023528Y-88553220D01*
X153084719Y-88433126D01*
X153105804Y-88300000D01*
X153098394Y-88253218D01*
X153087738Y-88185938D01*
X153084719Y-88166874D01*
X153023528Y-88046780D01*
X152976747Y-87999999D01*
X154244195Y-87999999D01*
X154265280Y-88133124D01*
X154265280Y-88133125D01*
X154265281Y-88133126D01*
X154326472Y-88253220D01*
X154421780Y-88348528D01*
X154541874Y-88409719D01*
X154675000Y-88430804D01*
X154808126Y-88409719D01*
X154928220Y-88348528D01*
X155023528Y-88253220D01*
X155084719Y-88133126D01*
X155105804Y-88000000D01*
X155101455Y-87972544D01*
X155095261Y-87933437D01*
X155084719Y-87866874D01*
X155023528Y-87746780D01*
X154928220Y-87651472D01*
X154808126Y-87590281D01*
X154808125Y-87590280D01*
X154808124Y-87590280D01*
X154675000Y-87569195D01*
X154541875Y-87590280D01*
X154421781Y-87651471D01*
X154326471Y-87746781D01*
X154265280Y-87866875D01*
X154244195Y-87999999D01*
X152976747Y-87999999D01*
X152928220Y-87951472D01*
X152808126Y-87890281D01*
X152808125Y-87890280D01*
X152808124Y-87890280D01*
X152675000Y-87869195D01*
X152541875Y-87890280D01*
X152421781Y-87951471D01*
X152326471Y-88046781D01*
X152265280Y-88166875D01*
X152244196Y-88300000D01*
X152245432Y-88307807D01*
X152240075Y-88358772D01*
X152209954Y-88400230D01*
X152163139Y-88421074D01*
X152041875Y-88440280D01*
X151921781Y-88501471D01*
X151826471Y-88596781D01*
X151765280Y-88716875D01*
X151744196Y-88850000D01*
X151753157Y-88906584D01*
X151747800Y-88957549D01*
X151717679Y-88999008D01*
X151670863Y-89019851D01*
X151541875Y-89040280D01*
X151421781Y-89101471D01*
X151326471Y-89196781D01*
X151265280Y-89316875D01*
X151244196Y-89450000D01*
X151245432Y-89457807D01*
X151240075Y-89508772D01*
X151209954Y-89550230D01*
X151163139Y-89571074D01*
X151041875Y-89590280D01*
X150921781Y-89651471D01*
X150826471Y-89746781D01*
X150765280Y-89866875D01*
X150744195Y-89999999D01*
X139654852Y-89999999D01*
X139671410Y-89986410D01*
X139802685Y-89826450D01*
X139900232Y-89643954D01*
X139960300Y-89445934D01*
X139980583Y-89240000D01*
X139977874Y-89212500D01*
X139977874Y-89212499D01*
X142281695Y-89212499D01*
X142302780Y-89345624D01*
X142302780Y-89345625D01*
X142302781Y-89345626D01*
X142363972Y-89465720D01*
X142459280Y-89561028D01*
X142579374Y-89622219D01*
X142712500Y-89643304D01*
X142845626Y-89622219D01*
X142965720Y-89561028D01*
X143043209Y-89483538D01*
X143082618Y-89459389D01*
X143128698Y-89455762D01*
X143171402Y-89473450D01*
X143201419Y-89508596D01*
X143247722Y-89599470D01*
X143343030Y-89694778D01*
X143463124Y-89755969D01*
X143596250Y-89777054D01*
X143729376Y-89755969D01*
X143849470Y-89694778D01*
X143944778Y-89599470D01*
X144005969Y-89479376D01*
X144027054Y-89346250D01*
X144005969Y-89213124D01*
X143944778Y-89093030D01*
X143884249Y-89032501D01*
X143858628Y-88988124D01*
X143858628Y-88936878D01*
X143884250Y-88892498D01*
X143893624Y-88883124D01*
X143912686Y-88864061D01*
X143947210Y-88841641D01*
X143987870Y-88835201D01*
X144027632Y-88845855D01*
X144079374Y-88872219D01*
X144212500Y-88893304D01*
X144345626Y-88872219D01*
X144465720Y-88811028D01*
X144526748Y-88750000D01*
X145319195Y-88750000D01*
X145340280Y-88883124D01*
X145340280Y-88883125D01*
X145340281Y-88883126D01*
X145401472Y-89003220D01*
X145496780Y-89098528D01*
X145616874Y-89159719D01*
X145750000Y-89180804D01*
X145883126Y-89159719D01*
X146003220Y-89098528D01*
X146098528Y-89003220D01*
X146159719Y-88883126D01*
X146180804Y-88750000D01*
X146159719Y-88616874D01*
X146098528Y-88496780D01*
X146003220Y-88401472D01*
X145883126Y-88340281D01*
X145883125Y-88340280D01*
X145883124Y-88340280D01*
X145750000Y-88319195D01*
X145616875Y-88340280D01*
X145496781Y-88401471D01*
X145401471Y-88496781D01*
X145340280Y-88616875D01*
X145319195Y-88750000D01*
X144526748Y-88750000D01*
X144561028Y-88715720D01*
X144622219Y-88595626D01*
X144643304Y-88462500D01*
X144622219Y-88329374D01*
X144561028Y-88209280D01*
X144465720Y-88113972D01*
X144345626Y-88052781D01*
X144345625Y-88052780D01*
X144345624Y-88052780D01*
X144212500Y-88031695D01*
X144079375Y-88052780D01*
X143959278Y-88113973D01*
X143887313Y-88185938D01*
X143832797Y-88213715D01*
X143772366Y-88204144D01*
X143720626Y-88177781D01*
X143720625Y-88177780D01*
X143720624Y-88177780D01*
X143587500Y-88156695D01*
X143454375Y-88177780D01*
X143334281Y-88238971D01*
X143238971Y-88334281D01*
X143177780Y-88454375D01*
X143156695Y-88587500D01*
X143177780Y-88720624D01*
X143177780Y-88720625D01*
X143177781Y-88720626D01*
X143238972Y-88840720D01*
X143299500Y-88901248D01*
X143325122Y-88945627D01*
X143325121Y-88996874D01*
X143299499Y-89041252D01*
X143275102Y-89065650D01*
X143265541Y-89075211D01*
X143211024Y-89102987D01*
X143150592Y-89093415D01*
X143107330Y-89050153D01*
X143061028Y-88959280D01*
X142965720Y-88863972D01*
X142845626Y-88802781D01*
X142845625Y-88802780D01*
X142845624Y-88802780D01*
X142712500Y-88781695D01*
X142579375Y-88802780D01*
X142459281Y-88863971D01*
X142363971Y-88959281D01*
X142302780Y-89079375D01*
X142281695Y-89212499D01*
X139977874Y-89212499D01*
X139960300Y-89034066D01*
X139948990Y-88996781D01*
X139900232Y-88836046D01*
X139802685Y-88653550D01*
X139671410Y-88493590D01*
X139511450Y-88362315D01*
X139328954Y-88264768D01*
X139328953Y-88264767D01*
X139328952Y-88264767D01*
X139130933Y-88204699D01*
X138925000Y-88184416D01*
X138719066Y-88204699D01*
X138521047Y-88264767D01*
X138338549Y-88362315D01*
X138178590Y-88493590D01*
X138047315Y-88653549D01*
X137949767Y-88836047D01*
X137894237Y-89019108D01*
X137863796Y-89065650D01*
X137813064Y-89088436D01*
X137758053Y-89080276D01*
X137716121Y-89043745D01*
X137700500Y-88990370D01*
X137700500Y-87999999D01*
X147161695Y-87999999D01*
X147182780Y-88133124D01*
X147182780Y-88133125D01*
X147182781Y-88133126D01*
X147243972Y-88253220D01*
X147339280Y-88348528D01*
X147459374Y-88409719D01*
X147592500Y-88430804D01*
X147647462Y-88422099D01*
X147698427Y-88427455D01*
X147739886Y-88457577D01*
X147760730Y-88504392D01*
X147765280Y-88533124D01*
X147765280Y-88533125D01*
X147765281Y-88533126D01*
X147826472Y-88653220D01*
X147921780Y-88748528D01*
X148041874Y-88809719D01*
X148175000Y-88830804D01*
X148175000Y-88830803D01*
X148179938Y-88831586D01*
X148234454Y-88859363D01*
X148262232Y-88913878D01*
X148265280Y-88933124D01*
X148265280Y-88933125D01*
X148265281Y-88933126D01*
X148326472Y-89053220D01*
X148421780Y-89148528D01*
X148541874Y-89209719D01*
X148671816Y-89230299D01*
X148726331Y-89258076D01*
X148754109Y-89312592D01*
X148765280Y-89383124D01*
X148765280Y-89383125D01*
X148765281Y-89383126D01*
X148826472Y-89503220D01*
X148921780Y-89598528D01*
X149041874Y-89659719D01*
X149175000Y-89680804D01*
X149308126Y-89659719D01*
X149428220Y-89598528D01*
X149523528Y-89503220D01*
X149584719Y-89383126D01*
X149605804Y-89250000D01*
X149584719Y-89116874D01*
X149523528Y-88996780D01*
X149428220Y-88901472D01*
X149308126Y-88840281D01*
X149308125Y-88840280D01*
X149308124Y-88840280D01*
X149178183Y-88819700D01*
X149139750Y-88804947D01*
X149110641Y-88775838D01*
X149095890Y-88737409D01*
X149084719Y-88666874D01*
X149023528Y-88546780D01*
X148928220Y-88451472D01*
X148808126Y-88390281D01*
X148808125Y-88390280D01*
X148808124Y-88390280D01*
X148670060Y-88368413D01*
X148631627Y-88353660D01*
X148602518Y-88324550D01*
X148587767Y-88286122D01*
X148584719Y-88266874D01*
X148523528Y-88146780D01*
X148428220Y-88051472D01*
X148308126Y-87990281D01*
X148308125Y-87990280D01*
X148308124Y-87990280D01*
X148174999Y-87969195D01*
X148120037Y-87977901D01*
X148069071Y-87972544D01*
X148027612Y-87942422D01*
X148006769Y-87895605D01*
X148002586Y-87869195D01*
X148002219Y-87866874D01*
X147941028Y-87746780D01*
X147845720Y-87651472D01*
X147725626Y-87590281D01*
X147725625Y-87590280D01*
X147725624Y-87590280D01*
X147592500Y-87569195D01*
X147459375Y-87590280D01*
X147339281Y-87651471D01*
X147243971Y-87746781D01*
X147182780Y-87866875D01*
X147161695Y-87999999D01*
X137700500Y-87999999D01*
X137700500Y-86949630D01*
X137716121Y-86896255D01*
X137758053Y-86859724D01*
X137813064Y-86851564D01*
X137863796Y-86874350D01*
X137894237Y-86920892D01*
X137949767Y-87103952D01*
X137949768Y-87103954D01*
X138047315Y-87286450D01*
X138178590Y-87446410D01*
X138338550Y-87577685D01*
X138521046Y-87675232D01*
X138719066Y-87735300D01*
X138925000Y-87755583D01*
X139130934Y-87735300D01*
X139328954Y-87675232D01*
X139511450Y-87577685D01*
X139671410Y-87446410D01*
X139802685Y-87286450D01*
X139900232Y-87103954D01*
X139960300Y-86905934D01*
X139980583Y-86700000D01*
X139960884Y-86500000D01*
X145744195Y-86500000D01*
X145765280Y-86633124D01*
X145765280Y-86633125D01*
X145765281Y-86633126D01*
X145826472Y-86753220D01*
X145921780Y-86848528D01*
X146041874Y-86909719D01*
X146175000Y-86930804D01*
X146308126Y-86909719D01*
X146428220Y-86848528D01*
X146523528Y-86753220D01*
X146584719Y-86633126D01*
X146605804Y-86500000D01*
X146584719Y-86366874D01*
X146523528Y-86246780D01*
X146428220Y-86151472D01*
X146308126Y-86090281D01*
X146308125Y-86090280D01*
X146308124Y-86090280D01*
X146175000Y-86069195D01*
X146041875Y-86090280D01*
X145921781Y-86151471D01*
X145826471Y-86246781D01*
X145765280Y-86366875D01*
X145744195Y-86500000D01*
X139960884Y-86500000D01*
X139960300Y-86494066D01*
X139900232Y-86296046D01*
X139802685Y-86113550D01*
X139671410Y-85953590D01*
X139511450Y-85822315D01*
X139328954Y-85724768D01*
X139328953Y-85724767D01*
X139328952Y-85724767D01*
X139130933Y-85664699D01*
X138925000Y-85644416D01*
X138719066Y-85664699D01*
X138521047Y-85724767D01*
X138338549Y-85822315D01*
X138178590Y-85953590D01*
X138047315Y-86113549D01*
X137949767Y-86296047D01*
X137894237Y-86479108D01*
X137863796Y-86525650D01*
X137813064Y-86548436D01*
X137758053Y-86540276D01*
X137716121Y-86503745D01*
X137700500Y-86450370D01*
X137700500Y-84409630D01*
X137716121Y-84356255D01*
X137758053Y-84319724D01*
X137813064Y-84311564D01*
X137863796Y-84334350D01*
X137894237Y-84380892D01*
X137949767Y-84563952D01*
X137949768Y-84563954D01*
X138047315Y-84746450D01*
X138178590Y-84906410D01*
X138338550Y-85037685D01*
X138521046Y-85135232D01*
X138719065Y-85195299D01*
X138719066Y-85195300D01*
X138924999Y-85215583D01*
X138924999Y-85215582D01*
X138925000Y-85215583D01*
X139130934Y-85195300D01*
X139328954Y-85135232D01*
X139511450Y-85037685D01*
X139671410Y-84906410D01*
X139802685Y-84746450D01*
X139900232Y-84563954D01*
X139960300Y-84365934D01*
X139971719Y-84250000D01*
X142494195Y-84250000D01*
X142515280Y-84383124D01*
X142515280Y-84383125D01*
X142515281Y-84383126D01*
X142576472Y-84503220D01*
X142671780Y-84598528D01*
X142791874Y-84659719D01*
X142858436Y-84670261D01*
X142924999Y-84680804D01*
X142924999Y-84680803D01*
X142925000Y-84680804D01*
X143058126Y-84659719D01*
X143178220Y-84598528D01*
X143273528Y-84503220D01*
X143334719Y-84383126D01*
X143355804Y-84250000D01*
X143334719Y-84116874D01*
X143273528Y-83996780D01*
X143178220Y-83901472D01*
X143058126Y-83840281D01*
X143058125Y-83840280D01*
X143058124Y-83840280D01*
X142925000Y-83819195D01*
X142791875Y-83840280D01*
X142671781Y-83901471D01*
X142576471Y-83996781D01*
X142515280Y-84116875D01*
X142494195Y-84250000D01*
X139971719Y-84250000D01*
X139980583Y-84160000D01*
X139974528Y-84098528D01*
X139960300Y-83954066D01*
X139900232Y-83756047D01*
X139900232Y-83756046D01*
X139802685Y-83573550D01*
X139742324Y-83499999D01*
X145511695Y-83499999D01*
X145532780Y-83633124D01*
X145532780Y-83633125D01*
X145532781Y-83633126D01*
X145593972Y-83753220D01*
X145689280Y-83848528D01*
X145809374Y-83909719D01*
X145942500Y-83930804D01*
X146075626Y-83909719D01*
X146195720Y-83848528D01*
X146291028Y-83753220D01*
X146292669Y-83749999D01*
X152494195Y-83749999D01*
X152515280Y-83883124D01*
X152515280Y-83883125D01*
X152515281Y-83883126D01*
X152576472Y-84003220D01*
X152671780Y-84098528D01*
X152791874Y-84159719D01*
X152925000Y-84180804D01*
X153058126Y-84159719D01*
X153178220Y-84098528D01*
X153273528Y-84003220D01*
X153334719Y-83883126D01*
X153354013Y-83761306D01*
X153368766Y-83722875D01*
X153397875Y-83693766D01*
X153436306Y-83679013D01*
X153558126Y-83659719D01*
X153678220Y-83598528D01*
X153773528Y-83503220D01*
X153834719Y-83383126D01*
X153854013Y-83261306D01*
X153868766Y-83222875D01*
X153897875Y-83193766D01*
X153936306Y-83179013D01*
X154058126Y-83159719D01*
X154178220Y-83098528D01*
X154273528Y-83003220D01*
X154334719Y-82883126D01*
X154354013Y-82761306D01*
X154368766Y-82722875D01*
X154397875Y-82693766D01*
X154436306Y-82679013D01*
X154558126Y-82659719D01*
X154678220Y-82598528D01*
X154773528Y-82503220D01*
X154834719Y-82383126D01*
X154854013Y-82261306D01*
X154868766Y-82222875D01*
X154897875Y-82193766D01*
X154936306Y-82179013D01*
X155058126Y-82159719D01*
X155178220Y-82098528D01*
X155273528Y-82003220D01*
X155334719Y-81883126D01*
X155355804Y-81750000D01*
X155334719Y-81616874D01*
X155273528Y-81496780D01*
X155178220Y-81401472D01*
X155058126Y-81340281D01*
X155058125Y-81340280D01*
X155058124Y-81340280D01*
X154925000Y-81319195D01*
X154791875Y-81340280D01*
X154671781Y-81401471D01*
X154576471Y-81496781D01*
X154515280Y-81616875D01*
X154495986Y-81738693D01*
X154468209Y-81793209D01*
X154413693Y-81820986D01*
X154291875Y-81840280D01*
X154171781Y-81901471D01*
X154076471Y-81996781D01*
X154015280Y-82116875D01*
X153995986Y-82238693D01*
X153968209Y-82293209D01*
X153913693Y-82320986D01*
X153791875Y-82340280D01*
X153671781Y-82401471D01*
X153576471Y-82496781D01*
X153515280Y-82616875D01*
X153495986Y-82738693D01*
X153468209Y-82793209D01*
X153413693Y-82820986D01*
X153291875Y-82840280D01*
X153171781Y-82901471D01*
X153076471Y-82996781D01*
X153015280Y-83116875D01*
X152995986Y-83238693D01*
X152968209Y-83293209D01*
X152913693Y-83320986D01*
X152791875Y-83340280D01*
X152671781Y-83401471D01*
X152576471Y-83496781D01*
X152515280Y-83616875D01*
X152494195Y-83749999D01*
X146292669Y-83749999D01*
X146352219Y-83633126D01*
X146373304Y-83500000D01*
X146352219Y-83366874D01*
X146291028Y-83246780D01*
X146195720Y-83151472D01*
X146075626Y-83090281D01*
X146075625Y-83090280D01*
X146075624Y-83090280D01*
X145942499Y-83069195D01*
X145809375Y-83090280D01*
X145689281Y-83151471D01*
X145593971Y-83246781D01*
X145532780Y-83366875D01*
X145511695Y-83499999D01*
X139742324Y-83499999D01*
X139671410Y-83413590D01*
X139511450Y-83282315D01*
X139328954Y-83184768D01*
X139328953Y-83184767D01*
X139328952Y-83184767D01*
X139130933Y-83124699D01*
X138925000Y-83104416D01*
X138719066Y-83124699D01*
X138521047Y-83184767D01*
X138338549Y-83282315D01*
X138178590Y-83413590D01*
X138047315Y-83573549D01*
X137949767Y-83756047D01*
X137894237Y-83939108D01*
X137863796Y-83985650D01*
X137813064Y-84008436D01*
X137758053Y-84000276D01*
X137716121Y-83963745D01*
X137700500Y-83910370D01*
X137700500Y-81869630D01*
X137716121Y-81816255D01*
X137758053Y-81779724D01*
X137813064Y-81771564D01*
X137863796Y-81794350D01*
X137894237Y-81840892D01*
X137949767Y-82023952D01*
X137949768Y-82023954D01*
X138047315Y-82206450D01*
X138178590Y-82366410D01*
X138338550Y-82497685D01*
X138521046Y-82595232D01*
X138719066Y-82655300D01*
X138925000Y-82675583D01*
X139130934Y-82655300D01*
X139328954Y-82595232D01*
X139511450Y-82497685D01*
X139671410Y-82366410D01*
X139753609Y-82266250D01*
X141727945Y-82266250D01*
X141749030Y-82399374D01*
X141749030Y-82399375D01*
X141749031Y-82399376D01*
X141810222Y-82519470D01*
X141861999Y-82571247D01*
X141887620Y-82615625D01*
X141887621Y-82666871D01*
X141861999Y-82711251D01*
X141826473Y-82746778D01*
X141765280Y-82866875D01*
X141744195Y-82999999D01*
X141765280Y-83133124D01*
X141765280Y-83133125D01*
X141765281Y-83133126D01*
X141826472Y-83253220D01*
X141921780Y-83348528D01*
X142041874Y-83409719D01*
X142066315Y-83413590D01*
X142174999Y-83430804D01*
X142174999Y-83430803D01*
X142175000Y-83430804D01*
X142308126Y-83409719D01*
X142428220Y-83348528D01*
X142523528Y-83253220D01*
X142584719Y-83133126D01*
X142605804Y-83000000D01*
X142584719Y-82866874D01*
X142523528Y-82746780D01*
X142471749Y-82695001D01*
X142446128Y-82650623D01*
X142446128Y-82599377D01*
X142471749Y-82554998D01*
X142507278Y-82519470D01*
X142568469Y-82399376D01*
X142589554Y-82266250D01*
X142568469Y-82133124D01*
X142507278Y-82013030D01*
X142411970Y-81917722D01*
X142291876Y-81856531D01*
X142291875Y-81856530D01*
X142291874Y-81856530D01*
X142158750Y-81835445D01*
X142025625Y-81856530D01*
X141905531Y-81917721D01*
X141810221Y-82013031D01*
X141749030Y-82133125D01*
X141727945Y-82266250D01*
X139753609Y-82266250D01*
X139802685Y-82206450D01*
X139900232Y-82023954D01*
X139960300Y-81825934D01*
X139980583Y-81620000D01*
X139960300Y-81414066D01*
X139900232Y-81216046D01*
X139802685Y-81033550D01*
X139671410Y-80873590D01*
X139520813Y-80749999D01*
X142561695Y-80749999D01*
X142582780Y-80883124D01*
X142582780Y-80883125D01*
X142582781Y-80883126D01*
X142643972Y-81003220D01*
X142739280Y-81098528D01*
X142859374Y-81159719D01*
X142905514Y-81167026D01*
X142911955Y-81168047D01*
X142966471Y-81195824D01*
X142994249Y-81250340D01*
X143015280Y-81383124D01*
X143015280Y-81383125D01*
X143015281Y-81383126D01*
X143076472Y-81503220D01*
X143171780Y-81598528D01*
X143291874Y-81659719D01*
X143425000Y-81680804D01*
X143558126Y-81659719D01*
X143678220Y-81598528D01*
X143773528Y-81503220D01*
X143834719Y-81383126D01*
X143855804Y-81250000D01*
X143834719Y-81116874D01*
X143773528Y-80996780D01*
X143678220Y-80901472D01*
X143558126Y-80840281D01*
X143558125Y-80840280D01*
X143558124Y-80840280D01*
X143505542Y-80831952D01*
X143451026Y-80804174D01*
X143423249Y-80749658D01*
X143402219Y-80616874D01*
X143341028Y-80496780D01*
X143245720Y-80401472D01*
X143125626Y-80340281D01*
X143125625Y-80340280D01*
X143125624Y-80340280D01*
X142992500Y-80319195D01*
X142859375Y-80340280D01*
X142739281Y-80401471D01*
X142643971Y-80496781D01*
X142582780Y-80616875D01*
X142561695Y-80749999D01*
X139520813Y-80749999D01*
X139511450Y-80742315D01*
X139328954Y-80644768D01*
X139328953Y-80644767D01*
X139328952Y-80644767D01*
X139130933Y-80584699D01*
X138925000Y-80564416D01*
X138719066Y-80584699D01*
X138521047Y-80644767D01*
X138338549Y-80742315D01*
X138178590Y-80873590D01*
X138047315Y-81033549D01*
X137949767Y-81216047D01*
X137894237Y-81399108D01*
X137863796Y-81445650D01*
X137813064Y-81468436D01*
X137758053Y-81460276D01*
X137716121Y-81423745D01*
X137700500Y-81370370D01*
X137700500Y-79327910D01*
X137716121Y-79274535D01*
X137758053Y-79238004D01*
X137813064Y-79229844D01*
X137863795Y-79252630D01*
X137894237Y-79299172D01*
X137950231Y-79483763D01*
X138047730Y-79666170D01*
X138178945Y-79826054D01*
X138338829Y-79957269D01*
X138521236Y-80054768D01*
X138674999Y-80101411D01*
X138675000Y-80101411D01*
X139175000Y-80101411D01*
X139328763Y-80054768D01*
X139511170Y-79957269D01*
X139671054Y-79826054D01*
X139750911Y-79728749D01*
X142940445Y-79728749D01*
X142961530Y-79861874D01*
X142961530Y-79861875D01*
X142961531Y-79861876D01*
X143022722Y-79981970D01*
X143118030Y-80077278D01*
X143238124Y-80138469D01*
X143301634Y-80148528D01*
X143371249Y-80159554D01*
X143371249Y-80159553D01*
X143371250Y-80159554D01*
X143504376Y-80138469D01*
X143624470Y-80077278D01*
X143719778Y-79981970D01*
X143780969Y-79861876D01*
X143802054Y-79728750D01*
X143780969Y-79595624D01*
X143719778Y-79475530D01*
X143624470Y-79380222D01*
X143504376Y-79319031D01*
X143504375Y-79319030D01*
X143504374Y-79319030D01*
X143371250Y-79297945D01*
X143238125Y-79319030D01*
X143118031Y-79380221D01*
X143022721Y-79475531D01*
X142961530Y-79595625D01*
X142940445Y-79728749D01*
X139750911Y-79728749D01*
X139802269Y-79666170D01*
X139899768Y-79483763D01*
X139946411Y-79330000D01*
X139175001Y-79330000D01*
X139175000Y-79330001D01*
X139175000Y-80101411D01*
X138675000Y-80101411D01*
X138675000Y-78058589D01*
X138674999Y-78058588D01*
X139175000Y-78058588D01*
X139175000Y-78829999D01*
X139175001Y-78830000D01*
X139946411Y-78830000D01*
X139946411Y-78829999D01*
X139899768Y-78676236D01*
X139802269Y-78493829D01*
X139671054Y-78333945D01*
X139511170Y-78202730D01*
X139328763Y-78105231D01*
X139175000Y-78058588D01*
X138674999Y-78058588D01*
X138521236Y-78105231D01*
X138338829Y-78202730D01*
X138178945Y-78333945D01*
X138047730Y-78493829D01*
X137950231Y-78676236D01*
X137894237Y-78860828D01*
X137863795Y-78907370D01*
X137813064Y-78930156D01*
X137758053Y-78921996D01*
X137716121Y-78885465D01*
X137700500Y-78832090D01*
X137700500Y-76789630D01*
X137716121Y-76736255D01*
X137758053Y-76699724D01*
X137813064Y-76691564D01*
X137863796Y-76714350D01*
X137894237Y-76760892D01*
X137931316Y-76883126D01*
X137949768Y-76943954D01*
X138047315Y-77126450D01*
X138178590Y-77286410D01*
X138338550Y-77417685D01*
X138521046Y-77515232D01*
X138719066Y-77575300D01*
X138925000Y-77595583D01*
X139130934Y-77575300D01*
X139328954Y-77515232D01*
X139511450Y-77417685D01*
X139671410Y-77286410D01*
X139802685Y-77126450D01*
X139870275Y-77000000D01*
X143244195Y-77000000D01*
X143265280Y-77133124D01*
X143265280Y-77133125D01*
X143265281Y-77133126D01*
X143326472Y-77253220D01*
X143421780Y-77348528D01*
X143541874Y-77409719D01*
X143675000Y-77430804D01*
X143808126Y-77409719D01*
X143928220Y-77348528D01*
X144023528Y-77253220D01*
X144084719Y-77133126D01*
X144105804Y-77000000D01*
X144084719Y-76866874D01*
X144025168Y-76749999D01*
X147994195Y-76749999D01*
X148015280Y-76883124D01*
X148015280Y-76883125D01*
X148015281Y-76883126D01*
X148076472Y-77003220D01*
X148171780Y-77098528D01*
X148291874Y-77159719D01*
X148380356Y-77173733D01*
X148434872Y-77201510D01*
X148462650Y-77256027D01*
X148482780Y-77383124D01*
X148482780Y-77383125D01*
X148482781Y-77383126D01*
X148543972Y-77503220D01*
X148639280Y-77598528D01*
X148759374Y-77659719D01*
X148878293Y-77678553D01*
X148881192Y-77679013D01*
X148935708Y-77706790D01*
X148963486Y-77761306D01*
X148982780Y-77883124D01*
X148982780Y-77883125D01*
X148982781Y-77883126D01*
X149043972Y-78003220D01*
X149139280Y-78098528D01*
X149259374Y-78159719D01*
X149380638Y-78178925D01*
X149427453Y-78199768D01*
X149457575Y-78241226D01*
X149462932Y-78292191D01*
X149461695Y-78299998D01*
X149482780Y-78433124D01*
X149482780Y-78433125D01*
X149482781Y-78433126D01*
X149543972Y-78553220D01*
X149639280Y-78648528D01*
X149759374Y-78709719D01*
X149878293Y-78728553D01*
X149881192Y-78729013D01*
X149935708Y-78756790D01*
X149963486Y-78811306D01*
X149982780Y-78933124D01*
X149982780Y-78933125D01*
X149982781Y-78933126D01*
X150043972Y-79053220D01*
X150139280Y-79148528D01*
X150259374Y-79209719D01*
X150378293Y-79228553D01*
X150381192Y-79229013D01*
X150435708Y-79256790D01*
X150463486Y-79311306D01*
X150482780Y-79433124D01*
X150482780Y-79433125D01*
X150482781Y-79433126D01*
X150543972Y-79553220D01*
X150639280Y-79648528D01*
X150759374Y-79709719D01*
X150878293Y-79728553D01*
X150881192Y-79729013D01*
X150935708Y-79756790D01*
X150963486Y-79811306D01*
X150982780Y-79933124D01*
X150982780Y-79933125D01*
X150982781Y-79933126D01*
X151043972Y-80053220D01*
X151139280Y-80148528D01*
X151259374Y-80209719D01*
X151378293Y-80228553D01*
X151381192Y-80229013D01*
X151435708Y-80256790D01*
X151463486Y-80311306D01*
X151482780Y-80433124D01*
X151482780Y-80433125D01*
X151482781Y-80433126D01*
X151543972Y-80553220D01*
X151639280Y-80648528D01*
X151759374Y-80709719D01*
X151825937Y-80720261D01*
X151892499Y-80730804D01*
X151892499Y-80730803D01*
X151892500Y-80730804D01*
X152025626Y-80709719D01*
X152145720Y-80648528D01*
X152241028Y-80553220D01*
X152268145Y-80500000D01*
X153994195Y-80500000D01*
X154015280Y-80633124D01*
X154015280Y-80633125D01*
X154015281Y-80633126D01*
X154076472Y-80753220D01*
X154171780Y-80848528D01*
X154291874Y-80909719D01*
X154358437Y-80920261D01*
X154424999Y-80930804D01*
X154424999Y-80930803D01*
X154425000Y-80930804D01*
X154558126Y-80909719D01*
X154678220Y-80848528D01*
X154773528Y-80753220D01*
X154834719Y-80633126D01*
X154855804Y-80500000D01*
X154834719Y-80366874D01*
X154775169Y-80250000D01*
X156744195Y-80250000D01*
X156765280Y-80383124D01*
X156765280Y-80383125D01*
X156765281Y-80383126D01*
X156826472Y-80503220D01*
X156921780Y-80598528D01*
X157041874Y-80659719D01*
X157175000Y-80680804D01*
X157181393Y-80679791D01*
X157236196Y-80686713D01*
X157278760Y-80721924D01*
X157295831Y-80774461D01*
X157282094Y-80827966D01*
X157241826Y-80865781D01*
X157171782Y-80901470D01*
X157076471Y-80996781D01*
X157015280Y-81116875D01*
X156994195Y-81249999D01*
X157015280Y-81383124D01*
X157015280Y-81383125D01*
X157015281Y-81383126D01*
X157076472Y-81503220D01*
X157171780Y-81598528D01*
X157291874Y-81659719D01*
X157425000Y-81680804D01*
X157558126Y-81659719D01*
X157678220Y-81598528D01*
X157773528Y-81503220D01*
X157834719Y-81383126D01*
X157855804Y-81250000D01*
X157834719Y-81116874D01*
X157773528Y-80996780D01*
X157678220Y-80901472D01*
X157558126Y-80840281D01*
X157558125Y-80840280D01*
X157558124Y-80840280D01*
X157425000Y-80819195D01*
X157418603Y-80820209D01*
X157363799Y-80813284D01*
X157321237Y-80778072D01*
X157304168Y-80725535D01*
X157317906Y-80672031D01*
X157358173Y-80634218D01*
X157428220Y-80598528D01*
X157523528Y-80503220D01*
X157584719Y-80383126D01*
X157605804Y-80250000D01*
X157584719Y-80116874D01*
X157523528Y-79996780D01*
X157428220Y-79901472D01*
X157308126Y-79840281D01*
X157308125Y-79840280D01*
X157308124Y-79840280D01*
X157175000Y-79819195D01*
X157041875Y-79840280D01*
X156921781Y-79901471D01*
X156826471Y-79996781D01*
X156765280Y-80116875D01*
X156744195Y-80250000D01*
X154775169Y-80250000D01*
X154773528Y-80246780D01*
X154678220Y-80151472D01*
X154558126Y-80090281D01*
X154558125Y-80090280D01*
X154558124Y-80090280D01*
X154425000Y-80069195D01*
X154291875Y-80090280D01*
X154171781Y-80151471D01*
X154076471Y-80246781D01*
X154015280Y-80366875D01*
X153994195Y-80500000D01*
X152268145Y-80500000D01*
X152302219Y-80433126D01*
X152323304Y-80300000D01*
X152302219Y-80166874D01*
X152241028Y-80046780D01*
X152145720Y-79951472D01*
X152025626Y-79890281D01*
X152025625Y-79890280D01*
X152025624Y-79890280D01*
X151903806Y-79870986D01*
X151849290Y-79843208D01*
X151821513Y-79788692D01*
X151802219Y-79666875D01*
X151802219Y-79666874D01*
X151741028Y-79546780D01*
X151645720Y-79451472D01*
X151525626Y-79390281D01*
X151525625Y-79390280D01*
X151525624Y-79390280D01*
X151403806Y-79370986D01*
X151349290Y-79343208D01*
X151342560Y-79330000D01*
X160153589Y-79330000D01*
X160200231Y-79483763D01*
X160297730Y-79666170D01*
X160428945Y-79826054D01*
X160588829Y-79957269D01*
X160771236Y-80054768D01*
X160924999Y-80101411D01*
X160925000Y-80101411D01*
X160925000Y-79330001D01*
X160924999Y-79330000D01*
X160153589Y-79330000D01*
X151342560Y-79330000D01*
X151321513Y-79288692D01*
X151302219Y-79166875D01*
X151302219Y-79166874D01*
X151241028Y-79046780D01*
X151145720Y-78951472D01*
X151025626Y-78890281D01*
X151025625Y-78890280D01*
X151025624Y-78890280D01*
X150903806Y-78870986D01*
X150849290Y-78843208D01*
X150842560Y-78829999D01*
X160153588Y-78829999D01*
X160153589Y-78830000D01*
X160924999Y-78830000D01*
X160925000Y-78829999D01*
X160925000Y-78058589D01*
X160924999Y-78058588D01*
X160771236Y-78105231D01*
X160588829Y-78202730D01*
X160428945Y-78333945D01*
X160297730Y-78493829D01*
X160200231Y-78676236D01*
X160153588Y-78829999D01*
X150842560Y-78829999D01*
X150821513Y-78788692D01*
X150802219Y-78666875D01*
X150802219Y-78666874D01*
X150741028Y-78546780D01*
X150645720Y-78451472D01*
X150525626Y-78390281D01*
X150525625Y-78390280D01*
X150525624Y-78390280D01*
X150403806Y-78370986D01*
X150349290Y-78343208D01*
X150321513Y-78288692D01*
X150302219Y-78166875D01*
X150302219Y-78166874D01*
X150241028Y-78046780D01*
X150145720Y-77951472D01*
X150025626Y-77890281D01*
X150025625Y-77890280D01*
X150025624Y-77890280D01*
X149904361Y-77871074D01*
X149857544Y-77850230D01*
X149827423Y-77808769D01*
X149822067Y-77757807D01*
X149823304Y-77750000D01*
X149802219Y-77616874D01*
X149741028Y-77496780D01*
X149645720Y-77401472D01*
X149525626Y-77340281D01*
X149525625Y-77340280D01*
X149525624Y-77340280D01*
X149403806Y-77320986D01*
X149349290Y-77293208D01*
X149321513Y-77238692D01*
X149312344Y-77180804D01*
X149302219Y-77116874D01*
X149241028Y-76996780D01*
X149145720Y-76901472D01*
X149025626Y-76840281D01*
X149025625Y-76840280D01*
X149025624Y-76840280D01*
X148937142Y-76826266D01*
X148882626Y-76798488D01*
X148857920Y-76749999D01*
X155994195Y-76749999D01*
X156015280Y-76883124D01*
X156015280Y-76883125D01*
X156015281Y-76883126D01*
X156076472Y-77003220D01*
X156171780Y-77098528D01*
X156291874Y-77159719D01*
X156358436Y-77170261D01*
X156424999Y-77180804D01*
X156424999Y-77180803D01*
X156425000Y-77180804D01*
X156558126Y-77159719D01*
X156678220Y-77098528D01*
X156773528Y-77003220D01*
X156775169Y-77000000D01*
X157244195Y-77000000D01*
X157265280Y-77133124D01*
X157265280Y-77133125D01*
X157265281Y-77133126D01*
X157326472Y-77253220D01*
X157421780Y-77348528D01*
X157541874Y-77409719D01*
X157675000Y-77430804D01*
X157808126Y-77409719D01*
X157928220Y-77348528D01*
X158023528Y-77253220D01*
X158084719Y-77133126D01*
X158105804Y-77000000D01*
X158084719Y-76866874D01*
X158023528Y-76746780D01*
X157928220Y-76651472D01*
X157808126Y-76590281D01*
X157808125Y-76590280D01*
X157808124Y-76590280D01*
X157675000Y-76569195D01*
X157541875Y-76590280D01*
X157421781Y-76651471D01*
X157326471Y-76746781D01*
X157265280Y-76866875D01*
X157244195Y-77000000D01*
X156775169Y-77000000D01*
X156834719Y-76883126D01*
X156855804Y-76750000D01*
X156834719Y-76616874D01*
X156773528Y-76496780D01*
X156678220Y-76401472D01*
X156558126Y-76340281D01*
X156558125Y-76340280D01*
X156558124Y-76340280D01*
X156425000Y-76319195D01*
X156291875Y-76340280D01*
X156171781Y-76401471D01*
X156076471Y-76496781D01*
X156015280Y-76616875D01*
X155994195Y-76749999D01*
X148857920Y-76749999D01*
X148854849Y-76743972D01*
X148850157Y-76714350D01*
X148834719Y-76616874D01*
X148773528Y-76496780D01*
X148678220Y-76401472D01*
X148558126Y-76340281D01*
X148558125Y-76340280D01*
X148558124Y-76340280D01*
X148425000Y-76319195D01*
X148291875Y-76340280D01*
X148171781Y-76401471D01*
X148076471Y-76496781D01*
X148015280Y-76616875D01*
X147994195Y-76749999D01*
X144025168Y-76749999D01*
X144023528Y-76746780D01*
X143928220Y-76651472D01*
X143808126Y-76590281D01*
X143808125Y-76590280D01*
X143808124Y-76590280D01*
X143675000Y-76569195D01*
X143541875Y-76590280D01*
X143421781Y-76651471D01*
X143326471Y-76746781D01*
X143265280Y-76866875D01*
X143244195Y-77000000D01*
X139870275Y-77000000D01*
X139900232Y-76943954D01*
X139960300Y-76745934D01*
X139980583Y-76540000D01*
X139960300Y-76334066D01*
X139900232Y-76136046D01*
X139827513Y-75999999D01*
X144069195Y-75999999D01*
X144090280Y-76133124D01*
X144090280Y-76133125D01*
X144090281Y-76133126D01*
X144151472Y-76253220D01*
X144246780Y-76348528D01*
X144366874Y-76409719D01*
X144500000Y-76430804D01*
X144633126Y-76409719D01*
X144753220Y-76348528D01*
X144848528Y-76253220D01*
X144909719Y-76133126D01*
X144930804Y-76000000D01*
X144909719Y-75866874D01*
X144848528Y-75746780D01*
X144753220Y-75651472D01*
X144633126Y-75590281D01*
X144633125Y-75590280D01*
X144633124Y-75590280D01*
X144500000Y-75569195D01*
X144366875Y-75590280D01*
X144246781Y-75651471D01*
X144151471Y-75746781D01*
X144090280Y-75866875D01*
X144069195Y-75999999D01*
X139827513Y-75999999D01*
X139802685Y-75953550D01*
X139671410Y-75793590D01*
X139511450Y-75662315D01*
X139328954Y-75564768D01*
X139328953Y-75564767D01*
X139328952Y-75564767D01*
X139130933Y-75504699D01*
X138925000Y-75484416D01*
X138719066Y-75504699D01*
X138521047Y-75564767D01*
X138338549Y-75662315D01*
X138178590Y-75793590D01*
X138047315Y-75953549D01*
X137949767Y-76136047D01*
X137894237Y-76319108D01*
X137863796Y-76365650D01*
X137813064Y-76388436D01*
X137758053Y-76380276D01*
X137716121Y-76343745D01*
X137700500Y-76290370D01*
X137700500Y-74976771D01*
X137713123Y-74928398D01*
X137747772Y-74892360D01*
X137795613Y-74877847D01*
X137844445Y-74888561D01*
X137881815Y-74921769D01*
X137930447Y-74994552D01*
X137974761Y-75024162D01*
X137996769Y-75038867D01*
X138055252Y-75050500D01*
X139794747Y-75050500D01*
X139794748Y-75050500D01*
X139853231Y-75038867D01*
X139919552Y-74994552D01*
X139963867Y-74928231D01*
X139975500Y-74869748D01*
X139975500Y-74249999D01*
X145744195Y-74249999D01*
X145765280Y-74383124D01*
X145765280Y-74383125D01*
X145765281Y-74383126D01*
X145826472Y-74503220D01*
X145921780Y-74598528D01*
X146041874Y-74659719D01*
X146175000Y-74680804D01*
X146308126Y-74659719D01*
X146428220Y-74598528D01*
X146523528Y-74503220D01*
X146584719Y-74383126D01*
X146605804Y-74250000D01*
X146584719Y-74116874D01*
X146523528Y-73996780D01*
X146428220Y-73901472D01*
X146308126Y-73840281D01*
X146308125Y-73840280D01*
X146308124Y-73840280D01*
X146174999Y-73819195D01*
X146041875Y-73840280D01*
X145921781Y-73901471D01*
X145826471Y-73996781D01*
X145765280Y-74116875D01*
X145744195Y-74249999D01*
X139975500Y-74249999D01*
X139975500Y-73130252D01*
X139963867Y-73071769D01*
X139931433Y-73023229D01*
X139919552Y-73005447D01*
X139853231Y-72961133D01*
X139837259Y-72957956D01*
X139794748Y-72949500D01*
X138055252Y-72949500D01*
X138026010Y-72955316D01*
X137996768Y-72961133D01*
X137930447Y-73005447D01*
X137881815Y-73078231D01*
X137844445Y-73111439D01*
X137795613Y-73122153D01*
X137747772Y-73107640D01*
X137713123Y-73071602D01*
X137700500Y-73023229D01*
X137700500Y-71999999D01*
X142244195Y-71999999D01*
X142265280Y-72133124D01*
X142265280Y-72133125D01*
X142265281Y-72133126D01*
X142326472Y-72253220D01*
X142421780Y-72348528D01*
X142541874Y-72409719D01*
X142675000Y-72430804D01*
X142808126Y-72409719D01*
X142928220Y-72348528D01*
X143023528Y-72253220D01*
X143084719Y-72133126D01*
X143105804Y-72000000D01*
X143084719Y-71866874D01*
X143023528Y-71746780D01*
X142971749Y-71695001D01*
X142946128Y-71650623D01*
X142946128Y-71599377D01*
X142971749Y-71554998D01*
X143023528Y-71503220D01*
X143084719Y-71383126D01*
X143105804Y-71250000D01*
X143084719Y-71116874D01*
X143023528Y-70996780D01*
X142928220Y-70901472D01*
X142808126Y-70840281D01*
X142808125Y-70840280D01*
X142808124Y-70840280D01*
X142675000Y-70819195D01*
X142541875Y-70840280D01*
X142421781Y-70901471D01*
X142326471Y-70996781D01*
X142265280Y-71116875D01*
X142244195Y-71249999D01*
X142265280Y-71383124D01*
X142265280Y-71383125D01*
X142265281Y-71383126D01*
X142326472Y-71503220D01*
X142378250Y-71554998D01*
X142403872Y-71599377D01*
X142403872Y-71650623D01*
X142378250Y-71695001D01*
X142326472Y-71746780D01*
X142326471Y-71746781D01*
X142265280Y-71866875D01*
X142244195Y-71999999D01*
X137700500Y-71999999D01*
X137700500Y-71249999D01*
X138819195Y-71249999D01*
X138840280Y-71383124D01*
X138840280Y-71383125D01*
X138840281Y-71383126D01*
X138901472Y-71503220D01*
X138996780Y-71598528D01*
X139116874Y-71659719D01*
X139183436Y-71670261D01*
X139249999Y-71680804D01*
X139249999Y-71680803D01*
X139250000Y-71680804D01*
X139383126Y-71659719D01*
X139503220Y-71598528D01*
X139598528Y-71503220D01*
X139659719Y-71383126D01*
X139680804Y-71250000D01*
X139659719Y-71116874D01*
X139598528Y-70996780D01*
X139503220Y-70901472D01*
X139383126Y-70840281D01*
X139383125Y-70840280D01*
X139383124Y-70840280D01*
X139250000Y-70819195D01*
X139116875Y-70840280D01*
X138996781Y-70901471D01*
X138901471Y-70996781D01*
X138840280Y-71116875D01*
X138819195Y-71249999D01*
X137700500Y-71249999D01*
X137700500Y-66000000D01*
X155069195Y-66000000D01*
X155090280Y-66133124D01*
X155090280Y-66133125D01*
X155090281Y-66133126D01*
X155151472Y-66253220D01*
X155246780Y-66348528D01*
X155366874Y-66409719D01*
X155500000Y-66430804D01*
X155633126Y-66409719D01*
X155753220Y-66348528D01*
X155848528Y-66253220D01*
X155909719Y-66133126D01*
X155930804Y-66000000D01*
X155909719Y-65866874D01*
X155848528Y-65746780D01*
X155753220Y-65651472D01*
X155633126Y-65590281D01*
X155633125Y-65590280D01*
X155633124Y-65590280D01*
X155500000Y-65569195D01*
X155366875Y-65590280D01*
X155246781Y-65651471D01*
X155151471Y-65746781D01*
X155090280Y-65866875D01*
X155069195Y-66000000D01*
X137700500Y-66000000D01*
X137700500Y-65162149D01*
X150049545Y-65162149D01*
X150070630Y-65295274D01*
X150070630Y-65295275D01*
X150070631Y-65295276D01*
X150131822Y-65415370D01*
X150227130Y-65510678D01*
X150347224Y-65571869D01*
X150413786Y-65582411D01*
X150480349Y-65592954D01*
X150480349Y-65592953D01*
X150480350Y-65592954D01*
X150613476Y-65571869D01*
X150733570Y-65510678D01*
X150828878Y-65415370D01*
X150890069Y-65295276D01*
X150911154Y-65162150D01*
X150890069Y-65029024D01*
X150828878Y-64908930D01*
X150733570Y-64813622D01*
X150613476Y-64752431D01*
X150613475Y-64752430D01*
X150613474Y-64752430D01*
X150480349Y-64731345D01*
X150347225Y-64752430D01*
X150227131Y-64813621D01*
X150131821Y-64908931D01*
X150070630Y-65029025D01*
X150049545Y-65162149D01*
X137700500Y-65162149D01*
X137700500Y-64215899D01*
X149103295Y-64215899D01*
X149124380Y-64349024D01*
X149124380Y-64349025D01*
X149124381Y-64349026D01*
X149185572Y-64469120D01*
X149280880Y-64564428D01*
X149400974Y-64625619D01*
X149534100Y-64646704D01*
X149667226Y-64625619D01*
X149787320Y-64564428D01*
X149851749Y-64499999D01*
X155069195Y-64499999D01*
X155090280Y-64633124D01*
X155090280Y-64633125D01*
X155090281Y-64633126D01*
X155151472Y-64753220D01*
X155246780Y-64848528D01*
X155366874Y-64909719D01*
X155433437Y-64920261D01*
X155499999Y-64930804D01*
X155499999Y-64930803D01*
X155500000Y-64930804D01*
X155633126Y-64909719D01*
X155753220Y-64848528D01*
X155848528Y-64753220D01*
X155909719Y-64633126D01*
X155930804Y-64500000D01*
X155909719Y-64366874D01*
X155848528Y-64246780D01*
X155753220Y-64151472D01*
X155633126Y-64090281D01*
X155633125Y-64090280D01*
X155633124Y-64090280D01*
X155500000Y-64069195D01*
X155366875Y-64090280D01*
X155246781Y-64151471D01*
X155151471Y-64246781D01*
X155090280Y-64366875D01*
X155069195Y-64499999D01*
X149851749Y-64499999D01*
X149882628Y-64469120D01*
X149943819Y-64349026D01*
X149964904Y-64215900D01*
X149943819Y-64082774D01*
X149882628Y-63962680D01*
X149787320Y-63867372D01*
X149667226Y-63806181D01*
X149667225Y-63806180D01*
X149667224Y-63806180D01*
X149534100Y-63785095D01*
X149400975Y-63806180D01*
X149280881Y-63867371D01*
X149185571Y-63962681D01*
X149124380Y-64082775D01*
X149103295Y-64215899D01*
X137700500Y-64215899D01*
X137700500Y-63250000D01*
X154569195Y-63250000D01*
X154590280Y-63383124D01*
X154590280Y-63383125D01*
X154590281Y-63383126D01*
X154651472Y-63503220D01*
X154746780Y-63598528D01*
X154866874Y-63659719D01*
X154933436Y-63670261D01*
X154999999Y-63680804D01*
X154999999Y-63680803D01*
X155000000Y-63680804D01*
X155133126Y-63659719D01*
X155253220Y-63598528D01*
X155348528Y-63503220D01*
X155409719Y-63383126D01*
X155409719Y-63383123D01*
X155411790Y-63379060D01*
X155448273Y-63339594D01*
X155500000Y-63325005D01*
X155551727Y-63339594D01*
X155588210Y-63379060D01*
X155590280Y-63383123D01*
X155590281Y-63383126D01*
X155651472Y-63503220D01*
X155746780Y-63598528D01*
X155866874Y-63659719D01*
X155933436Y-63670261D01*
X155999999Y-63680804D01*
X155999999Y-63680803D01*
X156000000Y-63680804D01*
X156133126Y-63659719D01*
X156253220Y-63598528D01*
X156348528Y-63503220D01*
X156409719Y-63383126D01*
X156430804Y-63250000D01*
X156409719Y-63116874D01*
X156348528Y-62996780D01*
X156253220Y-62901472D01*
X156133126Y-62840281D01*
X156133125Y-62840280D01*
X156133124Y-62840280D01*
X156000000Y-62819195D01*
X155866875Y-62840280D01*
X155746781Y-62901471D01*
X155651471Y-62996781D01*
X155588210Y-63120939D01*
X155551727Y-63160405D01*
X155500000Y-63174994D01*
X155448273Y-63160405D01*
X155411790Y-63120939D01*
X155409719Y-63116874D01*
X155348528Y-62996780D01*
X155253220Y-62901472D01*
X155133126Y-62840281D01*
X155133125Y-62840280D01*
X155133124Y-62840280D01*
X155000000Y-62819195D01*
X154866875Y-62840280D01*
X154746781Y-62901471D01*
X154651471Y-62996781D01*
X154590280Y-63116875D01*
X154569195Y-63250000D01*
X137700500Y-63250000D01*
X137700500Y-60070000D01*
X138944416Y-60070000D01*
X138964699Y-60275933D01*
X139002781Y-60401472D01*
X139024768Y-60473954D01*
X139122315Y-60656450D01*
X139253590Y-60816410D01*
X139413550Y-60947685D01*
X139596046Y-61045232D01*
X139794066Y-61105300D01*
X140000000Y-61125583D01*
X140205934Y-61105300D01*
X140403954Y-61045232D01*
X140586450Y-60947685D01*
X140746410Y-60816410D01*
X140800911Y-60750000D01*
X142319195Y-60750000D01*
X142340280Y-60883124D01*
X142340280Y-60883125D01*
X142340281Y-60883126D01*
X142401472Y-61003220D01*
X142496780Y-61098528D01*
X142616874Y-61159719D01*
X142750000Y-61180804D01*
X142883126Y-61159719D01*
X143003220Y-61098528D01*
X143098528Y-61003220D01*
X143100169Y-61000000D01*
X155069195Y-61000000D01*
X155090280Y-61133124D01*
X155090280Y-61133125D01*
X155090281Y-61133126D01*
X155151472Y-61253220D01*
X155246780Y-61348528D01*
X155366874Y-61409719D01*
X155500000Y-61430804D01*
X155633126Y-61409719D01*
X155753220Y-61348528D01*
X155848528Y-61253220D01*
X155909719Y-61133126D01*
X155930804Y-61000000D01*
X155909719Y-60866874D01*
X155848528Y-60746780D01*
X155753220Y-60651472D01*
X155633126Y-60590281D01*
X155633125Y-60590280D01*
X155633124Y-60590280D01*
X155500000Y-60569195D01*
X155366875Y-60590280D01*
X155246781Y-60651471D01*
X155151471Y-60746781D01*
X155090280Y-60866875D01*
X155069195Y-61000000D01*
X143100169Y-61000000D01*
X143159719Y-60883126D01*
X143180804Y-60750000D01*
X143159719Y-60616874D01*
X143098528Y-60496780D01*
X143003220Y-60401472D01*
X142883126Y-60340281D01*
X142883125Y-60340280D01*
X142883124Y-60340280D01*
X142750000Y-60319195D01*
X142616875Y-60340280D01*
X142496781Y-60401471D01*
X142401471Y-60496781D01*
X142340280Y-60616875D01*
X142319195Y-60750000D01*
X140800911Y-60750000D01*
X140877685Y-60656450D01*
X140975232Y-60473954D01*
X141035300Y-60275934D01*
X141055583Y-60070000D01*
X141035300Y-59864066D01*
X140975232Y-59666046D01*
X140877685Y-59483550D01*
X140746410Y-59323590D01*
X140656740Y-59250000D01*
X157069195Y-59250000D01*
X157090280Y-59383124D01*
X157090280Y-59383125D01*
X157090281Y-59383126D01*
X157151472Y-59503220D01*
X157246780Y-59598528D01*
X157366874Y-59659719D01*
X157500000Y-59680804D01*
X157633126Y-59659719D01*
X157753220Y-59598528D01*
X157848528Y-59503220D01*
X157909719Y-59383126D01*
X157930804Y-59250000D01*
X158894195Y-59250000D01*
X158915280Y-59383124D01*
X158915280Y-59383125D01*
X158915281Y-59383126D01*
X158976472Y-59503220D01*
X159071780Y-59598528D01*
X159191874Y-59659719D01*
X159325000Y-59680804D01*
X159458126Y-59659719D01*
X159578220Y-59598528D01*
X159673528Y-59503220D01*
X159734719Y-59383126D01*
X159755804Y-59250000D01*
X159734719Y-59116874D01*
X159673528Y-58996780D01*
X159578220Y-58901472D01*
X159458126Y-58840281D01*
X159458125Y-58840280D01*
X159458124Y-58840280D01*
X159325000Y-58819195D01*
X159191875Y-58840280D01*
X159071781Y-58901471D01*
X158976471Y-58996781D01*
X158915280Y-59116875D01*
X158894195Y-59250000D01*
X157930804Y-59250000D01*
X157909719Y-59116874D01*
X157848528Y-58996780D01*
X157753220Y-58901472D01*
X157633126Y-58840281D01*
X157633125Y-58840280D01*
X157633124Y-58840280D01*
X157500000Y-58819195D01*
X157366875Y-58840280D01*
X157246781Y-58901471D01*
X157151471Y-58996781D01*
X157090280Y-59116875D01*
X157069195Y-59250000D01*
X140656740Y-59250000D01*
X140586450Y-59192315D01*
X140403954Y-59094768D01*
X140403953Y-59094767D01*
X140403952Y-59094767D01*
X140205933Y-59034699D01*
X140000000Y-59014416D01*
X139794066Y-59034699D01*
X139596047Y-59094767D01*
X139413549Y-59192315D01*
X139253590Y-59323590D01*
X139122315Y-59483549D01*
X139024767Y-59666047D01*
X138964699Y-59864066D01*
X138944416Y-60070000D01*
X137700500Y-60070000D01*
X137700500Y-57529999D01*
X138944416Y-57529999D01*
X138964699Y-57735933D01*
X139024767Y-57933952D01*
X139024768Y-57933954D01*
X139122315Y-58116450D01*
X139253590Y-58276410D01*
X139413550Y-58407685D01*
X139596046Y-58505232D01*
X139794066Y-58565300D01*
X140000000Y-58585583D01*
X140205934Y-58565300D01*
X140403954Y-58505232D01*
X140586450Y-58407685D01*
X140746410Y-58276410D01*
X140877685Y-58116450D01*
X140975232Y-57933954D01*
X141031033Y-57749999D01*
X149569195Y-57749999D01*
X149590280Y-57883124D01*
X149590280Y-57883125D01*
X149590281Y-57883126D01*
X149651472Y-58003220D01*
X149746780Y-58098528D01*
X149866874Y-58159719D01*
X150000000Y-58180804D01*
X150133126Y-58159719D01*
X150253220Y-58098528D01*
X150348528Y-58003220D01*
X150409719Y-57883126D01*
X150430804Y-57750000D01*
X150409719Y-57616874D01*
X150348528Y-57496780D01*
X150253220Y-57401472D01*
X150133126Y-57340281D01*
X150133125Y-57340280D01*
X150133124Y-57340280D01*
X150000000Y-57319195D01*
X149866875Y-57340280D01*
X149746781Y-57401471D01*
X149651471Y-57496781D01*
X149590280Y-57616875D01*
X149569195Y-57749999D01*
X141031033Y-57749999D01*
X141035300Y-57735934D01*
X141055583Y-57530000D01*
X141035300Y-57324066D01*
X140975232Y-57126046D01*
X140877685Y-56943550D01*
X140746410Y-56783590D01*
X140586450Y-56652315D01*
X140403954Y-56554768D01*
X140403953Y-56554767D01*
X140403952Y-56554767D01*
X140386605Y-56549505D01*
X146854048Y-56549505D01*
X146881420Y-56560843D01*
X147025000Y-56579745D01*
X147168577Y-56560843D01*
X147195950Y-56549504D01*
X147025000Y-56378553D01*
X146854048Y-56549505D01*
X140386605Y-56549505D01*
X140205933Y-56494699D01*
X140000000Y-56474416D01*
X139794066Y-56494699D01*
X139596047Y-56554767D01*
X139413549Y-56652315D01*
X139253590Y-56783590D01*
X139122315Y-56943549D01*
X139024767Y-57126047D01*
X138964699Y-57324066D01*
X138944416Y-57529999D01*
X137700500Y-57529999D01*
X137700500Y-55240000D01*
X138978589Y-55240000D01*
X139025231Y-55393763D01*
X139122730Y-55576170D01*
X139253945Y-55736054D01*
X139413829Y-55867269D01*
X139596236Y-55964768D01*
X139749999Y-56011411D01*
X139750000Y-56011411D01*
X140250000Y-56011411D01*
X140403763Y-55964768D01*
X140586170Y-55867269D01*
X140624359Y-55835928D01*
X145024500Y-55835928D01*
X145039928Y-55958056D01*
X145100432Y-56110872D01*
X145197035Y-56243836D01*
X145323587Y-56348528D01*
X145323674Y-56348600D01*
X145472387Y-56418579D01*
X145633830Y-56449376D01*
X145797860Y-56439056D01*
X145954171Y-56388268D01*
X146092940Y-56300202D01*
X146205448Y-56180393D01*
X146284627Y-56036368D01*
X146284628Y-56036360D01*
X146290107Y-56026396D01*
X146334592Y-55984567D01*
X146395158Y-55976794D01*
X146448763Y-56006036D01*
X146475015Y-56061166D01*
X146489157Y-56168579D01*
X146500493Y-56195950D01*
X146671444Y-56024999D01*
X147319750Y-56024999D01*
X147338669Y-56168709D01*
X147373674Y-56253218D01*
X147394139Y-56302625D01*
X147429362Y-56348528D01*
X147482378Y-56417621D01*
X147510312Y-56439055D01*
X147597375Y-56505861D01*
X147692067Y-56545083D01*
X147731290Y-56561330D01*
X147748008Y-56563531D01*
X147875000Y-56580250D01*
X148018709Y-56561330D01*
X148152625Y-56505861D01*
X148239735Y-56439018D01*
X148278572Y-56420909D01*
X148321428Y-56420909D01*
X148360264Y-56439018D01*
X148447375Y-56505861D01*
X148447376Y-56505861D01*
X148447377Y-56505862D01*
X148581290Y-56561330D01*
X148598008Y-56563531D01*
X148725000Y-56580250D01*
X148868709Y-56561330D01*
X149002625Y-56505861D01*
X149089735Y-56439018D01*
X149128572Y-56420909D01*
X149171428Y-56420909D01*
X149210264Y-56439018D01*
X149297375Y-56505861D01*
X149297376Y-56505861D01*
X149297377Y-56505862D01*
X149431290Y-56561330D01*
X149448008Y-56563531D01*
X149575000Y-56580250D01*
X149718709Y-56561330D01*
X149852625Y-56505861D01*
X149939735Y-56439018D01*
X149978572Y-56420909D01*
X150021428Y-56420909D01*
X150060264Y-56439018D01*
X150147375Y-56505861D01*
X150147376Y-56505861D01*
X150147377Y-56505862D01*
X150281290Y-56561330D01*
X150298008Y-56563531D01*
X150425000Y-56580250D01*
X150568709Y-56561330D01*
X150702625Y-56505861D01*
X150789735Y-56439018D01*
X150828572Y-56420909D01*
X150871428Y-56420909D01*
X150910264Y-56439018D01*
X150997375Y-56505861D01*
X150997376Y-56505861D01*
X150997377Y-56505862D01*
X151131290Y-56561330D01*
X151148008Y-56563531D01*
X151275000Y-56580250D01*
X151418709Y-56561330D01*
X151552625Y-56505861D01*
X151639735Y-56439018D01*
X151678572Y-56420909D01*
X151721428Y-56420909D01*
X151760264Y-56439018D01*
X151847375Y-56505861D01*
X151847376Y-56505861D01*
X151847377Y-56505862D01*
X151981290Y-56561330D01*
X151998008Y-56563531D01*
X152125000Y-56580250D01*
X152268709Y-56561330D01*
X152297257Y-56549505D01*
X152804048Y-56549505D01*
X152831420Y-56560843D01*
X152975000Y-56579745D01*
X153118577Y-56560843D01*
X153145950Y-56549504D01*
X152975000Y-56378553D01*
X152804048Y-56549505D01*
X152297257Y-56549505D01*
X152402625Y-56505861D01*
X152517621Y-56417621D01*
X152605861Y-56302625D01*
X152661330Y-56168709D01*
X152680250Y-56025000D01*
X152680250Y-56024998D01*
X153328553Y-56024998D01*
X153499504Y-56195949D01*
X153510843Y-56168577D01*
X153526545Y-56049312D01*
X153546346Y-56001720D01*
X153587388Y-55970534D01*
X153638545Y-55964207D01*
X153685948Y-55984456D01*
X153716746Y-56025790D01*
X153750432Y-56110872D01*
X153847035Y-56243836D01*
X153973587Y-56348528D01*
X153973674Y-56348600D01*
X154122387Y-56418579D01*
X154283830Y-56449376D01*
X154447860Y-56439056D01*
X154604171Y-56388268D01*
X154742940Y-56300202D01*
X154855448Y-56180393D01*
X154934627Y-56036368D01*
X154943965Y-56000000D01*
X156319195Y-56000000D01*
X156340280Y-56133124D01*
X156340280Y-56133125D01*
X156340281Y-56133126D01*
X156401472Y-56253220D01*
X156496780Y-56348528D01*
X156616874Y-56409719D01*
X156750000Y-56430804D01*
X156883126Y-56409719D01*
X157003220Y-56348528D01*
X157098528Y-56253220D01*
X157159719Y-56133126D01*
X157180804Y-56000000D01*
X157159719Y-55866874D01*
X157098528Y-55746780D01*
X157003220Y-55651472D01*
X156883126Y-55590281D01*
X156883125Y-55590280D01*
X156883124Y-55590280D01*
X156750000Y-55569195D01*
X156616875Y-55590280D01*
X156496781Y-55651471D01*
X156401471Y-55746781D01*
X156340280Y-55866875D01*
X156319195Y-56000000D01*
X154943965Y-56000000D01*
X154975500Y-55877177D01*
X154975500Y-54254075D01*
X154974220Y-54243945D01*
X154963928Y-54162475D01*
X154960071Y-54131942D01*
X154899568Y-53979129D01*
X154899567Y-53979127D01*
X154802964Y-53846163D01*
X154676325Y-53741399D01*
X154527611Y-53671420D01*
X154366173Y-53640624D01*
X154366170Y-53640624D01*
X154243147Y-53648364D01*
X154202139Y-53650944D01*
X154045827Y-53701732D01*
X153907060Y-53789797D01*
X153794551Y-53909607D01*
X153715373Y-54053631D01*
X153674500Y-54212823D01*
X153674500Y-54428816D01*
X153659911Y-54480543D01*
X153620445Y-54517025D01*
X153567733Y-54527511D01*
X153517310Y-54508909D01*
X153516076Y-54507344D01*
X153499505Y-54504048D01*
X153328553Y-54674998D01*
X153499505Y-54845950D01*
X153516075Y-54842654D01*
X153517311Y-54841087D01*
X153567734Y-54822486D01*
X153620446Y-54832972D01*
X153659912Y-54869454D01*
X153674500Y-54921181D01*
X153674500Y-55778816D01*
X153659911Y-55830543D01*
X153620445Y-55867025D01*
X153567733Y-55877511D01*
X153517310Y-55858909D01*
X153516076Y-55857344D01*
X153499505Y-55854048D01*
X153328553Y-56024998D01*
X152680250Y-56024998D01*
X152661330Y-55881291D01*
X152659764Y-55877511D01*
X152640308Y-55830538D01*
X152605861Y-55747375D01*
X152532271Y-55651471D01*
X152517621Y-55632378D01*
X152444368Y-55576170D01*
X152402625Y-55544139D01*
X152363401Y-55527892D01*
X152297254Y-55500493D01*
X152804048Y-55500493D01*
X152975000Y-55671445D01*
X153145951Y-55500493D01*
X153118579Y-55489156D01*
X152975000Y-55470254D01*
X152831421Y-55489157D01*
X152804048Y-55500493D01*
X152297254Y-55500493D01*
X152268709Y-55488669D01*
X152141717Y-55471951D01*
X152125000Y-55469750D01*
X152124999Y-55469750D01*
X151981290Y-55488669D01*
X151847375Y-55544139D01*
X151760267Y-55610979D01*
X151721427Y-55629090D01*
X151678573Y-55629090D01*
X151639733Y-55610979D01*
X151594368Y-55576170D01*
X151552625Y-55544139D01*
X151513401Y-55527892D01*
X151418709Y-55488669D01*
X151291717Y-55471951D01*
X151275000Y-55469750D01*
X151274999Y-55469750D01*
X151131290Y-55488669D01*
X150997375Y-55544139D01*
X150910267Y-55610979D01*
X150871427Y-55629090D01*
X150828573Y-55629090D01*
X150789733Y-55610979D01*
X150744368Y-55576170D01*
X150702625Y-55544139D01*
X150663401Y-55527892D01*
X150568709Y-55488669D01*
X150441717Y-55471951D01*
X150425000Y-55469750D01*
X150424999Y-55469750D01*
X150281290Y-55488669D01*
X150147375Y-55544139D01*
X150060267Y-55610979D01*
X150021427Y-55629090D01*
X149978573Y-55629090D01*
X149939733Y-55610979D01*
X149894368Y-55576170D01*
X149852625Y-55544139D01*
X149813401Y-55527892D01*
X149718709Y-55488669D01*
X149591717Y-55471951D01*
X149575000Y-55469750D01*
X149574999Y-55469750D01*
X149431290Y-55488669D01*
X149297375Y-55544139D01*
X149210267Y-55610979D01*
X149171427Y-55629090D01*
X149128573Y-55629090D01*
X149089733Y-55610979D01*
X149044368Y-55576170D01*
X149002625Y-55544139D01*
X148963401Y-55527892D01*
X148868709Y-55488669D01*
X148741717Y-55471951D01*
X148725000Y-55469750D01*
X148724999Y-55469750D01*
X148581290Y-55488669D01*
X148447375Y-55544139D01*
X148360267Y-55610979D01*
X148321427Y-55629090D01*
X148278573Y-55629090D01*
X148239733Y-55610979D01*
X148194368Y-55576170D01*
X148152625Y-55544139D01*
X148113401Y-55527892D01*
X148018709Y-55488669D01*
X147891717Y-55471951D01*
X147875000Y-55469750D01*
X147874999Y-55469750D01*
X147731290Y-55488669D01*
X147597375Y-55544139D01*
X147482378Y-55632378D01*
X147394139Y-55747375D01*
X147338669Y-55881290D01*
X147319750Y-56024999D01*
X146671444Y-56024999D01*
X146671445Y-56024998D01*
X146500494Y-55854047D01*
X146483919Y-55857345D01*
X146482693Y-55858901D01*
X146432270Y-55877505D01*
X146379556Y-55867020D01*
X146340089Y-55830538D01*
X146325500Y-55778810D01*
X146325500Y-55500493D01*
X146854048Y-55500493D01*
X147025000Y-55671445D01*
X147195951Y-55500493D01*
X147168579Y-55489156D01*
X147025000Y-55470254D01*
X146881421Y-55489157D01*
X146854048Y-55500493D01*
X146325500Y-55500493D01*
X146325500Y-55199505D01*
X146854048Y-55199505D01*
X146881420Y-55210843D01*
X147025000Y-55229745D01*
X147168577Y-55210843D01*
X147195950Y-55199504D01*
X147025000Y-55028553D01*
X146854048Y-55199505D01*
X146325500Y-55199505D01*
X146325500Y-54921188D01*
X146340089Y-54869460D01*
X146379556Y-54832978D01*
X146432269Y-54822493D01*
X146482692Y-54841097D01*
X146483919Y-54842654D01*
X146500492Y-54845951D01*
X146671444Y-54674999D01*
X147319750Y-54674999D01*
X147338669Y-54818709D01*
X147359691Y-54869460D01*
X147394139Y-54952625D01*
X147432450Y-55002552D01*
X147482378Y-55067621D01*
X147532306Y-55105932D01*
X147597375Y-55155861D01*
X147692067Y-55195083D01*
X147731290Y-55211330D01*
X147748008Y-55213531D01*
X147875000Y-55230250D01*
X148018709Y-55211330D01*
X148152625Y-55155861D01*
X148239735Y-55089018D01*
X148278572Y-55070909D01*
X148321428Y-55070909D01*
X148360264Y-55089018D01*
X148447375Y-55155861D01*
X148447376Y-55155861D01*
X148447377Y-55155862D01*
X148581290Y-55211330D01*
X148598008Y-55213531D01*
X148725000Y-55230250D01*
X148868709Y-55211330D01*
X149002625Y-55155861D01*
X149089735Y-55089018D01*
X149128572Y-55070909D01*
X149171428Y-55070909D01*
X149210264Y-55089018D01*
X149297375Y-55155861D01*
X149297376Y-55155861D01*
X149297377Y-55155862D01*
X149431290Y-55211330D01*
X149448008Y-55213531D01*
X149575000Y-55230250D01*
X149718709Y-55211330D01*
X149852625Y-55155861D01*
X149939735Y-55089018D01*
X149978572Y-55070909D01*
X150021428Y-55070909D01*
X150060264Y-55089018D01*
X150147375Y-55155861D01*
X150147376Y-55155861D01*
X150147377Y-55155862D01*
X150281290Y-55211330D01*
X150298008Y-55213531D01*
X150425000Y-55230250D01*
X150568709Y-55211330D01*
X150702625Y-55155861D01*
X150789735Y-55089018D01*
X150828572Y-55070909D01*
X150871428Y-55070909D01*
X150910264Y-55089018D01*
X150997375Y-55155861D01*
X150997376Y-55155861D01*
X150997377Y-55155862D01*
X151131290Y-55211330D01*
X151148008Y-55213531D01*
X151275000Y-55230250D01*
X151418709Y-55211330D01*
X151552625Y-55155861D01*
X151639735Y-55089018D01*
X151678572Y-55070909D01*
X151721428Y-55070909D01*
X151760264Y-55089018D01*
X151847375Y-55155861D01*
X151847376Y-55155861D01*
X151847377Y-55155862D01*
X151981290Y-55211330D01*
X151998008Y-55213531D01*
X152125000Y-55230250D01*
X152268709Y-55211330D01*
X152297257Y-55199505D01*
X152804048Y-55199505D01*
X152831420Y-55210843D01*
X152975000Y-55229745D01*
X153118577Y-55210843D01*
X153145950Y-55199504D01*
X152975000Y-55028553D01*
X152804048Y-55199505D01*
X152297257Y-55199505D01*
X152402625Y-55155861D01*
X152517621Y-55067621D01*
X152605861Y-54952625D01*
X152661330Y-54818709D01*
X152680250Y-54675000D01*
X152661330Y-54531291D01*
X152659764Y-54527511D01*
X152640308Y-54480538D01*
X152605861Y-54397375D01*
X152547598Y-54321445D01*
X152517621Y-54282378D01*
X152426974Y-54212823D01*
X152402625Y-54194139D01*
X152363401Y-54177892D01*
X152297254Y-54150493D01*
X152804048Y-54150493D01*
X152975000Y-54321445D01*
X153145951Y-54150493D01*
X153118579Y-54139156D01*
X152975000Y-54120254D01*
X152831421Y-54139157D01*
X152804048Y-54150493D01*
X152297254Y-54150493D01*
X152268709Y-54138669D01*
X152125000Y-54119750D01*
X151981290Y-54138669D01*
X151847375Y-54194139D01*
X151760267Y-54260979D01*
X151721427Y-54279090D01*
X151678573Y-54279090D01*
X151639733Y-54260979D01*
X151576974Y-54212823D01*
X151552625Y-54194139D01*
X151513401Y-54177892D01*
X151418709Y-54138669D01*
X151275000Y-54119750D01*
X151131290Y-54138669D01*
X150997375Y-54194139D01*
X150910267Y-54260979D01*
X150871427Y-54279090D01*
X150828573Y-54279090D01*
X150789733Y-54260979D01*
X150726974Y-54212823D01*
X150702625Y-54194139D01*
X150663401Y-54177892D01*
X150568709Y-54138669D01*
X150425000Y-54119750D01*
X150281290Y-54138669D01*
X150147375Y-54194139D01*
X150060267Y-54260979D01*
X150021427Y-54279090D01*
X149978573Y-54279090D01*
X149939733Y-54260979D01*
X149876974Y-54212823D01*
X149852625Y-54194139D01*
X149813401Y-54177892D01*
X149718709Y-54138669D01*
X149575000Y-54119750D01*
X149431290Y-54138669D01*
X149297375Y-54194139D01*
X149210267Y-54260979D01*
X149171427Y-54279090D01*
X149128573Y-54279090D01*
X149089733Y-54260979D01*
X149026974Y-54212823D01*
X149002625Y-54194139D01*
X148963401Y-54177892D01*
X148868709Y-54138669D01*
X148725000Y-54119750D01*
X148581290Y-54138669D01*
X148447375Y-54194139D01*
X148360267Y-54260979D01*
X148321427Y-54279090D01*
X148278573Y-54279090D01*
X148239733Y-54260979D01*
X148176974Y-54212823D01*
X148152625Y-54194139D01*
X148113401Y-54177892D01*
X148018709Y-54138669D01*
X147875000Y-54119750D01*
X147731290Y-54138669D01*
X147597375Y-54194139D01*
X147482378Y-54282378D01*
X147394139Y-54397375D01*
X147338669Y-54531290D01*
X147319750Y-54674999D01*
X146671444Y-54674999D01*
X146671445Y-54674998D01*
X146500494Y-54504047D01*
X146483919Y-54507345D01*
X146482693Y-54508901D01*
X146432270Y-54527505D01*
X146379556Y-54517020D01*
X146340089Y-54480538D01*
X146325500Y-54428810D01*
X146325500Y-54254072D01*
X146313928Y-54162475D01*
X146312414Y-54150493D01*
X146854048Y-54150493D01*
X147025000Y-54321445D01*
X147195951Y-54150493D01*
X147168579Y-54139156D01*
X147025000Y-54120254D01*
X146881421Y-54139157D01*
X146854048Y-54150493D01*
X146312414Y-54150493D01*
X146310071Y-54131942D01*
X146249568Y-53979129D01*
X146249567Y-53979127D01*
X146152964Y-53846163D01*
X146026325Y-53741399D01*
X145877611Y-53671420D01*
X145716173Y-53640624D01*
X145716170Y-53640624D01*
X145593147Y-53648364D01*
X145552139Y-53650944D01*
X145395827Y-53701732D01*
X145257060Y-53789797D01*
X145144551Y-53909607D01*
X145065373Y-54053631D01*
X145024500Y-54212823D01*
X145024500Y-55835928D01*
X140624359Y-55835928D01*
X140746054Y-55736054D01*
X140877269Y-55576170D01*
X140974768Y-55393763D01*
X141021411Y-55240000D01*
X140250001Y-55240000D01*
X140250000Y-55240001D01*
X140250000Y-56011411D01*
X139750000Y-56011411D01*
X139750000Y-55240001D01*
X139749999Y-55240000D01*
X138978589Y-55240000D01*
X137700500Y-55240000D01*
X137700500Y-54739999D01*
X138978588Y-54739999D01*
X138978589Y-54740000D01*
X139749999Y-54740000D01*
X139750000Y-54739999D01*
X139750000Y-53968589D01*
X139749999Y-53968588D01*
X140250000Y-53968588D01*
X140250000Y-54739999D01*
X140250001Y-54740000D01*
X141021411Y-54740000D01*
X141021411Y-54739999D01*
X140974768Y-54586236D01*
X140877269Y-54403829D01*
X140746054Y-54243945D01*
X140586170Y-54112730D01*
X140403763Y-54015231D01*
X140250000Y-53968588D01*
X139749999Y-53968588D01*
X139596236Y-54015231D01*
X139413829Y-54112730D01*
X139253945Y-54243945D01*
X139122730Y-54403829D01*
X139025231Y-54586236D01*
X138978588Y-54739999D01*
X137700500Y-54739999D01*
X137700500Y-53319747D01*
X138949500Y-53319747D01*
X138961133Y-53378231D01*
X139005447Y-53444552D01*
X139049762Y-53474162D01*
X139071769Y-53488867D01*
X139130252Y-53500500D01*
X140869747Y-53500500D01*
X140869748Y-53500500D01*
X140928231Y-53488867D01*
X140994552Y-53444552D01*
X141038867Y-53378231D01*
X141050500Y-53319748D01*
X141050500Y-52105928D01*
X145024500Y-52105928D01*
X145039928Y-52228056D01*
X145100432Y-52380872D01*
X145197035Y-52513836D01*
X145323673Y-52618599D01*
X145323674Y-52618600D01*
X145472387Y-52688579D01*
X145633830Y-52719376D01*
X145797860Y-52709056D01*
X145954171Y-52658268D01*
X146092940Y-52570202D01*
X146205448Y-52450393D01*
X146284627Y-52306368D01*
X146325500Y-52147177D01*
X146325500Y-52105928D01*
X153674500Y-52105928D01*
X153689928Y-52228056D01*
X153750432Y-52380872D01*
X153847035Y-52513836D01*
X153973673Y-52618599D01*
X153973674Y-52618600D01*
X154122387Y-52688579D01*
X154283830Y-52719376D01*
X154447860Y-52709056D01*
X154604171Y-52658268D01*
X154742940Y-52570202D01*
X154855448Y-52450393D01*
X154934627Y-52306368D01*
X154975500Y-52147177D01*
X154975500Y-51224075D01*
X154960071Y-51101942D01*
X154899568Y-50949129D01*
X154899567Y-50949127D01*
X154802964Y-50816163D01*
X154676325Y-50711399D01*
X154527611Y-50641420D01*
X154366173Y-50610624D01*
X154366170Y-50610624D01*
X154243147Y-50618364D01*
X154202139Y-50620944D01*
X154045827Y-50671732D01*
X153907060Y-50759797D01*
X153794551Y-50879607D01*
X153715373Y-51023631D01*
X153674500Y-51182823D01*
X153674500Y-52105928D01*
X146325500Y-52105928D01*
X146325500Y-51224075D01*
X146310071Y-51101942D01*
X146249568Y-50949129D01*
X146249567Y-50949127D01*
X146152964Y-50816163D01*
X146026325Y-50711399D01*
X145877611Y-50641420D01*
X145716173Y-50610624D01*
X145716170Y-50610624D01*
X145593147Y-50618364D01*
X145552139Y-50620944D01*
X145395827Y-50671732D01*
X145257060Y-50759797D01*
X145144551Y-50879607D01*
X145065373Y-51023631D01*
X145024500Y-51182823D01*
X145024500Y-52105928D01*
X141050500Y-52105928D01*
X141050500Y-51580252D01*
X141038867Y-51521769D01*
X141024162Y-51499762D01*
X140994552Y-51455447D01*
X140928231Y-51411133D01*
X140928230Y-51411132D01*
X140869748Y-51399500D01*
X139130252Y-51399500D01*
X139101010Y-51405316D01*
X139071768Y-51411133D01*
X139005447Y-51455447D01*
X138961133Y-51521768D01*
X138949500Y-51580253D01*
X138949500Y-53319747D01*
X137700500Y-53319747D01*
X137700500Y-50299500D01*
X137713763Y-50250000D01*
X137750000Y-50213763D01*
X137799500Y-50200500D01*
X143371345Y-50200500D01*
X143421740Y-50214287D01*
G37*
%TD.AperFunction*%
M02*
